<svg width="40" height="40" viewBox="0 0 40 40" fill="none" xmlns="http://www.w3.org/2000/svg">
<path d="M16.8906 29.6641C17.5043 30.0732 18.2934 30.1114 18.9437 29.7634C19.594 29.4153 20 28.7376 20 28L20 22.4037L30.8906 29.6641C31.5043 30.0732 32.2934 30.1114 32.9437 29.7634C33.594 29.4153 34 28.7376 34 28V12C34 11.2624 33.594 10.5847 32.9437 10.2367C32.2934 9.88862 31.5043 9.92676 30.8906 10.3359L20 17.5963V12C20 11.2624 19.594 10.5847 18.9437 10.2367C18.2934 9.88862 17.5043 9.92676 16.8906 10.3359L4.8906 18.3359C4.3342 18.7068 4 19.3313 4 20C4 20.6687 4.3342 21.2932 4.8906 21.6641L16.8906 29.6641Z" fill="#ED7D31"/>
</svg>
