<svg width="40" height="40" viewBox="0 0 40 40" fill="none" xmlns="http://www.w3.org/2000/svg">
<g id="Icon/Solid/application-config">
<path id="Exclude" fill-rule="evenodd" clip-rule="evenodd" d="M23.1032 5.77149C22.3136 2.51888 17.6877 2.51888 16.8981 5.77149C16.388 7.87264 13.9808 8.86976 12.1343 7.74472C9.27603 6.00312 6.00508 9.27408 7.74667 12.1324C8.87172 13.9788 7.87459 16.3861 5.77345 16.8962C2.52083 17.6858 2.52083 22.3116 5.77345 23.1012C7.87459 23.6113 8.87172 26.0186 7.74667 27.865C6.00508 30.7233 9.27603 33.9943 12.1343 32.2527C13.9808 31.1276 16.388 32.1248 16.8981 34.2259C17.6877 37.4785 22.3136 37.4785 23.1032 34.2259C23.6133 32.1248 26.0206 31.1276 27.867 32.2527C30.7253 33.9943 33.9962 30.7233 32.2546 27.865C31.1296 26.0186 32.1267 23.6113 34.2279 23.1012C37.4805 22.3116 37.4805 17.6858 34.2279 16.8962C32.1267 16.3861 31.1296 13.9788 32.2546 12.1324C33.9962 9.27408 30.7253 6.00312 27.867 7.74472C26.0206 8.86976 23.6133 7.87264 23.1032 5.77149ZM13.7507 11.6654C12.6001 11.6654 11.6673 12.5981 11.6673 13.7487V15.832C11.6673 16.9826 12.6001 17.9154 13.7507 17.9154H15.834C16.9846 17.9154 17.9173 16.9826 17.9173 15.832V13.7487C17.9173 12.5981 16.9846 11.6654 15.834 11.6654H13.7507ZM24.1673 11.6654C23.0167 11.6654 22.084 12.5981 22.084 13.7487V15.832C22.084 16.9826 23.0167 17.9154 24.1673 17.9154H26.2507C27.4012 17.9154 28.334 16.9826 28.334 15.832V13.7487C28.334 12.5981 27.4012 11.6654 26.2507 11.6654H24.1673ZM11.6673 24.1654C11.6673 23.0148 12.6001 22.082 13.7507 22.082H15.834C16.9846 22.082 17.9173 23.0148 17.9173 24.1654V26.2487C17.9173 27.3993 16.9846 28.332 15.834 28.332H13.7507C12.6001 28.332 11.6673 27.3993 11.6673 26.2487V24.1654ZM24.1673 22.082C23.0167 22.082 22.084 23.0148 22.084 24.1654V26.2487C22.084 27.3993 23.0167 28.332 24.1673 28.332H26.2507C27.4012 28.332 28.334 27.3993 28.334 26.2487V24.1654C28.334 23.0148 27.4012 22.082 26.2507 22.082H24.1673Z" fill="#ED7D31"/>
</g>
</svg>
