<svg width="40" height="40" viewBox="0 0 40 40" fill="none" xmlns="http://www.w3.org/2000/svg">
<g id="Icon/Outline/application-config">
<g id="Vector">
<path d="M16.8981 5.77149C17.6877 2.51888 22.3136 2.51888 23.1032 5.77149C23.6133 7.87264 26.0206 8.86976 27.867 7.74472C30.7253 6.00312 33.9962 9.27408 32.2546 12.1324C31.1296 13.9788 32.1267 16.3861 34.2279 16.8962C37.4805 17.6858 37.4805 22.3116 34.2279 23.1012C32.1267 23.6113 31.1296 26.0186 32.2546 27.865C33.9962 30.7233 30.7253 33.9943 27.867 32.2527C26.0206 31.1276 23.6133 32.1248 23.1032 34.2259C22.3136 37.4785 17.6877 37.4785 16.8981 34.2259C16.388 32.1248 13.9808 31.1276 12.1343 32.2527C9.27603 33.9943 6.00508 30.7233 7.74667 27.865C8.87172 26.0186 7.87459 23.6113 5.77345 23.1012C2.52083 22.3116 2.52083 17.6858 5.77345 16.8962C7.87459 16.3861 8.87172 13.9788 7.74667 12.1324C6.00508 9.27408 9.27603 6.00312 12.1343 7.74472C13.9808 8.86976 16.388 7.87264 16.8981 5.77149Z" stroke="white" stroke-linecap="round" stroke-linejoin="round"/>
<path d="M11.6673 13.7487C11.6673 12.5981 12.6001 11.6654 13.7507 11.6654H15.834C16.9846 11.6654 17.9173 12.5981 17.9173 13.7487V15.832C17.9173 16.9826 16.9846 17.9154 15.834 17.9154H13.7507C12.6001 17.9154 11.6673 16.9826 11.6673 15.832V13.7487Z" stroke="white" stroke-linecap="round" stroke-linejoin="round"/>
<path d="M22.084 13.7487C22.084 12.5981 23.0167 11.6654 24.1673 11.6654H26.2507C27.4012 11.6654 28.334 12.5981 28.334 13.7487V15.832C28.334 16.9826 27.4012 17.9154 26.2507 17.9154H24.1673C23.0167 17.9154 22.084 16.9826 22.084 15.832V13.7487Z" stroke="white" stroke-linecap="round" stroke-linejoin="round"/>
<path d="M11.6673 24.1654C11.6673 23.0148 12.6001 22.082 13.7507 22.082H15.834C16.9846 22.082 17.9173 23.0148 17.9173 24.1654V26.2487C17.9173 27.3993 16.9846 28.332 15.834 28.332H13.7507C12.6001 28.332 11.6673 27.3993 11.6673 26.2487V24.1654Z" stroke="white" stroke-linecap="round" stroke-linejoin="round"/>
<path d="M22.084 24.1654C22.084 23.0148 23.0167 22.082 24.1673 22.082H26.2507C27.4012 22.082 28.334 23.0148 28.334 24.1654V26.2487C28.334 27.3993 27.4012 28.332 26.2507 28.332H24.1673C23.0167 28.332 22.084 27.3993 22.084 26.2487V24.1654Z" stroke="white" stroke-linecap="round" stroke-linejoin="round"/>
</g>
</g>
</svg>
