<svg width="25" height="24" viewBox="0 0 25 24" fill="none" xmlns="http://www.w3.org/2000/svg">
<g id="Icon/Outline/apps">
<g id="Icon">
<path d="M4.17969 6C4.17969 4.89543 5.07512 4 6.17969 4H8.17969C9.28426 4 10.1797 4.89543 10.1797 6V8C10.1797 9.10457 9.28426 10 8.17969 10H6.17969C5.07512 10 4.17969 9.10457 4.17969 8V6Z" stroke="#9D7DE2" stroke-width="2" stroke-linecap="round" stroke-linejoin="round"/>
<path d="M14.1797 6C14.1797 4.89543 15.0751 4 16.1797 4H18.1797C19.2843 4 20.1797 4.89543 20.1797 6V8C20.1797 9.10457 19.2843 10 18.1797 10H16.1797C15.0751 10 14.1797 9.10457 14.1797 8V6Z" stroke="#9D7DE2" stroke-width="2" stroke-linecap="round" stroke-linejoin="round"/>
<path d="M4.17969 16C4.17969 14.8954 5.07512 14 6.17969 14H8.17969C9.28426 14 10.1797 14.8954 10.1797 16V18C10.1797 19.1046 9.28426 20 8.17969 20H6.17969C5.07512 20 4.17969 19.1046 4.17969 18V16Z" stroke="#9D7DE2" stroke-width="2" stroke-linecap="round" stroke-linejoin="round"/>
<path d="M14.1797 16C14.1797 14.8954 15.0751 14 16.1797 14H18.1797C19.2843 14 20.1797 14.8954 20.1797 16V18C20.1797 19.1046 19.2843 20 18.1797 20H16.1797C15.0751 20 14.1797 19.1046 14.1797 18V16Z" stroke="#9D7DE2" stroke-width="2" stroke-linecap="round" stroke-linejoin="round"/>
</g>
</g>
</svg>
