<svg width="209" height="203" viewBox="0 0 209 203" fill="none" xmlns="http://www.w3.org/2000/svg">
<path d="M131.652 129.396L8.65234 6.39588" stroke="#82CB15" stroke-width="2"/>
<path d="M202.39 195.459C202.402 196.012 201.964 196.468 201.411 196.48L192.413 196.667C191.861 196.678 191.404 196.24 191.393 195.688C191.381 195.135 191.82 194.679 192.372 194.667L200.37 194.501L200.204 186.503C200.193 185.951 200.631 185.494 201.183 185.482C201.735 185.471 202.192 185.909 202.204 186.461L202.39 195.459ZM200.698 196.202L142.241 140.122L143.626 138.679L202.083 194.758L200.698 196.202Z" fill="#82CB15"/>
<path fill-rule="evenodd" clip-rule="evenodd" d="M137.153 142.097C141.571 142.151 145.197 138.613 145.251 134.195C145.305 129.777 141.767 126.152 137.349 126.098C132.931 126.044 129.306 129.581 129.252 133.999C129.198 138.417 132.735 142.043 137.153 142.097ZM140.974 132.85C141.369 132.464 141.377 131.831 140.991 131.436C140.605 131.04 139.972 131.033 139.577 131.418L136.244 134.671L134.967 133.362C134.581 132.967 133.948 132.959 133.553 133.345C133.158 133.731 133.15 134.364 133.536 134.759L135.511 136.783C135.897 137.179 136.53 137.186 136.925 136.801L140.974 132.85Z" fill="#82CB15"/>
</svg>
