<svg width="208" height="203" viewBox="0 0 208 203" fill="none" xmlns="http://www.w3.org/2000/svg">
<path d="M76.6953 129.396L199.695 6.39588" stroke="#82CB15" stroke-width="2"/>
<path d="M5.95725 195.459C5.94579 196.012 6.38412 196.468 6.93628 196.48L15.9343 196.667C16.4865 196.678 16.9434 196.24 16.9549 195.688C16.9663 195.135 16.528 194.679 15.9758 194.667L7.97757 194.501L8.14356 186.503C8.15502 185.951 7.7167 185.494 7.16453 185.482C6.61236 185.471 6.15545 185.909 6.14399 186.461L5.95725 195.459ZM7.64931 196.202L66.1063 140.122L64.7218 138.679L6.26475 194.758L7.64931 196.202Z" fill="#82CB15"/>
<path fill-rule="evenodd" clip-rule="evenodd" d="M70.9991 142.097C75.417 142.151 79.0423 138.613 79.0963 134.195C79.1503 129.777 75.6127 126.152 71.1947 126.098C66.7768 126.044 63.1515 129.581 63.0975 133.999C63.0435 138.417 66.5811 142.043 70.9991 142.097ZM74.8195 132.85C75.2148 132.464 75.2225 131.831 74.8368 131.436C74.4511 131.04 73.818 131.033 73.4227 131.418L70.0898 134.671L68.8128 133.362C68.4271 132.967 67.794 132.959 67.3987 133.345C67.0034 133.731 66.9957 134.364 67.3814 134.759L69.3568 136.783C69.7425 137.179 70.3757 137.186 70.7709 136.801L74.8195 132.85Z" fill="#82CB15"/>
</svg>
