<svg width="206" height="206" viewBox="0 0 206 206" fill="none" xmlns="http://www.w3.org/2000/svg">
<path d="M75.75 75.1588L197.237 199.653" stroke="#82CB15" stroke-width="2"/>
<path d="M5.82621 8.23533C5.8215 7.68307 6.26538 7.23155 6.81765 7.22684L15.8173 7.15013C16.3696 7.14542 16.8211 7.5893 16.8258 8.14157C16.8305 8.69383 16.3866 9.14535 15.8344 9.15005L7.83466 9.21825L7.90285 17.218C7.90756 17.7702 7.46368 18.2217 6.91141 18.2264C6.35915 18.2312 5.90763 17.7873 5.90293 17.235L5.82621 8.23533ZM7.52723 7.5137L65.2942 64.3041L63.8921 65.7304L6.12512 8.93992L7.52723 7.5137Z" fill="#82CB15"/>
<path fill-rule="evenodd" clip-rule="evenodd" d="M70.209 78.3884C74.6273 78.3884 78.209 74.8067 78.209 70.3884C78.209 65.9701 74.6273 62.3884 70.209 62.3884C65.7907 62.3884 62.209 65.9701 62.209 70.3884C62.209 74.8067 65.7907 78.3884 70.209 78.3884ZM73.9161 69.0955C74.3066 68.705 74.3066 68.0718 73.9161 67.6813C73.5256 67.2908 72.8924 67.2908 72.5019 67.6813L69.209 70.9742L67.9161 69.6813C67.5256 69.2908 66.8924 69.2908 66.5019 69.6813C66.1114 70.0718 66.1114 70.705 66.5019 71.0955L68.5019 73.0955C68.8924 73.4861 69.5256 73.4861 69.9161 73.0955L73.9161 69.0955Z" fill="#82CB15"/>
</svg>
