<svg width="26" height="26" viewBox="0 0 26 26" fill="none" xmlns="http://www.w3.org/2000/svg">
<path d="M5.2143 21.3868C7.2604 23.3175 10.0132 24.5 13.0408 24.5C19.3583 24.5 24.4796 19.3513 24.4796 13C24.4796 6.64873 19.3583 1.5 13.0408 1.5C9.75093 1.5 6.78543 2.89629 4.69866 5.13158C3.72226 6.17746 2.93825 7.40701 2.40339 8.76316M2.40339 8.76316L7.62244 6.34211M2.40339 8.76316L1 3.92105" stroke="#9D7DE2" stroke-width="2" stroke-miterlimit="2.32452" stroke-linecap="round"/>
<path d="M10.2924 18.111H7.82812L11.029 8.81812H14.0816L17.2824 18.111H14.8181L12.59 11.1595H12.5159L10.2924 18.111ZM9.96356 14.4538H15.1145V16.1599H9.96356V14.4538Z" fill="#9D7DE2"/>
</svg>
