<svg width="24" height="23" viewBox="0 0 24 23" fill="none" xmlns="http://www.w3.org/2000/svg">
<g clip-path="url(#clip0_13447_118253)">
<path d="M6.08268 7.66667C10.3952 4.79167 13.2702 4.79167 17.5827 7.66667M1.66817 6.12701C7.28196 0.513221 16.3837 0.513221 21.9975 6.12701M17.583 16.2917C13.2705 19.1667 10.3955 19.1667 6.08297 16.2917M21.9975 17.8313C16.3837 23.4451 7.28195 23.4451 1.66817 17.8313M19.9785 9.10417L22.3743 11.5M22.3743 11.5L19.9785 13.8958M22.3743 11.5L5.12435 11.5M3.68685 13.8958L1.29102 11.5M1.29102 11.5L3.68685 9.10417M1.29102 11.5L18.541 11.5" stroke="#9D7DE2" stroke-width="2" stroke-linecap="round" stroke-linejoin="round"/>
</g>
<defs>
<clipPath id="clip0_13447_118253">
<rect width="23" height="23" fill="white" transform="translate(0.332031)"/>
</clipPath>
</defs>
</svg>
