<svg width="24" height="24" viewBox="0 0 24 24" fill="none" xmlns="http://www.w3.org/2000/svg">
<g id="Icon/Outline/banknotes">
<path id="Vector" d="M2.20312 18.4688C7.55176 18.4688 12.7333 19.1695 17.6573 20.4824C18.3686 20.6721 19.0791 20.1541 19.0791 19.432V18.4688M3.6706 4.8125V5.53125C3.6706 5.9282 3.34209 6.25 2.93686 6.25H2.20312M2.20312 6.25V5.89063C2.20312 5.29519 2.69588 4.8125 3.30373 4.8125H19.8128M2.20312 6.25V14.875M19.8128 4.8125V5.53125C19.8128 5.9282 20.1413 6.25 20.5465 6.25H21.2803M19.8128 4.8125H20.1797C20.7875 4.8125 21.2803 5.29519 21.2803 5.89063V15.2344C21.2803 15.8298 20.7875 16.3125 20.1797 16.3125H19.8128M21.2803 14.875H20.5465C20.1413 14.875 19.8128 15.1968 19.8128 15.5938V16.3125M19.8128 16.3125H3.6706M3.6706 16.3125H3.30373C2.69588 16.3125 2.20312 15.8298 2.20312 15.2344V14.875M3.6706 16.3125V15.5938C3.6706 15.1968 3.34209 14.875 2.93686 14.875H2.20312M14.6766 10.5625C14.6766 12.1503 13.3626 13.4375 11.7417 13.4375C10.1208 13.4375 8.80675 12.1503 8.80675 10.5625C8.80675 8.97468 10.1208 7.6875 11.7417 7.6875C13.3626 7.6875 14.6766 8.97468 14.6766 10.5625ZM17.6116 10.5625H17.6189V10.5697H17.6116V10.5625ZM5.87181 10.5625H5.87914V10.5697H5.87181V10.5625Z" stroke="#9D7DE2" stroke-width="1.5" stroke-linecap="round" stroke-linejoin="round"/>
</g>
</svg>
