<svg width="23" height="22" viewBox="0 0 23 22" fill="none" xmlns="http://www.w3.org/2000/svg">
<path id="Vector" d="M5.46911 1.07393C5.46911 0.797788 5.24525 0.57393 4.96911 0.57393C4.69297 0.57393 4.46911 0.797788 4.46911 1.07393H5.46911ZM4.46911 21.1183C4.46911 21.3945 4.69297 21.6183 4.96911 21.6183C5.24525 21.6183 5.46911 21.3945 5.46911 21.1183H4.46911ZM9.78013 0.882812C9.78013 0.60667 9.55627 0.382812 9.28013 0.382812C9.00398 0.382812 8.78013 0.60667 8.78013 0.882812H9.78013ZM8.78013 3.14564C8.78013 3.42179 9.00398 3.64564 9.28013 3.64564C9.55627 3.64564 9.78013 3.42179 9.78013 3.14564H8.78013ZM13.9607 0.882812C13.9607 0.60667 13.7369 0.382812 13.4607 0.382812C13.1846 0.382812 12.9607 0.60667 12.9607 0.882812H13.9607ZM12.9607 3.14564C12.9607 3.42179 13.1846 3.64564 13.4607 3.64564C13.7369 3.64564 13.9607 3.42179 13.9607 3.14564H12.9607ZM18.1414 0.882812C18.1414 0.60667 17.9175 0.382812 17.6414 0.382812C17.3652 0.382812 17.1414 0.60667 17.1414 0.882812H18.1414ZM17.1414 3.14564C17.1414 3.42179 17.3652 3.64564 17.6414 3.64564C17.9175 3.64564 18.1414 3.42179 18.1414 3.14564H17.1414ZM14.5174 10.7702C14.6118 11.0297 14.8987 11.1635 15.1582 11.0691C15.4177 10.9747 15.5515 10.6878 15.4571 10.4283L14.5174 10.7702ZM13.3073 10.2017L13.5983 10.6083L13.5994 10.6075L13.3073 10.2017ZM12.9468 11.2567L13.4238 11.1065L13.4219 11.101L12.9468 11.2567ZM14.9642 12.6709L15.4467 12.5398L15.4461 12.5374L14.9642 12.6709ZM14.6344 13.7336L14.3369 13.3317L14.3357 13.3326L14.6344 13.7336ZM13.4621 13.1984C13.4621 12.9223 13.2383 12.6984 12.9621 12.6984C12.686 12.6984 12.4621 12.9223 12.4621 13.1984H13.4621ZM14.3826 14.047C14.3826 13.7708 14.1588 13.547 13.8826 13.547C13.6065 13.547 13.3826 13.7708 13.3826 14.047H14.3826ZM13.3826 14.5974C13.3826 14.8736 13.6065 15.0974 13.8826 15.0974C14.1588 15.0974 14.3826 14.8736 14.3826 14.5974H13.3826ZM14.3826 9.35314C14.3826 9.077 14.1588 8.85314 13.8826 8.85314C13.6065 8.85314 13.3826 9.077 13.3826 9.35314H14.3826ZM13.3826 9.91121C13.3826 10.1874 13.6065 10.4112 13.8826 10.4112C14.1588 10.4112 14.3826 10.1874 14.3826 9.91121H13.3826ZM3.40426 3.64564H19.3443V2.64564H3.40426V3.64564ZM19.3443 3.64564C20.5313 3.64564 21.4907 4.60421 21.4907 5.78307H22.4907C22.4907 4.04871 21.0804 2.64564 19.3443 2.64564V3.64564ZM21.4907 5.78307V18.4809H22.4907V5.78307H21.4907ZM21.4907 18.4809C21.4907 19.6598 20.5313 20.6183 19.3443 20.6183V21.6183C21.0804 21.6183 22.4907 20.2153 22.4907 18.4809H21.4907ZM19.3443 20.6183H3.40426V21.6183H19.3443V20.6183ZM3.40426 20.6183C2.2172 20.6183 1.25781 19.6598 1.25781 18.4809H0.257812C0.257812 20.2153 1.66813 21.6183 3.40426 21.6183V20.6183ZM1.25781 18.4809V5.78307H0.257812V18.4809H1.25781ZM1.25781 5.78307C1.25781 4.60421 2.2172 3.64564 3.40426 3.64564V2.64564C1.66813 2.64564 0.257812 4.04871 0.257812 5.78307H1.25781ZM4.46911 1.07393V21.1183H5.46911V1.07393H4.46911ZM8.78013 0.882812V3.14564H9.78013V0.882812H8.78013ZM12.9607 0.882812V3.14564H13.9607V0.882812H12.9607ZM17.1414 0.882812V3.14564H18.1414V0.882812H17.1414ZM0.757812 7.34568H4.96911V6.34568H0.757812V7.34568ZM0.757812 10.7782H4.96911V9.77815H0.757812V10.7782ZM0.757812 14.2106H4.96911V13.2106H0.757812V14.2106ZM0.757812 17.6431H4.96911V16.6431H0.757812V17.6431ZM17.8547 12.0747C17.8547 14.2921 16.0505 16.0927 13.8213 16.0927V17.0927C16.5996 17.0927 18.8547 14.8476 18.8547 12.0747H17.8547ZM13.8213 16.0927C11.592 16.0927 9.7878 14.2921 9.7878 12.0747H8.7878C8.7878 14.8476 11.043 17.0927 13.8213 17.0927V16.0927ZM9.7878 12.0747C9.7878 9.85718 11.592 8.05664 13.8213 8.05664V7.05664C11.043 7.05664 8.7878 9.30167 8.7878 12.0747H9.7878ZM13.8213 8.05664C16.0505 8.05664 17.8547 9.85718 17.8547 12.0747H18.8547C18.8547 9.30167 16.5996 7.05664 13.8213 7.05664V8.05664ZM15.4571 10.4283C15.2464 9.84912 14.7274 9.5991 14.2807 9.53315C13.8482 9.46929 13.3519 9.55357 13.0152 9.79589L13.5994 10.6075C13.677 10.5517 13.8941 10.4869 14.1347 10.5224C14.3611 10.5559 14.475 10.6537 14.5174 10.7702L15.4571 10.4283ZM13.0164 9.79507C12.7718 9.97008 12.595 10.2297 12.4981 10.5005C12.4009 10.7721 12.3688 11.0983 12.4716 11.4124L13.4219 11.101C13.4021 11.0404 13.4007 10.9462 13.4396 10.8375C13.4788 10.728 13.5437 10.6474 13.5983 10.6083L13.0164 9.79507ZM12.4699 11.4068C12.5858 11.7752 12.8513 11.9846 13.1023 12.1099C13.3322 12.2247 13.6099 12.2962 13.8009 12.352C14.2583 12.4857 14.4216 12.5851 14.4824 12.8044L15.4461 12.5374C15.223 11.7324 14.5003 11.5146 14.0814 11.3921C13.8342 11.3199 13.676 11.2786 13.549 11.2152C13.4431 11.1623 13.4305 11.128 13.4237 11.1065L12.4699 11.4068ZM14.4817 12.8021C14.5009 12.8728 14.5002 12.989 14.4605 13.1152C14.4193 13.2458 14.36 13.3146 14.3369 13.3317L14.9319 14.1354C15.1773 13.9537 15.3327 13.6747 15.4143 13.4155C15.4973 13.1517 15.5272 12.836 15.4467 12.5398L14.4817 12.8021ZM14.3357 13.3326C14.0877 13.5173 13.8591 13.5078 13.6987 13.4392C13.5044 13.3561 13.4621 13.224 13.4621 13.1984H12.4621C12.4621 13.7385 12.8609 14.1684 13.3052 14.3585C13.7835 14.5632 14.391 14.5384 14.9331 14.1345L14.3357 13.3326ZM13.3826 14.047V14.5974H14.3826V14.047H13.3826ZM13.3826 9.35314V9.91121H14.3826V9.35314H13.3826Z" fill="#9D7DE2"/>
</svg>
