<svg width="24" height="24" viewBox="0 0 24 24" fill="none" xmlns="http://www.w3.org/2000/svg">
<g id="Icon/Outline/bell">
<path id="Icon" d="M14.6755 16.7917H19.5671L18.1926 15.4453C17.8199 15.0801 17.6105 14.5849 17.6105 14.0685V11.0417C17.6105 8.53808 15.9771 6.40821 13.6972 5.61886V5.29167C13.6972 4.23312 12.8212 3.375 11.7406 3.375C10.66 3.375 9.78395 4.23312 9.78395 5.29167V5.61886C7.5041 6.40821 5.87069 8.53808 5.87069 11.0417V14.0685C5.87069 14.5849 5.66128 15.0801 5.28853 15.4453L3.91406 16.7917H8.80564M14.6755 16.7917V17.75C14.6755 19.3378 13.3615 20.625 11.7406 20.625C10.1197 20.625 8.80564 19.3378 8.80564 17.75V16.7917M14.6755 16.7917H8.80564" stroke="#9D7DE2" stroke-width="2" stroke-linecap="round" stroke-linejoin="round"/>
</g>
</svg>
