<svg width="40" height="39" viewBox="0 0 40 39" fill="none" xmlns="http://www.w3.org/2000/svg">
<g id="Icon/Outline/billing-cycle">
<path id="Vector" d="M32.0173 3.03358C31.8978 2.49439 31.3638 2.15418 30.8246 2.2737C30.2854 2.39322 29.9452 2.92722 30.0647 3.46642L32.0173 3.03358ZM32.6608 10.5573L32.7857 11.5494C33.0649 11.5143 33.3163 11.3632 33.4783 11.1332C33.6404 10.9032 33.698 10.6155 33.6371 10.3408L32.6608 10.5573ZM26.0411 10.3828C25.4931 10.4518 25.1048 10.9519 25.1738 11.4999C25.2428 12.0478 25.7429 12.4361 26.2909 12.3671L26.0411 10.3828ZM24.7585 16.0929C25.1205 16.51 25.7521 16.5548 26.1692 16.1928C26.5863 15.8308 26.6311 15.1993 26.2691 14.7821L24.7585 16.0929ZM22.291 12.1875C22.291 11.6352 21.8433 11.1875 21.291 11.1875C20.7387 11.1875 20.291 11.6352 20.291 12.1875H22.291ZM20.291 28.4375C20.291 28.9898 20.7387 29.4375 21.291 29.4375C21.8433 29.4375 22.291 28.9898 22.291 28.4375L20.291 28.4375ZM17.8235 24.5321C17.4616 24.115 16.83 24.0702 16.4129 24.4322C15.9957 24.7942 15.951 25.4257 16.3129 25.8429L17.8235 24.5321ZM29.8551 9.71487C30.2845 10.0623 30.9141 9.99587 31.2615 9.56655C31.609 9.13722 31.5426 8.50754 31.1132 8.16013L29.8551 9.71487ZM33.6594 29.8616C33.9972 29.4247 33.9168 28.7967 33.4799 28.4589C33.043 28.1211 32.4149 28.2014 32.0771 28.6384L33.6594 29.8616ZM30.0647 3.46642L31.6845 10.7737L33.6371 10.3408L32.0173 3.03358L30.0647 3.46642ZM32.5359 9.56509L26.0411 10.3828L26.2909 12.3671L32.7857 11.5494L32.5359 9.56509ZM21.291 33.9375C13.7661 33.9375 7.66602 27.8374 7.66602 20.3125H5.66602C5.66602 28.9419 12.6616 35.9375 21.291 35.9375V33.9375ZM7.66602 20.3125C7.66602 12.7876 13.7661 6.6875 21.291 6.6875V4.6875C12.6616 4.6875 5.66602 11.6831 5.66602 20.3125H7.66602ZM21.291 19.3125C20.1147 19.3125 19.095 18.9928 18.3986 18.5285C17.6952 18.0596 17.416 17.5216 17.416 17.0625H15.416C15.416 18.3983 16.2282 19.4853 17.2892 20.1926C18.3571 20.9046 19.7749 21.3125 21.291 21.3125V19.3125ZM17.416 17.0625C17.416 16.6034 17.6952 16.0654 18.3986 15.5965C19.095 15.1322 20.1147 14.8125 21.291 14.8125V12.8125C19.7749 12.8125 18.3571 13.2204 17.2892 13.9324C16.2282 14.6397 15.416 15.7267 15.416 17.0625H17.416ZM21.291 14.8125C22.8888 14.8125 24.154 15.3962 24.7585 16.0929L26.2691 14.7821C25.1878 13.536 23.3021 12.8125 21.291 12.8125V14.8125ZM21.291 21.3125C22.4673 21.3125 23.487 21.6322 24.1835 22.0965C24.8869 22.5654 25.166 23.1034 25.166 23.5625H27.166C27.166 22.2266 26.3539 21.1397 25.2929 20.4324C24.2249 19.7204 22.8071 19.3125 21.291 19.3125V21.3125ZM20.291 12.1875V13.8125H22.291V12.1875H20.291ZM20.291 26.8125L20.291 28.4375L22.291 28.4375L22.291 26.8125L20.291 26.8125ZM21.2911 25.8125C19.6933 25.8125 18.4281 25.2288 17.8235 24.5321L16.3129 25.8429C17.3942 27.089 19.28 27.8125 21.291 27.8125L21.2911 25.8125ZM25.166 23.5625C25.166 24.0216 24.8869 24.5596 24.1835 25.0285C23.4871 25.4928 22.4674 25.8125 21.291 25.8125V27.8125C22.8071 27.8125 24.2249 27.4046 25.2929 26.6926C26.3539 25.9853 27.166 24.8983 27.166 23.5625H25.166ZM20.291 13.8125V20.3125H22.291V13.8125H20.291ZM20.291 20.3125L20.291 26.8125L22.291 26.8125L22.291 20.3125L20.291 20.3125ZM21.291 6.6875C24.5367 6.6875 27.5148 7.82111 29.8551 9.71487L31.1132 8.16013C28.4299 5.98879 25.0111 4.6875 21.291 4.6875V6.6875ZM32.0771 28.6384C29.5836 31.8636 25.6797 33.9375 21.291 33.9375V35.9375C26.3251 35.9375 30.8034 33.5557 33.6594 29.8616L32.0771 28.6384Z" fill="white"/>
</g>
</svg>
