<svg width="25" height="24" viewBox="0 0 25 24" fill="none" xmlns="http://www.w3.org/2000/svg">
<path d="M20.738 2.28358C20.6185 1.74439 20.0845 1.40418 19.5453 1.5237C19.0061 1.64322 18.6659 2.17722 18.7854 2.71642L20.738 2.28358ZM20.7585 6.99678L20.8834 7.98894C21.1626 7.9538 21.414 7.80269 21.576 7.57268C21.7381 7.34267 21.7957 7.05504 21.7348 6.78036L20.7585 6.99678ZM16.6368 6.50781C16.0888 6.5768 15.7005 7.07694 15.7695 7.6249C15.8385 8.17285 16.3387 8.56114 16.8866 8.49215L16.6368 6.50781ZM15.6051 10.6554C15.967 11.0725 16.5986 11.1173 17.0157 10.7553C17.4329 10.3933 17.4776 9.76176 17.1157 9.34462L15.6051 10.6554ZM14.7617 8C14.7617 7.44772 14.314 7 13.7617 7C13.2094 7 12.7617 7.44772 12.7617 8H14.7617ZM12.7617 18C12.7617 18.5523 13.2094 19 13.7617 19C14.314 19 14.7617 18.5523 14.7617 18L12.7617 18ZM11.9184 15.3446C11.5564 14.9275 10.9248 14.8827 10.5077 15.2447C10.0906 15.6067 10.0458 16.2382 10.4078 16.6554L11.9184 15.3446ZM18.79 6.77737C19.2193 7.12478 19.849 7.05837 20.1964 6.62905C20.5438 6.19972 20.4774 5.57004 20.0481 5.22263L18.79 6.77737ZM21.6773 19.1116C22.0151 18.6747 21.9347 18.0467 21.4978 17.7089C21.0609 17.3711 20.4328 17.4514 20.095 17.8884L21.6773 19.1116ZM18.7854 2.71642L19.7822 7.21319L21.7348 6.78036L20.738 2.28358L18.7854 2.71642ZM20.6336 6.00461L16.6368 6.50781L16.8866 8.49215L20.8834 7.98894L20.6336 6.00461ZM13.7617 21C9.34344 21 5.76172 17.4183 5.76172 13H3.76172C3.76172 18.5228 8.23887 23 13.7617 23V21ZM5.76172 13C5.76172 8.58172 9.34344 5 13.7617 5V3C8.23887 3 3.76172 7.47715 3.76172 13H5.76172ZM13.7617 12C13.1032 12 12.5522 11.8202 12.1951 11.5822C11.831 11.3394 11.7617 11.1139 11.7617 11H9.76172C9.76172 11.9907 10.364 12.7651 11.0857 13.2463C11.8144 13.732 12.7634 14 13.7617 14V12ZM11.7617 11C11.7617 10.8861 11.831 10.6606 12.1951 10.4178C12.5522 10.1798 13.1032 10 13.7617 10V8C12.7634 8 11.8144 8.26796 11.0857 8.75374C10.364 9.23485 9.76172 10.0093 9.76172 11H11.7617ZM13.7617 10C14.6655 10 15.3247 10.3323 15.6051 10.6554L17.1157 9.34462C16.3586 8.47209 15.0788 8 13.7617 8V10ZM13.7617 14C14.4203 14 14.9712 14.1798 15.3284 14.4178C15.6925 14.6606 15.7617 14.8861 15.7617 15H17.7617C17.7617 14.0093 17.1594 13.2348 16.4377 12.7537C15.7091 12.268 14.76 12 13.7617 12V14ZM12.7617 8V9H14.7617V8H12.7617ZM12.7617 17L12.7617 18L14.7617 18L14.7617 17L12.7617 17ZM13.7617 16C12.858 16 12.1987 15.6677 11.9184 15.3446L10.4078 16.6554C11.1649 17.5279 12.4447 18 13.7617 18L13.7617 16ZM15.7617 15C15.7617 15.1139 15.6925 15.3394 15.3284 15.5822C14.9712 15.8202 14.4203 16 13.7617 16V18C14.7601 18 15.7091 17.732 16.4378 17.2463C17.1594 16.7651 17.7617 15.9907 17.7617 15H15.7617ZM12.7617 9V13H14.7617V9H12.7617ZM12.7617 13L12.7617 17L14.7617 17L14.7617 13L12.7617 13ZM13.7617 5C15.6678 5 17.4158 5.66536 18.79 6.77737L20.0481 5.22263C18.3309 3.83304 16.1422 3 13.7617 3V5ZM20.095 17.8884C18.6302 19.783 16.3383 21 13.7617 21V23C16.9838 23 19.8501 21.4751 21.6773 19.1116L20.095 17.8884Z" fill="#9D7DE2"/>
</svg>
