<svg width="23" height="22" viewBox="0 0 23 22" fill="none" xmlns="http://www.w3.org/2000/svg">
<path id="Vector" d="M12.1487 3.4685C11.9554 2.93812 11.1651 2.92983 10.8373 3.16187C10.6019 3.32762 10.459 3.68397 10.5515 3.97403C10.7448 4.57071 11.8965 4.27237 12.1151 5.05966C12.1908 5.34143 12.0647 5.72265 11.8545 5.8801C11.2408 6.33591 10.5515 5.90497 10.5515 5.47403M11.2912 6.11215V6.54309M11.2912 2.50718V2.93812M5.0956 16.579C4.90225 16.0486 4.11203 16.0403 3.78418 16.2724C3.54879 16.4381 3.40588 16.7945 3.49836 17.0845C3.69171 17.6812 4.84341 17.3829 5.06198 18.1702C5.13764 18.4519 5.01154 18.8331 4.80137 18.9906C4.18769 19.4464 3.49836 19.0155 3.49836 18.5845M4.23813 19.2226V19.6536M4.23813 15.6177V16.0486M19.1934 16.579C19.0001 16.0486 18.2099 16.0403 17.882 16.2724C17.6466 16.4381 17.5037 16.7945 17.5962 17.0845C17.7895 17.6812 18.9412 17.3829 19.1598 18.1702C19.2355 18.4519 19.1094 18.8331 18.8992 18.9906C18.2855 19.4464 17.5962 19.0155 17.5962 18.5845M18.3444 19.2226V19.6536M18.3444 15.6177V16.0486M6.43225 6.11215C5.92785 6.37734 4.36423 7.28894 3.50676 9.2116C2.81742 10.7613 2.93511 12.1619 3.02759 12.7586M16.2427 6.11215C16.7471 6.37734 18.3107 7.28894 19.1682 9.2116C19.8575 10.7613 19.7399 12.1619 19.6474 12.7586M14.3849 20.2005C13.9141 20.4823 12.9978 20.9547 11.7368 21.0624C10.2488 21.1867 9.11395 20.7392 8.60955 20.4989M14.8556 4.38839C14.8556 6.30613 13.2786 7.86077 11.3333 7.86077C9.38794 7.86077 7.81093 6.30613 7.81093 4.38839C7.81093 2.47065 9.38794 0.916016 11.3333 0.916016C13.2786 0.916016 14.8556 2.47065 14.8556 4.38839ZM7.80252 17.5072C7.80252 19.4249 6.22551 20.9796 4.28017 20.9796C2.33482 20.9796 0.757812 19.4249 0.757812 17.5072C0.757812 15.5894 2.33482 14.0348 4.28017 14.0348C6.22551 14.0348 7.80252 15.5894 7.80252 17.5072ZM21.9087 17.5072C21.9087 19.4249 20.3317 20.9796 18.3864 20.9796C16.4411 20.9796 14.864 19.4249 14.864 17.5072C14.864 15.5894 16.4411 14.0348 18.3864 14.0348C20.3317 14.0348 21.9087 15.5894 21.9087 17.5072Z" stroke="#9D7DE2" stroke-miterlimit="10" stroke-linecap="round"/>
</svg>
