<svg width="25" height="24" viewBox="0 0 25 24" fill="none" xmlns="http://www.w3.org/2000/svg">
<path d="M15.22 7.9C15.17 7.83 15.08 7.7 14.93 7.56C13.75 6.43 11.21 6.55 10.19 7.78C10.08 7.91 9.73 8.34 9.73 8.92C9.73 9.47 10.05 9.87 10.16 10C11.36 11.5 14.12 10.56 15.2 12.03C15.29 12.15 15.56 12.53 15.54 13.02C15.51 13.6 15.1 13.99 14.92 14.16C14.16 14.88 13.15 14.9 12.82 14.91C11.46 14.94 10.47 14.21 10.14 13.93M12.64 5.22V16.48M19.5 10V21M19.5 21L16 19L12.5 21L9 19L5.5 21V5C5.5 3.9 6.4 3 7.5 3H17.5C18.6 3 19.5 3.9 19.5 5V21Z" stroke="#284952" stroke-width="2" stroke-linecap="round" stroke-linejoin="round"/>
</svg>
