<svg width="24" height="24" viewBox="0 0 24 24" fill="none" xmlns="http://www.w3.org/2000/svg">
<g clip-path="url(#clip0_9321_65155)">
<path d="M20.4958 2.28358C20.3763 1.74439 19.8423 1.40418 19.3031 1.5237C18.7639 1.64322 18.4237 2.17722 18.5432 2.71642L20.4958 2.28358ZM20.5163 6.99678L20.6412 7.98894C20.9204 7.9538 21.1718 7.80269 21.3339 7.57268C21.4959 7.34267 21.5535 7.05504 21.4926 6.78036L20.5163 6.99678ZM16.3946 6.50781C15.8466 6.5768 15.4584 7.07694 15.5273 7.6249C15.5963 8.17285 16.0965 8.56114 16.6444 8.49215L16.3946 6.50781ZM15.3629 10.6554C15.7248 11.0725 16.3564 11.1173 16.7736 10.7553C17.1907 10.3933 17.2354 9.76176 16.8735 9.34462L15.3629 10.6554ZM14.5195 8C14.5195 7.44772 14.0718 7 13.5195 7C12.9672 7 12.5195 7.44772 12.5195 8H14.5195ZM12.5195 18C12.5195 18.5523 12.9672 19 13.5195 19C14.0718 19 14.5195 18.5523 14.5195 18L12.5195 18ZM11.6762 15.3446C11.3142 14.9275 10.6827 14.8827 10.2655 15.2447C9.84838 15.6067 9.80364 16.2382 10.1656 16.6554L11.6762 15.3446ZM18.5478 6.77737C18.9771 7.12478 19.6068 7.05837 19.9542 6.62905C20.3016 6.19972 20.2352 5.57004 19.8059 5.22263L18.5478 6.77737ZM21.4351 19.1116C21.7729 18.6747 21.6926 18.0467 21.2556 17.7089C20.8187 17.3711 20.1907 17.4514 19.8529 17.8884L21.4351 19.1116ZM19.2195 8.9C18.8882 9.34183 18.9777 9.96863 19.4195 10.3C19.8614 10.6314 20.4882 10.5418 20.8195 10.1L19.2195 8.9ZM23.8195 6.1C24.1509 5.65817 24.0614 5.03137 23.6195 4.7C23.1777 4.36863 22.5509 4.45817 22.2195 4.9L23.8195 6.1ZM18.5432 2.71642L19.54 7.21319L21.4926 6.78036L20.4958 2.28358L18.5432 2.71642ZM20.3914 6.00461L16.3946 6.50781L16.6444 8.49215L20.6412 7.98894L20.3914 6.00461ZM13.5195 21C9.10125 21 5.51953 17.4183 5.51953 13H3.51953C3.51953 18.5228 7.99668 23 13.5195 23V21ZM5.51953 13C5.51953 8.58172 9.10125 5 13.5195 5V3C7.99668 3 3.51953 7.47715 3.51953 13H5.51953ZM13.5195 12C12.861 12 12.31 11.8202 11.9529 11.5822C11.5888 11.3394 11.5195 11.1139 11.5195 11H9.51953C9.51953 11.9907 10.1218 12.7651 10.8435 13.2463C11.5722 13.732 12.5212 14 13.5195 14V12ZM11.5195 11C11.5195 10.8861 11.5888 10.6606 11.9529 10.4178C12.31 10.1798 12.861 10 13.5195 10V8C12.5212 8 11.5722 8.26796 10.8435 8.75374C10.1218 9.23485 9.51953 10.0093 9.51953 11H11.5195ZM13.5195 10C14.4233 10 15.0826 10.3323 15.3629 10.6554L16.8735 9.34462C16.1164 8.47209 14.8366 8 13.5195 8V10ZM13.5195 14C14.1781 14 14.729 14.1798 15.0862 14.4178C15.4503 14.6606 15.5196 14.8861 15.5196 15H17.5196C17.5196 14.0093 16.9172 13.2348 16.1956 12.7537C15.4669 12.268 14.5178 12 13.5195 12V14ZM12.5195 8V9H14.5195V8H12.5195ZM12.5196 17L12.5195 18L14.5195 18L14.5196 17L12.5196 17ZM13.5196 16C12.6158 16 11.9565 15.6677 11.6762 15.3446L10.1656 16.6554C10.9227 17.5279 12.2025 18 13.5195 18L13.5196 16ZM15.5196 15C15.5196 15.1139 15.4503 15.3394 15.0862 15.5822C14.7291 15.8202 14.1781 16 13.5196 16V18C14.5179 18 15.4669 17.732 16.1956 17.2463C16.9172 16.7651 17.5196 15.9907 17.5196 15H15.5196ZM12.5195 9V13H14.5195V9H12.5195ZM12.5195 13L12.5196 17L14.5196 17L14.5195 13L12.5195 13ZM13.5195 5C15.4256 5 17.1736 5.66536 18.5478 6.77737L19.8059 5.22263C18.0887 3.83304 15.9 3 13.5195 3V5ZM19.8529 17.8884C18.3881 19.783 16.0962 21 13.5195 21V23C16.7416 23 19.6079 21.4751 21.4351 19.1116L19.8529 17.8884ZM20.8195 10.1L23.8195 6.1L22.2195 4.9L19.2195 8.9L20.8195 10.1Z" fill="#9D7DE2"/>
</g>
<defs>
<clipPath id="clip0_9321_65155">
<rect width="23.4796" height="23" fill="white" transform="translate(0.519531 0.5)"/>
</clipPath>
</defs>
</svg>
