<svg width="15" height="16" viewBox="0 0 15 16" fill="none" xmlns="http://www.w3.org/2000/svg">
<g id="Icon/Solid/briefcase">
<g id="Icon">
<path fill-rule="evenodd" clip-rule="evenodd" d="M4.5 5V4.25C4.5 3.00736 5.50736 2 6.75 2H8.25C9.49264 2 10.5 3.00736 10.5 4.25V5H12C12.8284 5 13.5 5.67157 13.5 6.5V9.17807C11.6322 9.87105 9.61116 10.25 7.50002 10.25C5.38886 10.25 3.36777 9.87104 1.5 9.17806V6.5C1.5 5.67157 2.17157 5 3 5H4.5ZM6 4.25C6 3.83579 6.33579 3.5 6.75 3.5H8.25C8.66421 3.5 9 3.83579 9 4.25V5H6V4.25ZM6.75 8C6.75 7.58579 7.08579 7.25 7.5 7.25H7.5075C7.92171 7.25 8.2575 7.58579 8.2575 8C8.2575 8.41421 7.92171 8.75 7.5075 8.75H7.5C7.08579 8.75 6.75 8.41421 6.75 8Z" fill="#0F172A"/>
<path d="M1.5 10.7692V12.5C1.5 13.3284 2.17157 14 3 14H12C12.8284 14 13.5 13.3284 13.5 12.5V10.7692C11.6154 11.4053 9.5973 11.75 7.50002 11.75C5.40272 11.75 3.3846 11.4053 1.5 10.7692Z" fill="#0F172A"/>
</g>
</g>
</svg>
