<svg width="24" height="24" viewBox="0 0 24 24" fill="none" xmlns="http://www.w3.org/2000/svg">
<g id="Icon/Outline/briefcase">
<path id="Icon" d="M20.5433 13.203C17.8242 14.2811 14.8521 14.8748 11.7384 14.8748C8.62475 14.8748 5.65262 14.2811 2.93359 13.203M15.6517 6.24984V4.33317C15.6517 3.27462 14.7757 2.4165 13.6951 2.4165H9.7818C8.70118 2.4165 7.82517 3.27462 7.82517 4.33317V6.24984M11.7384 11.9998H11.7482M4.89022 19.6665H18.5866C19.6673 19.6665 20.5433 18.8084 20.5433 17.7498V8.1665C20.5433 7.10796 19.6673 6.24984 18.5866 6.24984H4.89022C3.80961 6.24984 2.93359 7.10796 2.93359 8.1665V17.7498C2.93359 18.8084 3.80961 19.6665 4.89022 19.6665Z" stroke="#9D7DE2" stroke-width="2" stroke-linecap="round" stroke-linejoin="round"/>
</g>
</svg>
