<svg width="26" height="26" viewBox="0 0 26 26" fill="none" xmlns="http://www.w3.org/2000/svg">
<g id="Icon/Solid/briefcase">
<g id="Icon">
<path fill-rule="evenodd" clip-rule="evenodd" d="M7.79961 7.79961V6.49961C7.79961 4.3457 9.5457 2.59961 11.6996 2.59961H14.2996C16.4535 2.59961 18.1996 4.3457 18.1996 6.49961V7.79961H20.7996C22.2355 7.79961 23.3996 8.96367 23.3996 10.3996V15.0416C20.1622 16.2428 16.659 16.8995 12.9996 16.8995C9.3403 16.8995 5.83708 16.2428 2.59961 15.0416V10.3996C2.59961 8.96367 3.76367 7.79961 5.19961 7.79961H7.79961ZM10.3996 6.49961C10.3996 5.78164 10.9816 5.19961 11.6996 5.19961H14.2996C15.0176 5.19961 15.5996 5.78164 15.5996 6.49961V7.79961H10.3996V6.49961ZM11.6996 12.9996C11.6996 12.2816 12.2816 11.6996 12.9996 11.6996H13.0126C13.7306 11.6996 14.3126 12.2816 14.3126 12.9996C14.3126 13.7176 13.7306 14.2996 13.0126 14.2996H12.9996C12.2816 14.2996 11.6996 13.7176 11.6996 12.9996Z" fill="#ED7D31"/>
<path d="M2.59961 17.7995V20.7996C2.59961 22.2355 3.76367 23.3996 5.19961 23.3996H20.7996C22.2355 23.3996 23.3996 22.2355 23.3996 20.7996V17.7996C20.133 18.9022 16.6349 19.4995 12.9996 19.4995C9.36432 19.4995 5.86624 18.9022 2.59961 17.7995Z" fill="#ED7D31"/>
</g>
</g>
</svg>
