<svg width="25" height="24" viewBox="0 0 25 24" fill="none" xmlns="http://www.w3.org/2000/svg">
<g id="Icon/Outline/charging">
<path id="Vector" d="M12.4921 4.06447C7.0121 4.07604 2.85821 8.69061 2.58119 13.3932C2.34282 17.4454 5.05729 20.3151 5.64471 20.9089L7.67222 18.9191C5.51505 16.9653 4.72134 13.9852 5.64406 11.3591C6.71872 8.29985 9.8582 6.47074 12.9872 6.67254C16.6048 6.90648 19.3991 9.80312 19.7894 13.0391C20.1758 16.2404 18.0619 18.5541 17.7174 18.9191C18.3782 19.5091 19.039 20.0985 19.6997 20.6879C20.1084 20.2335 23.1784 16.7031 22.2675 12.0667C21.4142 7.72014 17.3867 4.05419 12.4921 4.06447ZM12.4921 4.06447L12.5013 6.65776M5.2675 13.7409H2.56809M7.35722 8.71504L5.55107 7.00417M17.7207 8.85065L19.5183 7.00417M19.8366 13.8206H22.4358M12.5013 7.00417C12.9342 8.55565 13.4928 10.8147 13.7233 12.9575C13.8025 13.6979 13.8765 14.7333 13.2786 15.1369C13.0219 15.3104 12.7148 15.3168 12.4928 15.2943C12.3133 15.2751 12.0553 15.2191 11.8274 15.0424C11.2315 14.5809 11.2741 13.6297 11.3369 12.9363C11.538 10.6997 12.223 8.03956 12.5013 7.00417Z" stroke="#284952" stroke-width="2" stroke-miterlimit="10"/>
</g>
</svg>
