<svg width="25" height="24" viewBox="0 0 25 24" fill="none" xmlns="http://www.w3.org/2000/svg">
<g id="Icon/Solid/check-circle">
<path id="Icon" fill-rule="evenodd" clip-rule="evenodd" d="M12.4164 21.5984C17.7183 21.5984 22.0164 17.3004 22.0164 11.9984C22.0164 6.6965 17.7183 2.39844 12.4164 2.39844C7.11447 2.39844 2.81641 6.6965 2.81641 11.9984C2.81641 17.3004 7.11447 21.5984 12.4164 21.5984ZM16.8649 10.447C17.3336 9.97834 17.3336 9.21854 16.8649 8.74991C16.3963 8.28128 15.6365 8.28128 15.1679 8.74991L11.2164 12.7014L9.66493 11.1499C9.19631 10.6813 8.43651 10.6813 7.96788 11.1499C7.49925 11.6185 7.49925 12.3783 7.96788 12.847L10.3679 15.247C10.8365 15.7156 11.5963 15.7156 12.0649 15.247L16.8649 10.447Z" fill="#0F172A"/>
</g>
</svg>
