<svg width="18" height="18" viewBox="0 0 18 18" fill="none" xmlns="http://www.w3.org/2000/svg">
<path fill-rule="evenodd" clip-rule="evenodd" d="M9.00078 16.2C12.9772 16.2 16.2008 12.9765 16.2008 9.00005C16.2008 5.0236 12.9772 1.80005 9.00078 1.80005C5.02433 1.80005 1.80078 5.0236 1.80078 9.00005C1.80078 12.9765 5.02433 16.2 9.00078 16.2ZM12.3372 7.83644C12.6887 7.48497 12.6887 6.91512 12.3372 6.56365C11.9857 6.21218 11.4159 6.21218 11.0644 6.56365L8.10078 9.52726L6.93718 8.36365C6.58571 8.01218 6.01586 8.01218 5.66439 8.36365C5.31291 8.71512 5.31291 9.28497 5.66439 9.63645L7.46439 11.4364C7.81586 11.7879 8.38571 11.7879 8.73718 11.4364L12.3372 7.83644Z" fill="#0F172A"/>
</svg>
