<svg width="26" height="26" viewBox="0 0 26 26" fill="none" xmlns="http://www.w3.org/2000/svg">
<g id="Icon/Solid/chip">
<g id="Icon">
<path d="M16.9008 9.10078H9.10078V16.9008H16.9008V9.10078Z" fill="#ED7D31"/>
<path fill-rule="evenodd" clip-rule="evenodd" d="M9.10078 2.60078C9.10078 1.88281 9.68281 1.30078 10.4008 1.30078C11.1188 1.30078 11.7008 1.88281 11.7008 2.60078V3.90078H14.3008V2.60078C14.3008 1.88281 14.8828 1.30078 15.6008 1.30078C16.3188 1.30078 16.9008 1.88281 16.9008 2.60078V3.90078H19.5008C20.9367 3.90078 22.1008 5.06484 22.1008 6.50078V9.10078H23.4008C24.1187 9.10078 24.7008 9.68281 24.7008 10.4008C24.7008 11.1188 24.1187 11.7008 23.4008 11.7008H22.1008V14.3008H23.4008C24.1187 14.3008 24.7008 14.8828 24.7008 15.6008C24.7008 16.3188 24.1187 16.9008 23.4008 16.9008H22.1008V19.5008C22.1008 20.9367 20.9367 22.1008 19.5008 22.1008H16.9008V23.4008C16.9008 24.1188 16.3188 24.7008 15.6008 24.7008C14.8828 24.7008 14.3008 24.1188 14.3008 23.4008V22.1008H11.7008V23.4008C11.7008 24.1188 11.1188 24.7008 10.4008 24.7008C9.68281 24.7008 9.10078 24.1188 9.10078 23.4008V22.1008H6.50078C5.06484 22.1008 3.90078 20.9367 3.90078 19.5008V16.9008H2.60078C1.88281 16.9008 1.30078 16.3188 1.30078 15.6008C1.30078 14.8828 1.88281 14.3008 2.60078 14.3008H3.90078V11.7008H2.60078C1.88281 11.7008 1.30078 11.1188 1.30078 10.4008C1.30078 9.68281 1.88281 9.10078 2.60078 9.10078H3.90078V6.50078C3.90078 5.06484 5.06484 3.90078 6.50078 3.90078H9.10078V2.60078ZM6.50078 6.50078H19.5008V19.5008H6.50078V6.50078Z" fill="#ED7D31"/>
</g>
</g>
</svg>
