<svg width="20" height="21" viewBox="0 0 20 21" fill="none" xmlns="http://www.w3.org/2000/svg">
<path d="M13 7.5H7V13.5H13V7.5Z" fill="#0F172A"/>
<path fill-rule="evenodd" clip-rule="evenodd" d="M7 2.5C7 1.94772 7.44772 1.5 8 1.5C8.55228 1.5 9 1.94772 9 2.5V3.5H11V2.5C11 1.94772 11.4477 1.5 12 1.5C12.5523 1.5 13 1.94772 13 2.5V3.5H15C16.1046 3.5 17 4.39543 17 5.5V7.5H18C18.5523 7.5 19 7.94772 19 8.5C19 9.05228 18.5523 9.5 18 9.5H17V11.5H18C18.5523 11.5 19 11.9477 19 12.5C19 13.0523 18.5523 13.5 18 13.5H17V15.5C17 16.6046 16.1046 17.5 15 17.5H13V18.5C13 19.0523 12.5523 19.5 12 19.5C11.4477 19.5 11 19.0523 11 18.5V17.5H9V18.5C9 19.0523 8.55228 19.5 8 19.5C7.44772 19.5 7 19.0523 7 18.5V17.5H5C3.89543 17.5 3 16.6046 3 15.5V13.5H2C1.44772 13.5 1 13.0523 1 12.5C1 11.9477 1.44772 11.5 2 11.5H3V9.5H2C1.44772 9.5 1 9.05228 1 8.5C1 7.94772 1.44772 7.5 2 7.5H3V5.5C3 4.39543 3.89543 3.5 5 3.5H7V2.5ZM5 5.5H15V15.5H5V5.5Z" fill="#0F172A"/>
</svg>
