<svg width="335" height="472" viewBox="0 0 335 472" fill="none" xmlns="http://www.w3.org/2000/svg">
<path d="M120.436 88.4225L113.872 76.9844L103.573 78.4951L95.0818 67.8235L99.4576 57.2041L88.027 49.5911L79.4615 58.2236L68.1872 56.2441L63.6105 42.9902L49.9175 44.4339L49.1287 56.0283L38.9185 61.2152L28.113 53.565L17.1513 61.5501L22.8442 73.8291L16.3178 83.6523L4.43321 83.0271L1.36719 97.6503L12.649 102.011L13.6164 114.298L1.93276 121.025L7.47691 133.698L19.5773 131.823L27.5921 141.073L23.3949 152.608L34.4832 160.437L43.1306 151.075L55.1342 154.32L58.87 166.71L72.2057 165.817L73.9248 154.692L85.3628 148.128L94.7172 155.6L106.55 146.774L100.566 136.355L106.393 125.907L118.382 126.792L122.103 113.114L111.804 107.57L110.434 95.1796L120.414 88.4299L120.436 88.4225ZM73.9769 128.444C61.0728 135.834 44.6115 131.362 37.2218 118.458C29.8321 105.553 34.3046 89.0922 47.2087 81.7025C60.0979 74.3277 76.522 78.7704 83.9266 91.6373C91.3461 104.527 86.9182 120.995 74.029 128.415C74.0141 128.422 73.9918 128.437 73.9769 128.444Z" fill="#E2AFAF"/>
<path d="M72.5007 97.2626C71.831 96.3026 71.1017 95.3947 70.3054 94.5389C68.058 92.2692 65.1185 90.818 61.9483 90.4236C57.2153 89.8208 52.4972 91.6664 49.4311 95.3278C48.553 96.3547 47.8386 97.5082 47.3177 98.751C46.7372 100.038 46.3726 101.408 46.2312 102.807C45.5316 108.879 48.873 114.699 54.4692 117.162C55.7492 117.75 57.1185 118.122 58.5176 118.271C59.8571 118.449 61.219 118.412 62.5511 118.167C70.2384 116.835 75.3956 109.527 74.071 101.839C73.9966 101.393 73.8924 100.954 73.7733 100.515C73.4384 99.3984 73.0217 98.3045 72.5305 97.2403C72.5305 97.2403 72.5752 97.3073 72.657 97.4338C72.7389 97.5603 72.858 97.791 72.9919 98.0291C73.1779 98.3491 73.3342 98.6914 73.4682 99.0338C73.6765 99.4952 73.8477 99.9714 73.9742 100.463C74.3761 101.795 74.577 103.179 74.5547 104.563C74.5175 108.708 72.7017 112.637 69.5612 115.346C67.5966 117.035 65.2152 118.159 62.6627 118.621C59.8348 119.119 56.925 118.769 54.2981 117.616C48.486 115.071 45.0256 109.028 45.7623 102.732C46.0823 99.8821 47.2507 97.1882 49.1037 95.0003C53.5911 89.7166 61.2115 88.3845 67.2245 91.8301C68.4375 92.5148 69.5315 93.3854 70.4766 94.405C70.8115 94.7622 71.1166 95.1343 71.3919 95.5361C71.6226 95.8264 71.831 96.1315 72.017 96.4515C72.1584 96.6822 72.2701 96.8756 72.3668 97.0394C72.4189 97.1138 72.4635 97.1956 72.4933 97.2775L72.5007 97.2626Z" fill="#F5F5F5"/>
<path d="M85.3208 67.2092C85.4399 67.291 81.7562 73.1031 77.0901 80.1877C72.4241 87.2797 68.5321 92.9653 68.4204 92.8611C68.3088 92.7569 71.9851 86.9746 76.6585 79.8826C81.332 72.7831 85.2017 67.172 85.3208 67.2092Z" fill="#F5F5F5"/>
<path d="M98.5565 114.387C97.3361 114.104 96.1305 113.747 94.9473 113.322C92.7222 112.63 89.6413 111.737 86.2329 110.889C82.8246 110.041 79.632 109.43 77.3548 109.021C76.112 108.85 74.8767 108.612 73.6562 108.299C73.9911 108.254 74.3335 108.254 74.6683 108.299C75.3158 108.351 76.2534 108.463 77.4069 108.627C79.7213 108.947 82.899 109.512 86.352 110.353C89.805 111.194 92.8933 112.161 95.0663 112.943C96.1677 113.33 97.0459 113.665 97.6486 113.918C97.9686 114.029 98.2812 114.186 98.5565 114.387Z" fill="#F5F5F5"/>
<path d="M66.1484 117.506C66.6173 118.525 66.9894 119.59 67.2647 120.676C67.8675 122.656 68.6266 125.431 69.3484 128.497C70.0703 131.563 70.5912 134.399 70.9335 136.415C71.1642 137.517 71.2982 138.626 71.3279 139.749C70.9931 138.678 70.7251 137.591 70.5391 136.482C70.1224 134.458 69.527 131.66 68.8126 128.564C68.0982 125.469 67.4061 122.73 66.8852 120.721C66.5652 119.664 66.3196 118.592 66.1484 117.506Z" fill="#F5F5F5"/>
<path d="M51.5912 115.861C51.7103 115.935 49.2842 120.177 46.1736 125.364C43.0629 130.551 40.4359 134.659 40.3094 134.584C40.1829 134.51 42.6089 130.26 45.7271 125.081C48.8452 119.901 51.4647 115.779 51.5912 115.861Z" fill="#F5F5F5"/>
<path d="M49.5223 69.8887C49.6563 69.8887 51.167 74.3389 52.886 79.9351C54.6051 85.5239 55.8925 90.0932 55.7511 90.1304C55.6097 90.1676 54.1065 85.6802 52.3874 80.0839C50.6684 74.4877 49.3809 69.9259 49.5223 69.8887Z" fill="#F5F5F5"/>
<path d="M46.4727 101.63C46.4727 101.771 42.6848 101.525 38.056 101.086C33.4198 100.64 29.6766 100.179 29.6915 100.022C29.7063 99.8659 33.4719 100.126 38.1007 100.565C42.7369 101.012 46.4802 101.481 46.4727 101.63Z" fill="#F5F5F5"/>
<path d="M60.122 115.429C66.2623 115.429 71.24 110.452 71.24 104.311C71.24 98.1711 66.2623 93.1934 60.122 93.1934C53.9816 93.1934 49.0039 98.1711 49.0039 104.311C49.0039 110.452 53.9816 115.429 60.122 115.429Z" fill="#E2AFAF"/>
<path d="M65.5015 104.396C64.9731 104.12 64.4671 103.823 63.9759 103.495C62.7554 102.81 61.4085 102.371 60.0169 102.215C58.6178 102.074 57.1964 102.208 55.8494 102.61C55.2988 102.833 54.7332 103.019 54.1602 103.175C54.6067 102.751 55.1499 102.438 55.7453 102.267C57.1294 101.739 58.6178 101.538 60.0838 101.694C61.5499 101.858 62.9638 102.364 64.1917 103.183C64.7126 103.48 65.1666 103.897 65.5015 104.403V104.396Z" fill="#EBEBEB"/>
<path d="M61.0425 97.8958C61.1913 97.9851 59.8071 100.084 59.2937 103.06C58.7802 106.037 59.2937 108.478 59.1448 108.508C58.996 108.538 58.2072 106.067 58.7802 102.964C59.3532 99.8605 60.9681 97.7991 61.0425 97.8958Z" fill="#EBEBEB"/>
<path d="M208.737 9.46598L199.122 5.46973L193.422 11.3636L183.011 8.75156L180.637 0L169.802 0.759064L168.596 10.2771L160.581 14.4445L151.316 8.37947L143.443 15.8734L148.533 23.5087L144.671 31.6649L134.23 32.0742L131.238 42.3736L140.689 47.2852L141.337 56.5726L133.62 61.8786L138.725 72.5129L147.871 69.7967L154.412 77.0004L150.334 86.8235L159.926 92.07L166.587 85.0673L176.06 86.9947L178.992 96.2225L189.664 95.8058L190.572 85.7891L199.666 82.0236L207.963 87.977L215.874 80.9966L211.595 73.205L215.591 63.5902L225.035 63.7614L228.19 52.5466L219.409 48.9299L218.032 39.5904L225.958 34.3737L221.716 24.0966L212.585 25.5626L205.731 18.4929L208.73 9.48086L208.737 9.46598ZM198.936 56.8554C194.427 67.7056 181.977 72.8404 171.126 68.3307C160.276 63.8209 155.141 51.3708 159.651 40.5206C164.161 29.6705 176.611 24.5356 187.461 29.0454C198.311 33.5551 203.446 46.0052 198.944 56.8554H198.936Z" fill="white"/>
<path d="M182.994 38.0367C182.116 37.7614 181.216 37.553 180.308 37.3893C177.807 37.0469 175.27 37.553 173.097 38.8404C171.608 39.7111 170.343 40.9167 169.398 42.3604C168.327 44.0274 167.716 45.9399 167.627 47.9194C167.538 50.1073 168.088 52.2654 169.22 54.1408C171.705 58.2784 176.594 60.31 181.283 59.1566C182.354 58.911 183.389 58.4942 184.326 57.9212C185.242 57.378 186.068 56.7082 186.782 55.9194C190.942 51.3724 190.63 44.3101 186.083 40.1502C185.837 39.9195 185.577 39.7111 185.309 39.5027C184.557 38.9744 183.768 38.4907 182.957 38.0516C183.017 38.0665 183.076 38.0888 183.128 38.1186L183.619 38.3269C183.887 38.4386 184.155 38.5725 184.401 38.7214C184.751 38.9148 185.086 39.1306 185.398 39.3688C186.299 40.0088 187.087 40.7827 187.742 41.6609C189.707 44.2804 190.451 47.6143 189.789 50.8217C189.365 52.8236 188.419 54.6766 187.035 56.1873C186.299 57.0133 185.443 57.7128 184.49 58.271C183.508 58.8738 182.436 59.3128 181.32 59.5807C176.46 60.7863 171.385 58.6728 168.818 54.3789C167.649 52.4366 167.084 50.1966 167.188 47.9343C167.292 45.8953 167.932 43.9157 169.056 42.2116C170.857 39.4804 173.752 37.6646 176.996 37.2255C178.083 37.0693 179.192 37.0767 180.271 37.2628C180.673 37.3149 181.067 37.3893 181.454 37.5009C181.737 37.5679 182.012 37.6646 182.28 37.7762L182.779 37.9846C182.838 37.9995 182.905 38.0144 182.965 38.0293L182.994 38.0367Z" fill="#A0A0A0"/>
<path d="M176.557 13.0879C176.676 13.073 177.16 18.4907 177.651 25.166C178.143 31.8413 178.448 37.2738 178.336 37.2812C178.224 37.2887 177.733 31.8785 177.25 25.1957C176.766 18.513 176.446 13.0954 176.557 13.0879Z" fill="#A0A0A0"/>
<path d="M207.546 36.2324C206.638 36.6417 205.715 36.9989 204.77 37.304C203.043 37.944 200.684 38.8668 198.132 39.9905C195.579 41.1142 193.302 42.2454 191.672 43.0938C190.809 43.5849 189.924 44.0314 189.016 44.4333C189.202 44.2398 189.41 44.0761 189.641 43.9496C190.072 43.6668 190.712 43.2873 191.516 42.8259C193.116 41.918 195.371 40.7422 197.938 39.6036C200.506 38.465 202.895 37.5868 204.643 37.0213C205.522 36.7385 206.243 36.5078 206.742 36.411C206.995 36.3143 207.263 36.2547 207.538 36.2399L207.546 36.2324Z" fill="#A0A0A0"/>
<path d="M188.777 53.777C189.551 54.1937 190.295 54.6774 190.995 55.2207C192.334 56.1881 194.135 57.5351 196.055 59.1127C197.975 60.6904 199.679 62.2011 200.862 63.3248C201.532 63.8978 202.157 64.5304 202.715 65.215C201.994 64.7015 201.309 64.1434 200.662 63.5332C199.434 62.4839 197.715 61.003 195.787 59.4253C193.86 57.8551 192.096 56.456 190.809 55.4514C190.094 54.9379 189.41 54.3798 188.77 53.7695L188.777 53.777Z" fill="#A0A0A0"/>
<path d="M178.873 59.7481C178.984 59.7406 179.513 63.5583 180.048 68.2912C180.45 71.1415 180.703 73.9991 180.815 76.8716C180.703 76.8865 180.175 73.0689 179.639 68.3285C179.103 63.5955 178.761 59.7555 178.873 59.7481Z" fill="#A0A0A0"/>
<path d="M155.468 31.9918C155.558 31.9248 158.639 33.9862 162.404 36.6504C166.17 39.3071 169.169 41.5471 169.094 41.6438C169.02 41.7406 165.924 39.6569 162.159 36.9853C159.844 35.4374 157.612 33.7704 155.461 31.9918H155.468Z" fill="#A0A0A0"/>
<path d="M168.829 53.3164C167.065 54.6634 165.22 55.9062 163.3 57.0299C161.462 58.2726 159.542 59.3889 157.555 60.3861C159.318 59.0392 161.164 57.8038 163.077 56.6801C164.922 55.4448 166.842 54.321 168.822 53.3164H168.829Z" fill="#A0A0A0"/>
<path d="M178.668 57.2001C183.514 57.2001 187.442 53.2719 187.442 48.4262C187.442 43.5805 183.514 39.6523 178.668 39.6523C173.823 39.6523 169.895 43.5805 169.895 48.4262C169.895 53.2719 173.823 57.2001 178.668 57.2001Z" fill="white"/>
<path d="M182.067 45.8927C181.606 45.9746 181.145 46.0267 180.676 46.0639C178.451 46.3764 176.456 47.5894 175.161 49.4276C174.685 50.1048 174.44 50.6182 174.38 50.5885C174.321 50.5587 174.462 50.0378 174.923 49.2638C176.151 47.2397 178.287 45.9374 180.646 45.7662C181.122 45.6992 181.613 45.7364 182.067 45.8927Z" fill="#A0A0A0"/>
<path d="M176.129 43.9707C176.449 45.3698 176.911 46.7391 177.513 48.0414C178.235 49.2842 179.084 50.4525 180.044 51.5241C177.573 49.8051 176.107 46.9772 176.129 43.9707Z" fill="#A0A0A0"/>
<path d="M181.083 174.867L177.035 173.185L174.639 175.67L170.233 174.584L169.236 170.893L164.674 171.213L164.168 175.216L160.797 176.98L156.89 174.398L153.571 177.553L155.714 180.768L154.077 184.206L149.679 184.385L148.406 188.708L152.395 190.785L152.67 194.691L149.403 196.946L151.547 201.426L155.402 200.28L158.148 203.324L156.429 207.454L160.469 209.664L163.275 206.717L167.264 207.536L168.521 211.428L173.031 211.235L173.411 207.015L177.213 205.46L180.704 207.96L184.038 205.021L182.237 201.739L183.919 197.691L187.9 197.765L189.247 193.025L185.563 191.491L184.983 187.555L188.302 185.374L186.516 181.043L182.668 181.668L179.796 178.677L181.076 174.874L181.083 174.867ZM176.953 194.825C175.055 199.402 169.809 201.568 165.232 199.663C160.655 197.758 158.49 192.518 160.395 187.942C162.293 183.365 167.539 181.199 172.116 183.105C176.685 185.002 178.851 190.249 176.953 194.825Z" fill="#E2AFAF"/>
<path d="M170.257 186.894C170.257 186.894 169.848 186.76 169.096 186.679C168.054 186.56 167.012 186.783 166.112 187.319C163.946 188.599 163.224 191.397 164.504 193.57C165.784 195.735 168.582 196.457 170.755 195.177C172.497 194.15 173.353 192.089 172.854 190.132C172.594 189.12 172.013 188.212 171.195 187.557C170.607 187.11 170.212 186.954 170.235 186.917C170.331 186.932 170.428 186.961 170.525 187.006C170.793 187.118 171.046 187.259 171.284 187.423C172.177 188.048 172.817 188.963 173.107 190.02C173.814 192.632 172.281 195.319 169.669 196.026C169.632 196.033 169.595 196.048 169.557 196.055C168.53 196.308 167.459 196.226 166.484 195.825C165.516 195.423 164.705 194.716 164.162 193.808C162.763 191.508 163.5 188.509 165.799 187.118C165.844 187.088 165.896 187.058 165.948 187.036C166.901 186.485 168.017 186.292 169.103 186.485C169.394 186.53 169.684 186.612 169.952 186.731C170.063 186.768 170.168 186.827 170.264 186.902L170.257 186.894Z" fill="#EBEBEB"/>
<path d="M167.537 176.395C167.864 178.069 168.057 179.766 168.117 181.477C168.31 183.174 168.363 184.878 168.288 186.582C167.767 183.211 167.514 179.803 167.537 176.395Z" fill="#EBEBEB"/>
<path d="M180.584 186.15C180.614 186.269 178.813 186.887 176.669 187.839C174.526 188.799 172.837 189.7 172.777 189.596C173.901 188.703 175.159 187.981 176.498 187.46C177.786 186.82 179.162 186.373 180.584 186.143V186.15Z" fill="#EBEBEB"/>
<path d="M172.672 193.529C173.81 194.095 174.867 194.824 175.805 195.687C176.839 196.439 177.755 197.339 178.543 198.352C176.512 196.833 174.555 195.226 172.672 193.537V193.529Z" fill="#EBEBEB"/>
<path d="M168.498 196.045C168.833 197.213 169.041 198.419 169.108 199.632C169.324 200.83 169.391 202.05 169.309 203.263C168.974 202.095 168.766 200.89 168.699 199.677C168.491 198.478 168.424 197.258 168.498 196.045Z" fill="#EBEBEB"/>
<path d="M158.645 184.357C159.709 184.863 160.713 185.489 161.636 186.225C162.633 186.85 163.556 187.595 164.39 188.428C163.318 187.929 162.313 187.304 161.398 186.56C160.401 185.935 159.478 185.198 158.645 184.357Z" fill="#EBEBEB"/>
<path d="M164.264 193.33C163.594 193.992 162.835 194.558 162.002 194.997C161.25 195.562 160.417 196.009 159.531 196.336C160.953 195.131 162.545 194.133 164.249 193.374L164.264 193.322V193.33Z" fill="#EBEBEB"/>
<path d="M169.831 187.863C171.721 188.644 172.614 190.81 171.833 192.692C171.052 194.583 168.886 195.476 167.003 194.694C165.113 193.913 164.22 191.747 165.002 189.864C165.783 187.982 167.941 187.089 169.824 187.863C169.824 187.863 169.824 187.863 169.831 187.863Z" fill="#E2AFAF"/>
<path d="M169.823 190.227C169.191 190.375 168.58 190.591 167.992 190.867C167.479 191.261 167.003 191.708 166.586 192.206C166.66 191.477 167.114 190.837 167.777 190.517C168.365 190.078 169.131 189.966 169.823 190.227Z" fill="#E0E0E0"/>
<path d="M167.354 189.4C167.473 189.385 167.6 190.211 168.046 191.052C168.493 191.893 169.073 192.481 168.999 192.578C168.396 192.332 167.912 191.856 167.674 191.246C167.175 190.286 167.257 189.4 167.354 189.393V189.4Z" fill="#E0E0E0"/>
<path d="M242.428 410.996C222.573 398.025 217.378 372.961 217.445 350.286C217.445 346.505 216.917 342.531 218.606 339.16C220.296 335.789 224.433 333.385 227.864 334.874C230.714 336.109 232.039 339.339 233.698 341.988C235.909 345.523 239.071 348.366 242.829 350.174C245.27 351.35 248.277 352.019 250.614 350.635C253.814 348.738 254.059 344.22 253.918 340.455L253.174 319.439C253.032 315.674 252.898 311.841 253.962 308.232C255.027 304.623 257.497 301.229 261.047 300.12C264.597 299.011 269.077 300.931 269.977 304.585C270.342 306.074 270.081 307.711 270.23 309.266C270.379 310.822 271.168 312.526 272.664 312.92C274.159 313.315 275.64 312.176 276.734 311.06C280.5 307.145 282.978 302.174 285.292 297.233C287.607 292.292 289.839 287.239 293.225 282.989C296.611 278.74 301.411 275.302 306.769 274.803C312.128 274.305 317.984 277.475 319.51 282.714C321.035 287.953 318.111 293.452 314.881 297.851C310.081 304.37 304.373 310.159 297.921 315.049C296.76 315.927 295.51 316.879 295.101 318.286C294.356 320.816 296.812 323.235 299.313 323.979C302.141 324.827 305.177 324.44 308.116 324.723C311.056 325.006 314.278 326.211 315.476 328.913C317.136 332.708 314.048 336.831 310.967 339.569C304.797 345.054 297.72 349.437 290.063 352.518C287.331 353.612 284.444 354.594 282.278 356.604C280.113 358.613 278.863 362.044 280.299 364.648C281.735 367.253 285.211 367.997 288.091 367.372C290.97 366.747 293.516 365.087 296.276 363.964C301.382 361.85 308.064 361.999 311.517 366.36C313.787 369.232 314.1 373.31 313.11 376.845C312.12 380.38 309.984 383.461 307.7 386.311C299.722 396.291 289.363 404.44 277.501 408.972C265.639 413.504 254.573 414.97 242.524 410.988" fill="#7A9E83"/>
<path d="M247.852 396.609C250.828 385.074 255.145 372.706 260.101 359.921C261.351 356.728 262.594 353.573 263.822 350.462C265.05 347.366 266.263 344.293 267.632 341.353C270.274 335.735 273.228 330.272 276.48 324.981C279.546 319.899 282.642 315.188 285.567 310.842C288.491 306.496 291.319 302.433 294.043 298.868C298.307 293.22 303.018 287.921 308.123 283.024C309.931 281.291 311.367 279.996 312.357 279.125L313.488 278.143C313.615 278.031 313.749 277.927 313.89 277.83C313.786 277.964 313.667 278.091 313.54 278.202L312.454 279.229C311.494 280.13 310.08 281.462 308.309 283.225C303.286 288.189 298.649 293.517 294.43 299.173C291.743 302.745 288.953 306.779 286.043 311.169C283.133 315.56 280.089 320.278 277.023 325.353C273.801 330.645 270.869 336.114 268.242 341.725C266.888 344.643 265.69 347.679 264.462 350.797C263.234 353.915 262.013 357.056 260.741 360.248C255.792 373.026 251.468 385.357 248.469 396.847" fill="#E0E0E0"/>
<path d="M267.78 341.323C267.586 340.809 267.452 340.274 267.363 339.73C267.132 338.696 266.85 337.193 266.53 335.325C265.882 331.604 265.16 326.395 264.394 320.709C263.627 315.023 262.831 309.844 262.124 306.138C261.782 304.278 261.484 302.782 261.268 301.747C261.119 301.219 261.03 300.676 261.008 300.125C261.239 300.624 261.41 301.152 261.529 301.688C261.826 302.7 262.199 304.188 262.6 306.034C263.434 309.755 264.305 314.897 265.078 320.612C265.852 326.328 266.5 331.351 267.013 335.25C267.259 337.014 267.467 338.502 267.631 339.715C267.743 340.244 267.795 340.78 267.78 341.323Z" fill="#E0E0E0"/>
<path d="M315.849 330.756C315.217 330.913 314.577 331.009 313.929 331.047C312.694 331.195 310.901 331.404 308.72 331.724C304.307 332.341 298.242 333.406 291.604 334.872C284.966 336.338 279.012 337.945 274.741 339.225C272.598 339.85 270.879 340.401 269.688 340.773C269.078 341.004 268.452 341.182 267.812 341.294C268.386 340.981 268.981 340.721 269.599 340.513C270.767 340.059 272.464 339.434 274.592 338.749C278.841 337.35 284.795 335.675 291.455 334.187C297.141 332.907 302.886 331.91 308.668 331.21C310.901 330.95 312.687 330.816 313.937 330.749C314.577 330.689 315.217 330.697 315.849 330.749V330.756Z" fill="#E0E0E0"/>
<path d="M248.392 395.702C248.243 395.531 248.132 395.33 248.042 395.122L247.164 393.403C246.42 391.914 245.363 389.682 244.113 386.966C241.605 381.503 238.383 373.846 234.945 365.384C231.507 356.923 228.351 349.198 225.963 343.692L223.12 337.172L222.376 335.394C222.271 335.193 222.197 334.977 222.152 334.754C222.301 334.925 222.413 335.126 222.502 335.334C222.74 335.796 223.03 336.369 223.388 337.053C224.132 338.542 225.181 340.774 226.431 343.483C228.939 348.953 232.162 356.611 235.607 365.116C239.053 373.622 242.193 381.295 244.582 386.802L247.402 393.269L248.147 395.047C248.258 395.256 248.34 395.472 248.392 395.702Z" fill="#E0E0E0"/>
<path d="M311.996 372.998C311.803 373.117 311.594 373.214 311.371 373.281L309.525 373.965L302.716 376.406C296.964 378.475 289.053 381.415 280.316 384.682C271.58 387.949 263.639 390.821 257.842 392.763C254.947 393.738 252.633 394.505 250.958 394.996L249.068 395.554C248.852 395.636 248.629 395.681 248.398 395.703C248.599 395.584 248.808 395.487 249.031 395.42L250.877 394.736L257.686 392.295C263.431 390.233 271.342 387.286 280.078 384.027C288.815 380.767 296.763 377.887 302.552 375.945C305.447 374.97 307.762 374.204 309.436 373.712L311.326 373.154C311.542 373.072 311.765 373.02 311.996 372.998Z" fill="#E0E0E0"/>
<path d="M238.46 138C239.085 133.49 232.715 129.814 227.93 129.397C225.652 129.211 223.278 129.561 221.12 128.809C216.439 127.172 214.571 121.129 210.002 119.202C206.586 117.758 202.65 119.038 199.338 120.69C196.027 122.342 192.76 124.456 189.054 124.694C185.839 124.902 182.356 123.704 179.528 125.282C177.429 126.45 176.336 128.869 174.401 130.29C172.466 131.711 170.04 131.987 167.703 132.113C165.366 132.24 162.925 132.262 160.782 133.245C158.639 134.227 156.883 136.482 157.322 138.789L238.46 138Z" fill="white"/>
<path d="M333.952 157.801C334.332 155.025 330.417 152.741 327.471 152.503C326.064 152.391 324.605 152.607 323.273 152.138C320.393 151.133 319.24 147.412 316.427 146.222C314.328 145.336 311.902 146.125 309.863 147.152C307.824 148.179 305.815 149.474 303.53 149.615C301.551 149.742 299.4 149.005 297.666 149.98C296.379 150.724 295.701 152.212 294.511 153.061C293.275 153.835 291.839 154.229 290.381 154.207C288.929 154.17 287.486 154.4 286.124 154.899C284.807 155.502 283.713 156.893 283.988 158.315L333.952 157.801Z" fill="white"/>
<path d="M319.628 94.3296C320.328 89.2766 313.191 85.1166 307.833 84.6552C305.28 84.4469 302.624 84.8413 300.198 83.9929C294.988 82.1697 292.86 75.3902 287.74 73.2321C283.915 71.647 279.517 73.0907 275.796 74.9511C272.075 76.8116 268.421 79.1706 264.276 79.4162C260.667 79.6469 256.752 78.3148 253.597 80.0711C251.245 81.3883 250.017 84.0971 247.852 85.6897C245.686 87.2822 242.963 87.5873 240.336 87.7287C237.709 87.8701 234.978 87.8999 232.589 88.9938C230.2 90.0878 228.213 92.6254 228.704 95.2152L319.628 94.3296Z" fill="white"/>
<path d="M99.4325 232.903C101.33 232.092 103.354 233.819 104.389 235.605C105.423 237.391 106.257 239.549 108.147 240.375C109.613 241.015 111.302 240.65 112.91 240.71C117.843 240.903 121.661 245.16 123.871 249.573C125.248 252.334 126.26 255.497 125.337 258.429C124.534 261.011 122.361 262.923 120.098 264.397C115.551 267.441 110.164 268.966 104.701 268.773C99.2092 268.52 94.0669 266.012 90.4948 261.837C87.8381 258.585 86.4242 254.462 85.814 250.317C85.2037 246.165 85.3377 241.945 85.4791 237.755" fill="#263238"/>
<path d="M120.769 254.644C120.769 254.644 120.769 254.197 120.687 253.416C120.568 252.307 120.263 251.228 119.772 250.231C119.05 248.75 117.986 247.462 116.661 246.48C115.032 245.289 113.141 244.493 111.147 244.158C109.041 243.779 106.95 243.972 105.067 243.57C103.407 243.206 101.874 242.41 100.617 241.263C99.7758 240.512 99.0242 239.663 98.3694 238.741C98.1387 238.413 97.9675 238.16 97.8559 237.974C97.7963 237.885 97.7442 237.788 97.707 237.691C97.9824 237.997 98.2428 238.324 98.481 238.659C99.1731 239.537 99.9396 240.341 100.788 241.07C102.023 242.164 103.527 242.908 105.141 243.243C106.957 243.615 109.041 243.414 111.214 243.801C113.26 244.143 115.195 244.969 116.855 246.212C118.209 247.239 119.288 248.579 120.003 250.112C120.479 251.146 120.762 252.255 120.829 253.394C120.851 253.699 120.851 254.004 120.829 254.309C120.829 254.421 120.814 254.525 120.784 254.636L120.769 254.644Z" fill="#455A64"/>
<path d="M139.958 245.629L132.695 272.814L117.952 256.955C111.165 252.52 103.151 250.347 95.0539 250.749L72.1183 249.677L59.4598 254.239C56.4086 255.348 53.484 256.769 50.7305 258.481L26.0535 275.508C20.8368 279.281 16.5429 282.161 15.5382 287.921C14.2136 295.504 18.0536 304.01 26.0461 305.416L60.9481 305.841L62.0272 327.906L116.888 322.8L115.422 289.498C126.622 298.123 131.883 301.487 140.308 299.842C143.113 299.299 147.124 296.345 148.434 291.976C153.093 276.393 153.881 251.873 153.881 251.873L139.965 245.629H139.958ZM53.9231 284.639L57.1082 283.738L57.3091 284.892L53.9231 284.646V284.639Z" fill="#FF725E"/>
<path d="M25.5348 305.426H30.0222L42.2863 305.389H82.8813L82.7027 305.56C82.7027 305.158 82.7474 304.734 82.7623 304.302C83.0153 298.818 83.2683 293.519 83.4916 288.585L83.6478 288.771C71.2944 287.618 60.7122 285.839 53.1588 284.879C49.3783 284.381 46.357 284.053 44.2881 283.808L41.9142 283.547L41.304 283.473L41.0956 283.436H41.3114L41.9216 283.48L44.303 283.689C46.3718 283.889 49.4007 284.195 53.1885 284.663C60.7717 285.556 71.3391 287.29 83.6776 288.422H83.8413V288.585C83.6106 293.512 83.3725 298.818 83.1492 304.302C83.1492 304.727 83.1046 305.158 83.0897 305.553V305.724H82.9185L42.3235 305.582L29.9924 305.493L26.6585 305.448H25.7952C25.7059 305.448 25.6166 305.426 25.5273 305.404L25.5348 305.426Z" fill="#263238"/>
<path d="M26.2422 281.841C26.4133 281.722 26.5994 281.625 26.8003 281.566C27.3287 281.35 27.8645 281.172 28.4152 281.038C32.0914 280.1 35.9761 280.487 39.3844 282.139C39.8979 282.385 40.3891 282.667 40.8579 282.98C41.0439 283.084 41.2077 283.211 41.3565 283.359C41.3118 283.412 40.5751 282.935 39.2877 282.37C35.8868 280.881 32.1063 280.502 28.4747 281.291C27.0906 281.588 26.2645 281.908 26.2422 281.849V281.841Z" fill="#263238"/>
<path d="M33.832 275.51C34.3678 275.711 34.8664 275.979 35.3353 276.306C36.4962 277.035 37.5976 277.846 38.6394 278.732C39.8376 279.774 40.9464 280.801 41.4003 281.791C41.5938 282.178 41.6906 282.602 41.6831 283.033C41.6831 283.19 41.6534 283.346 41.579 283.487C41.5715 282.937 41.4301 282.393 41.1771 281.91C40.4255 280.801 39.4878 279.819 38.4162 279.015C37.2106 277.98 36.0497 277.125 35.2013 276.522C34.7176 276.224 34.2562 275.882 33.832 275.51Z" fill="#263238"/>
<path d="M57.5813 285.019C57.3134 284.32 57.1125 283.598 56.9636 282.861C56.6213 281.522 56.1673 279.669 55.5869 277.644C55.0064 275.62 54.4408 273.797 53.9646 272.502C53.4883 271.207 53.1683 270.433 53.2204 270.389C53.3469 270.545 53.4511 270.724 53.5329 270.91C53.7115 271.252 53.9422 271.765 54.225 272.405C54.9022 274.08 55.4753 275.799 55.9515 277.54C56.5097 279.609 56.9264 281.447 57.2092 282.802C57.3952 283.531 57.5292 284.268 57.5962 285.012L57.5813 285.019Z" fill="#263238"/>
<path d="M116.131 304.943C116.034 304.943 115.64 296.668 115.245 286.443C114.851 276.218 114.62 267.92 114.724 267.92C114.828 267.92 115.223 276.195 115.61 286.428C115.997 296.66 116.235 304.943 116.131 304.943Z" fill="#263238"/>
<g opacity="0.3">
<path d="M115.027 271.717C115.6 275.274 117.096 278.615 118.332 282.001C119.567 285.387 120.4 289.079 119.671 292.599L115.533 289.279" fill="black"/>
</g>
<path d="M136.299 287.417C136.172 287.26 136.06 287.089 135.979 286.896C135.793 286.553 135.554 286.04 135.287 285.4C133.858 282.051 133.002 278.479 132.741 274.848C132.697 274.155 132.682 273.582 132.689 273.203C132.682 272.987 132.697 272.779 132.741 272.57C132.875 273.307 132.965 274.059 133.009 274.803C133.396 278.397 134.23 281.925 135.502 285.303C136.001 286.598 136.343 287.387 136.299 287.417Z" fill="#263238"/>
<path opacity="0.3" d="M54.1875 272.639L55.0805 284.315L57.1121 283.734L54.1875 272.639Z" fill="black"/>
<path d="M113.765 272.569C113.698 272.554 113.638 272.532 113.586 272.494L113.065 272.249C112.411 271.936 111.726 271.668 111.034 271.453C108.474 270.641 105.743 270.5 103.108 271.051C101.307 271.453 99.5808 272.152 98.0032 273.119C96.2841 274.124 94.5576 275.412 92.6823 276.654C90.74 278.024 88.567 279.051 86.2674 279.676C83.7893 280.293 81.207 280.398 78.6842 279.988C77.4043 279.765 76.154 279.423 74.941 278.969C73.7652 278.507 72.6415 277.934 71.5848 277.25C70.5652 276.58 69.6201 275.813 68.7569 274.95C67.9457 274.124 67.1867 273.246 66.4871 272.316C65.1104 270.507 63.9569 268.706 62.7737 267.099C61.7169 265.573 60.4741 264.189 59.0825 262.961C57.9216 261.972 56.6193 261.168 55.2128 260.58C54.1486 260.141 53.0175 259.888 51.8714 259.828C50.8891 259.806 49.9142 259.947 48.9766 260.245L49.1552 260.171L49.691 259.985C49.9291 259.91 50.2417 259.851 50.5989 259.776C51.0231 259.717 51.4472 259.687 51.8714 259.694C53.0398 259.717 54.1933 259.947 55.2798 260.387C56.716 260.96 58.0556 261.763 59.2463 262.761C60.6676 263.981 61.9253 265.365 63.0044 266.898C64.2099 268.506 65.3783 270.306 66.7476 272.085C67.4397 273 68.1913 273.871 68.995 274.682C69.8359 275.516 70.7587 276.267 71.7559 276.922C72.7978 277.585 73.8992 278.15 75.0526 278.604C76.2433 279.051 77.4787 279.385 78.7363 279.594C81.2145 280.003 83.7521 279.906 86.193 279.296C88.4553 278.686 90.5986 277.681 92.5186 276.334C94.4013 275.106 96.1278 273.834 97.8767 272.814C99.4841 271.839 101.24 271.14 103.078 270.746C105.75 270.21 108.518 270.388 111.101 271.266C111.793 271.497 112.47 271.787 113.125 272.13L113.624 272.413L113.78 272.569H113.765Z" fill="#FAFAFA"/>
<path d="M127.234 266.941C127.301 267.216 127.323 267.507 127.308 267.789C127.323 268.571 127.256 269.352 127.115 270.119C126.906 271.265 126.534 272.366 126.021 273.408C125.381 274.673 124.622 275.871 123.744 276.98C122.144 279.012 120.09 280.649 117.76 281.765C117.061 282.1 116.332 282.375 115.587 282.599C115.319 282.695 115.037 282.755 114.754 282.785C114.754 282.718 115.915 282.42 117.649 281.534C119.904 280.373 121.891 278.744 123.461 276.757C124.324 275.663 125.083 274.487 125.723 273.252C126.244 272.247 126.631 271.175 126.869 270.067C127.048 269.032 127.174 267.983 127.234 266.934V266.941Z" fill="#FAFAFA"/>
<path d="M135.578 299.853C135.578 299.853 135.482 299.816 135.318 299.712C135.08 299.563 134.849 299.399 134.626 299.221C133.785 298.566 133.041 297.799 132.416 296.936C130.376 294.041 129.29 290.588 129.305 287.053C129.379 283.556 129.982 280.08 131.091 276.761C131.485 275.481 131.835 274.454 132.081 273.755C132.2 273.383 132.341 273.026 132.505 272.676C132.438 273.055 132.341 273.435 132.215 273.799C131.984 274.581 131.686 275.6 131.322 276.836C130.295 280.147 129.729 283.585 129.655 287.053C129.64 290.529 130.659 293.922 132.594 296.81C133.442 297.956 134.447 298.975 135.571 299.853H135.578Z" fill="#FAFAFA"/>
<path d="M151.836 268.962C151.62 269.111 151.39 269.23 151.144 269.327C150.705 269.535 150.065 269.818 149.247 270.123C147.118 270.934 144.841 271.321 142.564 271.254C140.264 271.165 138.039 270.369 136.208 268.977C135.665 268.553 135.174 268.062 134.757 267.511C134.594 267.318 134.46 267.102 134.355 266.871C134.958 267.571 135.635 268.211 136.365 268.784C138.188 270.071 140.339 270.808 142.571 270.897C144.811 270.957 147.044 270.614 149.157 269.885C150.824 269.349 151.806 268.91 151.836 268.97V268.962Z" fill="#FAFAFA"/>
<path d="M49.2289 284.198C49.1693 284.198 48.894 283.119 48.2465 281.437C46.5721 277.002 43.908 273.013 40.4624 269.761C39.1452 268.518 38.2522 267.834 38.282 267.789C38.5276 267.901 38.7582 268.042 38.9741 268.213C39.562 268.645 40.1201 269.099 40.6559 269.59C44.2429 272.775 46.9442 276.831 48.507 281.363C48.7451 282.04 48.9461 282.732 49.1172 283.432C49.1842 283.677 49.2289 283.93 49.2363 284.191L49.2289 284.198Z" fill="#FAFAFA"/>
<path d="M57.2816 285.38C57.237 285.506 57.1775 285.633 57.103 285.744C56.9095 286.087 56.6937 286.414 56.4482 286.727C55.5328 287.865 54.3868 288.803 53.0993 289.488C51.1868 290.477 49.1329 291.154 47.0045 291.482C44.6231 291.891 41.9738 292.055 39.2427 292.494C37.9181 292.695 36.6083 293.022 35.3432 293.454C34.1674 293.871 33.0437 294.421 32.0018 295.099C30.2307 296.252 28.6828 297.733 27.4474 299.452C26.6214 300.62 25.9516 301.886 25.4307 303.225C25.0586 304.17 24.9396 304.721 24.9023 304.706C24.9098 304.572 24.9321 304.438 24.9768 304.304C25.0586 303.917 25.1628 303.545 25.3042 303.173C25.773 301.804 26.4279 300.501 27.2391 299.303C28.467 297.532 30.0149 296.007 31.8158 294.823C32.88 294.124 34.026 293.551 35.2241 293.119C36.5116 292.673 37.8362 292.345 39.1832 292.129C41.9441 291.69 44.5934 291.534 46.945 291.147C49.0436 290.834 51.0752 290.202 52.9803 289.257C54.2528 288.617 55.3989 287.731 56.3365 286.66C56.984 285.863 57.2444 285.357 57.2816 285.38Z" fill="#FAFAFA"/>
<path d="M72.0122 287.279C72.1238 287.495 72.2057 287.733 72.2504 287.971C72.429 288.596 72.5704 289.244 72.6597 289.891C72.7936 290.859 72.8531 291.826 72.8308 292.801C72.7862 295.19 72.2652 297.549 71.3052 299.737C70.9183 300.63 70.4569 301.486 69.9285 302.304C69.5713 302.855 69.1843 303.383 68.7527 303.875C68.4402 304.217 68.269 304.403 68.2467 304.388C68.2243 304.373 68.8569 303.577 69.7053 302.178C70.1964 301.352 70.6206 300.496 70.9927 299.61C71.4318 298.531 71.789 297.415 72.0494 296.269C72.295 295.123 72.4438 293.955 72.4885 292.786C72.5257 291.834 72.4885 290.874 72.3918 289.921C72.2131 288.276 71.9304 287.294 71.9973 287.279H72.0122Z" fill="#FAFAFA"/>
<path d="M114.985 297.729C113.505 297.096 111.942 296.65 110.349 296.404C108.742 296.27 107.12 296.337 105.52 296.598C105.951 296.374 106.42 296.225 106.896 296.173C109.203 295.727 111.599 296.017 113.735 296.985C114.189 297.156 114.613 297.409 114.978 297.729H114.985Z" fill="#FAFAFA"/>
<path d="M147.151 228.52L140.215 245.74L153.268 251.589L156.617 236.944L147.151 228.52Z" fill="#FFBE9D"/>
<path d="M162.129 245.525L150.408 230.977C148.042 227.71 144.276 222.448 144.105 222.009C143.867 221.317 143.778 216.614 143.882 215.423C143.882 213.89 143.778 212.365 143.584 210.846L133.932 214.508L131.871 207.059L130.546 207.475C130.546 207.475 127.049 213.526 128.135 216.964C129.222 220.402 133.791 221.965 134.922 222.657C136.053 223.349 140.347 225.202 145.199 232.517L145.981 233.648L147.945 236.491L156.913 249.388C157.917 250.883 159.949 251.278 161.437 250.273C162.933 249.269 163.327 247.237 162.323 245.749C162.271 245.667 162.211 245.585 162.144 245.51V245.533L162.129 245.525Z" fill="#455A64"/>
<path d="M139.101 212.514L136.578 205.399L137.486 205.102C137.486 205.102 141.944 207.862 142.896 211.07L139.093 212.514H139.101Z" fill="#455A64"/>
<path d="M136.405 221.915L136.517 221.87L136.822 221.729L137.96 221.216L142.098 219.34L141.994 219.281C141.972 219.697 141.972 220.122 141.994 220.546C142.001 221.022 142.106 221.491 142.299 221.923C142.775 222.734 143.356 223.537 143.944 224.393C145.134 226.083 146.459 227.921 147.858 229.818C148.059 230.042 148.2 230.324 148.26 230.615C148.372 231.351 147.866 232.036 147.129 232.148C146.973 232.17 146.816 232.17 146.66 232.133C146.392 232.073 146.154 231.932 145.968 231.723C145.797 231.508 145.626 231.255 145.447 231.031L144.435 229.655L140.937 224.936C140.692 224.616 140.401 224.334 140.074 224.096C139.769 223.865 139.471 223.671 139.196 223.485C138.638 223.128 138.139 222.838 137.737 222.607C137.335 222.377 137.008 222.205 136.792 222.086L136.539 221.96H136.45L136.532 222.004L136.77 222.146L137.693 222.689C138.102 222.927 138.586 223.225 139.136 223.59C139.412 223.776 139.709 223.976 140 224.2C140.32 224.43 140.602 224.713 140.833 225.026L144.279 229.766L145.283 231.143C145.454 231.381 145.611 231.604 145.804 231.835C146.02 232.066 146.303 232.229 146.615 232.296C147.441 232.468 148.252 231.939 148.424 231.113C148.461 230.935 148.468 230.756 148.439 230.577C148.372 230.25 148.223 229.945 148.007 229.692C146.63 227.787 145.246 225.963 144.078 224.274C143.49 223.426 142.902 222.622 142.433 221.833C142.254 221.431 142.15 221 142.135 220.561C142.106 220.144 142.106 219.727 142.135 219.31V219.191L142.031 219.236L137.894 221.208L136.792 221.744L136.509 221.885H136.383L136.405 221.915Z" fill="#263238"/>
<g opacity="0.3">
<path d="M135.512 218.448L139.85 216.84L139.821 214.414L135.438 216.081L135.512 218.448Z" fill="black"/>
</g>
<path d="M138.897 214.26C138.719 214.84 138.659 215.45 138.726 216.053C138.674 216.656 138.741 217.266 138.934 217.839C139.12 217.259 139.172 216.649 139.105 216.046C139.158 215.443 139.091 214.833 138.897 214.26Z" fill="#263238"/>
<path d="M137.575 214.746C137.396 215.327 137.344 215.937 137.411 216.54C137.351 217.142 137.426 217.753 137.619 218.326C137.798 217.745 137.857 217.135 137.783 216.532C137.843 215.929 137.768 215.319 137.575 214.746Z" fill="#263238"/>
<path d="M136.327 215.061C136.148 215.641 136.089 216.251 136.156 216.854C136.104 217.457 136.171 218.067 136.364 218.64C136.543 218.06 136.602 217.449 136.535 216.847C136.587 216.244 136.52 215.634 136.327 215.061Z" fill="#263238"/>
<path d="M140.66 244.634L141.129 241.263L141.449 232.295L141.107 226.029C141.107 226.029 143.175 226.186 144.329 228.894C145.482 231.596 145.505 235.726 145.505 235.726C145.505 235.726 154.264 239.172 151.175 247.447" fill="#FFBE9D"/>
<path d="M152.515 230.966C152.597 230.267 152.455 229.56 152.113 228.942C151.659 228.287 150.952 227.848 150.163 227.729C149.456 227.588 148.734 227.588 148.027 227.729L149.672 230.029C149.337 231.413 149.092 232.812 148.943 234.226C148.853 234.948 148.861 235.856 149.486 236.228C150.044 236.481 150.699 236.332 151.101 235.863C151.473 235.387 151.726 234.836 151.845 234.241C152.187 233.176 152.411 232.075 152.515 230.966Z" fill="#FFBE9D"/>
<path d="M154.991 233.615C155.066 232.915 154.924 232.216 154.589 231.591C154.128 230.936 153.421 230.497 152.632 230.378C151.925 230.236 151.203 230.236 150.504 230.378L152.149 232.677C151.821 234.061 151.576 235.46 151.419 236.874C151.337 237.566 151.337 238.504 151.97 238.876C152.528 239.129 153.183 238.98 153.585 238.511C153.949 238.035 154.202 237.477 154.322 236.889C154.671 235.825 154.895 234.724 154.999 233.615H154.991Z" fill="#FFBE9D"/>
<path d="M157.577 236.23C157.652 235.531 157.518 234.824 157.175 234.206C156.721 233.551 156.014 233.112 155.226 232.993C154.519 232.859 153.797 232.859 153.09 232.993L154.734 235.293C154.4 236.677 154.154 238.076 154.005 239.49C153.916 240.219 153.923 241.119 154.548 241.499C155.107 241.745 155.769 241.596 156.163 241.127C156.528 240.636 156.774 240.07 156.885 239.475C157.235 238.426 157.466 237.339 157.577 236.238V236.23Z" fill="#FFBE9D"/>
<path d="M152.336 229.343C152.626 230.341 152.67 231.39 152.469 232.402C152.38 233.436 152.045 234.426 151.495 235.304C151.39 235.26 151.889 233.995 152.112 232.342C152.343 230.698 152.231 229.351 152.336 229.336V229.343Z" fill="#EB996E"/>
<path d="M154.988 232.936C155.375 234.736 154.98 236.612 153.894 238.1C153.797 238.048 154.355 236.984 154.646 235.563C154.936 234.141 154.884 232.943 154.988 232.936Z" fill="#EB996E"/>
<path d="M144.469 229.343C144.64 229.931 144.766 230.541 144.848 231.151C145.049 232.29 145.317 233.912 145.622 235.817L145.511 235.676C148.13 236.584 150.221 238.601 151.218 241.19C151.643 242.24 151.873 243.363 151.911 244.495C151.933 245.254 151.858 246.013 151.695 246.757C151.658 247.032 151.576 247.3 151.457 247.553C151.605 246.541 151.672 245.521 151.65 244.502C151.583 243.401 151.33 242.321 150.906 241.309C150.4 240.059 149.633 238.935 148.658 238.013C147.721 237.12 146.612 236.435 145.392 235.996H145.295V235.899C145.019 233.987 144.796 232.364 144.655 231.211C144.551 230.586 144.484 229.961 144.469 229.328V229.343Z" fill="#EB996E"/>
<path d="M143.562 210.826L143.414 210.886L142.975 211.049L141.345 211.66L135.994 213.728L130.651 215.797L129.021 216.408L128.575 216.564C128.478 216.608 128.426 216.616 128.426 216.608L128.567 216.541L128.999 216.355L130.606 215.663C131.983 215.12 133.851 214.376 135.935 213.595C138.018 212.813 139.923 212.084 141.308 211.593C142 211.355 142.558 211.161 142.952 211.035L143.399 210.893C143.451 210.863 143.503 210.841 143.562 210.826Z" fill="#263238"/>
<path d="M83.6685 291.061C83.6685 291.061 92.2637 288.709 93.7298 288.657C94.8535 288.62 101.373 289.729 104.372 290.242C105.54 290.413 106.359 291.492 106.21 292.661C106.195 292.728 106.18 292.802 106.158 292.869C105.89 293.569 105.25 294.067 104.506 294.142C105.391 294.581 105.897 295.548 105.763 296.531C105.525 298.227 103.426 298.272 103.426 298.272C103.426 298.272 103.531 298.384 103.672 298.577C104.327 299.515 104.104 300.802 103.166 301.457C102.868 301.665 102.526 301.792 102.161 301.822L101.201 301.889C101.856 302.283 102.236 303.005 102.184 303.764C101.812 305.989 96.7214 305.654 96.7214 305.654L83.0508 305.394L83.6685 291.061Z" fill="#FFBE9D"/>
<path d="M103.619 287.432C103.455 288.125 103.038 289.702 101.684 290.193L94.7852 288.869C94.7852 288.869 100.21 287.879 101.073 287.105C101.423 286.792 101.803 286.517 102.212 286.294C102.703 286.048 103.299 286.242 103.544 286.733C103.656 286.949 103.678 287.202 103.619 287.44V287.432Z" fill="#FFBE9D"/>
<path d="M98.0742 289.325C98.0742 289.444 99.451 289.793 101.2 290.017C102.949 290.24 104.363 290.404 104.385 290.27C104.407 290.136 103.008 289.801 101.259 289.578C99.5105 289.354 98.0965 289.198 98.0742 289.325Z" fill="#EB996E"/>
<path d="M99.0352 293.414C99.0352 293.533 100.196 293.935 101.714 294.106C103.232 294.277 104.475 294.166 104.475 294.047C104.475 293.928 103.255 293.831 101.759 293.66C100.263 293.489 99.0649 293.295 99.0352 293.422V293.414Z" fill="#EB996E"/>
<path d="M95.5869 292.39C95.4753 292.435 95.5497 292.837 95.9069 293.149C96.2641 293.462 96.6586 293.484 96.6958 293.372C96.733 293.261 96.48 293.052 96.2121 292.814C95.9442 292.576 95.706 292.338 95.5944 292.39H95.5869Z" fill="#EB996E"/>
<path d="M97.582 297.686C97.582 297.813 98.8992 298.073 100.544 298.267C102.189 298.46 103.543 298.52 103.565 298.401C103.588 298.281 102.255 298.021 100.603 297.82C98.9513 297.619 97.6267 297.567 97.5895 297.686H97.582Z" fill="#EB996E"/>
<path d="M93.9325 295.242C93.8804 295.242 93.7539 295.339 93.6795 295.607C93.5902 295.964 93.6423 296.344 93.8209 296.664C93.9995 296.991 94.2972 297.237 94.6544 297.356C94.9148 297.423 95.086 297.356 95.0934 297.318C95.1009 297.281 94.5279 297.028 94.2079 296.455C93.8879 295.882 94.0441 295.279 93.9251 295.242H93.9325Z" fill="#EB996E"/>
<path d="M95.9023 301.815C95.9023 301.942 97.1154 302.076 98.6112 302.121C100.107 302.165 101.327 302.121 101.327 301.979C101.327 301.838 100.122 301.719 98.626 301.674C97.1302 301.629 95.9098 301.696 95.9023 301.815Z" fill="#EB996E"/>
<path d="M92.3767 299.054C92.3246 299.054 92.2129 299.173 92.1757 299.441C92.1534 299.791 92.2278 300.141 92.4064 300.439C92.8232 301.131 93.359 301.436 93.4334 301.361C93.5078 301.287 93.1432 300.796 92.8008 300.215C92.4585 299.635 92.4883 299.084 92.3767 299.047V299.054Z" fill="#EB996E"/>
<path d="M56.8012 223.118C56.5259 220.908 54.0998 219.353 51.8971 219.673C49.6645 220.127 47.8859 221.816 47.3204 224.019C46.7845 226.199 47.0301 228.499 48.0124 230.515C48.7045 232.115 49.9175 233.693 51.6366 234.043C53.2589 234.259 54.8738 233.611 55.9082 232.339C56.9054 231.073 57.6793 229.645 58.1854 228.119L56.8161 223.118H56.8012Z" fill="#263238"/>
<path d="M59.605 222.635C58.846 222.233 57.9157 222.441 57.3948 223.126C56.9111 223.803 56.6729 224.622 56.7027 225.448C56.6655 226.824 56.926 228.194 57.4767 229.451C57.5957 229.853 57.8785 230.181 58.2655 230.352C58.6599 230.441 59.0692 230.292 59.3148 229.965C59.5529 229.645 59.7092 229.273 59.7762 228.886C60.3269 226.579 60.2078 224.168 59.4413 221.928" fill="#FF725E"/>
<path d="M98.6738 211.989C102.551 210.091 104.776 208.126 104.456 206.519C104.129 204.912 96.3296 202.426 94.5064 201.749C90.1975 200.149 86.1194 203.959 79.3325 205.321C66.1159 207.978 55.9355 212.815 56.5755 216.134C56.8955 217.734 59.6787 218.686 63.9577 218.947" fill="#FF725E"/>
<g opacity="0.4">
<path d="M96.3649 212.338C99.8104 210.656 101.879 208.892 101.492 207.508C100.443 203.609 90.9249 204.063 79.2041 206.444C67.4832 208.833 58.4638 213.067 59.0591 216.022C59.3419 217.443 61.82 218.284 65.593 218.515" fill="black"/>
</g>
<path d="M65.6179 217.277C64.018 208.28 70.0086 199.685 79.0132 198.085C79.162 198.055 79.3034 198.033 79.4523 198.01C88.2038 196.708 96.3601 202.84 98.1461 211.495C99.7089 219.078 101.115 226.773 101.234 229.579C101.577 238.047 96.7991 241.605 94.8494 242.684C94.1424 242.989 93.4057 243.219 92.6466 243.376C92.6466 243.376 92.5945 243.413 92.6019 243.443L94.9982 253.058C96.1889 259.383 92.9294 265.24 86.6336 266.512C80.3378 267.785 75.0616 263.164 73.7444 256.86L65.6105 217.292L65.6179 217.277Z" fill="#FFBE9D"/>
<path d="M95.5622 216.769C95.6962 217.484 95.2571 218.176 94.5576 218.362C93.8729 218.555 93.1585 218.161 92.965 217.476C92.965 217.469 92.965 217.454 92.9576 217.446C92.8237 216.732 93.2627 216.04 93.9622 215.854C94.6469 215.66 95.3613 216.055 95.5548 216.739C95.5548 216.747 95.5548 216.762 95.5622 216.769Z" fill="#263238"/>
<path d="M96.3133 213.902C96.1794 214.103 95.0333 213.567 93.6119 213.857C92.1905 214.147 91.2975 215.063 91.1115 214.929C90.9254 214.795 91.1115 214.519 91.5133 214.103C92.0417 213.552 92.7264 213.172 93.478 213.031C94.2147 212.882 94.9812 212.964 95.6733 213.277C96.2017 213.522 96.3803 213.805 96.3208 213.902H96.3133Z" fill="#263238"/>
<path d="M81.5888 219.575C81.7228 220.29 81.2837 220.982 80.5842 221.168C79.8995 221.369 79.1777 220.974 78.9768 220.29C78.9768 220.275 78.9693 220.26 78.9693 220.252C78.8354 219.538 79.2744 218.846 79.974 218.66C80.6586 218.452 81.373 218.839 81.5814 219.523C81.5814 219.538 81.5888 219.56 81.5963 219.575H81.5888Z" fill="#263238"/>
<path d="M82.4014 216.964C82.2749 217.173 81.1289 216.637 79.7075 216.92C78.2861 217.202 77.3931 218.133 77.1996 217.991C77.1103 217.932 77.1996 217.582 77.6015 217.165C78.1298 216.615 78.8219 216.243 79.5661 216.094C80.3028 215.945 81.0768 216.034 81.7614 216.347C82.2526 216.592 82.4684 216.868 82.4089 216.964H82.4014Z" fill="#263238"/>
<path d="M89.6768 226.471C90.3763 226.092 91.1205 225.794 91.8945 225.593C92.2517 225.482 92.5865 225.34 92.5865 225.08C92.5419 224.7 92.3856 224.343 92.1326 224.053L90.4954 221.5C88.2182 217.869 86.4917 214.847 86.6331 214.758C86.7745 214.669 88.7466 217.519 91.0312 221.18L92.6163 223.755C92.9289 224.142 93.1 224.633 93.0926 225.132C93.0405 225.415 92.8619 225.653 92.6014 225.779C92.4154 225.876 92.207 225.95 91.9986 225.995C91.247 226.255 90.4656 226.412 89.6694 226.471H89.6768Z" fill="#263238"/>
<path d="M92.5933 243.386C92.5933 243.386 87.1905 244.941 79.4883 242.188C79.4883 242.188 83.1124 249.004 93.2259 245.975L92.5933 243.386Z" fill="#EB996E"/>
<path d="M89.7594 230.028C89.0673 229.448 88.1297 229.262 87.2664 229.537C86.6488 229.723 86.1278 230.147 85.8302 230.72C85.5325 231.286 85.6218 231.971 86.0609 232.439C86.6264 232.871 87.4004 232.908 88.0106 232.536C88.6357 232.164 89.179 231.673 89.6106 231.085C89.752 230.944 89.8636 230.773 89.938 230.579C90.0125 230.4 89.9678 230.192 89.8264 230.058" fill="#EB996E"/>
<path d="M85.6837 228.298C85.9143 228.239 86.2195 229.779 87.7525 230.605C89.2855 231.431 90.9004 230.933 90.9599 231.149C91.0045 231.238 90.6548 231.521 89.9701 231.677C89.0697 231.871 88.1246 231.744 87.306 231.312C86.5246 230.896 85.9367 230.196 85.6613 229.355C85.4827 228.723 85.5795 228.306 85.6911 228.291L85.6837 228.298Z" fill="#263238"/>
<path d="M82.026 212.381C81.9664 212.798 80.5078 212.902 78.8781 213.438C77.2483 213.974 75.9907 214.703 75.7004 214.398C75.5665 214.257 75.7376 213.84 76.2065 213.356C77.4939 212.121 79.2725 211.555 81.0362 211.823C81.7209 211.95 82.0483 212.188 82.026 212.381Z" fill="#263238"/>
<path d="M95.0634 210.346C94.8773 210.718 93.828 210.584 92.6522 210.8C91.4764 211.016 90.5239 211.492 90.2187 211.157C90.0848 211.016 90.1741 210.659 90.5536 210.264C91.588 209.267 93.1285 208.992 94.4531 209.572C94.9368 209.848 95.1452 210.16 95.0634 210.339V210.346Z" fill="#263238"/>
<path d="M85.597 203.683C84.5104 206.22 82.3449 208.133 79.6956 208.9C77.9765 209.391 75.9375 209.48 74.8659 210.894C74.0696 211.928 74.0696 213.335 73.891 214.622C73.6082 216.587 74.1068 218.849 72.611 220.137C71.4352 221.149 70.3338 221.126 69.6194 222.496C68.905 223.865 69.0389 225.807 69.3366 227.415C69.6343 229.022 70.0287 231.552 68.7115 232.572C67.4836 226.752 64.3357 220.524 63.1153 214.704C62.8771 213.848 62.8027 212.955 62.892 212.07C63.2343 210.098 65.1245 208.818 66.9106 207.932C71.9784 205.394 77.5672 204.092 83.0816 202.805" fill="#263238"/>
<path d="M100.847 205.625C100.847 205.625 94.5964 192.237 94.1647 191.612C93.7331 190.987 88.4866 185.636 78.5518 185.792L70.6263 187.385C70.6263 187.385 60.1036 193.264 58.6004 196.412C57.0971 199.56 58.8906 213.044 58.8906 213.044L80.1369 203.757L95.9954 204.404L100.84 205.625H100.847Z" fill="#FF725E"/>
<path d="M75.6327 184.698L77.8206 184.259C78.7136 184.073 79.629 184.438 80.1499 185.189C80.5815 185.844 80.909 186.558 81.1025 187.317C81.7573 189.751 85.7089 206.54 85.7089 206.54L75.6848 208.08L71.8151 187.154L68.6151 188.575L68.5556 187.957C68.5109 187.578 68.5853 187.198 68.7714 186.871C69.0244 186.41 69.4709 186.075 69.9844 185.971L75.6402 184.713L75.6327 184.698Z" fill="#FF725E"/>
<path d="M98.3467 207.59L96.3225 202.924L79.8166 201.197L62.2539 210.447L63.3553 215.962C63.3553 215.962 77.7998 206.511 98.3467 207.59Z" fill="#455A64"/>
<path d="M94.5047 201.747L95.2936 202.253L101.321 205.118C101.321 205.118 90.4341 203.741 79.7625 205.988C69.091 208.236 57.5859 214.316 57.5859 214.316L63.7924 208.63C65.5635 205.773 68.4138 203.748 71.6956 203.019L85.0685 200.057C88.3132 199.335 91.7141 199.938 94.5122 201.747H94.5047Z" fill="#FF725E"/>
<path d="M99.8244 205.617C99.8244 205.617 99.6979 205.52 99.43 205.387C99.043 205.193 98.6337 205.037 98.217 204.925C96.6765 204.516 95.0914 204.3 93.4989 204.278C88.2598 204.196 83.0357 204.925 78.0199 206.443C75.0804 207.254 72.26 207.976 69.7446 208.862C67.5344 209.658 65.3763 210.581 63.2703 211.623C62.3772 212.069 61.581 212.523 60.9038 212.955C60.2861 213.29 59.7503 213.759 59.3484 214.332C59.1028 214.719 59.0135 215.18 59.088 215.626C59.1549 215.932 59.274 216.051 59.2889 216.051C59.1252 215.507 59.2219 214.919 59.5494 214.458C59.9661 213.952 60.4945 213.543 61.0898 213.267C61.7819 212.866 62.5707 212.456 63.4712 212.025C65.2721 211.199 67.4749 210.253 69.9381 209.383C72.4014 208.512 75.2441 207.827 78.2134 207.016C83.1845 205.528 88.3417 204.746 93.5286 204.702C95.0914 204.687 96.6542 204.836 98.1872 205.148C99.2514 205.386 99.7946 205.677 99.8319 205.617H99.8244Z" fill="#263238"/>
<path d="M98.2695 207.439C100.182 211.711 106.843 217.784 100.457 223.677C100.457 223.677 98.4407 214.025 96.9003 210.416C96.5058 209.322 95.8733 208.332 95.0547 207.514" fill="#263238"/>
<path d="M65.5178 215.428C60.9932 216.298 57.957 220.57 58.6193 225.132C58.8351 226.27 59.3114 227.394 59.1625 228.577C59.0137 229.761 58.4184 230.691 58.1356 231.792C57.5774 233.958 57.4435 237.522 58.21 239.643C59.9588 244.674 66.3439 250.88 72.1336 249.727" fill="#263238"/>
<path d="M69.7989 245.54C71.0193 245.778 72.2844 245.399 73.17 244.528C74.0333 243.65 74.6435 242.563 74.9561 241.38C76.0574 237.533 75.2165 233.395 72.7086 230.284C75.6333 225.001 75.7151 218.608 72.9319 213.25L64.8203 215.646L69.7989 245.54Z" fill="#263238"/>
<path d="M56.8948 228.076C56.5674 228.56 56.1283 228.954 55.6148 229.229C54.4018 229.981 52.9655 230.294 51.5441 230.122C50.1228 229.959 48.8056 229.311 47.8158 228.277C47.3767 227.875 47.1014 227.332 47.0195 226.736C47.28 227.235 47.6074 227.704 47.9944 228.113C48.9842 229.036 50.2418 229.616 51.5888 229.78C52.9358 229.936 54.2976 229.676 55.4883 229.021C56.3962 228.507 56.8502 228.031 56.9022 228.076H56.8948Z" fill="#455A64"/>
<path d="M56.2719 226.987C55.8403 227.262 55.3491 227.434 54.8431 227.501C52.3649 227.992 49.805 227.166 48.0785 225.32C47.7064 224.97 47.4161 224.539 47.2227 224.062C47.2673 224.062 47.5947 224.509 48.2571 225.142C50.0059 226.801 52.4096 227.582 54.7984 227.255C55.6989 227.129 56.2496 226.935 56.2644 226.995L56.2719 226.987Z" fill="#455A64"/>
<path d="M73.881 215.482C73.9033 215.758 73.881 216.026 73.8363 216.294C73.7396 217.03 73.561 217.76 73.3154 218.467C71.6782 223.289 67.2131 226.593 62.1229 226.742C61.3788 226.772 60.6346 226.72 59.8978 226.6C59.6225 226.571 59.3546 226.504 59.1016 226.4C60.0988 226.496 61.1034 226.526 62.1081 226.489C67.0494 226.206 71.3508 223.028 73.0773 218.392C73.3973 217.44 73.6652 216.465 73.8735 215.482H73.881Z" fill="#455A64"/>
<path d="M74.1318 227.644C74.1318 227.644 74.0127 227.838 73.7299 228.12C73.3132 228.522 72.8518 228.872 72.3532 229.155C70.7011 230.085 68.8257 230.561 66.9281 230.532C65.0602 230.487 63.2072 230.197 61.4137 229.676C60.7216 229.482 60.1709 229.319 59.7914 229.185C59.5905 229.133 59.397 229.058 59.2109 228.954C59.9774 229.058 60.7291 229.214 61.4732 229.423C63.2667 229.869 65.1048 230.122 66.9504 230.167C68.7885 230.189 70.6118 229.765 72.2564 228.932C72.9113 228.537 73.5364 228.106 74.1392 227.637L74.1318 227.644Z" fill="#455A64"/>
<path d="M101.207 204.232C101.043 204.202 100.879 204.157 100.723 204.09L99.3834 203.607L94.4643 201.843L93.1918 200.704C92.7601 200.28 92.2839 199.901 91.7704 199.588C91.2122 199.275 90.5946 199.089 89.9546 199.03C89.2625 199.008 88.563 199.067 87.8858 199.223C85.0728 199.692 81.9918 200.347 78.777 201.091C75.7928 201.783 72.9352 202.468 70.3305 203.16C69.698 203.287 69.0878 203.517 68.5296 203.852C68.0236 204.157 67.5771 204.567 67.2347 205.043C66.5947 206.04 66.0292 207.052 65.4934 207.938L60.7157 211.465L59.3985 212.418C59.2497 212.537 59.0934 212.641 58.9297 212.73C59.0562 212.589 59.205 212.47 59.3539 212.358L60.6264 211.354L65.2627 207.744V207.789C65.7985 206.881 66.3343 205.891 66.9966 204.842C67.3613 204.314 67.8301 203.867 68.3733 203.532C68.9612 203.197 69.5938 202.967 70.2561 202.84C72.8607 202.148 75.711 201.463 78.71 200.771C81.9249 200.027 85.0132 199.395 87.8485 198.918C88.5406 198.769 89.255 198.71 89.962 198.747C90.6392 198.814 91.3015 199.015 91.8894 199.357C92.4253 199.685 92.9164 200.079 93.348 200.533L94.5983 201.687H94.5536L99.4354 203.555L100.753 204.075C100.901 204.12 101.05 204.172 101.192 204.232H101.207Z" fill="#263238"/>
<path d="M74.5351 201.914C74.4458 201.691 74.3788 201.46 74.3416 201.222C74.2374 200.775 74.1035 200.135 73.9323 199.332C73.6049 197.739 73.1807 195.529 72.7267 193.125C72.5109 191.905 72.3026 190.744 72.1091 189.68C72.0198 189.159 71.9379 188.653 71.8561 188.176C71.804 187.827 71.4765 187.581 71.1268 187.633C71.097 187.633 71.0672 187.641 71.0375 187.655L69.2663 188.348C69.0505 188.459 68.8198 188.534 68.5742 188.571C68.7677 188.429 68.9761 188.318 69.1919 188.228C69.6086 188.02 70.1816 187.737 70.9407 187.395C71.417 187.239 71.9305 187.499 72.0942 187.975C72.1091 188.013 72.1165 188.05 72.124 188.087C72.2207 188.563 72.3175 189.069 72.4216 189.59C72.6226 190.654 72.8384 191.808 73.0691 193.036C73.5156 195.477 73.9026 197.694 74.163 199.294C74.297 200.091 74.4012 200.753 74.4607 201.2C74.5202 201.438 74.5425 201.683 74.5277 201.921L74.5351 201.914Z" fill="#263238"/>
<path d="M84.1081 199.78C83.7956 199.147 83.55 198.478 83.3863 197.786C83.0068 196.528 82.5751 194.779 82.1137 192.844C81.6523 190.909 81.2579 189.138 80.99 187.866C80.8114 187.189 80.6923 186.496 80.6328 185.797C80.8933 186.467 81.0942 187.159 81.243 187.866C81.5705 189.131 82.0095 190.88 82.4709 192.814C82.9323 194.749 83.3193 196.401 83.6467 197.778C83.8477 198.433 84.004 199.103 84.123 199.78H84.1081Z" fill="#263238"/>
<path d="M101.026 227.497C102.44 227.438 103.831 227.103 105.119 226.515C106.518 225.92 107.738 224.967 108.654 223.754C109.673 222.191 109.993 220.264 109.524 218.455C109.122 216.632 107.999 215.04 106.406 214.057C105.029 213.373 103.623 212.755 102.187 212.219C101.212 211.803 100.341 211.17 99.6415 210.374C99.4555 210.158 99.2992 209.927 99.1652 209.682C99.0834 209.51 99.0387 209.414 99.0536 209.406C99.2694 209.719 99.5001 210.024 99.7457 210.307C100.475 211.036 101.346 211.609 102.306 211.989C103.772 212.502 105.201 213.097 106.592 213.782C108.274 214.802 109.457 216.461 109.881 218.381C110.38 220.286 110.03 222.318 108.936 223.955C107.976 225.205 106.696 226.18 105.23 226.775C104.263 227.2 103.236 227.46 102.179 227.549C101.896 227.572 101.606 227.572 101.323 227.549C101.219 227.549 101.115 227.534 101.011 227.497H101.026Z" fill="#263238"/>
<path d="M49.4092 224.755C49.4092 224.755 49.3497 224.755 49.2529 224.636C49.1115 224.51 48.985 224.369 48.8734 224.22C48.4641 223.662 48.1962 223.007 48.092 222.322C47.9208 221.288 48.1143 220.231 48.6352 219.323C49.9822 217.232 52.7729 216.629 54.8566 217.976C55.0129 218.08 55.1692 218.192 55.3105 218.311C56.0771 219.018 56.5757 219.97 56.7245 221.005C56.8287 221.697 56.7617 222.411 56.5384 223.074C56.4789 223.252 56.397 223.416 56.3003 223.58C56.2408 223.691 56.1961 223.743 56.1887 223.736C56.1812 223.729 56.2854 223.49 56.4045 223.044C56.5682 222.404 56.598 221.734 56.4789 221.079C56.3077 220.119 55.824 219.241 55.1022 218.586C53.2864 217.105 50.6148 217.381 49.1339 219.196C49.052 219.301 48.9701 219.412 48.8957 219.524C48.4046 220.357 48.2036 221.325 48.3152 222.285C48.3971 222.94 48.6204 223.572 48.9627 224.13C49.238 224.532 49.4241 224.718 49.4018 224.741L49.4092 224.755Z" fill="#263238"/>
<path d="M70.8728 248.571C70.7835 248.623 70.6868 248.653 70.5826 248.675C70.3891 248.735 70.1063 248.809 69.7342 248.899C68.6849 249.152 67.6133 249.308 66.5342 249.375C64.9194 249.502 63.297 249.248 61.7938 248.646C59.9706 247.812 58.4748 246.398 57.5296 244.635C56.5845 242.886 56.0859 240.929 56.0859 238.942C56.0859 237.334 56.3166 235.734 56.778 234.194C57.0831 233.159 57.4627 232.155 57.9092 231.172C58.0655 230.83 58.1994 230.562 58.2962 230.384C58.3408 230.287 58.3929 230.205 58.4524 230.123C58.3408 230.503 58.1994 230.867 58.0357 231.224C57.6413 232.214 57.299 233.226 57.0236 234.261C56.5994 235.786 56.3911 237.356 56.3985 238.934C56.4134 240.862 56.9045 242.759 57.8273 244.449C58.7278 246.153 60.1566 247.515 61.9054 248.333C63.3715 248.943 64.9566 249.219 66.5491 249.129C67.6133 249.085 68.6775 248.966 69.7268 248.772C70.1063 248.683 70.4858 248.616 70.8728 248.579V248.571Z" fill="#263238"/>
<path d="M56.1577 231.547C56.1503 231.659 56.1205 231.771 56.0759 231.875C55.9643 232.187 55.8154 232.478 55.6368 232.753C54.9447 233.758 53.9252 234.494 52.7494 234.822C51.9457 235.06 51.0899 235.097 50.2638 234.933C49.3187 234.74 48.4257 234.323 47.6741 233.72C46.8406 233.058 46.1634 232.217 45.702 231.257C45.2183 230.223 44.9727 229.092 44.9727 227.946C44.9653 225.735 45.7243 223.592 47.1234 221.881C48.2322 220.429 49.9438 219.559 51.7745 219.521C52.995 219.521 54.1782 219.983 55.0638 220.816C55.3912 221.107 55.6443 221.479 55.8005 221.895C55.555 221.546 55.2796 221.218 54.9745 220.921C54.0815 220.161 52.9429 219.752 51.7745 219.775C50.0406 219.849 48.4257 220.697 47.3839 222.081C46.0443 223.741 45.315 225.802 45.315 227.938C45.315 229.025 45.5532 230.104 46.0071 231.094C46.4462 232.009 47.0787 232.813 47.8676 233.453C48.582 234.026 49.4155 234.427 50.3085 234.628C51.0899 234.792 51.901 234.77 52.675 234.561C53.8061 234.264 54.8108 233.601 55.5177 232.671C55.7633 232.314 55.9866 231.934 56.1726 231.54L56.1577 231.547Z" fill="#263238"/>
<path d="M253.273 306.08H28.8355C23.287 306.08 18.7891 310.578 18.7891 316.127V457.744C18.7891 463.293 23.287 467.79 28.8355 467.79H253.273C258.821 467.79 263.319 463.293 263.319 457.744V316.127C263.319 310.578 258.821 306.08 253.273 306.08Z" fill="#455A64"/>
<path d="M9.23047 457.346H274.159V459.221C274.159 466.001 268.667 471.493 261.887 471.493H21.502C14.7225 471.493 9.23047 466.001 9.23047 459.221V457.346Z" fill="#455A64"/>
<path d="M256.066 312.504H25.3477V449.061H256.066V312.504Z" fill="#263238"/>
<path d="M116.941 455.824L120.231 461.056H166.489L169.548 455.824H116.941Z" fill="#263238"/>
<path d="M249.542 317.125H32.3603C31.115 317.125 30.1055 318.135 30.1055 319.38V446.367C30.1055 447.612 31.115 448.622 32.3603 448.622H249.542C250.787 448.622 251.797 447.612 251.797 446.367V319.38C251.797 318.135 250.787 317.125 249.542 317.125Z" fill="#EBEBEB"/>
<path d="M251.551 448.821H29.8672L30.1053 326.961H251.551V448.821Z" fill="#FAFAFA"/>
<path d="M48.2806 322.224C48.2806 323.207 47.4843 323.995 46.5094 323.995C45.5346 323.995 44.7383 323.199 44.7383 322.224C44.7383 321.242 45.5346 320.453 46.5094 320.453C47.4843 320.453 48.2731 321.242 48.2731 322.217L48.2806 322.224Z" fill="#263238"/>
<path d="M37.5814 322.224C37.5814 323.207 36.7851 323.995 35.8102 323.995C34.8353 323.995 34.0391 323.199 34.0391 322.224C34.0391 321.242 34.8353 320.453 35.8102 320.453C36.7851 320.453 37.5739 321.242 37.5739 322.217L37.5814 322.224Z" fill="#263238"/>
<path d="M42.7025 322.224C42.7025 323.207 41.9062 323.995 40.9313 323.995C39.9564 323.995 39.1602 323.199 39.1602 322.224C39.1602 321.242 39.9564 320.453 40.9313 320.453C41.9062 320.453 42.695 321.249 42.695 322.224H42.7025Z" fill="#263238"/>
<path d="M261.213 455.824C261.213 455.914 206.94 455.981 140.009 455.981C73.077 455.981 18.7891 455.914 18.7891 455.824C18.7891 455.735 73.0547 455.668 140.009 455.668C206.963 455.668 261.213 455.735 261.213 455.824Z" fill="#263238"/>
<path d="M169.245 425.04C169.245 425.137 155.946 425.219 139.552 425.219C123.158 425.219 109.859 425.137 109.859 425.04C109.859 424.943 123.158 424.861 139.552 424.861C155.946 424.861 169.245 424.98 169.245 425.04Z" fill="#E0E0E0"/>
<path d="M101.384 393.805H35.2266V443.523H101.384V393.805Z" fill="#F5F5F5"/>
<path d="M35.2539 443.559L58.3235 412.631L72.6564 431.95L82.3605 421.606L101.404 443.499L35.2539 443.559Z" fill="#E0E0E0"/>
<path d="M78.7154 408.827C78.7154 411.699 76.3936 414.036 73.5136 414.044C70.641 414.044 68.3043 411.722 68.2969 408.842C68.2969 405.969 70.6187 403.632 73.4987 403.625C76.3712 403.618 78.708 405.939 78.7154 408.812C78.7154 408.812 78.7154 408.819 78.7154 408.827Z" fill="#E0E0E0"/>
<path d="M244.122 393.881H177.965V443.6H244.122V393.881Z" fill="#F5F5F5"/>
<path d="M177.988 443.635L201.073 412.707L215.398 432.033L225.095 421.689L244.146 443.576L177.988 443.635Z" fill="#E0E0E0"/>
<path d="M221.457 408.897C221.457 411.777 219.128 414.113 216.248 414.113C213.368 414.113 211.031 411.784 211.031 408.904C211.031 406.024 213.361 403.688 216.241 403.688C219.12 403.688 221.45 406.017 221.457 408.897Z" fill="#E0E0E0"/>
<path d="M233.656 384C234.266 383.896 234.892 383.859 235.509 383.874C236.655 383.874 238.27 383.821 239.982 383.821H241.924L241.753 383.993C241.753 382.72 241.79 381.619 241.82 380.845C241.805 380.428 241.842 380.019 241.924 379.609C242.006 380.019 242.043 380.428 242.036 380.845C242.036 381.626 242.08 382.72 242.095 383.993V384.164H239.982C238.24 384.164 236.648 384.164 235.509 384.112C234.892 384.134 234.266 384.097 233.656 384Z" fill="#E0E0E0"/>
<path d="M217.098 383.995C219.851 383.757 222.619 383.757 225.373 383.995C222.619 384.233 219.851 384.233 217.098 383.995Z" fill="#E0E0E0"/>
<path d="M200.551 383.995C203.304 383.757 206.073 383.757 208.826 383.995C206.073 384.233 203.304 384.233 200.551 383.995Z" fill="#E0E0E0"/>
<path d="M184.004 383.995C186.757 383.757 189.526 383.757 192.279 383.995C189.526 384.233 186.757 384.233 184.004 383.995Z" fill="#E0E0E0"/>
<path d="M167.449 383.995C170.203 383.757 172.971 383.757 175.725 383.995C172.971 384.233 170.203 384.233 167.449 383.995Z" fill="#E0E0E0"/>
<path d="M150.902 383.995C153.656 383.757 156.424 383.757 159.178 383.995C156.424 384.233 153.656 384.233 150.902 383.995Z" fill="#E0E0E0"/>
<path d="M134.352 383.995C137.105 383.757 139.873 383.757 142.627 383.995C139.873 384.233 137.105 384.233 134.352 383.995Z" fill="#E0E0E0"/>
<path d="M117.801 383.995C120.554 383.757 123.323 383.757 126.076 383.995C123.323 384.233 120.554 384.233 117.801 383.995Z" fill="#E0E0E0"/>
<path d="M101.25 383.996C102.619 383.817 104.003 383.758 105.388 383.817C106.772 383.758 108.156 383.817 109.525 383.996C108.156 384.174 106.772 384.234 105.388 384.174C104.003 384.234 102.619 384.174 101.25 383.996Z" fill="#E0E0E0"/>
<path d="M84.6953 383.996C86.0646 383.817 87.4488 383.758 88.833 383.817C90.2171 383.758 91.6013 383.817 92.9706 383.996C91.6013 384.174 90.2171 384.234 88.833 384.174C87.4488 384.234 86.0646 384.174 84.6953 383.996Z" fill="#E0E0E0"/>
<path d="M68.1445 383.996C69.5138 383.817 70.898 383.758 72.2822 383.817C73.6664 383.758 75.0505 383.817 76.4198 383.996C75.0505 384.174 73.6664 384.234 72.2822 384.174C70.898 384.234 69.5138 384.174 68.1445 383.996Z" fill="#E0E0E0"/>
<path d="M51.5938 383.996C52.963 383.817 54.3472 383.758 55.7314 383.817C57.1156 383.758 58.4997 383.817 59.869 383.996C58.4997 384.174 57.1156 384.234 55.7314 384.174C54.3472 384.234 52.963 384.174 51.5938 383.996Z" fill="#E0E0E0"/>
<path d="M35.0586 383.989C36.4279 383.817 37.8121 383.758 39.1962 383.817C40.5804 383.758 41.9646 383.817 43.3339 383.996C41.9646 384.175 40.5804 384.234 39.1962 384.175C37.8121 384.227 36.4279 384.175 35.0586 384.003V383.989Z" fill="#E0E0E0"/>
<path d="M35.0614 367.439C35.2996 370.193 35.2996 372.961 35.0614 375.715C34.8233 372.961 34.8233 370.193 35.0614 367.439Z" fill="#E0E0E0"/>
<path d="M35.0603 350.887C35.2389 352.256 35.2984 353.64 35.2389 355.024C35.2984 356.409 35.2389 357.793 35.0603 359.162C34.8817 357.793 34.8222 356.409 34.8817 355.024C34.8222 353.64 34.8817 352.256 35.0603 350.887Z" fill="#E0E0E0"/>
<path d="M35.0603 334.336C35.2389 335.705 35.2984 337.089 35.2389 338.474C35.2984 339.858 35.2389 341.242 35.0603 342.611C34.8817 341.242 34.8222 339.858 34.8817 338.474C34.8222 337.089 34.8817 335.705 35.0603 334.336Z" fill="#E0E0E0"/>
<path d="M49.4159 332.148C48.0466 332.327 46.6624 332.386 45.2783 332.327C43.8941 332.386 42.5099 332.327 41.1406 332.148C42.5099 331.97 43.8941 331.91 45.2783 331.97C46.6624 331.91 48.0466 331.97 49.4159 332.148Z" fill="#E0E0E0"/>
<path d="M65.9667 332.148C64.5974 332.327 63.2132 332.386 61.829 332.327C60.4449 332.386 59.0607 332.327 57.6914 332.148C59.0607 331.97 60.4449 331.91 61.829 331.97C63.2132 331.91 64.5974 331.97 65.9667 332.148Z" fill="#E0E0E0"/>
<path d="M82.5136 332.148C81.1443 332.327 79.7601 332.386 78.3759 332.327C76.9917 332.386 75.6076 332.327 74.2383 332.148C75.6076 331.97 76.9917 331.91 78.3759 331.97C79.7601 331.91 81.1443 331.97 82.5136 332.148Z" fill="#E0E0E0"/>
<path d="M99.0683 332.148C97.699 332.327 96.3148 332.386 94.9306 332.327C93.5464 332.386 92.1623 332.327 90.793 332.148C92.1623 331.97 93.5464 331.91 94.9306 331.97C96.3148 331.91 97.699 331.97 99.0683 332.148Z" fill="#E0E0E0"/>
<path d="M115.619 332.148C112.866 332.386 110.097 332.386 107.344 332.148C108.713 331.97 110.097 331.91 111.481 331.97C112.866 331.91 114.25 331.97 115.619 332.148Z" fill="#E0E0E0"/>
<path d="M132.17 332.151C129.416 332.389 126.648 332.389 123.895 332.151C126.648 331.913 129.416 331.913 132.17 332.151Z" fill="#E0E0E0"/>
<path d="M148.721 332.151C145.967 332.389 143.199 332.389 140.445 332.151C143.199 331.913 145.967 331.913 148.721 332.151Z" fill="#E0E0E0"/>
<path d="M165.271 332.151C162.518 332.389 159.75 332.389 156.996 332.151C159.75 331.913 162.518 331.913 165.271 332.151Z" fill="#E0E0E0"/>
<path d="M181.822 332.151C179.069 332.389 176.3 332.389 173.547 332.151C176.3 331.913 179.069 331.913 181.822 332.151Z" fill="#E0E0E0"/>
<path d="M198.373 332.151C195.619 332.389 192.851 332.389 190.098 332.151C192.851 331.913 195.619 331.913 198.373 332.151Z" fill="#E0E0E0"/>
<path d="M214.924 332.151C212.17 332.389 209.402 332.389 206.648 332.151C209.402 331.913 212.17 331.913 214.924 332.151Z" fill="#E0E0E0"/>
<path d="M231.475 332.151C228.721 332.389 225.953 332.389 223.199 332.151C225.953 331.913 228.721 331.913 231.475 332.151Z" fill="#E0E0E0"/>
<path d="M241.929 338.239C241.751 336.87 241.691 335.485 241.751 334.101V332.152L241.907 332.308C241.178 332.338 240.448 332.285 239.727 332.152C240.441 332.018 241.178 331.958 241.907 331.995H242.063V334.109C242.138 335.485 242.093 336.87 241.922 338.239H241.929Z" fill="#E0E0E0"/>
<path d="M241.928 354.787C241.749 353.418 241.689 352.034 241.749 350.649C241.689 349.265 241.749 347.881 241.928 346.512C242.106 347.881 242.166 349.265 242.106 350.649C242.166 352.034 242.106 353.418 241.928 354.787Z" fill="#E0E0E0"/>
<path d="M241.929 371.342C241.69 368.588 241.69 365.82 241.929 363.066C242.167 365.82 242.167 368.588 241.929 371.342Z" fill="#E0E0E0"/>
<path d="M169.245 441.808C169.245 441.912 155.946 441.986 139.552 441.986C123.158 441.986 109.859 441.912 109.859 441.808C109.859 441.703 123.158 441.629 139.552 441.629C155.946 441.629 169.245 441.711 169.245 441.808Z" fill="#E0E0E0"/>
<path d="M169.245 434.132C169.245 434.228 155.946 434.31 139.552 434.31C123.158 434.31 109.859 434.228 109.859 434.132C109.859 434.035 123.158 433.953 139.552 433.953C155.946 433.953 169.245 434.035 169.245 434.132Z" fill="#E0E0E0"/>
<path d="M42.7181 368.018H38.8633V472.002H42.7181V368.018Z" fill="#263238"/>
<path d="M40.7897 371.722C53.169 371.722 63.2044 361.687 63.2044 349.307C63.2044 336.928 53.169 326.893 40.7897 326.893C28.4104 326.893 18.375 336.928 18.375 349.307C18.375 361.687 28.4104 371.722 40.7897 371.722Z" fill="#FF725E"/>
<path d="M60.9723 349.018C60.9499 348.913 60.9351 348.802 60.9351 348.69C60.9351 348.46 60.9351 348.14 60.8681 347.738C60.8681 347.522 60.8681 347.291 60.8234 347.031C60.7788 346.77 60.7341 346.495 60.6895 346.19C60.6002 345.49 60.4588 344.791 60.2653 344.114C59.7965 342.231 59.0448 340.43 58.0328 338.77C56.7081 336.568 54.9742 334.64 52.9277 333.092C47.5175 328.977 40.3734 327.898 33.9883 330.235C33.0953 330.555 32.2246 330.941 31.3837 331.381C30.9595 331.611 30.5502 331.879 30.1334 332.125C29.7167 332.378 29.3074 332.653 28.9279 332.958C28.1465 333.554 27.3948 334.194 26.6953 334.886C25.9883 335.615 25.3335 336.389 24.7307 337.208C23.4879 338.874 22.5279 340.735 21.8805 342.714C21.2033 344.746 20.8461 346.874 20.8088 349.018C20.8386 351.161 21.1809 353.282 21.8358 355.321C22.4833 357.3 23.4507 359.161 24.6935 360.835C25.2963 361.654 25.9511 362.428 26.6507 363.157C27.3651 363.849 28.1241 364.489 28.9204 365.085C29.2999 365.39 29.7092 365.665 30.126 365.918C30.5427 366.164 30.952 366.431 31.3762 366.662C32.2171 367.109 33.0878 367.488 33.9808 367.808C43.0078 371.09 53.0914 367.511 58.0253 359.272C59.0374 357.62 59.789 355.819 60.2579 353.937C60.4513 353.252 60.5927 352.56 60.682 351.853C60.7341 351.555 60.7862 351.273 60.816 351.012C60.8458 350.752 60.816 350.521 60.8606 350.313C60.8904 349.903 60.9127 349.583 60.9276 349.353C60.9276 349.241 60.9425 349.129 60.9648 349.025C60.9723 349.137 60.9723 349.241 60.9648 349.353V351.057C60.9648 351.317 60.8904 351.593 60.8532 351.905C60.7713 352.612 60.6374 353.312 60.4588 354.004C59.9974 355.909 59.2383 357.732 58.2262 359.414C55.2644 364.43 50.2858 367.935 44.5631 369.036C40.991 369.706 37.2999 369.408 33.8767 368.173C32.9613 367.845 32.0757 367.458 31.2125 367.012C30.7883 366.781 30.3716 366.513 29.9474 366.268C29.5158 366.007 29.099 365.71 28.7046 365.39C27.886 364.794 27.1195 364.139 26.3902 363.432C25.6683 362.688 25.006 361.899 24.3884 361.073C23.1232 359.369 22.1409 357.479 21.4712 355.462C20.0721 351.287 20.0721 346.778 21.4712 342.603C22.1409 340.586 23.1232 338.696 24.3884 336.992C25.006 336.166 25.6683 335.377 26.3902 334.64C27.1121 333.926 27.886 333.256 28.7046 332.646C29.0916 332.333 29.5009 332.05 29.9325 331.805C30.3567 331.552 30.7734 331.276 31.1976 331.061C32.0609 330.614 32.9464 330.227 33.8618 329.9C37.285 328.664 40.9761 328.367 44.5482 329.044C50.2784 330.138 55.2644 333.643 58.2262 338.674C59.2458 340.355 59.9974 342.179 60.4588 344.091C60.6374 344.783 60.7713 345.483 60.8532 346.19C60.8904 346.495 60.9425 346.778 60.9648 347.038C60.9872 347.299 60.9648 347.529 60.9648 347.782V348.742C60.9723 348.832 60.9797 348.928 60.9723 349.018Z" fill="white"/>
<path d="M52.4699 346.51H29.125V351.377H52.4699V346.51Z" fill="#FAFAFA"/>
<path d="M229.418 363.095L73.582 375.605L77.2142 420.847L233.05 408.337L229.418 363.095Z" fill="white"/>
<path d="M233.061 408.314C233.009 407.659 231.684 391.585 229.34 363.083L229.429 363.165L73.6055 375.734L73.7246 375.585C74.9748 391.198 76.2027 406.394 77.3562 420.824L77.2148 420.705L188.596 411.819L233.054 408.321L232.295 408.388L230.04 408.582L221.303 409.296L188.693 411.953L77.2222 420.98H77.0883V420.839C75.9273 406.416 74.7069 391.213 73.4492 375.6V375.458H73.5906L229.407 362.979H229.496V363.06C231.736 391.57 233.002 407.652 233.046 408.307L233.061 408.314Z" fill="#263238"/>
<path d="M127.044 376.77L77.832 380.211L80.4188 417.203L129.63 413.762L127.044 376.77Z" fill="#FF725E"/>
<path d="M188.214 408.303C187.164 408.526 186.1 408.66 185.029 408.705L184.88 408.578V407.945C184.88 407.745 184.85 407.544 184.835 407.35C184.835 407 184.798 406.666 184.776 406.338C184.731 406.026 184.731 405.713 184.776 405.4C184.88 405.698 184.939 406.003 184.954 406.316C184.991 406.643 185.029 406.978 185.073 407.328C185.073 407.521 185.111 407.722 185.125 407.923L185.155 408.236V408.548L185.006 408.422C186.071 408.288 187.142 408.251 188.214 408.303Z" fill="#E0E0E0"/>
<path d="M202.649 407.081C201.466 407.319 200.268 407.46 199.062 407.52C197.864 407.669 196.651 407.728 195.445 407.684C196.629 407.446 197.827 407.304 199.032 407.245C200.23 407.096 201.443 407.036 202.649 407.081Z" fill="#E0E0E0"/>
<path d="M217.04 405.868C215.856 406.106 214.658 406.248 213.453 406.307C212.255 406.456 211.042 406.508 209.836 406.471C211.019 406.233 212.217 406.091 213.423 406.032C214.621 405.883 215.834 405.823 217.04 405.868Z" fill="#E0E0E0"/>
<path d="M227.152 401.811C227.383 402.852 227.517 403.909 227.562 404.973C227.309 405.278 227.487 405.055 227.435 405.13H226.795L226.2 405.174L225.188 405.234C224.875 405.278 224.563 405.278 224.25 405.234C224.548 405.13 224.86 405.07 225.173 405.055L226.177 404.936L226.773 404.877L227.093 404.847H227.413C227.361 404.914 227.539 404.698 227.294 404.996C227.16 403.939 227.115 402.875 227.16 401.811H227.152Z" fill="#E0E0E0"/>
<path d="M226.148 389.92C226.513 391.877 226.692 393.872 226.677 395.866C226.454 394.891 226.327 393.901 226.29 392.904C226.156 391.914 226.104 390.917 226.148 389.92Z" fill="#E0E0E0"/>
<path d="M225.143 378.037C225.366 379.012 225.5 380.002 225.538 380.999C225.664 381.989 225.701 382.986 225.649 383.983C225.426 383.008 225.299 382.018 225.262 381.021C225.136 380.032 225.098 379.034 225.143 378.045V378.037Z" fill="#E0E0E0"/>
<path d="M221.203 369.181C222.252 368.958 223.316 368.824 224.388 368.779L224.537 368.906V369.538C224.537 369.739 224.566 369.94 224.581 370.134C224.581 370.483 224.619 370.818 224.633 371.146C224.678 371.458 224.678 371.771 224.633 372.083C224.529 371.786 224.47 371.481 224.455 371.168C224.418 370.841 224.38 370.506 224.336 370.156C224.336 369.963 224.299 369.762 224.276 369.561L224.246 369.248V368.936L224.403 369.062C223.339 369.196 222.267 369.233 221.195 369.181H221.203Z" fill="#E0E0E0"/>
<path d="M206.789 370.395C207.972 370.156 209.17 370.008 210.376 369.956C211.574 369.807 212.78 369.747 213.985 369.792C212.802 370.03 211.604 370.179 210.398 370.231C209.2 370.38 207.995 370.439 206.789 370.395Z" fill="#E0E0E0"/>
<path d="M192.371 371.614C193.554 371.376 194.752 371.227 195.958 371.175C197.156 371.026 198.369 370.974 199.575 371.012C198.392 371.25 197.186 371.391 195.98 371.451C194.782 371.599 193.577 371.659 192.371 371.614Z" fill="#E0E0E0"/>
<path d="M182.253 375.67C182.03 374.629 181.896 373.572 181.852 372.508C182.105 372.203 181.919 372.426 181.978 372.359H182.306L182.618 372.329L183.213 372.284L184.226 372.225C184.538 372.18 184.851 372.18 185.163 372.225C184.866 372.329 184.553 372.389 184.24 372.403L183.228 372.523L182.633 372.582L182.32 372.612H181.993L182.119 372.463C182.261 373.527 182.298 374.599 182.246 375.67H182.253Z" fill="#E0E0E0"/>
<path d="M183.26 387.562C183.045 386.587 182.911 385.597 182.873 384.6C182.74 383.61 182.702 382.613 182.762 381.623C182.985 382.598 183.112 383.588 183.149 384.585C183.283 385.575 183.32 386.572 183.26 387.569V387.562Z" fill="#E0E0E0"/>
<path d="M184.264 399.448C184.041 398.473 183.915 397.483 183.877 396.486C183.743 395.496 183.706 394.499 183.766 393.502C183.982 394.477 184.116 395.467 184.153 396.464C184.287 397.454 184.324 398.451 184.264 399.44V399.448Z" fill="#E0E0E0"/>
<path d="M80.3125 416.602L95.8287 392.453L107.468 406.042L114.128 397.863L129.399 413.112L80.3125 416.602Z" fill="#FF725E"/>
<path d="M110.754 388.559C110.911 390.695 109.303 392.548 107.167 392.704C105.031 392.861 103.178 391.253 103.022 389.118C102.866 386.982 104.473 385.129 106.609 384.972C108.745 384.824 110.598 386.431 110.754 388.559Z" fill="#FF725E"/>
<g opacity="0.2">
<path d="M80.3125 416.602L95.8287 392.453L107.468 406.042L114.128 397.863L129.399 413.112L80.3125 416.602Z" fill="black"/>
</g>
<g opacity="0.2">
<path d="M110.754 388.559C110.911 390.695 109.303 392.548 107.167 392.704C105.031 392.861 103.178 391.253 103.022 389.118C102.866 386.982 104.473 385.129 106.609 384.972C108.745 384.824 110.598 386.431 110.754 388.559Z" fill="black"/>
</g>
<path d="M177.949 382.569C177.949 382.651 168.416 383.589 156.636 384.69C144.863 385.792 135.308 386.595 135.293 386.521C135.278 386.446 144.856 385.509 156.606 384.4C168.357 383.291 177.935 382.495 177.942 382.569H177.949Z" fill="#263238"/>
<path d="M179.187 389.671C179.187 389.752 169.543 390.698 157.636 391.792C145.729 392.885 136.07 393.719 136.055 393.645C136.04 393.57 145.692 392.618 157.606 391.524C169.521 390.43 179.173 389.596 179.18 389.671H179.187Z" fill="#263238"/>
<path d="M180.424 396.766C180.424 396.84 170.676 397.8 158.65 398.886C146.616 399.973 136.875 400.836 136.875 400.762C136.875 400.687 146.616 399.727 158.65 398.611C170.683 397.495 180.424 396.669 180.424 396.766Z" fill="#263238"/>
<path d="M180.682 403.797C180.682 403.879 170.926 404.862 158.877 405.956C146.829 407.049 137.05 407.905 137.043 407.831C137.036 407.756 146.799 406.767 158.855 405.68C170.911 404.594 180.682 403.723 180.682 403.797Z" fill="#263238"/>
<path d="M156.798 377.887L134.344 379.689L134.487 381.47L156.941 379.667L156.798 377.887Z" fill="#FF725E"/>
<path d="M205.205 394.295C205.131 394.295 204.84 391.683 204.558 388.454C204.275 385.224 204.111 382.582 204.193 382.582C204.275 382.582 204.558 385.194 204.833 388.424C205.108 391.654 205.302 394.295 205.205 394.295Z" fill="#E0E0E0"/>
<path d="M210.11 388.151C210.11 388.226 207.595 388.449 204.476 388.642C201.366 388.836 198.828 388.94 198.828 388.866C200.696 388.605 202.571 388.434 204.462 388.367C207.572 388.181 210.102 388.077 210.11 388.151Z" fill="#E0E0E0"/>
<path d="M229.429 363.071C229.429 363.071 229.303 363.033 229.05 362.937L227.985 362.52L223.803 360.898L208.332 354.84L156.663 334.479H156.775L150.233 337.724L96.057 364.566L79.633 372.663L75.1679 374.851L73.9995 375.417C73.7391 375.543 73.5977 375.603 73.5977 375.603L73.9846 375.387L75.1381 374.799L79.5883 372.566L95.9826 364.38L150.114 337.463L156.656 334.219H156.767L208.406 354.661L223.811 360.801L227.978 362.475L229.042 362.914L229.429 363.071Z" fill="#263238"/>
<path d="M197.695 288.856C196.884 287.07 194.778 286.274 192.992 287.085C192.218 287.435 191.6 288.045 191.243 288.812L185.691 289.266L191.303 300.332L194.815 293.865C195.202 293.828 195.582 293.723 195.931 293.56C197.717 292.749 198.506 290.642 197.695 288.856Z" fill="#263238"/>
<path d="M165.657 272.839L169.281 271.291L160.544 269.096C159.488 267.444 157.285 266.96 155.633 268.024C153.981 269.081 153.497 271.284 154.561 272.936C155.618 274.588 157.821 275.072 159.473 274.007C159.562 273.955 159.644 273.896 159.726 273.829L168.024 278.904L165.664 272.839H165.657Z" fill="#263238"/>
<path d="M235.577 381.438V381.364L175.618 269.588L175.276 268.955L165.832 273.264L211.048 392.43L211.078 392.504L238.01 435.309L238.538 435.227L239.164 435.138L239.655 435.064L234.081 426.208L237.34 417.821L245.958 421.006L249.753 433.568L250.207 433.501L250.78 433.419L251.309 433.345L235.584 381.431L235.577 381.438ZM239.454 399.544L228.693 396.783L234.937 384.593L239.454 399.544ZM227.74 396.537L214.501 393.136L234.036 384.236L227.74 396.537ZM232.741 379.347L218.989 375.544L224.63 364.225L232.741 379.347ZM218.051 375.291L205.943 371.942L223.766 363.823L218.051 375.291ZM222.948 361.092L210.275 356.672L214.792 345.888L222.948 361.092ZM209.374 356.359L198.219 352.474L213.988 345.293L209.374 356.359ZM213.006 342.547L201.471 337.569L204.887 327.41L213.006 342.547ZM200.593 337.189L190.71 332.94L204.068 326.852L200.593 337.189ZM203.242 324.33L203.175 324.359L192.801 318.748L195.108 309.163L203.242 324.33ZM193.017 305.271L183.99 299.191L185.188 290.626L193.024 305.264L193.017 305.271ZM183.082 298.596L175.811 293.707L184.31 289.837L183.082 298.596ZM175.372 272.393L183.052 286.734L175.157 280.081L175.372 272.393ZM173.914 290.254L168.34 275.578L174.182 280.505L173.914 290.254ZM174.226 279.269L167.953 273.986L174.457 271.024L174.226 279.269ZM175.119 281.279L182.717 287.649L174.829 291.243L175.119 281.271V281.279ZM175.618 294.741L182.941 299.66L181.467 310.168L175.618 294.741ZM183.819 300.255L192.623 306.164L182.331 310.852L183.819 300.255ZM194.319 308.278L191.916 318.272L182.985 313.435L194.312 308.285L194.319 308.278ZM183.171 314.625L191.7 319.239L189.073 330.179L183.171 314.625ZM192.57 319.708L202.081 324.85L189.996 330.343L192.563 319.708H192.57ZM190.442 333.848L200.273 338.097L196.41 349.587L190.442 333.848ZM201.158 338.469L212.18 343.247L197.274 350.034L201.158 338.462V338.469ZM197.847 353.345L209.002 357.23L203.927 369.352L197.847 353.338V353.345ZM209.91 357.55L221.98 361.754L204.887 369.539L209.91 357.55ZM205.199 372.739L217.62 376.169L211.309 388.835L205.199 372.739ZM218.58 376.422L232.079 380.143L212.217 389.17L218.587 376.422H218.58ZM213.802 393.948L227.339 397.423L222.248 407.365L213.809 393.948H213.802ZM228.284 397.669L239.298 400.496L222.978 407.931L228.284 397.669ZM233.478 425.233L226.252 413.735L236.47 417.523L233.478 425.233ZM236.812 416.638L225.411 412.388L225.128 411.949L241.061 404.701L241.225 405.229L236.805 416.638H236.812ZM237.712 416.965L241.642 406.77L245.616 419.912L237.712 416.965Z" fill="#263238"/>
<path d="M156.617 322.466V318.76C156.617 316.334 156.617 312.762 156.588 308.193C156.588 299.039 156.558 285.882 156.543 269.793V269.689H156.647L173.436 267.91H173.495L173.54 267.955L217.335 316.9L281.074 388.244L300.386 409.877L305.625 415.771L306.979 417.304C307.284 417.647 307.433 417.833 307.433 417.833C307.433 417.833 307.269 417.662 306.957 417.304C306.644 416.947 306.183 416.456 305.58 415.786C304.367 414.447 302.596 412.475 300.304 409.944L280.948 388.356L217.127 317.078L173.361 268.133L173.466 268.178L156.64 269.919L156.736 269.815C156.736 285.897 156.707 299.069 156.692 308.215V321.543C156.692 322.183 156.632 322.459 156.632 322.459L156.617 322.466Z" fill="#263238"/>
<path d="M157.583 307.467H155.299C155.188 307.467 155.098 307.557 155.098 307.668V313.026C155.098 313.137 155.188 313.227 155.299 313.227H157.583C157.694 313.227 157.784 313.137 157.784 313.026V307.668C157.784 307.557 157.694 307.467 157.583 307.467Z" fill="#263238"/>
<path d="M161.008 314.121H152.182C151.638 314.121 151.199 313.682 151.199 313.139C151.199 312.595 151.638 312.156 152.182 312.156H161.008C161.551 312.156 161.99 312.595 161.99 313.139C161.99 313.682 161.551 314.121 161.008 314.121Z" fill="#263238"/>
<path d="M157.234 329.91L157.204 328.652L155.902 329.225C155.857 329.687 155.857 330.156 155.902 330.624C155.902 330.699 155.917 330.773 155.946 330.84C156.028 330.944 156.14 331.019 156.266 331.056C156.839 331.272 157.308 331.689 157.598 332.224C157.97 332.983 157.658 333.906 156.891 334.278C156.839 334.308 156.78 334.33 156.72 334.353C155.879 334.606 154.986 334.129 154.733 333.289C154.733 333.073 154.733 332.76 154.436 332.76C154.004 332.716 153.818 333.348 153.833 333.676C153.9 335.581 155.701 336.191 156.46 336.213C156.973 336.25 157.494 336.139 157.948 335.893C158.677 335.469 159.184 334.755 159.34 333.921C159.757 331.413 157.107 330.074 157.234 329.91Z" fill="#263238"/>
<path d="M158.341 329.278L163.982 315.704C164.377 314.751 163.923 313.665 162.97 313.27C162.747 313.181 162.501 313.129 162.263 313.129H150.989C149.962 313.129 149.129 313.955 149.121 314.982C149.121 315.227 149.166 315.473 149.262 315.704L154.896 329.278C155.29 330.23 156.384 330.677 157.337 330.282C157.791 330.096 158.148 329.732 158.341 329.278Z" fill="#E0E0E0"/>
<path d="M151.568 314.098L150.109 315.556C150.109 315.608 150.109 315.668 150.139 315.72L150.615 316.866L153.384 314.098H151.575H151.568Z" fill="#FF725E"/>
<path d="M157.005 314.098H155.189L151.141 318.146L151.676 319.426L157.005 314.098Z" fill="#FF725E"/>
<path d="M160.881 321.109L162.168 318.006L154.332 325.842L154.868 327.122L160.881 321.109Z" fill="#FF725E"/>
<path d="M159.627 324.217L155.438 328.407L155.579 328.749C155.698 329.054 155.951 329.292 156.264 329.404L158.34 327.32L159.627 324.217Z" fill="#FF725E"/>
<path d="M160.639 314.098H158.823L152.207 320.706L152.743 321.993L160.639 314.098Z" fill="#FF725E"/>
<path d="M163.203 315.153C163.166 314.684 162.831 314.289 162.37 314.178L153.246 323.279L153.774 324.566L163.203 315.16V315.153Z" fill="#FF725E"/>
<path d="M301.848 414.92H311.321C312.095 414.92 312.72 415.545 312.72 416.319V420.642H300.441V416.326C300.441 415.552 301.059 414.92 301.833 414.912C301.833 414.912 301.833 414.912 301.84 414.912L301.848 414.92Z" fill="#263238"/>
<path d="M278.985 419.223H276.969V407.249C276.969 406.72 277.051 406.192 277.214 405.686L278.226 402.553C278.226 402.553 278.286 402.501 278.323 402.523C278.338 402.523 278.345 402.545 278.353 402.553L279.536 404.674L279.224 405.649C279.06 406.162 278.978 406.698 278.971 407.241V419.215L278.985 419.223Z" fill="#263238"/>
<path d="M328.599 421.397C328.033 420.006 326.79 419.008 325.309 418.74L274.958 418.711V410.346C274.958 409.222 274.05 408.314 272.927 408.314H248.592C247.706 408.314 246.925 408.887 246.65 409.728L245.92 412.035H248.629C249.254 412.035 249.85 412.311 250.251 412.787C250.646 413.256 250.802 413.888 250.676 414.484L248.071 426.83C247.84 427.782 246.992 428.452 246.017 428.459H240.852C240.785 429.248 240.83 430.037 240.994 430.811L241.284 432.046L227.963 434.666C227.747 434.711 227.576 434.874 227.524 435.09L226.274 438.461C226.192 438.617 226.132 438.774 226.095 438.945C225.827 440.054 226.028 441.914 226.698 441.914H240.971L240.369 442.636L239.565 445.144H330.228C330.251 437.04 330.035 424.82 328.621 421.39L328.599 421.397ZM265.76 413.74L264.421 425.892C264.421 426.048 264.376 426.197 264.354 426.346C263.795 428.824 261.578 430.565 259.04 430.521H253.057C252.037 430.521 251.211 429.695 251.219 428.675C251.219 428.549 251.234 428.415 251.263 428.288L254.076 413.702C254.27 412.75 255.111 412.073 256.078 412.065H264.257C265.105 412.065 265.79 412.757 265.79 413.598C265.79 413.658 265.79 413.71 265.782 413.769L265.76 413.732V413.74Z" fill="#FF725E"/>
<path d="M288.059 451.195L249.473 451.723C249.22 451.723 248.781 450.979 248.781 450.733V446.425C248.781 446.172 248.982 445.971 249.235 445.971H288.059C288.312 445.971 288.513 446.172 288.513 446.425V450.733C288.513 450.979 288.32 451.187 288.074 451.195C288.074 451.195 288.074 451.195 288.067 451.195H288.059Z" fill="#455A64"/>
<path d="M265.757 413.742L264.417 425.895C264.417 426.051 264.373 426.2 264.35 426.349C263.807 428.827 261.582 430.576 259.037 430.516H253.069C252.049 430.516 251.223 429.683 251.231 428.663C251.231 428.537 251.245 428.41 251.275 428.284L254.088 413.698C254.289 412.745 255.123 412.068 256.09 412.061H264.261C265.109 412.061 265.802 412.76 265.794 413.608C265.794 413.661 265.794 413.72 265.787 413.772L265.764 413.742H265.757Z" fill="#FF725E"/>
<mask id="mask0_19252_89881" style="mask-type:luminance" maskUnits="userSpaceOnUse" x="251" y="412" width="15" height="19">
<path d="M265.753 413.744L264.413 425.897C264.413 426.053 264.369 426.202 264.347 426.351C263.803 428.829 261.578 430.578 259.033 430.518H253.065C252.045 430.518 251.219 429.685 251.227 428.665C251.227 428.539 251.241 428.412 251.271 428.286L254.084 413.7C254.285 412.747 255.119 412.07 256.086 412.062H264.257C265.106 412.062 265.798 412.762 265.79 413.61C265.79 413.663 265.79 413.722 265.783 413.774L265.76 413.744H265.753Z" fill="white"/>
</mask>
<g mask="url(#mask0_19252_89881)">
<path d="M246.652 409.719L241.204 426.634C240.765 427.981 240.698 429.425 240.988 430.816L243.318 441.629H274.953V410.344C274.953 409.22 274.037 408.305 272.914 408.305H248.579C247.693 408.305 246.912 408.878 246.637 409.719H246.652Z" fill="#FF725E"/>
</g>
<path d="M253.069 430.487C252.049 430.487 251.223 429.661 251.231 428.641C251.231 428.515 251.245 428.381 251.275 428.254L254.088 413.668C254.282 412.716 255.123 412.039 256.09 412.031H264.261C264.7 412.031 265.117 412.232 265.4 412.56C265.69 412.887 265.831 413.319 265.779 413.758L264.417 425.888C264.417 426.044 264.373 426.193 264.35 426.342C263.792 428.82 261.575 430.561 259.037 430.517L253.069 430.479V430.487Z" fill="#455A64"/>
<path d="M240.848 428.492C240.9 427.896 241.019 427.308 241.212 426.735L245.938 412.053H248.639C249.264 412.053 249.86 412.328 250.262 412.804C250.656 413.273 250.82 413.906 250.693 414.509L248.089 426.854C247.865 427.807 247.017 428.484 246.035 428.492H240.848Z" fill="#455A64"/>
<path d="M330.29 447.549H239.656C238.964 447.549 238.964 445.041 239.656 445.041H330.29C330.982 445.041 330.982 447.549 330.29 447.549Z" fill="#263238"/>
<path d="M275.043 419.384V419.913C275.043 420.277 275.043 420.783 275.013 421.423C274.968 422.756 274.909 424.646 274.842 426.975C274.775 429.304 274.663 432.117 274.551 435.206C274.522 435.98 274.492 436.798 274.462 437.587C274.477 438.435 274.291 439.284 273.934 440.05C273.48 440.839 272.728 441.412 271.85 441.643C270.987 441.874 270.094 441.985 269.193 441.963L250.864 441.621L245.312 441.479L243.802 441.427H243.407C243.363 441.427 243.318 441.427 243.273 441.427C243.318 441.42 243.363 441.42 243.407 441.427H245.312L250.872 441.479L269.193 441.74C270.064 441.762 270.935 441.665 271.776 441.442C272.587 441.241 273.279 440.728 273.703 440.006C274.06 439.276 274.239 438.473 274.231 437.661C274.269 436.858 274.298 436.069 274.336 435.28C274.462 432.192 274.581 429.401 274.678 427.049C274.775 424.698 274.871 422.83 274.938 421.498C274.968 420.858 275.005 420.359 275.02 419.987C275.02 419.831 275.02 419.697 275.05 419.6C275.028 419.526 275.02 419.451 275.05 419.377L275.043 419.384Z" fill="#263238"/>
<path d="M249.208 441.764C249.126 441.764 249.066 439.107 249.066 435.833C249.066 432.559 249.126 429.895 249.208 429.895C249.29 429.895 249.349 432.551 249.349 435.833C249.349 439.115 249.282 441.764 249.208 441.764Z" fill="#263238"/>
<path d="M253.96 408.416C253.945 408.706 253.915 408.989 253.856 409.271C253.774 409.8 253.64 410.618 253.469 411.593C253.127 413.551 252.598 416.244 251.936 419.191C251.274 422.146 250.596 424.81 250.075 426.722C249.815 427.682 249.599 428.456 249.435 428.985C249.369 429.268 249.279 429.535 249.16 429.803C249.197 429.521 249.257 429.238 249.339 428.962C249.48 428.375 249.666 427.608 249.897 426.678C250.366 424.75 251.006 422.086 251.668 419.132C252.33 416.177 252.881 413.498 253.261 411.549L253.737 409.249C253.782 408.959 253.856 408.684 253.96 408.408V408.416Z" fill="#263238"/>
<path d="M264.443 435.318C264.614 435.274 264.785 435.207 264.934 435.117C265.098 434.991 265.217 434.82 265.277 434.626C265.344 434.366 265.306 434.098 265.18 433.86C265.016 433.584 264.711 433.428 264.391 433.443H260.432C260.008 433.443 259.658 433.778 259.628 434.202C259.561 434.597 259.785 434.976 260.157 435.117C260.239 435.147 260.335 435.162 260.425 435.162H262.374C263.014 435.162 263.535 435.192 263.892 435.207C264.078 435.199 264.265 435.214 264.451 435.259C264.265 435.304 264.078 435.318 263.892 435.311C263.535 435.311 263.014 435.341 262.374 435.356H260.432C260.313 435.356 260.194 435.341 260.082 435.304C259.591 435.125 259.286 434.634 259.353 434.12C259.375 433.555 259.844 433.108 260.417 433.108H264.376C264.771 433.093 265.135 433.302 265.329 433.637C265.411 433.785 265.455 433.949 265.455 434.12C265.463 434.269 265.448 434.41 265.403 434.552C265.329 434.775 265.172 434.961 264.972 435.08C264.852 435.162 264.711 435.207 264.57 435.214C264.488 435.333 264.436 435.318 264.436 435.318H264.443Z" fill="#FF725E"/>
<path d="M324.328 422.276C324.328 422.358 320.607 422.418 316.053 422.418C311.498 422.418 307.777 422.358 307.777 422.276C307.777 422.194 311.498 422.135 316.053 422.135C320.607 422.135 324.328 422.202 324.328 422.276Z" fill="#263238"/>
<path d="M324.328 423.932C324.328 424.014 320.607 424.074 316.053 424.074C311.498 424.074 307.777 424.007 307.777 423.932C307.777 423.858 311.498 423.791 316.053 423.791C320.607 423.791 324.328 423.858 324.328 423.932Z" fill="#263238"/>
<path d="M324.328 425.583C324.328 425.657 320.607 425.724 316.053 425.724C311.498 425.724 307.777 425.657 307.777 425.583C307.777 425.508 311.498 425.441 316.053 425.441C320.607 425.441 324.328 425.501 324.328 425.583Z" fill="#263238"/>
<path d="M324.328 427.223C324.328 427.298 320.607 427.365 316.053 427.365C311.498 427.365 307.777 427.298 307.777 427.223C307.777 427.149 311.498 427.082 316.053 427.082C320.607 427.082 324.328 427.142 324.328 427.223Z" fill="#263238"/>
<path d="M324.328 428.872C324.328 428.946 320.607 429.013 316.053 429.013C311.498 429.013 307.777 428.946 307.777 428.872C307.777 428.797 311.498 428.73 316.053 428.73C320.607 428.73 324.328 428.79 324.328 428.872Z" fill="#263238"/>
<path d="M324.328 430.516C324.328 430.591 320.607 430.658 316.053 430.658C311.498 430.658 307.777 430.591 307.777 430.516C307.777 430.442 311.498 430.375 316.053 430.375C320.607 430.375 324.328 430.435 324.328 430.516Z" fill="#263238"/>
<path d="M324.328 432.167C324.328 432.241 320.607 432.308 316.053 432.308C311.498 432.308 307.777 432.241 307.777 432.167C307.777 432.092 311.498 432.025 316.053 432.025C320.607 432.025 324.328 432.085 324.328 432.167Z" fill="#263238"/>
<path d="M230.373 471.282C225.409 471.282 221.227 466.504 221.227 461.518C221.227 456.532 225.595 452.365 230.566 452.365L310.573 448.733C314.718 448.503 318.625 450.683 320.604 454.33C321.788 456.607 322.108 459.241 321.497 461.742C319.377 471.409 311.347 471.304 308.221 471.081C305.096 470.858 230.373 471.282 230.373 471.282Z" fill="#263238"/>
<path d="M230.374 468.937C234.5 468.937 237.845 465.592 237.845 461.466C237.845 457.339 234.5 453.994 230.374 453.994C226.247 453.994 222.902 457.339 222.902 461.466C222.902 465.592 226.247 468.937 230.374 468.937Z" fill="#455A64"/>
<path d="M310.061 469.605C315.4 469.605 319.728 465.277 319.728 459.938C319.728 454.599 315.4 450.271 310.061 450.271C304.723 450.271 300.395 454.599 300.395 459.938C300.395 465.277 304.723 469.605 310.061 469.605Z" fill="#455A64"/>
<path d="M311.142 450.586L310.934 450.616L310.324 450.683L307.979 450.913C305.933 451.114 302.979 451.382 299.325 451.68C292.017 452.283 281.903 452.975 270.726 453.473C259.548 453.965 249.398 454.165 242.045 454.203H233.353L230.994 454.173H230.376C230.309 454.18 230.235 454.18 230.168 454.173H233.353L242.045 454.091C249.375 453.994 259.511 453.764 270.689 453.28C281.866 452.796 291.98 452.119 299.287 451.568L307.95 450.891L310.301 450.705L310.919 450.668C310.993 450.631 311.068 450.601 311.15 450.586H311.142Z" fill="#455A64"/>
<path d="M308.071 468.698C308.071 468.772 290.679 468.839 269.217 468.839C247.755 468.839 230.363 468.772 230.363 468.698C230.363 468.624 247.755 468.557 269.217 468.557C290.679 468.557 308.071 468.616 308.071 468.698Z" fill="#455A64"/>
<path d="M243.698 441.499C243.489 440.882 243.311 440.257 243.169 439.617C242.842 438.456 242.373 436.848 241.897 435.062C241.465 433.544 241.13 431.996 240.899 430.433C240.84 429.957 240.81 429.473 240.818 428.997C240.818 428.818 240.84 428.64 240.885 428.469C240.929 428.469 240.885 429.22 241.093 430.404C241.301 431.587 241.688 433.217 242.157 434.995C242.626 436.774 243.08 438.389 243.355 439.572C243.497 440.16 243.601 440.636 243.653 440.971C243.698 441.142 243.712 441.321 243.705 441.499H243.698Z" fill="#FF725E"/>
<path d="M304.741 465.917C304.54 465.82 304.354 465.693 304.183 465.552C303.714 465.172 303.29 464.733 302.94 464.242C302.412 463.513 302.017 462.687 301.779 461.816C301.154 459.643 301.608 457.307 302.999 455.528C303.55 454.814 304.22 454.196 304.986 453.72C305.5 453.4 306.058 453.147 306.639 452.968C306.847 452.894 307.063 452.849 307.286 452.834C306.519 453.102 305.783 453.459 305.091 453.898C304.361 454.389 303.721 455 303.2 455.699C301.876 457.426 301.444 459.673 302.025 461.772C302.24 462.62 302.598 463.424 303.089 464.146C303.573 464.8 304.123 465.396 304.748 465.924L304.741 465.917Z" fill="#FAFAFA"/>
<path d="M262.754 420.492C261.422 421.623 260.038 422.688 258.601 423.677C257.217 424.734 255.781 425.724 254.285 426.624C255.617 425.493 257.001 424.429 258.438 423.439C259.822 422.382 261.258 421.393 262.754 420.492Z" fill="white"/>
<path d="M263.386 418.238C262.232 419.213 261.027 420.114 259.769 420.94C258.563 421.84 257.298 422.666 255.996 423.41C257.15 422.443 258.355 421.542 259.613 420.709C260.818 419.809 262.083 418.982 263.386 418.238Z" fill="white"/>
<path d="M247.798 421.719C247.247 422.277 246.629 422.761 245.967 423.162C245.349 423.646 244.68 424.055 243.973 424.383C244.531 423.832 245.141 423.349 245.811 422.939C246.421 422.455 247.091 422.046 247.805 421.719H247.798Z" fill="white"/>
<path d="M248.88 419.605C247.541 420.878 246.082 422.009 244.52 422.991C245.852 421.719 247.318 420.588 248.88 419.605Z" fill="white"/>
<path d="M265.56 432.532C263.588 432.718 261.593 432.718 259.621 432.532C261.593 432.346 263.588 432.346 265.56 432.532Z" fill="#FF725E"/>
<path d="M228.889 467.807C228.666 467.793 228.45 467.748 228.242 467.666C227.661 467.48 227.111 467.212 226.605 466.862C225.861 466.349 225.221 465.686 224.722 464.927C223.442 463.037 223.271 460.604 224.268 458.557C224.655 457.731 225.191 456.994 225.861 456.377C226.307 455.96 226.821 455.618 227.371 455.35C227.565 455.246 227.773 455.171 227.996 455.119C227.275 455.499 226.605 455.968 226.002 456.518C225.377 457.128 224.863 457.85 224.499 458.639C223.561 460.619 223.725 462.948 224.93 464.771C225.399 465.515 226.009 466.163 226.724 466.684C227.394 467.145 228.123 467.525 228.897 467.793L228.889 467.807Z" fill="#FAFAFA"/>
<path d="M240.218 438.319C240.218 438.394 237.338 438.461 233.789 438.461C230.239 438.461 227.352 438.394 227.352 438.319C227.352 438.245 230.232 438.178 233.789 438.178C237.346 438.178 240.218 438.245 240.218 438.319Z" fill="white"/>
<path d="M182.205 280.943L177.36 270.539C175.864 267.324 172.039 265.925 168.824 267.429C165.61 268.924 164.21 272.749 165.714 275.964L170.566 286.368C170.648 286.561 170.878 286.651 171.079 286.569C171.079 286.569 171.094 286.569 171.102 286.561L182.041 281.464C182.227 281.367 182.309 281.136 182.22 280.95L182.205 280.943Z" fill="#FF725E"/>
<path d="M14.9892 401.545H11.1641V471.863H14.9892V401.545Z" fill="#E0E0E0"/>
<path d="M16.9402 399.132C16.9402 401.261 15.2137 402.987 13.0853 402.987C10.957 402.987 9.23047 401.261 9.23047 399.132C9.23047 397.004 10.957 395.277 13.0853 395.277C15.2137 395.277 16.9402 397.004 16.9402 399.132Z" fill="#FF725E"/>
<path d="M90.997 401.545H87.1719V471.863H90.997V401.545Z" fill="#E0E0E0"/>
<path d="M92.9558 399.132C92.9558 401.261 91.2293 402.987 89.1009 402.987C86.9726 402.987 85.2461 401.261 85.2461 399.132C85.2461 397.004 86.9726 395.277 89.1009 395.277C91.2293 395.277 92.9558 397.004 92.9558 399.132Z" fill="#FF725E"/>
<path d="M98.2472 408.332H0.246094V425.865H98.2472V408.332Z" fill="#FF725E"/>
<path d="M11.3344 408.322L11.1632 408.62L1.09446 425.863H0.246094V408.322H11.3344Z" fill="#F5F5F5"/>
<path d="M36.1075 408.322L25.8527 425.863H12.4648L16.5355 418.897L22.7122 408.322H36.1075Z" fill="#F5F5F5"/>
<path d="M60.8692 408.322L50.6218 425.863H37.2266L47.4739 408.322H60.8692Z" fill="#F5F5F5"/>
<path d="M85.6156 408.332L75.3683 425.865H61.9805L72.2278 408.332H85.6156Z" fill="#F5F5F5"/>
<path d="M98.2433 408.332V425.865H86.7383L96.9931 408.332H98.2433Z" fill="#F5F5F5"/>
<path d="M98.2472 435.412H0.246094V452.945H98.2472V435.412Z" fill="#FF725E"/>
<path d="M11.3344 435.416L11.1632 435.706L1.09446 452.949H0.246094V435.416H11.3344Z" fill="#F5F5F5"/>
<path d="M36.1075 435.416L25.8527 452.949H12.4648L16.5355 445.983L22.7122 435.416H36.1075Z" fill="#F5F5F5"/>
<path d="M60.8692 435.416L50.6218 452.949H37.2266L47.4739 435.416H60.8692Z" fill="#F5F5F5"/>
<path d="M85.6156 435.416L75.3683 452.949H61.9805L72.2278 435.416H85.6156Z" fill="#F5F5F5"/>
<path d="M98.2433 435.416V452.949H86.7383L96.9931 435.416H98.2433Z" fill="#F5F5F5"/>
<path d="M98.2458 425.863V421.271C98.2458 418.294 98.2086 413.919 98.1862 408.33L98.2904 408.427L0.252081 408.546L0.445568 408.352V425.885L0.252081 425.692L70.019 425.773L90.7072 425.833H98.2532H90.7965L70.153 425.885L0.252081 425.967H0.0585938V408.129H0.259523L98.2532 408.226H98.35V408.33C98.35 413.941 98.3053 418.332 98.2979 421.331V425.58C98.2979 425.788 98.2458 425.863 98.2458 425.863Z" fill="#263238"/>
<path d="M98.248 452.953V448.361C98.248 445.384 98.2108 441.008 98.1885 435.412L98.2927 435.516L0.298956 435.606L0.492443 435.412V452.953L0.298956 452.759L70.0659 452.841L90.7541 452.9H98.3001H90.8434L70.1998 452.96L0.298956 453.042H0.105469V435.219H0.306398L98.3001 435.315H98.3968V435.412C98.3968 441.031 98.3522 445.421 98.3448 448.421V452.67C98.3448 452.878 98.248 452.953 98.248 452.953Z" fill="#263238"/>
<path d="M334.94 471.621C334.94 471.725 259.971 471.815 167.507 471.815C75.0422 471.815 0.0585938 471.725 0.0585938 471.621C0.0585938 471.517 75.0125 471.428 167.507 471.428C260.001 471.428 334.94 471.51 334.94 471.621Z" fill="#263238"/>
</svg>
