<svg width="26" height="26" viewBox="0 0 26 26" fill="none" xmlns="http://www.w3.org/2000/svg">
<path d="M10.3992 3.89961C10.3992 3.18164 10.9812 2.59961 11.6992 2.59961H14.2992C15.0172 2.59961 15.5992 3.18164 15.5992 3.89961C15.5992 4.61758 15.0172 5.19961 14.2992 5.19961H11.6992C10.9812 5.19961 10.3992 4.61758 10.3992 3.89961Z" fill="#ED7D31"/>
<path d="M7.79922 3.89961C6.36328 3.89961 5.19922 5.06367 5.19922 6.49961V20.7996C5.19922 22.2355 6.36328 23.3996 7.79922 23.3996H18.1992C19.6352 23.3996 20.7992 22.2355 20.7992 20.7996V6.49961C20.7992 5.06367 19.6352 3.89961 18.1992 3.89961C18.1992 6.05352 16.4531 7.79961 14.2992 7.79961H11.6992C9.54531 7.79961 7.79922 6.05352 7.79922 3.89961Z" fill="#ED7D31"/>
</svg>
