<svg width="20" height="20" viewBox="0 0 20 20" fill="none" xmlns="http://www.w3.org/2000/svg">
<g id="Icon/Solid/clipboard-copy2">
<path id="Exclude" fill-rule="evenodd" clip-rule="evenodd" d="M9 2C8.44772 2 8 2.44772 8 3C8 3.55228 8.44772 4 9 4H11C11.5523 4 12 3.55228 12 3C12 2.44772 11.5523 2 11 2H9ZM4 5C4 3.89543 4.89543 3 6 3C6 4.65685 7.34315 6 9 6H11C12.6569 6 14 4.65685 14 3C15.1046 3 16 3.89543 16 5V10.6L9.98744 10.6L11.9937 8.5364C12.3354 8.18492 12.3354 7.61508 11.9937 7.2636C11.652 6.91213 11.098 6.91213 10.7563 7.2636L7.25628 10.8636C6.91457 11.2151 6.91457 11.7849 7.25628 12.1364L10.7563 15.7364C11.098 16.0879 11.652 16.0879 11.9937 15.7364C12.3354 15.3849 12.3354 14.8151 11.9937 14.4636L9.98744 12.4H16V16C16 17.1046 15.1046 18 14 18H6C4.89543 18 4 17.1046 4 16V5Z" fill="#ED7D31"/>
</g>
</svg>
