<svg width="25" height="24" viewBox="0 0 25 24" fill="none" xmlns="http://www.w3.org/2000/svg">
<g id="Icon/Outline/clipboard-list">
<path id="Icon" d="M9.9375 5H7.9375C6.83293 5 5.9375 5.89543 5.9375 7V19C5.9375 20.1046 6.83293 21 7.9375 21H17.9375C19.0421 21 19.9375 20.1046 19.9375 19V7C19.9375 5.89543 19.0421 5 17.9375 5H15.9375M9.9375 5C9.9375 6.10457 10.8329 7 11.9375 7H13.9375C15.0421 7 15.9375 6.10457 15.9375 5M9.9375 5C9.9375 3.89543 10.8329 3 11.9375 3H13.9375C15.0421 3 15.9375 3.89543 15.9375 5M12.9375 12H15.9375M12.9375 16H15.9375M9.9375 12H9.9475M9.9375 16H9.9475" stroke="#9D7DE2" stroke-width="2" stroke-linecap="round"/>
</g>
</svg>
