<svg width="23" height="23" viewBox="0 0 23 23" fill="none" xmlns="http://www.w3.org/2000/svg">
<path d="M10.541 3.83334C10.541 2.77479 11.3991 1.91667 12.4577 1.91667C13.5162 1.91667 14.3743 2.77479 14.3743 3.83334V4.79167C14.3743 5.32094 14.8034 5.75001 15.3327 5.75001H18.2077C18.737 5.75001 19.166 6.17907 19.166 6.70834V9.58334C19.166 10.1126 18.737 10.5417 18.2077 10.5417H17.2493C16.1908 10.5417 15.3327 11.3998 15.3327 12.4583C15.3327 13.5169 16.1908 14.375 17.2493 14.375H18.2077C18.737 14.375 19.166 14.8041 19.166 15.3333V18.2083C19.166 18.7376 18.737 19.1667 18.2077 19.1667H15.3327C14.8034 19.1667 14.3743 18.7376 14.3743 18.2083V17.25C14.3743 16.1915 13.5162 15.3333 12.4577 15.3333C11.3991 15.3333 10.541 16.1915 10.541 17.25V18.2083C10.541 18.7376 10.112 19.1667 9.58268 19.1667H6.70768C6.17841 19.1667 5.74935 18.7376 5.74935 18.2083V15.3333C5.74935 14.8041 5.32029 14.375 4.79102 14.375H3.83268C2.77414 14.375 1.91602 13.5169 1.91602 12.4583C1.91602 11.3998 2.77414 10.5417 3.83268 10.5417H4.79102C5.32029 10.5417 5.74935 10.1126 5.74935 9.58334V6.70834C5.74935 6.17907 6.17841 5.75001 6.70768 5.75001H9.58268C10.112 5.75001 10.541 5.32094 10.541 4.79167V3.83334Z" stroke="#9D7DE2" stroke-width="2" stroke-linecap="round" stroke-linejoin="round"/>
</svg>
