<svg width="25" height="24" viewBox="0 0 25 24" fill="none" xmlns="http://www.w3.org/2000/svg">
<g id="Icon/Outline/cog">
<g id="Icon">
<path d="M10.5043 4.31731C10.9307 2.5609 13.4287 2.5609 13.8551 4.31731C14.1305 5.45193 15.4304 5.99038 16.4275 5.38285C17.971 4.44239 19.7373 6.2087 18.7968 7.75218C18.1893 8.74925 18.7278 10.0492 19.8624 10.3246C21.6188 10.751 21.6188 13.249 19.8624 13.6754C18.7278 13.9508 18.1893 15.2507 18.7968 16.2478C19.7373 17.7913 17.971 19.5576 16.4275 18.6172C15.4304 18.0096 14.1305 18.5481 13.8551 19.6827C13.4287 21.4391 10.9307 21.4391 10.5043 19.6827C10.2289 18.5481 8.92894 18.0096 7.93187 18.6172C6.38839 19.5576 4.62208 17.7913 5.56254 16.2478C6.17006 15.2507 5.63162 13.9508 4.497 13.6754C2.74058 13.249 2.74058 10.751 4.497 10.3246C5.63162 10.0492 6.17006 8.74926 5.56254 7.75218C4.62208 6.2087 6.38839 4.44239 7.93187 5.38285C8.92894 5.99037 10.2289 5.45193 10.5043 4.31731Z" stroke="#9D7DE2" stroke-width="2" stroke-linecap="round" stroke-linejoin="round"/>
<path d="M15.1797 12C15.1797 13.6569 13.8365 15 12.1797 15C10.5228 15 9.17969 13.6569 9.17969 12C9.17969 10.3431 10.5228 9 12.1797 9C13.8365 9 15.1797 10.3431 15.1797 12Z" stroke="#9D7DE2" stroke-width="2" stroke-linecap="round" stroke-linejoin="round"/>
</g>
</g>
</svg>
