<svg width="294" height="325" viewBox="0 0 294 325" fill="none" xmlns="http://www.w3.org/2000/svg">
<path d="M157.766 256.615C165.07 259.169 174.588 256.891 180.826 252.324C187.065 247.758 191.567 241.226 195.554 234.602C197.245 231.772 198.907 228.823 199.45 225.57C199.992 222.318 199.192 218.652 196.675 216.521C192.752 213.222 186.743 214.894 182.251 217.43C168.129 225.653 158.96 240.307 157.738 256.606" fill="#FF725E"/>
<path d="M165.637 274.09C170.019 279.869 177.553 282.441 184.811 282.781C192.069 283.121 199.235 281.118 205.997 278.518C208.46 277.581 211.152 276.276 211.997 273.787C212.53 271.83 212.052 269.735 210.711 268.201C209.369 266.712 207.688 265.573 205.814 264.865C199.144 262.027 191.509 261.889 184.489 263.708C177.47 265.527 171.342 269.597 165.646 274.081" fill="#FF725E"/>
<path d="M157.654 225.341C163.727 225.461 168.284 220.169 171.003 214.785C174.798 207.251 176.066 198.688 174.605 190.374C174.054 187.287 172.878 183.952 170.121 182.463C167.365 180.975 163.662 181.958 161.31 184.099C158.958 186.239 157.663 189.317 156.753 192.358C153.501 202.85 154.199 214.923 157.691 225.332" fill="#FF725E"/>
<path d="M137.799 258.766C148.107 241.236 149.825 219.774 143.734 200.37C142.751 197.219 140.886 193.626 137.597 193.406C133.949 193.176 131.662 197.246 130.66 200.756C127.123 213.085 127.877 226.168 128.657 238.957C129.144 246.84 131.846 253.584 137.799 258.756" fill="#FF725E"/>
<path d="M127.097 265.976C123.211 253.812 114.014 244.064 102.098 239.47C99.3599 238.441 95.8778 237.853 93.8382 239.948C91.7985 242.043 92.46 245.433 93.7371 247.996C95.8135 252.13 99.1761 255.465 102.53 258.626C105.561 261.529 108.749 264.451 112.608 266.141C116.467 267.832 123.56 268.254 127.088 265.948" fill="#FF725E"/>
<path d="M190.969 220.932C190.969 220.932 190.914 220.997 190.785 221.089L190.234 221.52L188.075 223.128L186.504 224.286C185.943 224.718 185.355 225.223 184.712 225.747C183.435 226.812 181.928 227.952 180.412 229.394L177.987 231.599C177.142 232.362 176.342 233.244 175.47 234.107C173.696 235.816 171.978 237.801 170.159 239.859C162.304 248.954 155.946 259.235 151.325 270.324C150.314 272.897 149.294 275.322 148.569 277.674C148.192 278.841 147.76 279.953 147.457 281.055L146.566 284.216C145.95 286.219 145.601 288.075 145.215 289.692C145.041 290.5 144.848 291.254 144.71 291.97C144.572 292.687 144.471 293.302 144.379 293.89C144.177 295.011 144.012 295.902 143.901 296.546C143.837 296.821 143.8 297.051 143.764 297.225C143.727 297.4 143.708 297.464 143.699 297.464C143.699 297.382 143.699 297.299 143.699 297.225C143.699 297.042 143.754 296.812 143.791 296.536C143.883 295.884 144.021 295.02 144.177 293.863C144.269 293.275 144.37 292.632 144.471 291.933C144.572 291.235 144.765 290.473 144.93 289.655C145.298 288.029 145.619 286.154 146.217 284.142C146.492 283.123 146.777 282.066 147.08 280.964C147.383 279.861 147.797 278.74 148.164 277.564C148.927 275.203 149.892 272.759 150.893 270.168C155.496 259.015 161.881 248.679 169.801 239.583C171.657 237.534 173.402 235.55 175.194 233.841C176.076 232.977 176.894 232.114 177.748 231.342L180.21 229.146C181.726 227.722 183.242 226.592 184.565 225.545C185.227 225.03 185.815 224.534 186.394 224.111L187.983 222.981L190.197 221.465L190.785 221.079C190.895 220.951 190.969 220.914 190.978 220.923L190.969 220.932Z" fill="#263238"/>
<path d="M204.614 269.533C204.375 269.515 204.137 269.478 203.898 269.423C203.438 269.34 202.777 269.157 201.895 269.01C182.794 265.206 163.114 271.858 150.243 286.466C148.58 288.34 147.036 290.325 145.64 292.401C145.125 293.164 144.785 293.724 144.519 294.11C144.399 294.321 144.262 294.514 144.105 294.698C144.197 294.477 144.308 294.266 144.436 294.064C144.675 293.66 144.987 293.044 145.484 292.3C146.834 290.168 148.341 288.138 149.995 286.227C161.066 273.374 177.566 266.52 194.481 267.751C196.998 267.916 199.497 268.275 201.959 268.817C202.832 268.991 203.475 269.193 203.953 269.313C204.183 269.377 204.403 269.451 204.624 269.542L204.614 269.533Z" fill="#263238"/>
<path d="M166.557 189.473C166.557 189.565 166.547 189.656 166.52 189.748C166.474 189.95 166.419 190.208 166.354 190.511C166.198 191.273 165.969 192.247 165.675 193.543C165.087 196.161 164.159 199.937 163.038 204.604C160.759 213.939 157.47 226.792 154.025 241.033C152.316 248.162 150.772 254.97 149.468 261.172C148.163 267.383 147.042 272.987 146.215 277.719C145.765 280.08 145.453 282.23 145.113 284.113C144.773 285.997 144.543 287.614 144.35 288.937C144.157 290.26 143.992 291.261 143.882 291.968C143.818 292.299 143.772 292.556 143.744 292.731C143.716 292.906 143.689 293.007 143.68 293.007C143.68 292.915 143.68 292.823 143.68 292.731C143.68 292.52 143.735 292.262 143.772 291.922C143.863 291.16 143.992 290.158 144.157 288.891C144.323 287.623 144.543 285.932 144.837 284.04C145.131 282.147 145.435 280.006 145.866 277.645C146.629 272.904 147.731 267.282 149.027 261.062C150.322 254.842 151.866 248.034 153.584 240.895C157.02 226.645 160.373 213.81 162.689 204.467L165.472 193.442C165.803 192.165 166.06 191.163 166.235 190.447C166.318 190.125 166.391 189.877 166.446 189.684C166.474 189.61 166.501 189.537 166.547 189.473H166.557Z" fill="#263238"/>
<path d="M142.909 291.658C142.872 291.594 142.854 291.52 142.845 291.447L142.707 290.813C142.578 290.216 142.413 289.398 142.202 288.369C141.761 286.256 141.182 283.169 140.52 279.356C139.197 271.73 137.626 261.137 136.671 249.359C136.202 243.46 135.908 237.838 135.826 232.711C135.743 227.584 135.789 222.972 135.945 219.104C135.991 217.166 136.12 215.42 136.202 213.886C136.285 212.352 136.386 211.029 136.487 209.954C136.588 208.879 136.653 208.079 136.717 207.473C136.717 207.216 136.772 207.004 136.781 206.83C136.79 206.655 136.781 206.609 136.827 206.609C136.827 206.683 136.827 206.766 136.827 206.839V207.482C136.827 208.089 136.744 208.925 136.68 209.972C136.616 211.019 136.524 212.37 136.478 213.904C136.432 215.439 136.322 217.193 136.294 219.123C136.184 222.981 136.166 227.594 136.294 232.711C136.423 237.828 136.708 243.433 137.167 249.313C138.132 261.073 139.638 271.666 140.879 279.31C141.494 283.104 142.018 286.219 142.395 288.341C142.569 289.38 142.716 290.197 142.808 290.804C142.845 291.061 142.872 291.272 142.909 291.447C142.909 291.52 142.909 291.594 142.891 291.667L142.909 291.658Z" fill="#263238"/>
<path d="M143.662 293.879C143.552 293.686 143.469 293.484 143.396 293.282L142.716 291.518C142.56 291.132 142.403 290.709 142.229 290.241L141.567 288.761C141.328 288.229 141.071 287.659 140.805 287.053C140.538 286.446 140.198 285.849 139.868 285.187C139.537 284.526 139.179 283.855 138.811 283.148L137.534 280.989C136.707 279.473 135.632 277.957 134.603 276.34C132.224 272.895 129.66 269.587 126.904 266.427C124.093 263.303 121.116 260.326 117.992 257.506C116.513 256.265 115.153 255.007 113.784 253.959L111.837 252.443L109.981 251.074C108.814 250.192 107.702 249.448 106.747 248.796C105.791 248.143 104.946 247.574 104.248 247.16L102.612 246.113C102.419 246.003 102.236 245.874 102.07 245.736C102.272 245.819 102.475 245.92 102.658 246.03L104.294 246.967C105.01 247.372 105.874 247.905 106.848 248.548C107.822 249.191 108.952 249.898 110.137 250.771L112.02 252.112L113.996 253.628C115.383 254.657 116.752 255.907 118.25 257.147C121.401 259.959 124.396 262.935 127.217 266.068C130.01 269.247 132.6 272.591 134.989 276.083C136.018 277.736 137.075 279.252 137.892 280.777C138.315 281.54 138.728 282.257 139.133 282.964L140.162 285.031C140.483 285.702 140.814 286.318 141.071 286.924L141.834 288.651L142.459 290.167C142.624 290.636 142.771 291.067 142.909 291.463C143.148 292.225 143.35 292.795 143.497 293.254C143.57 293.456 143.616 293.658 143.644 293.87L143.662 293.879Z" fill="#263238"/>
<path d="M187.157 241.273C187.157 241.347 185.907 241.347 183.904 241.457C181.295 241.604 178.695 241.926 176.123 242.394C173.55 242.89 171.014 243.552 168.534 244.379C166.632 245.013 165.502 245.463 165.438 245.399C165.667 245.224 165.924 245.086 166.2 244.985C166.705 244.737 167.459 244.416 168.405 244.057C173.348 242.211 178.576 241.218 183.858 241.117C184.869 241.117 185.687 241.117 186.247 241.163C186.55 241.154 186.863 241.191 187.157 241.273Z" fill="#263238"/>
<path d="M194.925 279.225C194.768 279.299 193.611 275.946 190.68 272.831C187.749 269.716 184.524 268.274 184.607 268.127C185.351 268.32 186.059 268.632 186.702 269.055C189.936 270.911 192.527 273.713 194.144 277.066C194.511 277.737 194.778 278.472 194.925 279.225Z" fill="#263238"/>
<path d="M168.415 203.703C168.516 203.813 166.614 205.688 164.556 208.26C162.498 210.833 161.01 213.038 160.89 212.955C160.771 212.872 162.076 210.52 164.179 207.948C165.383 206.34 166.816 204.916 168.424 203.703H168.415Z" fill="#263238"/>
<path d="M162.195 192.957C162.333 192.957 162.746 194.758 163.132 197.027C163.518 199.296 163.72 201.152 163.591 201.171C163.463 201.189 163.04 199.37 162.654 197.101C162.268 194.831 162.066 192.975 162.195 192.957Z" fill="#263238"/>
<path d="M142.918 226.691C143.028 226.756 141.687 229.595 139.886 233.04C138.076 236.485 136.56 239.223 136.441 239.168C136.322 239.113 137.672 236.265 139.473 232.819C141.283 229.374 142.799 226.645 142.918 226.701V226.691Z" fill="#263238"/>
<path d="M131.475 215.246C131.594 215.181 132.743 217.239 134.029 219.839C135.315 222.439 136.271 224.58 136.151 224.644C136.032 224.709 134.883 222.651 133.597 220.051C132.311 217.451 131.31 215.31 131.475 215.246Z" fill="#263238"/>
<path d="M114.58 254.402C114.58 254.549 112.504 254.145 109.95 253.97C107.396 253.795 105.319 253.896 105.301 253.749C105.283 253.602 107.377 253.29 109.987 253.483C112.596 253.676 114.608 254.282 114.58 254.402Z" fill="#263238"/>
<path d="M126.109 289.037L131.852 319.2C132.228 321.193 133.974 322.636 136.004 322.636H152.955C155.022 322.636 156.786 321.138 157.126 319.099L162.115 289.037H126.128H126.109Z" fill="#263238"/>
<path d="M127.974 298.84H160.37L162.097 289.037H126.109L127.974 298.84Z" fill="#455A64"/>
<path d="M127.969 298.842L128.639 302.416H159.877L160.364 298.842H127.969Z" fill="#FAFAFA"/>
<path d="M85.4162 102.67L87.3731 323.253H0V105.674L85.4162 102.67Z" fill="#76BFD3"/>
<path d="M38.3486 104.332L39.1204 323.252H0V105.673L38.3486 104.332Z" fill="#455A64"/>
<path d="M82.6735 105.391V136.316H41.293V106.851L82.6735 105.391Z" fill="#455A64"/>
<path d="M68.4026 113.898V118.464H55.7422V113.484L68.4026 113.898Z" fill="#F5F5F5"/>
<path d="M68.398 122.303H55.3242V124.168H68.398V122.303Z" fill="#F5F5F5"/>
<path d="M82.6735 213.738V244.654H41.293V215.199L82.6735 213.738Z" fill="#455A64"/>
<path d="M68.4026 222.244V226.81H55.7422V221.83L68.4026 222.244Z" fill="#F5F5F5"/>
<path d="M68.398 230.654H55.3242V232.519H68.398V230.654Z" fill="#F5F5F5"/>
<path d="M82.6735 140.248V171.164H41.293V141.709L82.6735 140.248Z" fill="#455A64"/>
<path d="M68.4026 148.755V153.321H55.7422V148.342L68.4026 148.755Z" fill="#F5F5F5"/>
<path d="M68.398 157.16H55.3242V159.025H68.398V157.16Z" fill="#F5F5F5"/>
<path d="M82.6735 248.586V279.502H41.293V250.047L82.6735 248.586Z" fill="#455A64"/>
<path d="M68.4026 257.093V261.659H55.7422V256.68L68.4026 257.093Z" fill="#F5F5F5"/>
<path d="M68.398 265.5H55.3242V267.365H68.398V265.5Z" fill="#F5F5F5"/>
<path d="M83.1202 283.434V314.35H41.7305V284.894L83.1202 283.434Z" fill="#455A64"/>
<path d="M68.8518 291.941V296.507H56.1914V291.527L68.8518 291.941Z" fill="#F5F5F5"/>
<path d="M68.8512 300.35H55.7773V302.215H68.8512V300.35Z" fill="#F5F5F5"/>
<path d="M83.21 177.264H41.8203V208.18H83.21V177.264Z" fill="#455A64"/>
<path d="M68.6687 191.2V195.491H56.7617V190.814L68.6687 191.2Z" fill="#F5F5F5"/>
<path d="M68.6679 199.104H56.375V200.858H68.6679V199.104Z" fill="#F5F5F5"/>
<path d="M294 323.087C294 323.215 228.181 323.325 147.009 323.325C65.8376 323.325 0 323.215 0 323.087C0 322.958 65.7917 322.848 147 322.848C228.208 322.848 294 322.949 294 323.087Z" fill="#263238"/>
<path d="M17.2891 63.2563C17.2891 63.2563 65.3764 61.3637 75.5654 28.9961L54.4341 33.158C54.4341 33.158 50.5478 45.4142 44.5208 51.9005C44.5208 51.9005 41.8656 52.8193 30.8406 48.8411L17.2891 63.2563Z" fill="#E0E0E0"/>
<path d="M30.8594 48.8414C30.8594 48.8414 31.5852 49.1079 32.8898 49.5948C34.7273 50.2747 36.6199 50.7984 38.5401 51.1567C41.3883 51.6896 44.3099 51.8182 47.1947 51.5426C50.7319 51.1934 54.1681 50.2012 57.3469 48.6117C63.1442 45.7085 68.1239 41.4087 71.8356 36.0892C72.9473 34.4814 73.9028 32.7725 74.7021 30.9809C75.2534 29.7039 75.5106 28.9781 75.5566 28.9964C75.529 29.1802 75.4739 29.3639 75.4096 29.5385C75.2901 29.8784 75.1523 30.4113 74.8767 31.0544C74.1417 32.8827 73.2137 34.6376 72.1204 36.2821C68.4546 41.7211 63.4382 46.1127 57.5674 49.0344C54.3426 50.6514 50.833 51.6528 47.2407 51.9836C44.3099 52.25 41.3607 52.0846 38.485 51.4874C36.5464 51.0924 34.6538 50.5227 32.8255 49.7694C32.1732 49.5213 31.6954 49.2549 31.3647 49.1079C31.1901 49.0344 31.0156 48.9425 30.8594 48.8414Z" fill="#455A64"/>
<path d="M68.9785 37.209C68.3354 37.5765 67.6463 37.8613 66.9297 38.0726C65.6342 38.532 63.8151 39.1016 61.7847 39.6069C59.7543 40.1122 57.8708 40.4614 56.5111 40.6543C55.7852 40.8105 55.0411 40.8656 54.2969 40.838C54.9951 40.5992 55.7209 40.4246 56.4559 40.3144C57.7973 40.0387 59.644 39.6437 61.6653 39.1475C63.6865 38.6514 65.5056 38.1277 66.8194 37.751C67.5177 37.4938 68.2435 37.31 68.9785 37.209Z" fill="#455A64"/>
<path d="M66.5996 41.5996C65.9565 41.9671 65.2674 42.2611 64.5508 42.4632C62.8603 43.0604 61.1422 43.5749 59.4058 44.0067C57.3662 44.5029 55.5011 44.852 54.1413 45.0449C53.4063 45.2011 52.6622 45.2654 51.918 45.2379C52.607 44.999 53.3145 44.8336 54.0403 44.7325C55.3817 44.4569 57.2283 44.0619 59.2588 43.5565C61.2892 43.0512 63.0992 42.5459 64.413 42.16C65.1204 41.9028 65.8554 41.719 66.5996 41.5996Z" fill="#455A64"/>
<path d="M60.2051 47.3611C59.7366 47.6734 59.2221 47.9123 58.68 48.0593C57.4121 48.5371 56.1167 48.9046 54.7937 49.1802C53.4707 49.4374 52.1385 49.6304 50.7971 49.7498C50.2459 49.8601 49.6854 49.8784 49.125 49.8233C49.125 49.6671 51.6332 49.2812 54.7018 48.7116C57.7704 48.142 60.1592 47.2049 60.2051 47.3611Z" fill="#455A64"/>
<path d="M154.184 35.8313C154.184 35.8313 169.416 72.1587 194.792 78.3603C194.792 78.3603 210.521 69.3841 218.11 67.2342C218.11 67.2342 189.39 45.763 183.832 26.0742C183.822 26.0742 172.752 39.488 154.184 35.8313Z" fill="#FAFAFA"/>
<path d="M154.182 35.8325L154.743 35.8968L156.433 36.1081C156.81 36.1081 157.233 36.2183 157.692 36.2643L159.199 36.3102C159.741 36.3102 160.329 36.3745 160.954 36.3653L162.947 36.2367C166.347 35.9427 169.682 35.0883 172.805 33.7101C174.744 32.8649 176.591 31.8267 178.318 30.6048C180.275 29.2726 182.066 27.7107 183.647 25.9467L183.876 25.6895L183.968 26.0202C186.008 33.0303 190.785 40.123 196.73 46.9861C203.198 54.2901 210.336 60.9603 218.054 66.9138L218.219 67.0332L218.596 67.3272L218.137 67.4558C215.996 68.1173 213.91 68.9166 211.88 69.8538C209.849 70.7725 207.874 71.6913 205.936 72.6651C202.077 74.5945 198.374 76.579 194.911 78.5543L194.828 78.6003H194.736C190.602 77.5253 186.669 75.7705 183.105 73.4093C179.871 71.2686 176.857 68.8064 174.11 66.0593C169.617 61.4748 165.63 56.4216 162.212 50.9918C159.943 47.4363 157.876 43.7521 156.02 39.9576C155.368 38.6438 154.899 37.6056 154.596 36.9074L154.265 36.1081C154.219 36.0162 154.192 35.9243 154.164 35.8325C154.219 35.9151 154.265 35.9978 154.302 36.0897L154.669 36.8798C155 37.5689 155.487 38.5887 156.158 39.8933C158.069 43.6326 160.164 47.2617 162.451 50.7805C165.897 56.1644 169.902 61.1808 174.395 65.7286C177.124 68.4756 180.128 70.9379 183.353 73.0786C186.881 75.403 190.767 77.1303 194.855 78.1868H194.69C198.2 76.2023 201.902 74.2178 205.77 72.2793C207.709 71.3054 209.703 70.3591 211.733 69.4495C213.782 68.5032 215.895 67.6947 218.054 67.0332L217.98 67.4558L217.806 67.3272C210.061 61.3461 202.913 54.6393 196.445 47.2893C190.491 40.3895 185.705 33.2416 183.665 26.158L183.996 26.2223C182.379 27.9955 180.56 29.5758 178.566 30.9171C176.802 32.1391 174.928 33.1773 172.952 34.0225C169.783 35.3915 166.402 36.2183 162.956 36.4664L160.954 36.5675C160.32 36.5675 159.732 36.5123 159.19 36.494L157.674 36.4205C157.214 36.3653 156.819 36.2826 156.452 36.2367L154.77 35.9519L154.182 35.8325Z" fill="#263238"/>
<path d="M185.727 38.5138C185.727 38.5138 185.801 38.5138 185.727 38.5597C185.691 38.6057 185.645 38.6424 185.59 38.67C185.406 38.7894 185.213 38.8905 185.011 38.9916C184.505 39.2488 183.752 39.5979 182.824 40.0022C180.987 40.8107 178.368 41.8397 175.474 42.9973C172.58 44.1549 169.962 45.1196 168.06 45.8087C167.049 46.2313 166.011 46.5804 164.945 46.8377C165.91 46.314 166.911 45.8638 167.94 45.4963C169.778 44.7246 172.415 43.6588 175.29 42.5563L182.64 39.6898C184.597 38.964 185.838 38.5046 185.727 38.5138Z" fill="#263238"/>
<path d="M187.6 42.9708C187.655 43.0902 183.503 45.2585 178.321 47.8126C173.139 50.3667 168.885 52.3328 168.821 52.2226C168.757 52.1123 172.919 49.9349 178.11 47.3808C183.301 44.8267 187.545 42.8973 187.6 42.9708Z" fill="#263238"/>
<path d="M191.211 46.9941C191.276 47.1136 187.233 49.5391 182.18 52.4239C177.127 55.3088 172.992 57.5506 172.919 57.4403C172.845 57.3301 176.888 54.8954 181.941 52.0105C186.994 49.1256 191.138 46.8839 191.211 46.9941Z" fill="#263238"/>
<path d="M194.416 51.7744C194.49 51.8847 190.852 54.5307 186.276 57.6361C181.701 60.7414 177.934 63.2129 177.86 63.1486C177.787 63.0843 181.434 60.3923 186.001 57.2869C190.567 54.1816 194.343 51.6734 194.416 51.7744Z" fill="#263238"/>
<path d="M198.101 56.2832C195.785 58.3504 193.36 60.2981 190.843 62.1265C188.417 64.0926 185.891 65.9301 183.281 67.639C185.597 65.5626 188.022 63.6056 190.549 61.7865C192.965 59.8204 195.491 57.9829 198.101 56.2832Z" fill="#263238"/>
<path d="M205.067 60.6667C205.141 60.777 201.3 63.1933 196.504 66.0598C191.709 68.9263 187.749 71.1588 187.684 71.0486C187.62 70.9383 191.451 68.522 196.256 65.6463C201.061 62.7706 205.003 60.5473 205.067 60.6667Z" fill="#263238"/>
<path d="M75.0508 19.9906C75.0508 19.9906 97.1008 7.26592 102.319 0.255859C102.319 0.255859 131.131 14.0371 156.296 6.06236L137.002 28.4799C137.002 28.4799 105.553 35.2327 75.0508 19.9906Z" fill="#FAFAFA"/>
<path d="M75.052 19.992L79.4069 21.8938C80.7575 22.5553 82.5674 23.1433 84.6254 23.9242C86.6834 24.7052 89.1273 25.3667 91.81 26.2027C98.2872 27.8932 104.902 28.9958 111.582 29.4735C112.5 29.5654 113.511 29.6113 114.494 29.6389L117.489 29.7491C119.52 29.7491 121.596 29.7491 123.718 29.6572C128.147 29.5102 132.557 29.0509 136.921 28.2607L136.792 28.3342L154.836 7.39594L156.113 5.90756L156.371 6.29344C151.409 7.76344 146.274 8.59031 141.092 8.73731H137.343L133.668 8.526C132.456 8.48006 131.261 8.28712 130.076 8.1585L128.303 7.95637C127.715 7.87369 127.136 7.76344 126.557 7.67156C122.138 6.96413 117.774 5.94431 113.502 4.61212C109.661 3.4545 105.894 2.03962 102.238 0.395063L102.468 0.339938C100.878 2.25094 99.0774 3.97819 97.102 5.48494C95.2645 6.96412 93.473 8.24119 91.7917 9.45394C88.4015 11.8335 85.3604 13.7537 82.8982 15.3064C80.4359 16.8591 78.4514 18.0626 77.1192 18.8068L75.5849 19.6796C75.2358 19.8818 75.0704 19.9552 75.052 19.9644C75.0337 19.9736 75.2174 19.845 75.5573 19.6337L77.0549 18.7149C78.3779 17.9064 80.3165 16.7121 82.7879 15.1318C85.2593 13.5516 88.2453 11.6038 91.6171 9.20588C93.2892 8.00231 95.0808 6.70687 96.8907 5.2185C98.8385 3.72094 100.612 2.01206 102.174 0.119437L102.265 0L102.403 0.0643125C106.051 1.6905 109.799 3.07781 113.621 4.20787C117.875 5.53087 122.221 6.55069 126.621 7.25812C127.2 7.35 127.77 7.45106 128.358 7.53375L130.113 7.73588C131.298 7.85531 132.483 8.05744 133.696 8.09419L137.371 8.29631H141.092C146.228 8.14012 151.317 7.32244 156.242 5.87081L157.032 5.62275L156.499 6.2475L155.213 7.73588L137.16 28.6558L137.104 28.7201H137.031C132.648 29.5103 128.211 29.9696 123.755 30.1074C121.623 30.2177 119.538 30.1717 117.498 30.1717L114.494 30.0523C113.502 30.0523 112.528 29.9696 111.572 29.8778C104.856 29.3724 98.2137 28.2332 91.709 26.4784C89.0262 25.6147 86.564 24.99 84.5243 24.1264C82.4847 23.2628 80.6748 22.7299 79.2875 22.0132L75.052 19.992Z" fill="#263238"/>
<path d="M108.347 7.18496C108.43 7.28603 104.535 10.566 99.656 14.535C94.7775 18.504 90.7441 21.591 90.6615 21.4899C90.5788 21.3888 94.4651 18.0997 99.3528 14.1399C104.241 10.1801 108.246 7.06553 108.347 7.18496Z" fill="#263238"/>
<path d="M114.018 8.37918C114.11 8.47105 110.555 11.9807 106.071 16.2161C101.588 20.4516 97.8944 23.805 97.8025 23.7131C97.7106 23.6212 101.266 20.1024 105.75 15.867C110.233 11.6316 113.927 8.27812 114.018 8.37918Z" fill="#263238"/>
<path d="M119.023 10.3082C119.124 10.4 116.331 13.8086 112.794 17.9246C109.257 22.0406 106.289 25.2746 106.198 25.2195C106.106 25.1644 108.88 21.7282 112.427 17.6122C115.973 13.4962 118.931 10.2255 119.023 10.3082Z" fill="#263238"/>
<path d="M126.201 10.7402C126.302 10.8229 123.849 14.2407 120.688 18.375C118.869 20.9292 116.912 23.3822 114.836 25.725C116.545 23.0882 118.382 20.5433 120.348 18.0902C122.177 15.5453 124.125 13.0922 126.201 10.7402Z" fill="#263238"/>
<path d="M132.466 11.5586C130.721 14.1495 128.837 16.6393 126.834 19.0372C123.609 23.0797 120.917 26.2953 120.816 26.2127C122.571 23.6218 124.455 21.132 126.458 18.734C128.341 16.2442 130.344 13.8463 132.466 11.5586Z" fill="#263238"/>
<path d="M139.809 11.918C138.495 14.4078 137.044 16.8241 135.463 19.1577C134.021 21.574 132.441 23.9077 130.723 26.1402C132.036 23.6504 133.488 21.2341 135.068 18.9005C136.511 16.4842 138.091 14.1505 139.809 11.918Z" fill="#263238"/>
<path d="M268.791 86.2961L252.143 85.3774C252.042 83.4296 252.143 72.0831 252.143 72.0831C252.143 72.0831 245.216 71.0081 245.133 64.0808C245.05 57.1534 246.245 41.2498 246.245 41.2498C254.265 37.8045 263.517 38.9713 270.435 44.2909L271.455 45.081L268.791 86.2961Z" fill="#AA755E"/>
<path d="M247.872 53.5625C248.286 53.195 248.332 52.5519 247.955 52.1384C247.588 51.725 246.944 51.6791 246.531 52.0557C246.118 52.4232 246.072 53.0664 246.448 53.4798C246.448 53.4798 246.448 53.4798 246.458 53.489C246.825 53.9024 247.459 53.93 247.872 53.5625Z" fill="#263238"/>
<path d="M246.202 51.9825C246.303 52.1019 246.983 51.5782 247.938 51.569C248.894 51.5599 249.592 52.056 249.693 51.9365C249.794 51.8171 249.638 51.6609 249.335 51.4312C248.921 51.1464 248.434 50.9902 247.938 50.9902C247.433 50.9902 246.946 51.1648 246.542 51.468C246.248 51.7069 246.147 51.9274 246.202 51.9825Z" fill="#263238"/>
<path d="M257.188 52.3857C256.71 52.6705 256.563 53.2861 256.848 53.7639C256.848 53.7639 256.848 53.7639 256.848 53.773C257.142 54.2508 257.757 54.3978 258.235 54.1038C258.713 53.8098 258.86 53.1942 258.566 52.7165C258.272 52.2387 257.656 52.0917 257.179 52.3857H257.188Z" fill="#263238"/>
<path d="M256.547 52.3864C256.657 52.5059 257.337 51.9822 258.293 51.9822C259.248 51.9822 259.937 52.4691 260.047 52.3497C260.158 52.2302 259.992 52.0741 259.689 51.8444C258.862 51.2472 257.76 51.2472 256.933 51.8444C256.611 52.12 256.547 52.3313 256.547 52.3864Z" fill="#263238"/>
<path d="M252.73 60.2592C252.234 60.0663 251.72 59.9468 251.187 59.9285C250.939 59.9285 250.746 59.8458 250.727 59.7171C250.718 59.4691 250.773 59.221 250.902 59.0005L251.655 57.062C252.372 55.4174 252.923 53.7177 253.291 51.9629C252.409 53.5248 251.692 55.1693 251.15 56.869C250.902 57.5397 250.672 58.1828 250.433 58.826C250.268 59.1475 250.222 59.5058 250.296 59.855C250.369 60.0479 250.525 60.1949 250.727 60.2592C250.865 60.2959 251.012 60.3143 251.159 60.3143C251.683 60.3878 252.216 60.3694 252.73 60.2592Z" fill="#263238"/>
<path d="M252.171 71.9631C255.368 72.0183 258.51 71.1271 261.193 69.3906C261.193 69.3906 259.061 74.3794 252.152 73.7547L252.171 71.9631Z" fill="#7F5242"/>
<path d="M247.413 39.5227C245.98 39.3941 244.924 38.1354 245.052 36.7022C245.181 35.2689 246.439 34.2124 247.873 34.341C248.332 34.3777 248.773 34.5431 249.15 34.8095C248.36 34.0745 247.735 33.1925 247.312 32.2003C246.899 31.1805 247.165 30.0137 247.983 29.2787C248.902 28.7274 250.059 28.7274 250.978 29.2787C252.411 29.9953 253.486 31.3091 254.965 31.9247C256.445 32.5402 258.135 32.384 259.743 32.5586C261.535 32.7056 263.234 33.413 264.603 34.5799C265.972 35.7742 266.689 37.5474 266.533 39.3574C268.802 39.2195 271.301 39.3574 272.964 40.8549C274.333 42.233 275.003 44.1624 274.801 46.0918C274.691 48.0028 273.791 49.7668 273.111 51.6043C272.945 52.1188 272.679 52.5965 272.33 53.0008L271.255 57.8977L268.186 57.6497L269.022 47.3597C269.022 47.3597 269.601 43.0324 265.843 43.1885C262.086 43.3447 256.748 47.231 249.536 45.7243C248.35 45.5865 247.211 45.1822 246.21 44.5391C245.218 43.8317 244.694 42.6373 244.841 41.4245C245.034 40.1934 246.182 39.339 247.423 39.5227H247.413Z" fill="#263238"/>
<path d="M271.513 51.7611C271.669 51.7611 276.676 51.3753 275.849 57.2093C275.022 63.0434 269.418 60.2779 269.418 60.1126C269.418 59.9472 271.513 51.7611 271.513 51.7611Z" fill="#AA755E"/>
<path d="M271.487 58.3137C271.487 58.3137 271.579 58.4056 271.735 58.5067C271.965 58.6445 272.241 58.6904 272.498 58.6353C273.334 58.2586 273.904 57.4593 273.986 56.5405C274.069 56.0444 274.041 55.5299 273.904 55.043C273.858 54.6479 273.61 54.2988 273.251 54.1242C273.022 54.0232 272.755 54.1058 272.617 54.3172C272.507 54.4733 272.535 54.5928 272.498 54.5928C272.461 54.5928 272.388 54.4825 272.498 54.2437C272.553 54.1058 272.654 53.9864 272.783 53.9129C272.957 53.821 273.169 53.7935 273.361 53.8486C273.83 54.014 274.179 54.4182 274.28 54.9052C274.455 55.4472 274.501 56.0168 274.4 56.5773C274.308 57.6522 273.582 58.5618 272.562 58.8925C272.231 58.9385 271.891 58.8282 271.643 58.5985C271.478 58.4607 271.469 58.3229 271.487 58.3137Z" fill="#7F5242"/>
<path d="M256.545 48.0941C256.747 48.4248 257.795 48.1584 259.026 48.186C260.257 48.2135 261.304 48.4891 261.516 48.186C261.607 48.0206 261.442 47.7082 261.001 47.405C259.807 46.6608 258.291 46.6425 257.078 47.3591C256.665 47.6163 256.49 47.9287 256.545 48.0941Z" fill="#263238"/>
<path d="M247.227 48.7096C247.438 49.0311 248.036 49.0403 248.66 49.1414C249.285 49.2424 249.864 49.3619 250.158 49.1414C250.286 49.0036 250.277 48.7371 250.048 48.4431C249.744 48.0848 249.313 47.8551 248.844 47.8C248.375 47.7357 247.907 47.8368 247.512 48.1032C247.218 48.3053 247.135 48.5626 247.227 48.7096Z" fill="#263238"/>
<path d="M251.75 62.7202C251.75 62.7753 252.007 62.9131 252.494 62.9682C253.119 63.0234 253.753 62.9131 254.332 62.665C254.92 62.417 255.443 62.0311 255.838 61.5258C256.142 61.1399 256.224 60.8459 256.178 60.8184C255.563 61.3696 254.883 61.8565 254.157 62.2424C253.376 62.4997 252.568 62.665 251.75 62.7202Z" fill="#263238"/>
<path d="M257.38 318.748L257.573 310.268L273.458 310.525L273.302 322.928L272.319 322.983C267.937 323.148 250.003 323.544 247.09 322.606C243.838 321.577 257.38 318.748 257.38 318.748Z" fill="#FF725E"/>
<g opacity="0.4">
<path d="M250.771 320.357C250.771 320.357 246.021 321.644 246.59 322.434C247.16 323.224 265.305 323.509 273.308 322.93V322.581L252.176 322.425C252.176 322.425 251.689 320.413 250.771 320.357Z" fill="white"/>
</g>
<path d="M273.533 322.571H272.476L269.591 322.645C267.148 322.7 263.785 322.718 260.055 322.645C256.325 322.571 252.962 322.461 250.527 322.342L247.642 322.176L246.862 322.121H246.586H247.652L250.537 322.222C252.971 322.314 256.343 322.415 260.064 322.47C263.785 322.525 267.148 322.525 269.591 322.47H273.533V322.571Z" fill="#263238"/>
<path d="M252.136 322.672C252.017 322.194 251.842 321.726 251.622 321.285C251.355 320.881 251.052 320.504 250.703 320.164C251.19 320.357 251.585 320.724 251.833 321.184C252.109 321.625 252.219 322.158 252.136 322.672Z" fill="#263238"/>
<path d="M256.861 320.367C256.861 320.367 256.594 320.119 256.374 319.752C256.153 319.384 255.997 319.063 256.043 319.035C256.089 319.008 256.31 319.283 256.539 319.651C256.769 320.018 256.907 320.34 256.861 320.367Z" fill="#263238"/>
<path d="M258.15 319.741C258.15 319.741 257.865 319.613 257.599 319.365C257.333 319.117 257.14 318.878 257.176 318.841C257.213 318.804 257.461 318.97 257.728 319.218C257.994 319.466 258.187 319.668 258.15 319.741Z" fill="#263238"/>
<path d="M258.99 318.225C258.723 318.316 258.438 318.344 258.163 318.316C257.887 318.344 257.602 318.316 257.336 318.215C257.602 318.123 257.887 318.087 258.163 318.123C258.438 318.096 258.723 318.123 258.99 318.225Z" fill="#263238"/>
<path d="M259.302 317.17C259.027 317.335 258.705 317.427 258.384 317.427C258.071 317.473 257.75 317.427 257.465 317.28C257.768 317.234 258.08 317.216 258.384 317.234C258.687 317.188 258.999 317.161 259.302 317.17Z" fill="#263238"/>
<path d="M256.342 318.981C256.002 319.036 255.662 319.036 255.322 318.981C254.954 318.926 254.587 318.843 254.238 318.724C254.026 318.66 253.815 318.568 253.622 318.458C253.503 318.384 253.411 318.274 253.374 318.136C253.347 317.98 253.402 317.824 253.53 317.732C254.339 317.337 255.313 317.585 255.836 318.32C255.993 318.522 256.103 318.752 256.158 319C256.176 319.091 256.176 319.183 256.158 319.275C256.057 318.963 255.901 318.669 255.708 318.402C255.478 318.136 255.184 317.934 254.844 317.824C254.449 317.677 253.999 317.695 253.622 317.888C253.457 317.998 253.521 318.191 253.696 318.301C253.879 318.402 254.063 318.494 254.265 318.559C254.605 318.678 254.954 318.779 255.313 318.843C255.956 318.935 256.342 318.944 256.342 318.981Z" fill="#263238"/>
<path d="M256.076 319.025C255.948 318.804 255.911 318.556 255.966 318.308C256.012 318.042 256.113 317.794 256.26 317.573C256.435 317.27 256.756 317.077 257.115 317.059C257.326 317.105 257.464 317.316 257.427 317.536C257.399 317.702 257.335 317.858 257.243 317.996C257.105 318.216 256.94 318.418 256.756 318.602C256.591 318.786 256.389 318.924 256.159 319.006C256.159 319.006 256.37 318.823 256.655 318.51C256.821 318.317 256.968 318.115 257.096 317.904C257.234 317.683 257.335 317.307 257.096 317.252C256.857 317.196 256.573 317.472 256.416 317.674C256.269 317.867 256.168 318.097 256.113 318.336C256.086 318.565 256.067 318.795 256.076 319.025Z" fill="#263238"/>
<path d="M273.288 318.225C272.893 318.207 272.507 318.207 272.112 318.225C270.201 318.409 268.566 319.677 267.904 321.477C267.647 322.157 267.619 322.607 267.583 322.607C267.546 322.607 267.583 322.488 267.583 322.286C267.61 321.992 267.675 321.707 267.776 321.431C268.079 320.503 268.648 319.686 269.42 319.089C270.192 318.501 271.129 318.151 272.103 318.087C272.406 318.06 272.719 318.06 273.022 318.087C273.178 318.179 273.288 318.207 273.288 318.225Z" fill="#263238"/>
<path d="M271.739 311.584C271.831 312.668 271.858 313.761 271.822 314.855C271.849 315.939 271.822 317.032 271.721 318.116C271.583 315.939 271.583 313.761 271.721 311.584H271.739Z" fill="#263238"/>
<path d="M265.577 321.137C264.815 321.303 264.034 321.367 263.253 321.33C262.472 321.358 261.691 321.284 260.938 321.101C260.938 321.046 261.976 321.101 263.262 321.101C264.548 321.101 265.577 321.082 265.577 321.137Z" fill="#263238"/>
<path d="M268.69 321.174C268.69 321.174 268.598 321.394 268.488 321.633C268.377 321.872 268.322 322.083 268.267 322.074C268.212 322.065 268.184 321.826 268.267 321.551C268.35 321.275 268.653 321.137 268.69 321.174Z" fill="#263238"/>
<path d="M269.883 319.74C269.883 319.74 269.819 319.942 269.653 320.099C269.488 320.255 269.313 320.365 269.277 320.328C269.24 320.291 269.35 320.126 269.515 319.961C269.681 319.795 269.846 319.74 269.883 319.74Z" fill="#263238"/>
<path d="M271.578 319.098C271.578 319.153 271.358 319.144 271.119 319.227C270.88 319.309 270.715 319.42 270.678 319.383C270.641 319.346 270.77 319.135 271.064 319.043C271.358 318.951 271.597 319.043 271.578 319.098Z" fill="#263238"/>
<path d="M272.769 318.822C272.769 318.822 272.696 318.951 272.567 318.997C272.438 319.043 272.31 319.043 272.291 318.997C272.273 318.951 272.365 318.868 272.503 318.813C272.641 318.758 272.751 318.749 272.769 318.822Z" fill="#263238"/>
<g opacity="0.3">
<path d="M273.268 317.797L257.41 317.282L257.465 315.371L273.415 316.795L273.268 317.797Z" fill="black"/>
</g>
<path d="M242.627 316.985L239.935 308.946L254.966 303.801L259.027 315.524L258.108 315.901C254.038 317.545 237.307 324.004 234.22 324.105C230.821 324.225 242.627 316.985 242.627 316.985Z" fill="#FF725E"/>
<g opacity="0.4">
<path d="M236.945 320.745C236.945 320.745 232.912 323.574 233.72 324.116C234.529 324.658 251.682 318.778 259.023 315.526L258.885 315.195L238.939 322.224C238.939 322.224 237.836 320.487 236.945 320.745Z" fill="white"/>
</g>
<path d="M259.127 315.146L258.869 315.266L258.144 315.56L255.461 316.616C253.182 317.489 250.013 318.656 246.494 319.869C242.975 321.082 239.759 322.101 237.426 322.818L234.67 323.636L233.907 323.847C233.824 323.875 233.733 323.902 233.641 323.911L233.898 323.81L234.642 323.571L237.398 322.653C239.723 321.908 242.911 320.815 246.439 319.648C249.967 318.482 253.127 317.296 255.415 316.451L258.171 315.459L258.915 315.192L259.127 315.146Z" fill="#263238"/>
<path d="M239.027 322.498C238.769 322.085 238.457 321.708 238.108 321.368C237.704 321.074 237.272 320.826 236.812 320.643C237.336 320.643 237.851 320.854 238.227 321.221C238.641 321.534 238.926 321.993 239.027 322.498Z" fill="#263238"/>
<path d="M242.681 318.686C242.681 318.686 242.35 318.548 242.01 318.272C241.671 317.997 241.432 317.748 241.459 317.712C241.487 317.675 241.799 317.859 242.13 318.125C242.461 318.392 242.764 318.649 242.681 318.686Z" fill="#263238"/>
<path d="M243.685 317.628C243.685 317.628 243.373 317.628 243.033 317.454C242.693 317.279 242.436 317.16 242.454 317.105C242.472 317.049 242.766 317.105 243.106 317.279C243.446 317.454 243.685 317.582 243.685 317.628Z" fill="#263238"/>
<path d="M243.966 315.949C243.745 316.124 243.488 316.252 243.212 316.317C242.78 316.473 242.413 316.556 242.395 316.5C242.615 316.326 242.872 316.206 243.148 316.133C243.405 316.014 243.681 315.949 243.966 315.949Z" fill="#263238"/>
<path d="M243.885 314.852C243.885 314.852 243.591 315.201 243.095 315.412C242.819 315.568 242.497 315.632 242.176 315.596C242.451 315.449 242.745 315.329 243.039 315.228C243.306 315.081 243.591 314.953 243.885 314.852Z" fill="#263238"/>
<path d="M241.728 317.554C241.443 317.71 241.131 317.82 240.809 317.875C240.442 317.949 240.074 317.995 239.698 318.004C239.477 318.013 239.247 318.004 239.027 317.958C238.889 317.93 238.77 317.857 238.687 317.747C238.604 317.609 238.604 317.443 238.687 317.306C239.44 316.571 240.644 316.589 241.379 317.342C241.462 317.425 241.526 317.508 241.59 317.609C241.682 317.765 241.71 317.857 241.701 317.866C241.498 317.6 241.26 317.37 240.975 317.186C240.672 317.012 240.322 316.92 239.973 316.938C239.551 316.938 239.146 317.113 238.843 317.407C238.733 317.572 238.843 317.737 239.064 317.783C239.266 317.82 239.477 317.829 239.679 317.829C240.047 317.829 240.405 317.802 240.763 317.747C241.351 317.646 241.719 317.526 241.728 317.554Z" fill="#263238"/>
<path d="M241.495 317.684C241.311 317.527 241.183 317.307 241.146 317.059C241.082 316.792 241.082 316.526 241.146 316.26C241.21 315.91 241.449 315.617 241.78 315.488C242 315.47 242.193 315.616 242.23 315.837C242.267 315.993 242.267 316.168 242.23 316.324C242.184 316.581 242.092 316.829 241.973 317.059C241.89 317.289 241.743 317.491 241.559 317.647C241.559 317.647 241.688 317.408 241.853 317.004C241.945 316.774 242.019 316.535 242.055 316.287C242.12 316.039 242.055 315.644 241.826 315.681C241.596 315.718 241.412 316.067 241.33 316.306C241.265 316.544 241.247 316.792 241.275 317.031C241.33 317.252 241.403 317.472 241.495 317.684Z" fill="#263238"/>
<path d="M257.404 311.096C257.404 311.096 256.954 311.206 256.302 311.518C255.457 311.932 254.731 312.566 254.225 313.356C253.729 314.155 253.463 315.074 253.444 316.011C253.444 316.737 253.564 317.178 253.527 317.187C253.481 317.095 253.444 316.994 253.426 316.884C253.353 316.599 253.316 316.305 253.307 316.011C253.279 315.037 253.546 314.082 254.06 313.255C254.593 312.446 255.355 311.803 256.247 311.417C256.513 311.307 256.798 311.215 257.083 311.16C257.184 311.123 257.294 311.105 257.404 311.096Z" fill="#263238"/>
<path d="M253.707 305.383C254.157 306.375 254.552 307.386 254.892 308.424C255.287 309.444 255.627 310.473 255.903 311.529C255.443 310.546 255.039 309.526 254.708 308.488C254.313 307.478 253.983 306.439 253.707 305.383Z" fill="#263238"/>
<path d="M251.143 316.454C250.481 316.868 249.774 317.189 249.03 317.419C248.304 317.713 247.55 317.915 246.77 317.998C246.77 317.942 247.762 317.667 248.965 317.244C250.169 316.822 251.124 316.399 251.143 316.454Z" fill="#263238"/>
<path d="M254.096 315.442V315.929C254.096 316.186 254.096 316.407 254.041 316.425C253.985 316.444 253.875 316.214 253.903 315.911C253.93 315.607 254.05 315.415 254.096 315.442Z" fill="#263238"/>
<path d="M254.71 313.677C254.71 313.677 254.71 313.888 254.609 314.1C254.507 314.311 254.388 314.458 254.342 314.44C254.296 314.421 254.342 314.228 254.443 314.017C254.544 313.806 254.71 313.649 254.71 313.677Z" fill="#263238"/>
<path d="M256.096 312.502C256.096 312.557 255.903 312.621 255.71 312.777C255.517 312.933 255.398 313.099 255.352 313.08C255.306 313.062 255.352 312.805 255.591 312.621C255.83 312.437 256.096 312.447 256.096 312.502Z" fill="#263238"/>
<path d="M257.122 311.813C257.122 311.813 257.122 311.96 256.994 312.052C256.865 312.144 256.764 312.19 256.736 312.144C256.709 312.098 256.736 311.997 256.865 311.905C256.994 311.813 257.085 311.776 257.122 311.813Z" fill="#263238"/>
<g opacity="0.3">
<path d="M257.249 310.701L242.164 315.598L241.566 313.779L257.047 309.709L257.249 310.701Z" fill="black"/>
</g>
<path d="M212.162 247.399C217.105 267.511 240.092 314.716 240.092 314.716L252.293 311.565V316.379L275.39 317.141L278.661 160.035L249.996 160.844L231.318 160.035C231.318 160.035 208.037 230.623 212.162 247.399ZM236.334 240.665C236.472 236.383 250.611 182.094 250.611 182.094C251.144 189.637 252.752 251.304 252.366 287.567C246.192 268.291 236.27 243.274 236.334 240.665Z" fill="#263238"/>
<path d="M252.495 277.268C252.421 277.773 252.394 278.278 252.403 278.793C252.403 279.84 252.348 281.246 252.32 282.945C252.265 286.455 252.228 291.297 252.219 296.653C252.21 302.01 252.219 306.851 252.219 310.361L252.283 314.514C252.265 315.019 252.283 315.524 252.366 316.03C252.43 315.524 252.458 315.01 252.458 314.505C252.458 313.457 252.458 312.051 252.54 310.352C252.586 306.842 252.623 302 252.642 296.644C252.66 291.288 252.642 286.455 252.642 282.945C252.642 281.246 252.642 279.84 252.586 278.793C252.586 278.287 252.559 277.773 252.495 277.268Z" fill="#455A64"/>
<path d="M263.609 162.166C263.563 162.432 263.563 162.708 263.609 162.975C263.673 163.71 263.829 164.445 264.068 165.143C265.657 170.003 270.509 173.026 275.571 172.318C276.287 172.226 276.995 172.061 277.675 171.822C277.932 171.739 278.18 171.62 278.401 171.455C277.445 171.721 276.471 171.923 275.488 172.052C270.6 172.575 265.997 169.691 264.316 165.078C264.013 164.123 263.774 163.149 263.609 162.166Z" fill="#455A64"/>
<path d="M248.535 162.404C248.471 162.671 248.443 162.946 248.452 163.222C248.452 163.755 248.388 164.517 248.36 165.473C248.315 167.366 248.269 169.984 248.25 172.878V176.957C248.177 178.106 248.443 179.254 249.013 180.256C249.445 180.926 250.134 181.386 250.915 181.514C251.199 181.579 251.493 181.542 251.751 181.404C251.484 181.404 251.209 181.386 250.942 181.349C250.244 181.165 249.647 180.706 249.279 180.081C248.792 179.116 248.572 178.032 248.664 176.957V165.473C248.664 164.554 248.664 163.755 248.599 163.222C248.627 162.946 248.599 162.671 248.535 162.404Z" fill="#455A64"/>
<path d="M229.59 172.181H230.224C230.803 172.144 231.381 172.052 231.942 171.914C235.709 170.977 238.934 168.552 240.872 165.189C241.166 164.684 241.405 164.16 241.607 163.618C241.745 163.232 241.8 163.021 241.773 163.002C241.745 162.984 241.368 163.811 240.597 165.024C238.575 168.202 235.47 170.536 231.859 171.611C230.481 172.015 229.581 172.107 229.59 172.181Z" fill="#455A64"/>
<path d="M289.621 92.4334C287.278 88.0326 285.688 85.4693 281.435 82.8509C277.833 80.5448 273.708 79.1667 269.445 78.8359C263.666 80.6643 257.474 80.6643 251.695 78.8359C249.177 79.1575 245.319 78.2204 236.691 82.6488C233.081 84.4954 230.095 87.3803 228.11 90.9175L217.82 109.348L232.217 118.388L236.048 107.253L233.292 132.261L228.9 160.844H280.902L280.231 127.916C280.231 129.101 280.231 118.158 280.231 118.158L289.621 92.4334Z" fill="#FF725E"/>
<path d="M266.875 122.955C266.746 123.083 266.599 123.193 266.434 123.285C265.984 123.589 265.525 123.855 265.038 124.094C260.471 126.189 255.124 125.674 251.036 122.762C249.584 121.751 248.436 120.373 247.692 118.774C246.883 117.01 246.966 114.961 247.921 113.262C248.886 111.47 251.008 110.634 252.938 111.296C253.847 111.571 254.61 112.196 255.042 113.041C255.418 113.859 255.492 114.787 255.253 115.651C254.775 117.212 253.691 118.508 252.249 119.261C251.063 119.95 249.759 120.419 248.399 120.649C246.442 120.979 244.421 120.805 242.547 120.152C242.041 119.969 241.554 119.748 241.086 119.482C240.911 119.408 240.755 119.298 240.617 119.179C240.617 119.133 241.297 119.546 242.602 119.969C244.458 120.547 246.424 120.667 248.335 120.318C249.63 120.079 250.88 119.601 252.01 118.921C253.333 118.205 254.325 116.992 254.766 115.549C254.968 114.778 254.895 113.969 254.564 113.243C254.178 112.518 253.516 111.966 252.726 111.737C251.899 111.479 251.017 111.498 250.209 111.792C249.391 112.123 248.702 112.729 248.27 113.501C247.388 115.072 247.315 116.964 248.059 118.6C248.767 120.125 249.86 121.448 251.229 122.422C253.553 124.121 256.365 125.04 259.249 125.04C261.188 125.068 263.117 124.682 264.909 123.928C266.223 123.359 266.848 122.909 266.875 122.955Z" fill="#FAFAFA"/>
<path d="M280.807 151.454L280.541 151.546L279.76 151.776C278.74 152.024 277.692 152.162 276.636 152.189C274.964 152.254 273.292 152.07 271.675 151.638C269.525 151.087 267.504 150.113 265.721 148.79C264.692 148.018 263.773 147.127 262.965 146.125C262.019 145.051 261.412 143.718 261.247 142.294C261.118 140.677 262.037 139.161 263.525 138.518C264.325 138.215 265.225 138.325 265.932 138.812C266.612 139.318 267.127 140.025 267.384 140.833C269.222 147.421 262.947 155.111 255.238 155.138C251.536 155.184 247.943 153.871 245.132 151.463C243.772 150.352 242.66 148.955 241.87 147.384C241.494 146.603 241.273 145.749 241.236 144.885C241.2 144.022 241.411 143.167 241.834 142.414C242.247 141.66 242.89 141.063 243.671 140.714C244.443 140.392 245.306 140.365 246.097 140.659C247.585 141.219 248.66 142.524 248.936 144.086C249.202 145.492 249.055 146.943 248.522 148.266C248.035 149.47 247.3 150.572 246.381 151.491C244.792 153.071 242.807 154.183 240.639 154.725C239.022 155.138 237.359 155.35 235.696 155.359C234.327 155.359 233.271 155.304 232.554 155.249L231.737 155.175C231.645 155.194 231.553 155.194 231.461 155.175C231.553 155.166 231.645 155.166 231.737 155.175H232.554C233.271 155.175 234.337 155.239 235.687 155.175C237.341 155.129 238.976 154.89 240.575 154.468C242.67 153.907 244.571 152.805 246.087 151.261C246.969 150.361 247.668 149.295 248.127 148.128C248.623 146.87 248.752 145.501 248.495 144.169C248.247 142.744 247.263 141.559 245.913 141.054C245.224 140.806 244.47 140.824 243.8 141.109C243.111 141.431 242.55 141.964 242.201 142.634C241.457 144.077 241.475 145.804 242.265 147.228C243.037 148.735 244.112 150.067 245.417 151.142C248.145 153.494 251.646 154.771 255.247 154.734C258.858 154.651 262.248 153.007 264.545 150.223C265.638 148.928 266.447 147.421 266.915 145.795C267.421 144.26 267.448 142.607 266.98 141.054C266.769 140.319 266.318 139.676 265.712 139.216C265.115 138.803 264.361 138.711 263.682 138.959C262.359 139.529 261.55 140.879 261.669 142.313C261.826 143.654 262.377 144.922 263.268 145.942C264.077 146.925 265.004 147.807 266.024 148.569C267.761 149.883 269.736 150.857 271.84 151.427C273.429 151.858 275.074 152.07 276.719 152.051C278.097 151.996 279.466 151.794 280.807 151.454Z" fill="#FAFAFA"/>
<path d="M269.405 104.673C269.047 104.627 268.698 104.554 268.358 104.453C267.375 104.177 266.429 103.8 265.528 103.313C264.104 102.551 262.818 101.549 261.725 100.355C261.036 99.6108 260.438 98.7839 259.951 97.9019C259.363 96.9005 259.051 95.7613 259.033 94.6036C259.033 93.299 259.621 92.0587 260.622 91.2226C261.164 90.7816 261.826 90.5244 262.524 90.4693C263.24 90.4141 263.957 90.5519 264.609 90.8643C265.988 91.5258 266.952 92.8304 267.173 94.3464C267.421 95.9083 267.127 97.5161 266.337 98.885C264.573 101.788 261.513 103.663 258.123 103.911C254.558 104.168 250.994 103.424 247.833 101.761C246.189 100.952 244.783 99.7486 243.735 98.2419C242.734 96.7259 242.385 94.8793 242.762 93.1061C242.945 92.2424 243.35 91.4339 243.938 90.7724C244.526 90.1201 245.306 89.6699 246.161 89.477C246.988 89.2841 247.851 89.3116 248.669 89.5505C249.487 89.7526 250.213 90.212 250.755 90.8551C251.278 91.5074 251.536 92.3343 251.462 93.1612C251.389 93.9513 251.104 94.7047 250.626 95.3386C249.735 96.5238 248.559 97.4701 247.217 98.0949C244.847 99.1974 242.284 99.7854 239.675 99.8405C235.899 99.9416 232.168 98.9677 228.925 97.0291C228.052 96.4963 227.235 95.8807 226.481 95.1916L225.902 94.6496C225.838 94.5853 225.774 94.5209 225.719 94.4474L225.939 94.6128L226.546 95.1181C227.327 95.7613 228.153 96.3401 229.026 96.8546C232.26 98.6921 235.944 99.6016 239.665 99.4822C242.21 99.3995 244.709 98.8023 247.015 97.7182C248.292 97.1302 249.395 96.2298 250.249 95.1181C250.681 94.5485 250.938 93.8686 251.003 93.152C251.067 92.4262 250.847 91.7096 250.387 91.1491C249.321 90.0191 247.732 89.5597 246.234 89.9456C244.663 90.3498 243.469 91.6361 243.184 93.2347C242.844 94.8793 243.175 96.5973 244.103 98.003C245.104 99.4363 246.455 100.585 248.026 101.356C251.104 102.973 254.567 103.708 258.04 103.46C261.284 103.231 264.214 101.448 265.923 98.6829C266.677 97.4058 266.961 95.9083 266.732 94.4383C266.53 93.0509 265.666 91.8566 264.407 91.241C263.259 90.6346 261.862 90.7449 260.824 91.5258C259.905 92.3068 259.382 93.446 259.391 94.6496C259.391 95.7521 259.676 96.8362 260.218 97.7917C260.686 98.6645 261.256 99.473 261.917 100.217C262.974 101.402 264.214 102.404 265.592 103.194C266.474 103.681 267.393 104.085 268.349 104.398C269.047 104.572 269.405 104.646 269.405 104.673Z" fill="#FAFAFA"/>
<path d="M160.123 124.388C161.253 122.55 169.035 126.905 169.724 127.227C170.413 127.548 170.891 126.565 170.257 126.308C169.338 125.941 159.857 121.871 160.95 120.079C161.556 119.087 163.238 120.336 163.238 120.336C163.238 120.336 171.828 124.801 172.315 123.938C172.802 123.074 167.85 120.263 166.113 119.454C164.377 118.646 164.083 117.488 165.075 117.029C165.755 116.716 171.139 119.105 172.839 119.96C174.538 120.814 179.16 123.24 177.855 120.189C176.55 117.139 176.688 114.309 177.267 113.565C177.662 113.152 178.324 113.143 178.737 113.538C178.967 113.758 179.086 114.07 179.049 114.383C179.132 115.504 179.371 116.606 179.757 117.654C180.032 118.508 180.455 119.316 180.997 120.033C181.64 120.86 182.219 121.54 182.715 122.11C187.676 123.837 201.825 128.219 215.055 127.016C217.444 126.795 226.347 104.047 226.347 104.047L241.644 110.983C238.759 118.931 235.268 126.648 231.198 134.062C220.457 153.669 176.385 134.062 176.385 134.062V134.016C172.894 133.337 169.448 132.455 166.058 131.398C161.419 129.726 161.556 129.303 161.85 128.798C162.622 127.438 170.119 131.435 169.007 129.643C167.896 127.852 159.259 125.775 160.123 124.388Z" fill="#AA755E"/>
<path d="M252.697 163.965C252.697 164.038 253.229 164.121 253.533 164.819C253.707 165.196 253.707 165.637 253.533 166.014C253.119 166.593 252.32 166.73 251.741 166.317C251.511 166.152 251.337 165.913 251.254 165.646C251.199 165.233 251.337 164.819 251.622 164.516C251.906 164.231 252.274 164.038 252.678 163.965C252.678 163.965 252.568 163.873 252.32 163.873C251.98 163.901 251.649 164.038 251.401 164.277C250.997 164.636 250.786 165.168 250.841 165.711C251.043 166.62 251.952 167.181 252.853 166.978C253.294 166.877 253.68 166.602 253.918 166.207C254.139 165.72 254.111 165.15 253.845 164.682C253.68 164.369 253.413 164.13 253.082 164.002C252.871 163.919 252.697 163.947 252.697 163.965Z" fill="#455A64"/>
<path d="M249.997 103.89L231.622 142.78H181.816L200.614 103.834H223.785C225.769 102.052 228.342 101.069 231.006 101.078H248.205C249.299 101.078 250.181 101.979 250.181 103.072C250.181 103.357 250.116 103.632 249.997 103.89Z" fill="#263238"/>
<path d="M238.124 103.293L189.247 103.109L183.395 138.748L232.263 138.996L238.124 103.293Z" fill="#FAFAFA"/>
<path d="M238.171 103.302C238.171 103.302 238.171 103.504 238.088 103.927C238.005 104.349 237.923 104.992 237.803 105.764C237.537 107.436 237.16 109.862 236.673 112.949C235.672 119.215 234.239 128.163 232.502 138.995V139.161H232.337L183.496 138.949H183.184L183.23 138.674C185.343 125.875 187.336 113.748 189.1 103.035V102.852H189.284L224.656 103.1L234.643 103.201H238.162H189.229L189.449 103.017L183.625 138.747L183.395 138.472L232.236 138.765L232.043 138.931C233.88 128.163 235.35 119.27 236.398 113.05C236.93 109.954 237.316 107.537 237.638 105.828C237.776 105.011 237.886 104.377 237.969 103.927C238.07 103.531 238.171 103.302 238.171 103.302Z" fill="#263238"/>
<path d="M193.458 133.632C193.33 133.632 194.175 127.798 195.351 120.66C196.527 113.521 197.574 107.751 197.703 107.797C197.831 107.843 196.995 113.622 195.819 120.77C194.643 127.918 193.587 133.651 193.458 133.632Z" fill="#263238"/>
<path d="M198.846 133.281C198.717 133.281 199.507 127.769 200.619 121.034C201.731 114.3 202.732 108.833 202.861 108.852C202.989 108.87 202.199 114.364 201.088 121.108C199.976 127.851 198.984 133.309 198.846 133.281Z" fill="#263238"/>
<path d="M204.535 132.832C204.397 132.832 205.196 127.32 206.299 120.576C207.401 113.832 208.412 108.375 208.541 108.402C208.669 108.43 207.879 113.915 206.777 120.649C205.674 127.384 204.664 132.85 204.535 132.832Z" fill="#263238"/>
<path d="M209.947 133.178C209.819 133.178 210.609 127.665 211.711 120.931C212.814 114.196 213.824 108.73 213.953 108.748C214.082 108.766 213.292 114.261 212.189 121.004C211.087 127.748 210.076 133.233 209.947 133.178Z" fill="#263238"/>
<path d="M215.971 133.851C215.842 133.851 216.632 128.339 217.744 121.595C218.856 114.852 219.857 109.404 219.986 109.422C220.114 109.44 219.324 114.934 218.213 121.678C217.101 128.422 216.118 133.87 215.971 133.851Z" fill="#263238"/>
<path d="M220.762 133.475C220.624 133.475 221.423 127.962 222.526 121.218C223.628 114.475 224.639 109.027 224.767 109.045C224.896 109.063 224.106 114.557 222.994 121.301C221.882 128.045 220.89 133.493 220.762 133.475Z" fill="#263238"/>
<path d="M231.654 142.781L211.524 108.429C211.285 108.062 210.872 107.85 210.44 107.86H162.978C162.059 107.86 161.489 108.687 161.903 109.376L181.812 142.809L231.654 142.781Z" fill="#455A64"/>
<path d="M207.522 126.6C208.642 124.763 216.424 129.118 217.113 129.43C217.802 129.742 218.28 128.769 217.646 128.511C216.727 128.144 207.255 124.074 208.339 122.282C208.946 121.29 210.627 122.539 210.627 122.539C210.627 122.539 219.226 127.005 219.713 126.141C220.2 125.277 215.248 122.466 213.512 121.648C211.775 120.831 211.481 119.691 212.474 119.232C213.144 118.91 218.528 121.308 220.228 122.163C221.928 123.017 226.549 125.443 225.244 122.392C223.94 119.342 224.087 116.512 224.656 115.768C225.051 115.355 225.713 115.346 226.126 115.741C226.356 115.961 226.475 116.274 226.439 116.586C226.521 117.707 226.76 118.8 227.146 119.857C227.422 120.711 227.844 121.51 228.396 122.227C229.029 123.063 229.608 123.743 230.114 124.303C235.075 126.04 249.224 130.422 262.444 129.219C264.833 128.998 273.736 106.25 273.736 106.25L289.042 113.177C286.157 121.134 282.666 128.851 278.596 136.275C267.865 155.881 223.793 136.275 223.793 136.275V136.22C220.301 135.521 216.838 134.649 213.438 133.583C208.799 131.911 208.946 131.488 209.23 130.983C210.002 129.614 217.499 133.62 216.397 131.819C215.294 130.018 206.658 127.988 207.522 126.6Z" fill="#AA755E"/>
<path d="M289.619 117.452C289.619 117.452 296.363 89.3563 281.433 82.8516L270.996 109.422L289.619 117.452Z" fill="#FF725E"/>
<path d="M289.622 117.451C289.475 117.423 289.328 117.377 289.191 117.313L287.969 116.835L283.494 114.998L268.491 108.613L268.289 108.53L268.363 108.319C268.748 107.216 269.162 106.058 269.575 104.882C270.806 101.419 271.982 98.1296 273.048 95.1253C273.599 93.6369 274.04 92.1853 274.573 90.8623C275.051 89.622 275.667 88.4368 276.411 87.3343C277.467 85.6989 279.029 84.4586 280.867 83.7971C281.363 83.6317 281.877 83.5307 282.401 83.5031C282.585 83.4755 282.759 83.4755 282.943 83.5031C282.254 83.5766 281.583 83.7236 280.931 83.9441C279.176 84.6515 277.697 85.8918 276.696 87.4905C275.979 88.5838 275.382 89.7506 274.922 90.9725C274.417 92.2772 274.004 93.7288 273.443 95.2263L270.016 104.993C269.594 106.169 269.189 107.335 268.794 108.438L268.666 108.144L283.641 114.658L288.07 116.633L289.246 117.194C289.503 117.359 289.622 117.433 289.622 117.451Z" fill="#263238"/>
</svg>
