<svg width="18" height="18" viewBox="0 0 18 18" fill="none" xmlns="http://www.w3.org/2000/svg">
<g id="Icon/Solid/color-swatch">
<g id="Icon">
<path fill-rule="evenodd" clip-rule="evenodd" d="M3.5998 1.7998C2.60569 1.7998 1.7998 2.60569 1.7998 3.5998V13.4998C1.7998 14.991 3.00864 16.1998 4.4998 16.1998C5.99097 16.1998 7.1998 14.991 7.1998 13.4998V3.5998C7.1998 2.60569 6.39392 1.7998 5.3998 1.7998H3.5998ZM4.4998 14.3998C4.99686 14.3998 5.3998 13.9969 5.3998 13.4998C5.3998 13.0027 4.99686 12.5998 4.4998 12.5998C4.00275 12.5998 3.5998 13.0027 3.5998 13.4998C3.5998 13.9969 4.00275 14.3998 4.4998 14.3998Z" fill="#ED7D31"/>
<path d="M8.9998 12.8181L13.4093 8.40857C14.1123 7.70563 14.1123 6.56593 13.4093 5.86299L12.1365 4.5902C11.4336 3.88725 10.2939 3.88725 9.59096 4.5902L8.9998 5.18135V12.8181Z" fill="#ED7D31"/>
<path d="M14.3998 16.1998H8.16374L13.5637 10.7998H14.3998C15.3939 10.7998 16.1998 11.6057 16.1998 12.5998V14.3998C16.1998 15.3939 15.3939 16.1998 14.3998 16.1998Z" fill="#ED7D31"/>
</g>
</g>
</svg>
