<svg width="18" height="18" viewBox="0 0 18 18" fill="none" xmlns="http://www.w3.org/2000/svg">
<g id="Icon/Outline/color-swatch">
<path id="Icon" d="M5.25 15.75C3.59315 15.75 2.25 14.4069 2.25 12.75V3.75C2.25 2.92157 2.92157 2.25 3.75 2.25H6.75C7.57843 2.25 8.25 2.92157 8.25 3.75V12.75C8.25 14.4069 6.90685 15.75 5.25 15.75ZM5.25 15.75H14.25C15.0784 15.75 15.75 15.0784 15.75 14.25V11.25C15.75 10.4216 15.0784 9.75 14.25 9.75H12.4926M8.25002 5.50734L9.49264 4.26472C10.0784 3.67893 11.0282 3.67893 11.614 4.26472L13.7353 6.38604C14.3211 6.97183 14.3211 7.92157 13.7353 8.50736L7.37132 14.8713M5.25 12.75H5.2575" stroke="#0F172A" stroke-linecap="round" stroke-linejoin="round"/>
</g>
</svg>
