<svg width="40" height="40" viewBox="0 0 40 40" fill="none" xmlns="http://www.w3.org/2000/svg">
<g id="Icon/Solid/Config">
<g id="Icon">
<path fill-rule="evenodd" clip-rule="evenodd" d="M20 12.125C20 7.77576 23.5258 4.25 27.875 4.25C28.6687 4.25 29.4369 4.36778 30.1621 4.58757C30.5405 4.70226 30.8309 5.00718 30.927 5.39072C31.0232 5.77426 30.9109 6.18011 30.6313 6.4597L25.6532 11.4377C25.7458 12.1511 26.0658 12.8387 26.6135 13.3865C27.1613 13.9342 27.8489 14.2542 28.5623 14.3468L33.5403 9.36871C33.8199 9.08912 34.2257 8.97683 34.6093 9.07295C34.9928 9.16907 35.2977 9.45948 35.4124 9.83788C35.6322 10.5631 35.75 11.3313 35.75 12.125C35.75 16.4742 32.2242 20 27.875 20C27.6493 20 27.4255 19.9905 27.2041 19.9718C25.6782 19.8428 24.4007 20.1224 23.7416 20.9227L13.0149 33.948C12.0753 35.089 10.6746 35.75 9.19653 35.75C6.46464 35.75 4.25 33.5354 4.25 30.8035C4.25 29.3254 4.911 27.9247 6.05198 26.9851L19.0773 16.2584C19.8775 15.5993 20.1572 14.3218 20.0282 12.7959C20.0095 12.5745 20 12.3507 20 12.125ZM8.17585 30.6876C8.17585 30.0662 8.67953 29.5626 9.30085 29.5626H9.3121C9.93342 29.5626 10.4371 30.0662 10.4371 30.6876V30.6988C10.4371 31.3201 9.93342 31.8238 9.3121 31.8238H9.30085C8.67953 31.8238 8.17585 31.3201 8.17585 30.6988V30.6876Z" fill="#ED7D31"/>
<path d="M17.114 14.9605L13.8125 11.659V9.31252C13.8125 8.91735 13.6052 8.55116 13.2663 8.34785L7.64133 4.97285C7.19867 4.70725 6.63206 4.777 6.26703 5.14203L5.14203 6.26703C4.777 6.63206 4.70725 7.19867 4.97284 7.64133L8.34784 13.2663C8.55116 13.6052 8.91735 13.8125 9.31252 13.8125H11.659L14.7521 16.9056L17.114 14.9605Z" fill="#ED7D31"/>
<path fill-rule="evenodd" clip-rule="evenodd" d="M20.8339 27.993L27.1079 34.2671C29.085 36.2442 32.2904 36.2442 34.2674 34.2671C36.2444 32.2901 36.2444 29.0847 34.2674 27.1077L29.3089 22.1492C28.8405 22.2156 28.3619 22.2499 27.8751 22.2499C27.5861 22.2499 27.2991 22.2377 27.0147 22.2137C26.4232 22.1637 25.9909 22.2044 25.7133 22.2765C25.5579 22.3168 25.4861 22.3569 25.4628 22.3721L20.8339 27.993ZM25.9546 25.9545C26.394 25.5152 27.1063 25.5152 27.5456 25.9545L30.3581 28.767C30.7975 29.2063 30.7975 29.9187 30.3581 30.358C29.9188 30.7973 29.2065 30.7973 28.7671 30.358L25.9546 27.5455C25.5153 27.1062 25.5153 26.3938 25.9546 25.9545Z" fill="#ED7D31"/>
</g>
</g>
</svg>
