<svg width="204" height="392" viewBox="0 0 204 392" fill="none" xmlns="http://www.w3.org/2000/svg">
<path d="M0.583984 389.602V388.702C0.583984 386.582 2.30398 384.852 4.43398 384.852H37.064C39.184 384.852 40.914 386.572 40.914 388.702V389.602H0.583984Z" fill="#E0E0E0"/>
<path d="M19.5034 348.232L7.69336 384.832H32.9034L21.9434 348.282C21.7434 347.602 21.0334 347.212 20.3534 347.412C19.9434 347.532 19.6234 347.842 19.4934 348.242L19.5034 348.232Z" fill="#E0E0E0"/>
<path d="M15.6645 360.152H25.5245L29.7845 374.382H11.0645L15.6645 360.152Z" fill="#FAFAFA"/>
<path d="M112.894 71.6003L107.574 62.3403L99.2339 63.5603L92.3639 54.9203L95.9039 46.3203L86.6539 40.1603L79.7239 47.1503L70.6039 45.5503L66.8939 34.8203L55.8039 35.9903L55.1639 45.3803L46.8939 49.5803L38.1439 43.3903L29.2739 49.8503L33.8839 59.7903L28.6039 67.7403L18.9839 67.2303L16.5039 79.0703L25.6339 82.6003L26.4139 92.5503L16.9539 97.9903L21.4439 108.25L31.2439 106.73L37.7339 114.22L34.3339 123.56L43.3139 129.9L50.3139 122.32L60.0239 124.95L63.0539 134.98L73.8539 134.26L75.2439 125.25L84.5039 119.93L92.0739 125.98L101.654 118.84L96.8139 110.41L101.534 101.95L111.244 102.67L114.254 91.6003L105.914 87.1103L104.804 77.0803L112.884 71.6203L112.894 71.6003ZM75.2839 104C64.8339 109.98 51.5139 106.36 45.5339 95.9103C39.5539 85.4603 43.1739 72.1403 53.6239 66.1603C64.0539 60.1903 77.3539 63.7803 83.3539 74.2003C89.3639 84.6303 85.7739 97.9603 75.3339 103.97C75.3239 103.97 75.3039 103.99 75.2939 104H75.2839Z" fill="#C9B4B4"/>
<path d="M74.084 78.7598C73.544 77.9898 72.954 77.2498 72.304 76.5498C70.484 74.7098 68.104 73.5398 65.534 73.2198C61.704 72.7298 57.884 74.2298 55.404 77.1898C54.694 78.0198 54.114 78.9498 53.694 79.9598C53.224 80.9998 52.924 82.1098 52.814 83.2398C52.254 88.1598 54.954 92.8698 59.484 94.8598C60.524 95.3298 61.624 95.6398 62.764 95.7598C63.854 95.8998 64.954 95.8698 66.024 95.6798C72.254 94.5998 76.424 88.6898 75.354 82.4598C75.294 82.0998 75.214 81.7398 75.114 81.3898C74.844 80.4798 74.504 79.5998 74.104 78.7398C74.104 78.7398 74.144 78.7898 74.204 78.8898C74.264 78.9898 74.364 79.1798 74.474 79.3698C74.624 79.6298 74.754 79.8998 74.854 80.1798C75.024 80.5498 75.154 80.9398 75.264 81.3298C75.594 82.4098 75.754 83.5298 75.734 84.6498C75.704 88.0098 74.234 91.1898 71.694 93.3798C70.104 94.7498 68.174 95.6598 66.104 96.0298C63.814 96.4298 61.464 96.1498 59.334 95.2198C54.634 93.1598 51.824 88.2698 52.424 83.1698C52.684 80.8598 53.624 78.6798 55.134 76.9098C58.764 72.6298 64.934 71.5498 69.804 74.3498C70.784 74.8998 71.674 75.6098 72.444 76.4298C72.714 76.7198 72.964 77.0198 73.184 77.3498C73.374 77.5798 73.544 77.8298 73.694 78.0898C73.814 78.2798 73.904 78.4398 73.974 78.5598C74.014 78.6198 74.054 78.6798 74.074 78.7498L74.084 78.7598Z" fill="#F5F5F5"/>
<path d="M84.4632 54.422C84.5632 54.482 81.5732 59.192 77.8032 64.932C74.0232 70.672 70.8732 75.272 70.7832 75.192C70.6932 75.112 73.6732 70.432 77.4532 64.682C81.2332 58.932 84.3732 54.392 84.4732 54.422H84.4632Z" fill="#F5F5F5"/>
<path d="M95.1832 92.6219C94.1932 92.3919 93.2132 92.1019 92.2632 91.7619C90.4632 91.2019 87.9632 90.4819 85.2132 89.7919C82.4632 89.1019 79.8732 88.6119 78.0232 88.2819C77.0132 88.1419 76.0132 87.9519 75.0332 87.7019C75.3032 87.6619 75.5832 87.6619 75.8532 87.7019C76.3832 87.7419 77.1332 87.8319 78.0732 87.9619C79.9432 88.2219 82.5132 88.6819 85.3132 89.3619C88.1132 90.0419 90.6132 90.8219 92.3632 91.4619C93.2532 91.7719 93.9632 92.0419 94.4532 92.2519C94.7132 92.3419 94.9632 92.4719 95.1932 92.6319L95.1832 92.6219Z" fill="#F5F5F5"/>
<path d="M68.9436 95.1484C69.3236 95.9784 69.6236 96.8284 69.8436 97.7084C70.3336 99.3084 70.9436 101.558 71.5336 104.038C72.1236 106.518 72.5436 108.818 72.8136 110.448C73.0036 111.338 73.1036 112.238 73.1336 113.148C72.8636 112.288 72.6436 111.398 72.4936 110.508C72.1536 108.868 71.6736 106.598 71.0936 104.098C70.5136 101.598 69.9536 99.3684 69.5336 97.7484C69.2736 96.8984 69.0736 96.0284 68.9336 95.1484H68.9436Z" fill="#F5F5F5"/>
<path d="M57.1639 93.8097C57.2639 93.8697 55.2939 97.2997 52.7739 101.5C50.2539 105.7 48.1339 109.02 48.0239 108.96C47.9139 108.9 49.8839 105.46 52.4139 101.27C54.9439 97.0797 57.0539 93.7397 57.1639 93.8097Z" fill="#F5F5F5"/>
<path d="M55.484 56.6016C55.594 56.6016 56.814 60.2016 58.214 64.7316C59.614 69.2616 60.654 72.9516 60.534 72.9816C60.414 73.0116 59.204 69.3816 57.804 64.8516C56.404 60.3216 55.364 56.6316 55.484 56.6016Z" fill="#F5F5F5"/>
<path d="M53.0139 82.2997C53.0139 82.4197 49.9439 82.2197 46.1939 81.8597C42.4439 81.4997 39.4139 81.1197 39.4239 80.9997C39.4339 80.8797 42.4839 81.0797 46.2339 81.4397C49.9839 81.7997 53.0139 82.1797 53.0139 82.2997Z" fill="#F5F5F5"/>
<path d="M64.0645 93.4688C69.035 93.4688 73.0645 89.4393 73.0645 84.4688C73.0645 79.4982 69.035 75.4688 64.0645 75.4688C59.0939 75.4688 55.0645 79.4982 55.0645 84.4688C55.0645 89.4393 59.0939 93.4688 64.0645 93.4688Z" fill="#C9B4B4"/>
<path d="M68.4244 84.5308C67.9944 84.3108 67.5844 84.0608 67.1844 83.8008C66.1944 83.2408 65.1044 82.8908 63.9744 82.7608C62.8444 82.6408 61.6944 82.7608 60.6044 83.0808C60.1544 83.2608 59.7044 83.4108 59.2344 83.5408C59.5944 83.2008 60.0344 82.9408 60.5144 82.8008C61.6344 82.3708 62.8344 82.2108 64.0244 82.3408C65.2144 82.4708 66.3544 82.8808 67.3544 83.5508C67.7744 83.7908 68.1444 84.1308 68.4144 84.5408L68.4244 84.5308Z" fill="#EBEBEB"/>
<path d="M64.8146 79.2684C64.9346 79.3384 63.8146 81.0384 63.3946 83.4484C62.9746 85.8584 63.3946 87.8384 63.2746 87.8584C63.1546 87.8784 62.5146 85.8784 62.9846 83.3684C63.4546 80.8584 64.7546 79.1884 64.8146 79.2684Z" fill="#EBEBEB"/>
<path d="M184.384 7.68L176.604 4.44L171.994 9.21L163.564 7.09L161.644 0L152.874 0.62L151.904 8.33L145.414 11.7L137.914 6.79L131.534 12.86L135.654 19.04L132.534 25.64L124.084 25.97L121.664 34.31L129.314 38.29L129.834 45.81L123.584 50.11L127.714 58.72L135.114 56.52L140.404 62.35L137.104 70.3L144.864 74.55L150.254 68.88L157.924 70.44L160.294 77.91L168.934 77.57L169.674 69.46L177.034 66.41L183.754 71.23L190.164 65.58L186.694 59.27L189.934 51.49L197.584 51.63L200.144 42.55L193.034 39.62L191.914 32.06L198.334 27.84L194.904 19.52L187.514 20.71L181.964 14.99L184.394 7.69L184.384 7.68ZM176.444 46.05C172.794 54.83 162.714 58.99 153.924 55.34C145.144 51.69 140.984 41.61 144.634 32.82C148.284 24.04 158.364 19.88 167.144 23.53C175.924 27.18 180.084 37.26 176.434 46.05H176.444Z" fill="#E0E0E0"/>
<path d="M163.533 30.8091C162.823 30.5891 162.093 30.4191 161.363 30.2891C159.343 30.0091 157.283 30.4191 155.523 31.4591C154.313 32.1591 153.293 33.1391 152.533 34.3091C151.663 35.6591 151.173 37.2091 151.103 38.8091C151.023 40.5791 151.473 42.3291 152.393 43.8391C154.403 47.1891 158.363 48.8391 162.153 47.8991C163.023 47.6991 163.853 47.3591 164.623 46.8991C165.363 46.4591 166.033 45.9191 166.613 45.2791C169.983 41.5991 169.733 35.8791 166.043 32.5191C165.843 32.3391 165.633 32.1591 165.413 31.9991C164.803 31.5691 164.163 31.1791 163.513 30.8291C163.563 30.8391 163.603 30.8591 163.653 30.8791L164.053 31.0491C164.273 31.1391 164.483 31.2491 164.683 31.3691C164.963 31.5291 165.233 31.6991 165.493 31.8991C166.223 32.4191 166.863 33.0391 167.393 33.7591C168.983 35.8791 169.593 38.5791 169.053 41.1691C168.713 42.7891 167.943 44.2891 166.823 45.5091C166.233 46.1791 165.533 46.7491 164.763 47.1991C163.973 47.6891 163.103 48.0491 162.193 48.2591C158.263 49.2291 154.153 47.5291 152.073 44.0491C151.123 42.4791 150.673 40.6591 150.753 38.8291C150.833 37.1791 151.353 35.5791 152.263 34.1891C153.723 31.9791 156.063 30.5091 158.693 30.1491C159.573 30.0191 160.473 30.0291 161.343 30.1791C161.663 30.2191 161.983 30.2891 162.303 30.3691C162.533 30.4291 162.753 30.4991 162.973 30.5891L163.373 30.7591C163.423 30.7591 163.473 30.7791 163.523 30.7991L163.533 30.8091Z" fill="#E0E0E0"/>
<path d="M158.333 10.6094C158.433 10.5994 158.823 14.9794 159.223 20.3894C159.623 25.7994 159.873 30.1894 159.773 30.1994C159.673 30.2094 159.283 25.8194 158.893 20.4194C158.493 15.0094 158.243 10.6194 158.333 10.6194V10.6094Z" fill="#E0E0E0"/>
<path d="M183.424 29.3516C182.694 29.6816 181.944 29.9716 181.184 30.2216C179.784 30.7416 177.874 31.4916 175.814 32.4016C173.744 33.3116 171.904 34.2316 170.584 34.9116C169.884 35.3116 169.164 35.6716 168.434 35.9916C168.584 35.8316 168.754 35.7016 168.944 35.6016C169.294 35.3716 169.814 35.0616 170.464 34.6916C171.754 33.9516 173.584 33.0016 175.664 32.0816C177.744 31.1616 179.674 30.4516 181.094 29.9916C181.804 29.7616 182.394 29.5716 182.794 29.4916C183.004 29.4116 183.214 29.3616 183.434 29.3516H183.424Z" fill="#E0E0E0"/>
<path d="M168.223 43.5508C168.853 43.8908 169.453 44.2808 170.023 44.7208C171.113 45.5008 172.563 46.5908 174.123 47.8708C175.683 49.1508 177.053 50.3708 178.013 51.2808C178.553 51.7508 179.063 52.2608 179.513 52.8108C178.933 52.4008 178.373 51.9408 177.853 51.4508C176.853 50.6008 175.473 49.4008 173.903 48.1308C172.333 46.8608 170.913 45.7308 169.873 44.9108C169.293 44.5008 168.743 44.0408 168.223 43.5508Z" fill="#E0E0E0"/>
<path d="M160.204 48.3906C160.294 48.3906 160.724 51.4806 161.154 55.3006C161.474 57.6006 161.684 59.9206 161.774 62.2506C161.684 62.2606 161.254 59.1706 160.824 55.3406C160.394 51.5106 160.114 48.4006 160.204 48.3906Z" fill="#E0E0E0"/>
<path d="M141.254 25.9191C141.324 25.8691 143.824 27.5391 146.874 29.6891C149.924 31.8391 152.354 33.6591 152.294 33.7291C152.234 33.7991 149.724 32.1191 146.684 29.9591C144.814 28.6991 143.004 27.3591 141.264 25.9191H141.254Z" fill="#E0E0E0"/>
<path d="M152.073 43.1797C150.643 44.2697 149.153 45.2797 147.593 46.1897C146.103 47.1897 144.553 48.0997 142.943 48.9097C144.373 47.8197 145.863 46.8197 147.413 45.9097C148.903 44.9097 150.463 43.9997 152.063 43.1897L152.073 43.1797Z" fill="#E0E0E0"/>
<path d="M160.043 46.3211C163.965 46.3211 167.143 43.1423 167.143 39.2211C167.143 35.2999 163.965 32.1211 160.043 32.1211C156.122 32.1211 152.943 35.2999 152.943 39.2211C152.943 43.1423 156.122 46.3211 160.043 46.3211Z" fill="#E0E0E0"/>
<path d="M162.794 37.1705C162.424 37.2405 162.044 37.2805 161.674 37.3105C159.874 37.5605 158.254 38.5505 157.204 40.0305C156.814 40.5805 156.614 40.9905 156.574 40.9705C156.534 40.9505 156.644 40.5205 157.014 39.9005C158.004 38.2605 159.734 37.2105 161.654 37.0705C162.044 37.0105 162.434 37.0505 162.804 37.1705H162.794Z" fill="#EBEBEB"/>
<path d="M157.983 35.6211C158.243 36.7511 158.613 37.8611 159.103 38.9211C159.683 39.9311 160.373 40.8711 161.153 41.7411C159.153 40.3511 157.963 38.0611 157.983 35.6211Z" fill="#EBEBEB"/>
<path d="M140.304 95.6184L137.024 94.2584L135.084 96.2684L131.514 95.3884L130.704 92.3984L127.014 92.6584L126.604 95.8984L123.874 97.3284L120.714 95.2384L118.024 97.7884L119.764 100.388L118.444 103.168L114.884 103.308L113.854 106.808L117.084 108.488L117.304 111.648L114.664 113.468L116.404 117.088L119.524 116.158L121.744 118.628L120.354 121.968L123.624 123.758L125.894 121.368L129.124 122.028L130.144 125.178L133.794 125.028L134.104 121.608L137.184 120.348L140.014 122.368L142.714 119.988L141.254 117.328L142.614 114.048L145.844 114.108L146.934 110.268L143.954 109.028L143.484 105.848L146.174 104.078L144.734 100.568L141.614 101.068L139.294 98.6484L140.334 95.5684L140.304 95.6184ZM136.964 111.778C135.424 115.478 131.174 117.238 127.474 115.698C123.774 114.158 122.014 109.908 123.554 106.208C125.094 102.508 129.344 100.748 133.044 102.288C136.744 103.828 138.494 108.078 136.964 111.778Z" fill="#EBEBEB"/>
<path d="M131.543 105.362C131.543 105.362 131.213 105.252 130.603 105.192C129.763 105.092 128.913 105.282 128.183 105.712C126.423 106.752 125.843 109.012 126.883 110.772C127.923 112.532 130.183 113.112 131.943 112.072C133.353 111.242 134.043 109.572 133.643 107.982C133.433 107.162 132.963 106.432 132.303 105.902C131.833 105.542 131.503 105.412 131.523 105.382C131.603 105.392 131.683 105.422 131.753 105.452C131.973 105.542 132.173 105.652 132.363 105.792C133.083 106.302 133.603 107.042 133.843 107.892C134.413 110.002 133.173 112.182 131.063 112.752C131.033 112.752 131.003 112.772 130.973 112.772C130.143 112.972 129.273 112.912 128.483 112.582C127.703 112.252 127.043 111.682 126.603 110.952C125.473 109.092 126.063 106.662 127.923 105.532C127.963 105.512 128.003 105.482 128.043 105.462C128.813 105.022 129.723 104.862 130.593 105.022C130.833 105.062 131.063 105.122 131.283 105.222C131.373 105.252 131.463 105.302 131.533 105.362H131.543Z" fill="#EBEBEB"/>
<path d="M129.333 96.8616C129.603 98.2216 129.753 99.5916 129.803 100.972C129.963 102.342 130.003 103.722 129.943 105.102C129.523 102.372 129.313 99.6116 129.333 96.8516V96.8616Z" fill="#EBEBEB"/>
<path d="M139.904 104.762C139.924 104.852 138.464 105.352 136.734 106.132C135.004 106.912 133.634 107.642 133.584 107.552C134.494 106.832 135.514 106.242 136.594 105.822C137.634 105.302 138.754 104.942 139.904 104.762Z" fill="#EBEBEB"/>
<path d="M133.504 110.729C134.424 111.189 135.284 111.779 136.044 112.469C136.884 113.079 137.624 113.809 138.264 114.619C136.624 113.389 135.034 112.089 133.514 110.719L133.504 110.729Z" fill="#EBEBEB"/>
<path d="M130.124 112.77C130.394 113.72 130.564 114.69 130.614 115.67C130.784 116.64 130.844 117.63 130.784 118.61C130.514 117.66 130.344 116.69 130.294 115.71C130.124 114.74 130.074 113.75 130.124 112.77Z" fill="#EBEBEB"/>
<path d="M122.143 103.309C123.003 103.719 123.823 104.219 124.563 104.819C125.373 105.329 126.113 105.929 126.793 106.599C125.933 106.189 125.113 105.689 124.373 105.089C123.563 104.579 122.813 103.989 122.143 103.309Z" fill="#EBEBEB"/>
<path d="M126.693 110.569C126.153 111.109 125.533 111.559 124.863 111.919C124.253 112.379 123.583 112.739 122.863 112.999C124.013 112.019 125.303 111.219 126.683 110.599V110.559L126.693 110.569Z" fill="#EBEBEB"/>
<path d="M131.204 106.141C132.734 106.771 133.454 108.521 132.824 110.051C132.194 111.581 130.444 112.301 128.914 111.671C127.384 111.041 126.664 109.291 127.294 107.761C127.924 106.241 129.674 105.511 131.194 106.141H131.204Z" fill="#EBEBEB"/>
<path d="M131.194 108.059C130.684 108.179 130.184 108.349 129.714 108.579C129.294 108.899 128.914 109.259 128.574 109.669C128.634 109.079 129.004 108.559 129.534 108.309C130.004 107.949 130.634 107.859 131.184 108.069L131.194 108.059Z" fill="#E0E0E0"/>
<path d="M129.193 107.389C129.293 107.379 129.393 108.049 129.753 108.729C130.113 109.409 130.583 109.889 130.523 109.959C130.033 109.759 129.643 109.369 129.453 108.879C129.053 108.109 129.113 107.389 129.193 107.379V107.389Z" fill="#E0E0E0"/>
<path d="M203.244 390.092C203.244 390.182 158.464 390.262 103.254 390.262C48.0441 390.262 3.24414 390.182 3.24414 390.092C3.24414 390.002 48.0141 389.922 103.254 389.922C158.494 389.922 203.244 389.992 203.244 390.092Z" fill="#263238"/>
<path d="M200.135 230.152V223.972L195.605 222.192L194.645 215.892L198.865 212.602L195.985 206.842L190.495 208.352L186.385 204.922L187.625 198.472L181.715 195.872L178.695 200.392L173.345 200.122L170.745 194.492L164.435 195.182L163.885 201.482L158.955 203.952L154.295 200.932L149.685 206.192L153.255 210.582L150.785 215.782H144.475L143.795 222.232L149.145 224.292L150.205 229.842L145.825 233.552L148.495 239.312L154.185 237.522L158.295 241.632L156.965 247.582L162.595 250.332L165.885 246.222H172.055L174.115 251.432L180.965 250.592V244.962L185.765 242.082L190.425 245.242L195.085 240.582L192.205 235.922L194.535 230.572L200.155 230.162L200.135 230.152ZM171.955 235.562C164.985 235.562 159.325 229.922 159.325 222.952C159.325 215.982 164.965 210.322 171.935 210.322C178.905 210.322 184.565 215.962 184.565 222.932V222.952C184.565 229.922 178.915 235.562 171.955 235.562Z" fill="#263238"/>
<path d="M178.625 222.554C178.575 222.554 178.625 221.954 178.325 220.944C177.935 219.514 177.075 218.264 175.895 217.374C175.085 216.764 174.145 216.354 173.145 216.174C172.015 215.974 170.845 216.074 169.765 216.474C168.565 216.914 167.515 217.704 166.765 218.734C165.115 220.994 165.115 224.074 166.765 226.334C168.895 229.234 172.965 229.864 175.865 227.734C175.885 227.724 175.895 227.714 175.915 227.704C177.105 226.814 177.955 225.564 178.345 224.134C178.615 223.124 178.595 222.524 178.645 222.524C178.665 222.664 178.665 222.804 178.645 222.944C178.645 223.354 178.595 223.764 178.505 224.174C178.165 225.674 177.305 227.014 176.085 227.954C173.095 230.264 168.805 229.714 166.495 226.724C166.465 226.684 166.435 226.644 166.405 226.604C164.615 224.184 164.615 220.874 166.405 218.464C167.215 217.364 168.325 216.534 169.615 216.074C170.775 215.664 172.015 215.574 173.225 215.804C174.265 216.004 175.255 216.454 176.085 217.104C177.305 218.044 178.155 219.384 178.505 220.884C178.605 221.284 178.655 221.694 178.645 222.114C178.655 222.264 178.645 222.424 178.615 222.574L178.625 222.554Z" fill="#263238"/>
<path d="M190.824 213.355C188.784 214.625 186.674 215.775 184.504 216.795C182.394 217.945 180.214 218.955 177.984 219.835C180.014 218.565 182.124 217.415 184.304 216.405C186.414 215.255 188.594 214.235 190.824 213.355Z" fill="#263238"/>
<path d="M185.204 235.592C185.104 235.672 183.334 233.642 180.924 231.372C178.514 229.102 176.414 227.422 176.494 227.312C177.034 227.562 177.524 227.882 177.974 228.272C180.244 230.012 182.324 231.992 184.154 234.182C184.564 234.602 184.914 235.073 185.194 235.583L185.204 235.592Z" fill="#263238"/>
<path d="M171.306 229.305C170.776 232.845 169.736 236.295 168.216 239.545C168.096 239.545 168.866 237.235 169.716 234.405C170.156 232.675 170.696 230.975 171.316 229.305H171.306Z" fill="#263238"/>
<path d="M165.805 225.242C164.425 226.252 162.975 227.142 161.445 227.912C159.985 228.802 158.455 229.572 156.865 230.202C158.245 229.192 159.705 228.292 161.235 227.532C162.685 226.642 164.215 225.872 165.805 225.242Z" fill="#263238"/>
<path d="M175.665 206.105C175.535 207.755 175.245 209.385 174.825 210.985C174.535 212.615 174.095 214.215 173.525 215.765C173.655 214.115 173.945 212.485 174.365 210.885C174.655 209.255 175.095 207.655 175.665 206.105Z" fill="#263238"/>
<path d="M167.075 218.275C165.875 217.705 164.745 217.005 163.695 216.175C162.575 215.465 161.545 214.645 160.605 213.715C161.805 214.285 162.945 214.985 163.985 215.815C165.105 216.515 166.145 217.345 167.075 218.275Z" fill="#263238"/>
<path d="M177.154 222.555C177.154 225.425 174.824 227.755 171.954 227.755C169.084 227.755 166.754 225.425 166.754 222.555C166.754 219.685 169.084 217.355 171.954 217.355C174.824 217.355 177.154 219.685 177.154 222.555Z" fill="#263238"/>
<path d="M174.115 223.845C173.635 223.065 173.025 222.355 172.335 221.745C171.555 221.265 170.695 220.915 169.805 220.695C169.805 220.635 170.135 220.555 170.645 220.615C172.065 220.805 173.295 221.695 173.905 222.985C174.145 223.475 174.165 223.815 174.115 223.825V223.845Z" fill="#455A64"/>
<path d="M173.836 220.152C173.906 220.272 172.886 220.832 172.006 221.902C171.126 222.972 170.726 224.052 170.596 224.012C170.856 222.212 172.106 220.712 173.836 220.152Z" fill="#455A64"/>
<path d="M171.625 156.594L167.455 149.324L160.925 150.274L155.525 143.514L158.305 136.754L151.035 131.904L145.595 137.394L138.435 136.134L135.525 127.684L126.815 128.604L126.325 135.974L119.835 139.264L112.965 134.404L105.995 139.474L109.615 147.274L105.465 153.524L97.9348 153.114L95.9648 162.404L103.125 165.154L103.745 172.964L96.3148 177.234L99.8648 185.294L107.555 184.094L112.625 190.004L109.965 197.334L117.015 202.314L122.505 196.404L130.105 198.464L132.475 206.334L140.925 205.764L142.015 198.694L149.285 194.524L155.195 199.274L162.715 193.664L158.915 187.044L162.625 180.404L170.225 180.964L172.565 172.324L166.015 168.784L165.175 160.904L171.625 156.574V156.594ZM142.095 182.034C133.885 186.744 123.415 183.914 118.705 175.704C113.995 167.494 116.825 157.024 125.035 152.314C133.245 147.604 143.705 150.434 148.425 158.644C153.135 166.854 150.305 177.324 142.095 182.034Z" fill="#FF725E"/>
<path d="M141.154 162.195C140.714 161.605 140.244 161.045 139.744 160.505C138.314 159.075 136.444 158.165 134.434 157.915C133.064 157.745 131.674 157.895 130.374 158.355C128.874 158.875 127.544 159.785 126.524 160.995C125.964 161.645 125.514 162.375 125.194 163.155C124.834 163.955 124.604 164.815 124.514 165.685C124.074 169.525 126.184 173.195 129.714 174.755C131.304 175.455 133.064 175.675 134.784 175.395C136.344 175.115 137.804 174.435 139.004 173.415C140.064 172.525 140.894 171.395 141.434 170.125C142.244 168.255 142.394 166.175 141.864 164.215C141.644 163.505 141.384 162.815 141.094 162.135C141.514 162.755 141.834 163.445 142.034 164.175C142.624 166.165 142.514 168.305 141.724 170.225C141.174 171.555 140.324 172.735 139.244 173.675C137.984 174.755 136.464 175.475 134.834 175.775C133.954 175.935 133.064 175.965 132.174 175.855C131.244 175.755 130.344 175.515 129.494 175.125C125.814 173.485 123.624 169.645 124.084 165.635C124.184 164.705 124.434 163.805 124.814 162.955C125.164 162.135 125.644 161.375 126.234 160.695C128.254 158.295 131.374 157.095 134.484 157.535C136.544 157.815 138.444 158.795 139.864 160.315C140.394 160.865 140.824 161.495 141.154 162.185V162.195Z" fill="#263238"/>
<path d="M149.335 143.103C149.435 143.173 147.125 146.883 144.145 151.383C141.175 155.883 138.695 159.493 138.595 159.423C138.495 159.353 140.815 155.643 143.785 151.143C146.755 146.643 149.205 143.033 149.335 143.103Z" fill="#263238"/>
<path d="M157.725 173.093C156.935 172.943 156.165 172.733 155.415 172.463C154.005 172.033 152.035 171.463 149.855 170.933C147.675 170.403 145.675 169.993 144.215 169.723C143.425 169.613 142.645 169.453 141.875 169.233C142.675 169.203 143.475 169.273 144.265 169.423C146.185 169.683 148.085 170.043 149.955 170.503C151.835 170.973 153.685 171.533 155.505 172.193C156.275 172.413 157.015 172.723 157.715 173.093H157.725Z" fill="#263238"/>
<path d="M137.125 175.074C137.445 175.714 137.695 176.384 137.865 177.074C138.255 178.334 138.705 180.084 139.195 182.044C139.685 184.004 139.985 185.794 140.185 187.114C140.335 187.814 140.405 188.524 140.405 189.244C140.165 188.574 139.985 187.884 139.885 187.174C139.605 185.894 139.225 184.114 138.765 182.164C138.305 180.214 137.875 178.454 137.555 177.184C137.345 176.494 137.195 175.794 137.115 175.084L137.125 175.074Z" fill="#263238"/>
<path d="M127.865 174.023C126.865 176.113 125.735 178.133 124.485 180.083C123.345 182.103 122.095 184.053 120.715 185.913C121.705 183.823 122.835 181.793 124.095 179.853C125.225 177.833 126.485 175.883 127.865 174.023Z" fill="#263238"/>
<path d="M126.526 144.824C127.396 146.894 128.126 149.024 128.716 151.184C129.446 153.304 130.046 155.474 130.486 157.684C129.616 155.614 128.886 153.484 128.286 151.314C127.556 149.194 126.966 147.024 126.516 144.824H126.526Z" fill="#263238"/>
<path d="M124.615 164.984C122.825 165.034 121.035 164.934 119.255 164.684C117.465 164.594 115.695 164.344 113.945 163.954C115.735 163.904 117.525 164.004 119.295 164.254C121.085 164.344 122.865 164.594 124.605 164.984H124.615Z" fill="#263238"/>
<path d="M135.654 173.342C139.329 172.041 141.254 168.007 139.954 164.331C138.653 160.655 134.618 158.73 130.943 160.031C127.267 161.332 125.342 165.366 126.643 169.042C127.944 172.718 131.978 174.643 135.654 173.342Z" fill="#263238"/>
<path d="M136.714 166.754C135.644 166.094 134.454 165.634 133.204 165.424C131.944 165.364 130.674 165.554 129.484 165.984C129.484 165.934 129.804 165.644 130.474 165.364C132.254 164.654 134.284 164.874 135.874 165.944C136.474 166.354 136.744 166.724 136.714 166.754Z" fill="#455A64"/>
<path d="M133.874 162.613C133.444 163.683 133.094 164.783 132.814 165.903C132.684 167.053 132.634 168.203 132.664 169.363C132.194 168.243 132.094 167.013 132.374 165.833C132.524 164.633 133.044 163.513 133.874 162.623V162.613Z" fill="#455A64"/>
<path d="M199.225 177.192L197.785 174.662L195.545 174.992L193.685 172.662L194.635 170.352L192.105 168.662L190.235 170.542L187.775 170.112L186.815 167.332L183.825 167.642L183.655 170.172L181.435 171.262L179.075 169.572L176.685 171.312L177.925 173.992L176.495 176.142L173.905 176.002L173.225 179.192L175.685 180.142L175.895 182.822L173.365 184.292L174.585 187.052L177.225 186.642L178.975 188.662L178.065 191.192L180.485 192.882L182.375 190.842L184.995 191.552L185.835 194.252L188.745 194.062L189.125 191.642L191.615 190.202L193.655 191.832L196.235 189.902L194.895 187.602L196.165 185.332L198.785 185.522L199.625 182.552L197.375 181.332L197.075 178.632L199.215 177.192H199.225ZM189.085 185.932C186.265 187.572 182.645 186.612 181.005 183.792C179.365 180.972 180.325 177.352 183.145 175.712C185.965 174.072 189.585 175.032 191.225 177.852C191.225 177.872 191.245 177.882 191.255 177.902C192.845 180.722 191.875 184.292 189.085 185.922V185.942V185.932Z" fill="#263238"/>
<path d="M188.765 179.152C188.765 179.152 188.585 178.942 188.245 178.602C187.755 178.132 187.125 177.842 186.445 177.762C185.455 177.662 184.485 178.052 183.855 178.822C183.075 179.762 182.965 181.082 183.565 182.132C184.375 183.532 186.165 184.012 187.575 183.202C188.115 182.892 188.535 182.412 188.795 181.842C189.065 181.222 189.135 180.532 188.985 179.872C188.875 179.402 188.735 179.162 188.775 179.132C188.955 179.322 189.085 179.562 189.145 179.812C189.375 180.512 189.355 181.272 189.075 181.952C188.655 182.992 187.745 183.742 186.645 183.942C184.855 184.272 183.135 183.082 182.805 181.282C182.625 180.302 182.895 179.302 183.545 178.542C184.275 177.682 185.405 177.272 186.515 177.452C187.245 177.552 187.905 177.912 188.395 178.462C188.575 178.652 188.705 178.882 188.775 179.142L188.765 179.152Z" fill="#263238"/>
<path d="M191.575 172.562C191.145 173.602 190.575 174.592 189.885 175.482C189.335 176.462 188.645 177.362 187.855 178.162C188.285 177.122 188.855 176.132 189.545 175.242C190.095 174.262 190.785 173.363 191.575 172.562Z" fill="#263238"/>
<path d="M194.456 182.865C193.526 182.745 192.606 182.545 191.716 182.255C190.796 182.105 189.886 181.865 189.016 181.525C189.966 181.435 190.916 181.525 191.816 181.825C192.756 181.985 193.656 182.335 194.456 182.865Z" fill="#263238"/>
<path d="M187.355 183.543C187.795 184.263 188.075 185.073 188.195 185.913C188.455 186.713 188.555 187.563 188.465 188.403C188.125 187.643 187.885 186.833 187.765 186.003C187.515 185.203 187.375 184.383 187.355 183.543Z" fill="#263238"/>
<path d="M184.204 183.172C183.994 183.942 183.634 184.672 183.164 185.322C182.814 186.042 182.334 186.702 181.744 187.252C181.954 186.472 182.314 185.742 182.784 185.102C183.134 184.382 183.624 183.732 184.204 183.172Z" fill="#263238"/>
<path d="M183.744 173.152C184.174 173.802 184.474 174.522 184.644 175.292C184.934 176.012 185.094 176.782 185.114 177.562C184.684 176.912 184.384 176.192 184.214 175.422C183.924 174.702 183.764 173.932 183.744 173.152Z" fill="#263238"/>
<path d="M183.125 180.074C182.515 180.214 181.885 180.214 181.275 180.074C180.645 180.084 180.025 179.954 179.455 179.684C180.055 179.524 180.695 179.504 181.305 179.644C181.935 179.644 182.555 179.794 183.125 180.074Z" fill="#263238"/>
<path d="M188.194 179.464C188.844 180.634 188.424 182.114 187.254 182.764C186.084 183.414 184.604 182.994 183.954 181.824C183.324 180.684 183.704 179.254 184.814 178.574C185.954 177.874 187.454 178.244 188.144 179.384C188.164 179.414 188.174 179.434 188.194 179.464Z" fill="#263238"/>
<path d="M187.235 180.683C187.155 180.773 186.675 180.433 186.015 180.373C185.355 180.313 184.815 180.523 184.755 180.413C184.695 180.303 185.215 179.843 186.055 179.933C186.895 180.023 187.345 180.613 187.225 180.683H187.235Z" fill="#455A64"/>
<path d="M186.265 179.264C186.365 179.334 186.145 179.804 186.045 180.414C185.945 181.024 185.965 181.544 185.855 181.584C185.745 181.624 185.485 181.064 185.605 180.344C185.725 179.624 186.175 179.164 186.265 179.274V179.264Z" fill="#455A64"/>
<path d="M76.2442 292.671L78.8042 287.781L69.6742 282.871L65.8242 289.991L66.3742 290.331C68.8142 291.821 78.9142 297.761 80.8742 298.161C83.0642 298.601 76.2342 292.681 76.2342 292.681L76.2442 292.671Z" fill="#FF725E"/>
<g opacity="0.4">
<path d="M69.1841 291.694C69.4641 290.854 69.4241 289.944 69.0641 289.134C68.7141 288.324 68.0841 287.674 67.2841 287.324L65.9141 289.884L69.1841 291.694Z" fill="black"/>
</g>
<path opacity="0.4" d="M79.4942 295.701C79.4942 295.701 81.7942 297.941 81.2142 298.211C80.6342 298.481 70.2142 292.861 65.8242 289.981L65.9542 289.781L78.0642 296.441C78.0642 296.441 78.9642 295.441 79.5042 295.701H79.4942Z" fill="black"/>
<path d="M65.8145 289.734L65.9644 289.834L66.4044 290.104L68.0245 291.014C69.3945 291.814 71.3145 292.904 73.4445 294.064C75.5745 295.224 77.5444 296.224 78.9744 296.934L80.6645 297.764L81.1345 297.984C81.1845 298.014 81.2445 298.034 81.3045 298.044L81.1444 297.954L80.6945 297.714L79.0145 296.854C77.5944 296.124 75.6444 295.114 73.5044 293.954C71.3644 292.794 69.4445 291.724 68.0645 290.944L66.4244 290.014L65.9744 289.764L65.8145 289.734Z" fill="#263238"/>
<path d="M77.9746 296.582C78.1946 296.342 78.4446 296.132 78.7146 295.942C79.0046 295.792 79.3146 295.682 79.6246 295.612C79.2846 295.562 78.9346 295.642 78.6546 295.832C78.3446 295.992 78.1046 296.262 77.9846 296.582H77.9746Z" fill="#263238"/>
<path d="M76.0248 293.773C76.1948 293.743 76.3548 293.673 76.4948 293.573C76.7448 293.443 76.9348 293.293 76.9148 293.273C76.8948 293.253 76.6848 293.333 76.4448 293.463C76.2048 293.593 76.0048 293.743 76.0248 293.773Z" fill="#263238"/>
<path d="M75.4937 292.974C75.4937 292.974 75.6937 292.974 75.9337 292.934C76.1737 292.894 76.3537 292.804 76.3337 292.774C76.3137 292.744 76.1337 292.774 75.8937 292.814C75.6537 292.854 75.4737 292.944 75.4937 292.974Z" fill="#263238"/>
<path d="M75.4941 291.863C75.4941 291.863 75.6841 292.033 75.9341 292.173C76.0841 292.283 76.2541 292.353 76.4441 292.383C76.4441 292.353 76.2641 292.213 76.0041 292.063C75.7441 291.913 75.5141 291.823 75.4941 291.853V291.863Z" fill="#263238"/>
<path d="M75.6543 291.172C75.6543 291.172 75.8043 291.422 76.1043 291.612C76.2743 291.742 76.4743 291.822 76.6943 291.832C76.5343 291.702 76.3543 291.602 76.1743 291.502C76.0143 291.372 75.8343 291.262 75.6543 291.172Z" fill="#263238"/>
<path d="M76.7637 293.134C76.9437 293.274 77.1437 293.374 77.3537 293.444C77.5837 293.534 77.8137 293.594 78.0537 293.644C78.1937 293.674 78.3437 293.694 78.4937 293.684C78.5837 293.684 78.6737 293.644 78.7337 293.584C78.8037 293.504 78.8137 293.394 78.7737 293.304C78.4337 292.824 77.8037 292.654 77.2737 292.904C77.1237 292.974 76.9837 293.074 76.8737 293.194C76.7937 293.284 76.7737 293.344 76.7737 293.344C76.9237 293.194 77.1037 293.074 77.3037 292.984C77.5237 292.904 77.7537 292.884 77.9837 292.924C78.2537 292.974 78.5037 293.124 78.6537 293.354C78.7137 293.474 78.6137 293.564 78.4837 293.564C78.3437 293.564 78.2037 293.564 78.0737 293.524C77.8437 293.484 77.6137 293.434 77.3837 293.354C77.0037 293.224 76.7737 293.114 76.7637 293.124V293.134Z" fill="#263238"/>
<path d="M76.9044 293.251C77.0344 293.161 77.1344 293.031 77.1844 292.881C77.2544 292.721 77.2744 292.541 77.2544 292.371C77.2544 292.141 77.1344 291.921 76.9244 291.811C76.7844 291.771 76.6444 291.851 76.5944 291.981C76.5544 292.081 76.5444 292.191 76.5544 292.291C76.5544 292.461 76.5944 292.631 76.6344 292.801C76.6744 292.951 76.7444 293.101 76.8444 293.221C76.8444 293.221 76.7844 293.051 76.7244 292.781C76.6844 292.621 76.6644 292.461 76.6644 292.301C76.6644 292.131 76.7144 291.881 76.8744 291.931C77.0244 292.041 77.1144 292.211 77.1244 292.391C77.1444 292.551 77.1344 292.711 77.0844 292.861C77.0244 293.001 76.9644 293.131 76.8844 293.261L76.9044 293.251Z" fill="#263238"/>
<path d="M67.375 287.303C67.375 287.303 67.655 287.423 68.015 287.693C68.515 288.043 68.915 288.523 69.165 289.093C69.395 289.663 69.475 290.283 69.385 290.893C69.335 291.143 69.275 291.393 69.205 291.633C69.205 291.633 69.245 291.573 69.305 291.443C69.375 291.263 69.435 291.083 69.475 290.893C69.595 290.263 69.535 289.623 69.285 289.033C69.025 288.453 68.605 287.953 68.075 287.613C67.915 287.513 67.745 287.423 67.565 287.353C67.505 287.323 67.445 287.303 67.385 287.293L67.375 287.303Z" fill="#263238"/>
<path d="M70.3434 284.012C69.9434 284.602 69.5734 285.212 69.2534 285.842C68.8934 286.452 68.5634 287.082 68.2734 287.732C68.6734 287.142 69.0434 286.532 69.3634 285.902C69.7234 285.292 70.0534 284.662 70.3434 284.012Z" fill="#263238"/>
<path d="M70.8145 291.424C71.6045 292.064 72.5044 292.564 73.4644 292.884C73.4644 292.854 72.8645 292.574 72.1345 292.164C71.4045 291.754 70.8345 291.394 70.8145 291.424Z" fill="#263238"/>
<path d="M69.0232 290.453C69.0232 290.453 69.0232 290.603 68.9932 290.783C68.9632 290.963 68.9532 291.093 68.9932 291.103C69.0332 291.113 69.1232 290.983 69.1332 290.793C69.1432 290.603 69.0532 290.453 69.0232 290.463V290.453Z" fill="#263238"/>
<path d="M68.7949 289.252C68.7949 289.252 68.7949 289.382 68.7949 289.532C68.7949 289.682 68.8949 289.792 68.9349 289.782C68.9749 289.772 68.9349 289.642 68.9349 289.492C68.9349 289.342 68.8349 289.232 68.7949 289.252Z" fill="#263238"/>
<path d="M68.0234 288.354C68.0234 288.354 68.1434 288.454 68.2434 288.574C68.3434 288.694 68.4134 288.814 68.4534 288.814C68.4934 288.814 68.4534 288.634 68.3434 288.494C68.2334 288.354 68.0334 288.324 68.0334 288.364L68.0234 288.354Z" fill="#263238"/>
<path d="M67.4534 287.813C67.4534 287.813 67.4534 287.913 67.5134 287.983C67.5734 288.053 67.6434 288.093 67.6634 288.073C67.6834 288.053 67.6634 287.973 67.6034 287.903C67.5434 287.833 67.4734 287.783 67.4434 287.823L67.4534 287.813Z" fill="#263238"/>
<path d="M132.993 291.574H109.863V296.224H132.993V291.574Z" fill="#263238"/>
<path d="M142.954 322.031H119.824V326.681H142.954V322.031Z" fill="#263238"/>
<path d="M153.505 349.043H125.705V353.693H153.505V349.043Z" fill="#263238"/>
<path d="M121.795 260.062H102.125V264.713H121.795V260.062Z" fill="#263238"/>
<path d="M111.975 228.613H92.3047V233.263H111.975V228.613Z" fill="#263238"/>
<path d="M84.1441 197.332L20.7441 390.222H26.7841L86.2541 210.612L131.234 390.222H138.484L89.8741 197.332H84.1441Z" fill="#263238"/>
<path d="M98.9246 197.332L49.7246 390.222H59.0846L102.855 210.912L162.025 390.222H170.285L105.755 197.332H98.9246Z" fill="#455A64"/>
<path d="M44.4651 326.091C44.4651 327.371 45.4951 328.411 46.7751 328.421H67.7851C69.0651 328.421 70.1051 327.381 70.1051 326.101C70.1051 324.821 69.0651 323.781 67.7851 323.781H46.7751C45.4951 323.781 44.4551 324.821 44.4551 326.101L44.4651 326.091Z" fill="#455A64"/>
<path d="M35.3145 356.011C35.3145 357.291 36.3545 358.331 37.6445 358.331H58.6445C59.9245 358.331 60.9645 357.301 60.9745 356.021C60.9745 354.731 59.9345 353.691 58.6445 353.691H37.6145C36.3445 353.711 35.3245 354.751 35.3145 356.021V356.011Z" fill="#455A64"/>
<path d="M54.5547 295.261C54.5547 296.541 55.5947 297.581 56.8747 297.581H77.8847C79.1647 297.581 80.2047 296.541 80.2047 295.261C80.2047 293.981 79.1647 292.941 77.8847 292.941H56.8947C55.6147 292.931 54.5647 293.961 54.5547 295.241C54.5547 295.241 54.5547 295.251 54.5547 295.261Z" fill="#455A64"/>
<path d="M86.7244 261.012H67.0544C65.7731 261.012 64.7344 262.05 64.7344 263.332V263.342C64.7344 264.623 65.7731 265.662 67.0544 265.662H86.7244C88.0057 265.662 89.0444 264.623 89.0444 263.342V263.332C89.0444 262.05 88.0057 261.012 86.7244 261.012Z" fill="#455A64"/>
<path d="M74.2051 231.742C74.2051 233.022 75.2451 234.062 76.5251 234.072H91.5551C92.8351 234.072 93.8751 233.032 93.8751 231.742C93.8751 230.462 92.8351 229.422 91.5551 229.422H76.5251C75.2451 229.422 74.2051 230.462 74.2051 231.742Z" fill="#455A64"/>
<path d="M78.4748 184.152C78.7648 184.252 84.2048 196.372 88.5648 196.442C92.9249 196.512 115.195 194.742 115.195 194.742L115.465 188.242L92.4648 188.302L85.4648 178.832L78.4648 184.152H78.4748Z" fill="#FFBE9D"/>
<path d="M112.654 189.062C112.654 189.062 116.454 187.842 116.864 187.252C117.274 186.662 118.994 183.852 118.994 183.852C119.354 184.332 119.504 184.942 119.414 185.532C119.294 185.992 119.084 186.812 118.924 187.452C118.844 187.742 119.024 188.052 119.314 188.122C119.394 188.142 119.474 188.142 119.564 188.122C120.464 187.962 121.774 187.802 121.934 188.232C122.174 188.872 121.134 193.132 120.374 193.912C119.614 194.692 114.394 194.712 114.394 194.712L112.654 189.052V189.062Z" fill="#FFBE9D"/>
<path d="M120.964 189.492C120.964 189.492 120.724 189.772 120.194 190.022C119.874 190.172 119.544 190.272 119.204 190.322C118.974 190.362 118.734 190.322 118.534 190.192C118.304 190.032 118.194 189.752 118.254 189.472C118.294 189.212 118.444 188.982 118.654 188.832C118.834 188.712 119.024 188.622 119.234 188.572C119.604 188.472 119.934 188.412 120.214 188.352C120.514 188.262 120.824 188.222 121.134 188.232C120.874 188.402 120.584 188.512 120.274 188.572L119.324 188.862C118.974 188.922 118.684 189.162 118.584 189.502C118.514 189.852 118.844 190.022 119.184 189.982C119.504 189.942 119.814 189.872 120.114 189.772C120.394 189.652 120.684 189.552 120.974 189.482L120.964 189.492Z" fill="#EB996E"/>
<path d="M120.335 191.413C120.145 191.573 119.925 191.683 119.695 191.753C119.575 191.803 119.445 191.833 119.315 191.853C119.135 191.863 118.955 191.803 118.835 191.673C118.525 191.413 118.445 190.973 118.645 190.613C118.855 190.333 119.155 190.133 119.495 190.033L120.215 189.743C120.635 189.573 120.905 189.533 120.925 189.573C120.945 189.613 120.705 189.743 120.315 189.953C120.125 190.063 119.895 190.183 119.625 190.313C119.355 190.403 119.115 190.563 118.935 190.783C118.835 191.003 118.885 191.263 119.055 191.423C119.115 191.503 119.215 191.553 119.315 191.543C119.425 191.543 119.535 191.523 119.645 191.503C120.055 191.413 120.335 191.353 120.355 191.403L120.335 191.413Z" fill="#EB996E"/>
<path d="M118.034 192.822C118.034 192.822 117.914 192.602 117.714 192.282C117.454 191.852 117.084 191.502 116.644 191.272L116.434 191.152L116.624 190.992C116.754 190.882 116.894 190.772 117.024 190.642C117.624 189.972 118.124 189.222 118.484 188.402C118.524 188.402 118.484 188.732 118.334 189.212C118.104 189.842 117.734 190.412 117.254 190.882C117.124 191.012 116.974 191.142 116.824 191.252V190.982C117.314 191.252 117.704 191.672 117.924 192.182C118.034 192.562 118.034 192.812 118.034 192.822Z" fill="#EB996E"/>
<path d="M120.434 192.914C120.434 192.914 120.264 193.124 119.864 193.264C119.614 193.364 119.324 193.344 119.084 193.224C118.934 193.144 118.814 193.034 118.724 192.884C118.634 192.704 118.634 192.484 118.724 192.304C118.894 192.024 119.144 191.804 119.434 191.664C119.644 191.554 119.854 191.454 120.074 191.364C120.454 191.214 120.714 191.174 120.714 191.224C120.714 191.274 120.504 191.384 120.164 191.574C119.994 191.674 119.794 191.794 119.574 191.934C119.354 192.054 119.154 192.214 119.014 192.424C118.914 192.614 119.054 192.824 119.234 192.934C119.414 193.034 119.614 193.064 119.814 193.014C120.164 192.954 120.414 192.864 120.434 192.914Z" fill="#EB996E"/>
<path d="M56.1932 150.305C56.1132 151.445 55.9032 152.565 55.5532 153.655C55.1932 154.755 54.4632 155.685 53.4832 156.295C52.5332 156.825 51.2232 157.055 50.8632 158.075C50.5032 159.095 51.2932 160.425 50.5432 161.195C50.2032 161.465 49.8032 161.635 49.3732 161.695C47.9432 162.035 46.7332 162.965 46.0432 164.255C45.4032 165.835 45.5232 167.625 46.3732 169.095C47.2432 170.535 48.3232 171.835 49.5832 172.945L61.7632 170.335C61.7632 170.335 58.1632 151.015 58.2132 151.145C57.5232 150.915 56.8432 150.635 56.1932 150.305Z" fill="#263238"/>
<path d="M72.3442 151.324C72.4642 151.924 72.8442 152.454 73.3842 152.744C73.9242 153.034 74.4441 153.354 74.9341 153.704C75.7341 154.464 76.1841 155.524 76.1441 156.624C76.1041 157.714 75.9142 158.794 75.5642 159.834C77.5842 159.924 79.4642 160.904 80.6942 162.504C81.9042 164.104 82.5441 166.064 82.5041 168.074C82.5041 169.494 82.1442 171.034 81.0542 171.924C80.1342 172.574 79.0541 172.954 77.9341 173.034C75.7241 173.364 73.4942 173.554 71.2742 173.744C69.0442 173.934 66.6541 174.094 64.6741 173.024C63.0641 172.034 61.8342 170.524 61.1942 168.744C60.2042 166.134 59.8542 163.324 60.1642 160.544C60.4742 157.774 61.0842 155.054 61.9642 152.414" fill="#263238"/>
<path d="M57.0035 148.192C55.9235 147.642 54.7335 147.322 53.5235 147.262C52.3135 147.262 51.0335 147.982 50.6935 149.152C50.5435 149.782 50.6135 150.452 50.9135 151.032C51.2035 151.612 51.5935 152.132 52.0635 152.572C52.4835 153.072 53.0635 153.422 53.7135 153.542C54.2235 153.562 54.7235 153.422 55.1435 153.142C55.9835 152.652 56.6135 151.852 56.8735 150.912C57.1235 149.962 56.8135 148.942 56.0735 148.292" fill="#263238"/>
<path d="M70.8648 145.451C70.8648 145.451 73.0548 144.691 73.0748 143.261C73.0948 141.831 56.7548 139.791 53.6348 147.751C53.6348 147.751 54.2448 148.181 56.7748 148.021" fill="#FF725E"/>
<g opacity="0.5">
<path d="M70.8648 145.451C70.8648 145.451 73.0548 144.691 73.0748 143.261C73.0948 141.831 56.7548 139.791 53.6348 147.751C53.6348 147.751 54.2448 148.181 56.7748 148.021" fill="black"/>
</g>
<path d="M58.3539 167.482L68.3239 166.682C68.3839 165.522 68.3239 161.012 68.3239 161.012C68.3239 161.012 72.4739 160.372 72.5239 156.222C72.5739 152.072 71.8839 142.542 71.8839 142.542C67.0839 140.482 61.5339 141.172 57.3939 144.362L56.7539 144.832L58.3539 167.472V167.482Z" fill="#FFBE9D"/>
<path d="M70.164 149.463C69.904 149.253 69.864 148.873 70.064 148.613C70.264 148.353 70.654 148.313 70.914 148.513C70.934 148.533 70.954 148.543 70.974 148.563C71.234 148.773 71.274 149.153 71.074 149.413C70.874 149.673 70.484 149.713 70.224 149.513C70.204 149.493 70.184 149.483 70.164 149.463Z" fill="#263238"/>
<path d="M71.8643 148.732C71.8043 148.802 71.3943 148.492 70.8243 148.492C70.2543 148.492 69.8343 148.782 69.7743 148.712C69.7143 148.642 69.8043 148.552 69.9943 148.422C70.2343 148.242 70.5243 148.152 70.8243 148.152C71.1243 148.152 71.4143 148.252 71.6543 148.442C71.8643 148.582 71.9043 148.712 71.8643 148.742V148.732Z" fill="#263238"/>
<path d="M64.765 149.041C65.045 149.221 65.135 149.591 64.955 149.871C64.775 150.151 64.405 150.241 64.125 150.061C63.855 149.871 63.765 149.511 63.925 149.231C64.095 148.951 64.455 148.851 64.745 149.021C64.745 149.021 64.755 149.021 64.765 149.031V149.041Z" fill="#263238"/>
<path d="M65.6838 149.241C65.6138 149.311 65.2139 149.001 64.6339 149.001C64.0539 149.001 63.6438 149.291 63.5838 149.221C63.5238 149.151 63.6239 149.061 63.8039 148.921C64.0439 148.741 64.3438 148.651 64.6438 148.661C64.9438 148.661 65.2338 148.761 65.4738 148.941C65.6538 149.081 65.7138 149.221 65.6838 149.251V149.241Z" fill="#263238"/>
<path d="M67.9648 153.954C68.2548 153.834 68.5748 153.764 68.8848 153.754C69.0348 153.754 69.1548 153.714 69.1648 153.624C69.1648 153.474 69.1348 153.324 69.0648 153.194C68.9148 152.814 68.7648 152.434 68.6048 152.034C68.1748 151.054 67.8548 150.034 67.6348 148.984C68.1548 149.914 68.5848 150.904 68.9148 151.924C69.0648 152.324 69.2048 152.714 69.3348 153.094C69.4348 153.294 69.4648 153.514 69.4148 153.734C69.3748 153.844 69.2748 153.934 69.1548 153.974C69.0748 153.984 68.9848 153.984 68.8948 153.974C68.5848 154.024 68.2648 154.014 67.9548 153.954H67.9648Z" fill="#263238"/>
<path d="M68.3045 160.962C66.3845 160.992 64.5045 160.462 62.8945 159.422C62.8945 159.422 64.1745 162.412 68.3145 162.032V160.962H68.3045Z" fill="#EB996E"/>
<path d="M71.9147 143.601C70.0647 144.461 67.9347 144.461 66.0947 143.601C63.8647 142.681 61.3147 142.321 60.7947 142.821C60.2747 143.321 61.1747 147.601 59.0947 148.411C59.0947 148.411 58.6947 150.551 56.9947 150.521C55.2947 150.491 55.8747 143.871 55.8747 143.871L59.8447 141.551L64.2847 140.371L68.5647 140.651L71.9147 141.291V143.601Z" fill="#263238"/>
<path d="M57.2446 149.144C57.1746 149.144 54.3946 148.304 54.4846 151.134C54.5746 153.964 57.4046 153.294 57.4046 153.214C57.4046 153.134 57.2446 149.144 57.2446 149.144Z" fill="#FFBE9D"/>
<path d="M56.4738 152.173C56.4738 152.173 56.4238 152.173 56.3438 152.253C56.2238 152.303 56.0938 152.303 55.9738 152.253C55.5938 152.023 55.3638 151.613 55.3738 151.173C55.3638 150.933 55.4038 150.683 55.4938 150.463C55.5438 150.283 55.6738 150.133 55.8538 150.073C55.9738 150.033 56.0938 150.083 56.1438 150.193C56.1838 150.273 56.1438 150.323 56.1838 150.333C56.2238 150.343 56.2438 150.283 56.1838 150.163C56.1638 150.093 56.1238 150.033 56.0638 149.993C55.9938 149.953 55.9138 149.943 55.8338 149.953C55.6038 150.013 55.4138 150.183 55.3338 150.413C55.2238 150.673 55.1738 150.953 55.1938 151.243C55.1838 151.763 55.4838 152.243 55.9538 152.453C56.1138 152.493 56.2738 152.453 56.4038 152.363C56.4738 152.253 56.5038 152.193 56.4738 152.193V152.173Z" fill="#EB996E"/>
<path d="M55.3148 140.322C55.2748 140.242 55.7548 140.032 56.3248 140.212C56.8948 140.392 57.1748 140.852 57.0948 140.852C57.0148 140.852 56.6948 140.642 56.2248 140.502C55.7548 140.362 55.3348 140.442 55.3148 140.312V140.322Z" fill="#263238"/>
<path d="M56.9233 138.562C57.0233 138.562 57.0233 139.162 57.1633 139.842C57.3033 140.522 57.6033 141.012 57.5333 141.072C57.4633 141.132 56.9833 140.682 56.8433 139.912C56.7033 139.462 56.7433 138.982 56.9333 138.562H56.9233Z" fill="#263238"/>
<path d="M69.1039 147.804C69.0039 147.654 69.5339 147.164 70.3839 147.164C71.2339 147.164 71.7739 147.544 71.6639 147.714C71.5539 147.884 71.0239 147.804 70.3839 147.834C69.7439 147.864 69.1939 147.974 69.1039 147.804Z" fill="#263238"/>
<path d="M60.7148 142.723C61.5848 143.273 62.4048 143.893 63.1748 144.573C63.9648 145.253 64.9748 145.623 66.0148 145.613L65.7648 145.133C67.2648 145.733 68.8448 146.113 70.4548 146.263C71.0448 146.403 71.6648 146.243 72.1148 145.823C72.4848 145.343 71.9648 144.483 71.9048 143.583C71.8648 142.943 71.6348 142.773 71.0248 142.543C70.7448 142.463 70.4448 142.433 70.1548 142.463C67.9048 142.553 65.6548 142.433 63.4248 142.093C62.9048 141.993 62.3748 141.943 61.8448 141.973C61.3148 141.993 60.8148 142.223 60.4648 142.613" fill="#263238"/>
<path d="M68.0244 154.484C67.8344 154.344 67.5744 154.344 67.3844 154.484C67.1944 154.604 67.0844 154.804 67.0944 155.034C67.0944 155.254 67.1744 155.464 67.3244 155.624C67.4344 155.764 67.5844 155.854 67.7644 155.894C68.0544 155.954 68.3544 155.824 68.5044 155.584C68.6544 155.334 68.6544 155.024 68.5044 154.774C68.3444 154.534 68.0644 154.384 67.7744 154.404" fill="#EB996E"/>
<path d="M69.4539 155.281C69.4539 155.281 69.2839 155.431 68.9639 155.451C68.5539 155.451 68.1439 155.371 67.7639 155.201C66.8739 154.851 66.3139 154.241 66.4139 154.171C66.5139 154.101 67.0539 154.561 67.8839 154.891C68.2339 155.041 68.5939 155.151 68.9639 155.211C69.2539 155.251 69.4339 155.241 69.4439 155.281H69.4539Z" fill="#263238"/>
<path d="M65.5542 147.744C65.4842 147.804 65.3442 147.784 65.1742 147.804C65.0042 147.824 64.7142 147.894 64.3542 147.924C63.6442 147.984 63.0742 147.924 63.0742 147.704C63.0742 147.484 63.6142 147.324 64.3142 147.254C64.6442 147.204 64.9742 147.234 65.2842 147.334C65.5542 147.464 65.6142 147.684 65.5442 147.734L65.5542 147.744Z" fill="#263238"/>
<path d="M58.7833 144.543C58.8333 146.823 59.2733 149.073 59.3033 151.343C59.3333 153.613 58.8833 156.013 57.3833 157.753C56.8933 158.403 56.1633 158.833 55.3633 158.943C54.8933 159.023 54.4233 158.793 54.1933 158.373C54.0933 158.013 54.1433 157.633 54.3233 157.313C54.8433 156.273 55.4333 155.273 56.0833 154.323C56.7433 153.373 57.1533 152.273 57.2733 151.113C57.2633 150.263 57.1433 149.423 56.9133 148.603C56.6833 147.783 56.6533 146.923 56.8133 146.083C56.9933 145.233 57.6533 144.573 58.5033 144.383" fill="#263238"/>
<path d="M64.0938 142.683C71.5738 141.873 73.0038 143.193 73.0738 143.253C73.2738 143.053 73.4038 142.793 73.4538 142.513C73.7238 140.323 71.0438 139.683 71.0438 139.683C69.3638 132.033 62.4938 132.813 62.4938 132.813V132.753C62.3638 132.083 61.7138 131.643 61.0438 131.773L59.9738 131.983C59.3038 132.113 58.8638 132.763 58.9938 133.433C50.9238 136.123 53.6038 143.573 53.6038 143.573L52.4238 144.993C51.3738 147.113 53.6438 147.753 53.6438 147.753C53.6438 147.753 56.4238 143.523 64.0938 142.663V142.683Z" fill="#FF725E"/>
<g opacity="0.5">
<path d="M60.3242 140.074C59.9142 139.034 59.6042 137.964 59.4042 136.864C59.1042 135.794 58.9042 134.684 58.8242 133.574C59.2342 134.614 59.5342 135.684 59.7342 136.784C60.0442 137.854 60.2342 138.964 60.3242 140.074Z" fill="black"/>
</g>
<g opacity="0.5">
<path d="M64.354 139.072C63.904 138.082 63.554 137.052 63.304 135.992C62.954 134.962 62.714 133.902 62.584 132.832C63.034 133.812 63.384 134.842 63.634 135.902C63.984 136.932 64.224 137.992 64.354 139.072Z" fill="black"/>
</g>
<g opacity="0.5">
<path d="M70.7038 140.001C70.7038 140.061 69.7437 139.781 68.1737 139.641C66.1237 139.471 64.0638 139.641 62.0738 140.131C60.0838 140.641 58.1537 141.381 56.3438 142.341C54.9438 143.071 54.1137 143.621 54.0938 143.561C54.2537 143.401 54.4338 143.261 54.6338 143.141C55.0038 142.881 55.5438 142.531 56.2338 142.141C58.0438 141.101 59.9837 140.311 62.0037 139.811C64.0337 139.311 66.1338 139.171 68.2038 139.411C68.8338 139.491 69.4538 139.611 70.0538 139.781C70.2838 139.831 70.4938 139.911 70.7038 140.011V140.001Z" fill="black"/>
</g>
<g opacity="0.2">
<path d="M60.6937 141.424C59.2637 141.934 57.8737 142.534 56.5237 143.204C55.2237 143.984 53.9637 144.844 52.7637 145.764C53.0137 145.394 53.3337 145.064 53.6937 144.794C55.3437 143.364 57.2837 142.304 59.3837 141.694C59.8037 141.534 60.2537 141.434 60.7037 141.414L60.6937 141.424Z" fill="white"/>
</g>
<g opacity="0.2">
<path d="M54.2949 142.461C54.0749 142.511 53.7149 141.991 53.5749 141.021C53.2749 138.391 54.6149 135.841 56.9649 134.611C57.8549 134.181 58.4849 134.181 58.5649 134.391C58.7449 134.821 56.8549 135.911 55.7449 138.081C54.6349 140.251 54.7649 142.381 54.3049 142.471L54.2949 142.461Z" fill="white"/>
</g>
<path d="M48.7848 216.175L79.0548 218.905C79.1048 216.835 78.4748 204.205 78.1048 195.905C78.0348 194.335 79.5848 191.605 79.5248 190.295C79.3748 187.025 78.8848 186.895 78.8848 186.895L80.6048 190.105L89.5848 182.105L81.7448 171.515C79.2548 168.155 75.5148 165.945 71.3648 165.375C70.1448 165.215 69.2248 165.135 68.6248 165.055C65.1648 166.145 61.4548 166.145 57.9948 165.055C56.4948 165.105 55.0048 165.395 53.5848 165.905C50.9148 166.845 48.4948 168.405 46.5348 170.455L33.7148 185.555L45.5748 193.225L50.1448 188.425L50.7348 200.905L48.7848 216.175Z" fill="#FF725E"/>
<path d="M76.8634 181.725C76.8634 181.815 72.3734 181.895 66.9034 181.895C61.4334 181.895 56.9434 181.815 56.9434 181.725C56.9434 181.635 61.4034 181.555 66.9034 181.555C72.4034 181.555 76.8634 181.625 76.8634 181.725Z" fill="white"/>
<path d="M76.1948 178.481C74.2648 178.701 72.3148 178.701 70.3848 178.481C72.3148 178.261 74.2648 178.261 76.1948 178.481Z" fill="white"/>
<path d="M54.554 183.043C54.194 183.603 53.784 184.123 53.334 184.613C52.544 185.553 51.414 186.843 50.194 188.253C48.974 189.663 47.824 190.913 46.984 191.823C46.564 192.333 46.094 192.803 45.584 193.233C45.954 192.683 46.364 192.153 46.804 191.673C47.604 190.733 48.724 189.443 49.944 188.033C51.164 186.623 52.314 185.363 53.154 184.463C53.574 183.953 54.044 183.483 54.554 183.053V183.043Z" fill="#263238"/>
<path d="M52.4043 318.332L51.4143 322.492C51.4143 322.492 44.6243 331.312 42.5343 330.882C41.1643 330.602 42.8443 328.322 45.4243 321.592L45.9743 318.832L52.4143 318.342L52.4043 318.332Z" fill="#FF725E"/>
<path d="M42.2539 329.573C42.3339 329.723 42.4639 329.843 42.6139 329.923C43.0439 330.093 43.5339 330.023 43.8939 329.733C45.0839 328.733 46.2139 327.663 47.2739 326.523C48.5539 325.203 49.5839 323.963 50.3339 322.993L51.2039 321.873C51.2839 321.773 51.3739 321.663 51.4439 321.573L51.5339 321.473C51.5339 321.473 51.5339 321.513 51.4739 321.593L51.2539 321.913C51.0639 322.193 50.7839 322.553 50.4239 323.063C49.4739 324.303 48.4639 325.483 47.3839 326.613C46.3239 327.763 45.1839 328.833 43.9639 329.823C43.7339 329.983 43.4739 330.073 43.1939 330.103C42.9839 330.103 42.7739 330.063 42.5839 329.973C42.4639 329.913 42.3739 329.813 42.3039 329.703C42.2839 329.663 42.2739 329.623 42.2639 329.573H42.2539Z" fill="#263238"/>
<path d="M43.2148 326.742C43.3948 326.672 43.5848 326.642 43.7748 326.672C44.2348 326.722 44.6748 326.872 45.0548 327.122C45.4548 327.352 45.7748 327.692 45.9848 328.102C46.0748 328.272 46.1248 328.452 46.1248 328.652C46.1248 328.652 46.0648 328.442 45.9048 328.152C45.6848 327.772 45.3648 327.462 44.9848 327.232C44.6148 327.002 44.1948 326.842 43.7648 326.772C43.4348 326.732 43.2148 326.772 43.2148 326.742Z" fill="#263238"/>
<path d="M49.6444 324.672C49.6044 324.612 49.5844 324.542 49.5644 324.472C49.5044 324.282 49.4544 324.092 49.4344 323.902C49.3344 323.252 49.4444 322.592 49.7444 322.012C50.0444 321.422 50.5244 320.952 51.1244 320.682C51.3044 320.602 51.4944 320.542 51.6844 320.512H51.9044C51.6544 320.582 51.4044 320.662 51.1644 320.772C50.6044 321.062 50.1644 321.522 49.8844 322.082C49.5944 322.642 49.4744 323.272 49.5444 323.892C49.5844 324.362 49.6744 324.662 49.6544 324.672H49.6444Z" fill="#263238"/>
<path d="M51.9833 319.043C51.9833 319.043 51.8633 319.633 51.7433 320.373C51.6933 320.813 51.5733 321.253 51.3833 321.653C51.3533 321.653 51.4833 321.063 51.6033 320.323C51.6633 319.873 51.7833 319.443 51.9833 319.043Z" fill="#263238"/>
<path d="M45.3047 322.185C45.5847 322.095 45.8947 322.095 46.1747 322.185C46.4647 322.235 46.7347 322.365 46.9547 322.565C46.9547 322.605 46.5947 322.425 46.1447 322.325C45.6947 322.225 45.3047 322.225 45.3047 322.195V322.185Z" fill="#263238"/>
<path d="M45.1641 322.892C45.6441 322.732 46.1841 322.862 46.5441 323.222C46.5441 323.222 46.2541 323.072 45.9041 322.992C45.5541 322.912 45.1741 322.932 45.1641 322.892Z" fill="#263238"/>
<path d="M44.625 323.783C45.105 323.523 45.705 323.663 46.025 324.093C45.825 323.973 45.605 323.883 45.385 323.803C45.135 323.763 44.875 323.753 44.625 323.773V323.783Z" fill="#263238"/>
<path d="M45.7737 321.882C45.7737 321.882 46.0837 321.792 46.5737 321.602C46.8537 321.492 47.1237 321.362 47.3837 321.212L47.8437 320.922C47.9737 320.822 48.1337 320.662 48.1237 320.512C48.1137 320.362 47.9137 320.272 47.7637 320.302C47.6037 320.362 47.4637 320.452 47.3437 320.582C47.0937 320.822 46.8837 321.042 46.7037 321.222C46.3537 321.612 46.1537 321.862 46.1437 321.862C46.1737 321.792 46.2037 321.722 46.2537 321.662C46.3337 321.542 46.4637 321.372 46.6337 321.172C46.8337 320.932 47.0437 320.702 47.2737 320.482C47.4037 320.332 47.5637 320.232 47.7437 320.172C47.9537 320.102 48.1737 320.222 48.2437 320.432C48.2437 320.452 48.2537 320.472 48.2537 320.502C48.2337 320.722 48.1137 320.912 47.9237 321.022C47.7737 321.122 47.6137 321.222 47.4537 321.312C47.1837 321.462 46.9037 321.592 46.6037 321.692C46.4037 321.762 46.2037 321.812 46.0037 321.852C45.9237 321.882 45.8437 321.892 45.7637 321.882H45.7737Z" fill="#263238"/>
<path d="M46.125 321.802C46.125 321.802 46.075 321.512 45.995 321.042C45.955 320.772 45.875 320.501 45.765 320.251C45.695 320.111 45.615 319.972 45.515 319.852C45.405 319.732 45.255 319.642 45.135 319.712C45.015 319.782 44.995 319.971 45.015 320.121C45.045 320.281 45.085 320.432 45.145 320.582C45.265 320.832 45.405 321.052 45.585 321.262C45.895 321.612 46.145 321.782 46.135 321.802C46.125 321.822 46.065 321.802 45.955 321.702C45.805 321.592 45.655 321.472 45.525 321.332C45.325 321.132 45.155 320.892 45.035 320.632C44.965 320.472 44.915 320.312 44.885 320.142C44.835 319.942 44.905 319.732 45.075 319.602C45.275 319.522 45.505 319.602 45.625 319.772C45.735 319.902 45.825 320.042 45.895 320.202C46.005 320.462 46.075 320.742 46.105 321.022C46.105 321.262 46.145 321.462 46.145 321.582C46.145 321.702 46.145 321.792 46.145 321.792L46.125 321.802Z" fill="#263238"/>
<g opacity="0.4">
<path d="M51.4139 322.494L51.8939 320.504C51.8939 320.504 50.2239 320.814 49.7939 322.054C49.5439 322.734 49.4239 323.454 49.4639 324.184L45.8439 328.084C45.8439 328.084 44.9439 326.304 43.2839 326.734C43.2839 326.734 42.0039 329.574 42.0039 330.284C42.0039 330.994 42.8739 330.924 43.1739 330.774C44.3639 330.074 45.4539 329.214 46.4139 328.214C48.3739 326.234 50.4939 323.724 51.4139 322.494Z" fill="black"/>
</g>
<path d="M30.6445 205.622C27.3245 201.812 27.3545 196.132 30.6945 192.342L35.7445 186.902L44.8645 192.762C44.5745 192.962 38.5645 199.452 38.5645 199.452L49.0845 212.562C50.7145 214.572 51.2045 217.292 50.3645 219.742L48.5645 227.082L39.7945 223.172L40.3745 222.272H46.1445L46.4845 220.882L30.6245 205.612L30.6445 205.622Z" fill="#FFBE9D"/>
<path d="M36.3047 197.113C36.8347 197.433 37.3147 197.843 37.7147 198.323C38.2047 198.723 38.5847 199.223 38.8447 199.793C38.3347 199.443 37.8747 199.023 37.4747 198.553C36.9947 198.153 36.5947 197.673 36.3047 197.113Z" fill="#EB996E"/>
<path d="M56.5332 217.964L58.2532 185.094H77.0832L78.4732 219.934L56.5332 217.964Z" fill="#263238"/>
<path d="M74.4344 193.602C74.4344 193.602 74.2944 193.742 73.9944 193.952C73.5844 194.242 73.1544 194.502 72.7144 194.732C69.7444 196.312 66.3844 197.012 63.0244 196.762C62.5244 196.722 62.0244 196.652 61.5244 196.552C61.3344 196.532 61.1544 196.482 60.9844 196.402C60.9844 196.342 61.7744 196.472 63.0444 196.522C64.6944 196.582 66.3344 196.452 67.9544 196.122C69.5644 195.782 71.1344 195.262 72.6144 194.552C73.7544 193.972 74.4344 193.552 74.4344 193.602Z" fill="#455A64"/>
<path d="M61.254 198.414C61.154 198.414 61.064 198.204 61.054 197.944C61.044 197.684 61.094 197.474 61.184 197.454C61.274 197.434 61.364 197.654 61.384 197.924C61.404 198.194 61.344 198.414 61.254 198.414Z" fill="#455A64"/>
<path d="M60.7432 202.021C60.6532 202.021 60.6432 201.601 60.7432 201.101C60.8432 200.601 60.9732 200.211 61.0632 200.231C61.1532 200.251 61.1632 200.661 61.0632 201.151C60.9632 201.641 60.8332 202.031 60.7432 202.021Z" fill="#455A64"/>
<path d="M61.1947 205.584C61.1147 205.634 60.8347 205.294 60.6947 204.784C60.5547 204.274 60.6047 203.844 60.6947 203.844C60.7847 203.844 60.8847 204.224 61.0147 204.694C61.1447 205.164 61.2747 205.544 61.1947 205.584Z" fill="#455A64"/>
<path d="M64.2551 207.212C64.2551 207.302 63.8351 207.372 63.3151 207.272C62.7951 207.172 62.4351 206.912 62.4851 206.832C62.5351 206.752 62.9051 206.862 63.3851 206.952C63.8651 207.042 64.2651 207.122 64.2651 207.212H64.2551Z" fill="#455A64"/>
<path d="M67.9042 207.182C67.9042 207.272 67.4942 207.352 66.9942 207.362C66.4942 207.372 66.0742 207.302 66.0742 207.212C66.0742 207.122 66.4842 207.042 66.9842 207.032C67.4842 207.022 67.9042 207.092 67.9042 207.182Z" fill="#455A64"/>
<path d="M71.5548 207.124C71.5548 207.224 71.1548 207.304 70.6448 207.314C70.1348 207.324 69.7348 207.254 69.7248 207.164C69.7148 207.074 70.1348 206.994 70.6448 206.984C71.1548 206.984 71.5548 207.024 71.5548 207.134V207.124Z" fill="#455A64"/>
<path d="M74.5237 205.482C74.6037 205.482 74.5537 205.952 74.2037 206.382C73.8537 206.812 73.3737 206.892 73.3437 206.812C73.3137 206.732 73.6536 206.522 73.9436 206.172C74.2336 205.822 74.4337 205.452 74.5237 205.482Z" fill="#455A64"/>
<path d="M75.1841 201.883C75.2741 201.883 75.2841 202.313 75.2141 202.813C75.1441 203.313 75.0041 203.703 74.9141 203.683C74.8241 203.663 74.8041 203.253 74.8841 202.763C74.9641 202.273 75.0741 201.883 75.1841 201.883Z" fill="#455A64"/>
<path d="M75.5543 198.274C75.6443 198.274 75.6843 198.694 75.6443 199.194C75.6043 199.694 75.4943 200.094 75.4043 200.084C75.3143 200.074 75.2743 199.664 75.3143 199.164C75.3543 198.664 75.4643 198.264 75.5543 198.274Z" fill="#455A64"/>
<path d="M75.6751 195.473C75.7651 195.473 75.8351 195.693 75.8251 195.963C75.8151 196.233 75.7351 196.443 75.6451 196.433C75.5551 196.423 75.4851 196.213 75.4951 195.953C75.5051 195.693 75.5751 195.473 75.6751 195.473Z" fill="#455A64"/>
<path d="M52.4551 166.363C52.4551 166.363 60.0851 168.363 60.2151 186.283H63.2851C63.2851 186.283 64.0951 171.233 55.7851 165.323C55.7851 165.333 53.3851 164.743 52.4551 166.363Z" fill="#263238"/>
<path d="M68.584 165.082C68.584 165.082 74.004 167.642 74.134 185.602H76.744C76.744 185.602 76.964 168.822 71.844 165.512C70.884 164.862 69.674 164.702 68.584 165.082Z" fill="#263238"/>
<path d="M63.2649 184.914C63.4149 185.234 63.4749 185.584 63.4549 185.934C63.4549 186.334 63.3449 186.724 63.1249 187.054C62.8049 187.434 62.3349 187.654 61.8449 187.654C61.3449 187.704 60.8449 187.514 60.4949 187.144C60.2449 186.834 60.1049 186.454 60.0949 186.054C60.0549 185.704 60.0949 185.354 60.2249 185.024C60.2849 185.354 60.3249 185.684 60.3349 186.024C60.3749 186.364 60.5149 186.684 60.7349 186.944C61.3749 187.474 62.3149 187.444 62.9149 186.864C63.1149 186.594 63.2349 186.264 63.2549 185.924C63.2349 185.584 63.2549 185.254 63.2849 184.914H63.2649Z" fill="#455A64"/>
<path d="M61.7338 185.441C61.7338 185.441 61.9038 185.301 62.1338 185.441C62.2738 185.551 62.3338 185.731 62.3038 185.911C62.2438 186.201 61.9638 186.391 61.6738 186.341C61.5138 186.311 61.3838 186.211 61.3038 186.071C61.2138 185.921 61.2138 185.721 61.3038 185.571C61.4738 185.331 61.6838 185.371 61.6738 185.411C61.6638 185.451 61.5638 185.521 61.5138 185.681C61.4938 185.761 61.5138 185.841 61.5538 185.911C61.6138 185.981 61.7038 186.031 61.7938 186.021C61.8838 186.001 61.9538 185.931 61.9838 185.841C62.0138 185.761 61.9938 185.671 61.9438 185.611C61.8638 185.511 61.7238 185.491 61.7238 185.441H61.7338Z" fill="#455A64"/>
<path d="M76.8035 184.902C76.8035 184.902 76.9935 185.212 76.9535 185.772C76.9335 186.112 76.8235 186.432 76.6335 186.712C76.3935 187.062 76.0135 187.302 75.5835 187.352C75.1435 187.412 74.7035 187.242 74.4335 186.892C74.0635 186.372 73.9535 185.702 74.1335 185.092C74.1935 185.092 74.2035 185.422 74.3035 185.922C74.3535 186.202 74.4835 186.472 74.6635 186.692C74.8835 186.942 75.2135 187.072 75.5435 187.022C75.8835 186.972 76.1835 186.782 76.3835 186.512C76.5535 186.282 76.6735 186.012 76.7135 185.722C76.8035 185.212 76.7435 184.912 76.7935 184.902H76.8035Z" fill="#455A64"/>
<path d="M75.3546 185.331C75.3546 185.331 75.4346 185.141 75.7246 185.181C75.8946 185.211 76.0446 185.331 76.0946 185.501C76.1646 185.711 76.0946 185.941 75.9246 186.081C75.7446 186.211 75.4946 186.211 75.3146 186.081C75.1646 185.981 75.0846 185.811 75.1046 185.631C75.1646 185.341 75.3746 185.301 75.3846 185.341C75.3946 185.381 75.3246 185.481 75.3446 185.631C75.3446 185.711 75.3946 185.781 75.4646 185.811C75.5446 185.851 75.6346 185.851 75.7146 185.811C75.7846 185.751 75.8146 185.661 75.7946 185.571C75.7746 185.491 75.7246 185.421 75.6546 185.391C75.5046 185.331 75.3746 185.361 75.3546 185.331Z" fill="#455A64"/>
<path d="M79.0148 218.902L98.2548 250.682C99.1448 252.142 99.1448 253.962 98.2548 255.422L80.3548 292.342L65.6748 284.562L80.2648 256.082C81.0748 254.542 80.9348 252.682 79.8948 251.282L60.9648 228.352L61.7348 218.902H79.0148Z" fill="#263238"/>
<path d="M48.7548 214.691L39.4648 320.421H54.8148L67.8848 230.691L67.6848 217.961L48.7548 214.691Z" fill="#263238"/>
<path d="M56.7938 219.344C56.7738 219.754 56.6538 220.154 56.4438 220.514C55.5538 222.354 53.6738 223.524 51.6238 223.504C51.2138 223.534 50.8038 223.454 50.4238 223.294C50.4238 223.234 50.8838 223.294 51.6138 223.294C52.5538 223.224 53.4738 222.934 54.2838 222.444C55.0738 221.934 55.7338 221.244 56.2038 220.434C56.5938 219.784 56.7238 219.334 56.7838 219.354L56.7938 219.344Z" fill="#455A64"/>
<path d="M60.8034 277.173C60.8034 276.993 60.8334 276.823 60.8634 276.643L61.1234 275.143C61.3534 273.803 61.6734 271.933 62.0634 269.613C62.8434 264.943 63.8234 258.483 64.8434 251.333C65.8634 244.183 66.7134 237.693 67.2834 232.993C67.5534 230.663 67.7734 228.773 67.9234 227.423C67.9934 226.783 68.0534 226.283 68.0934 225.913C68.1134 225.733 68.1434 225.563 68.1734 225.383C68.1934 225.563 68.1934 225.743 68.1734 225.913C68.1434 226.293 68.1034 226.803 68.0534 227.433C67.9434 228.753 67.7634 230.643 67.5034 233.013C66.9934 237.723 66.1734 244.213 65.1634 251.373C64.1534 258.533 63.1134 264.983 62.2734 269.653C61.8534 271.983 61.4934 273.863 61.2234 275.163C61.0934 275.803 60.9834 276.283 60.9034 276.653C60.8734 276.823 60.8234 277.003 60.7734 277.163L60.8034 277.173Z" fill="#455A64"/>
<path d="M55.134 317.853C55.134 317.943 51.644 317.943 47.354 317.853C43.064 317.763 39.584 317.613 39.584 317.513C39.584 317.413 43.064 317.423 47.364 317.513C51.664 317.603 55.134 317.763 55.134 317.853Z" fill="#455A64"/>
<path d="M82.0136 290.142C81.7936 290.092 81.5736 290.022 81.3736 289.922C80.9636 289.762 80.3736 289.512 79.6536 289.182C78.2136 288.542 76.2536 287.562 74.1436 286.382C72.0336 285.202 70.1936 284.032 68.8836 283.172C68.2436 282.732 67.7036 282.362 67.3536 282.092C67.0036 281.822 66.8036 281.672 66.8236 281.652C67.0336 281.742 67.2336 281.852 67.4236 281.982L69.0036 282.972C70.3336 283.802 72.2136 284.942 74.3036 286.112C76.3936 287.282 78.3336 288.282 79.7436 288.982L81.4136 289.812C81.6236 289.892 81.8136 290.002 81.9936 290.122L82.0136 290.142Z" fill="#455A64"/>
<path d="M53.6345 317.184C53.7245 317.184 53.7745 317.414 53.7545 317.674C53.7345 317.934 53.6245 318.144 53.5345 318.134C53.4445 318.124 53.3945 317.904 53.4145 317.644C53.4345 317.384 53.5445 317.174 53.6345 317.184Z" fill="#455A64"/>
<path d="M54.0538 313.363C54.1438 313.363 54.1737 313.813 54.1137 314.333C54.0537 314.853 53.9437 315.283 53.8437 315.273C53.7437 315.263 53.7238 314.823 53.7838 314.303C53.8438 313.783 53.9638 313.353 54.0538 313.363Z" fill="#455A64"/>
<path d="M54.4733 309.531C54.5733 309.531 54.5933 309.981 54.5333 310.501C54.4733 311.021 54.3433 311.451 54.2533 311.441C54.1633 311.431 54.1333 310.991 54.1933 310.471C54.2533 309.951 54.3733 309.521 54.4633 309.531H54.4733Z" fill="#455A64"/>
<path d="M54.9239 305.711C55.0139 305.711 55.0439 306.161 54.9839 306.681C54.9239 307.201 54.7939 307.631 54.7039 307.621C54.6139 307.611 54.5839 307.171 54.6539 306.651C54.7239 306.131 54.8439 305.711 54.9339 305.711H54.9239Z" fill="#455A64"/>
<path d="M55.3636 301.922C55.4636 301.922 55.4836 302.372 55.4136 302.892C55.3436 303.412 55.2236 303.832 55.1336 303.832C55.0436 303.832 55.0136 303.382 55.0836 302.862C55.1536 302.342 55.2736 301.922 55.3636 301.922Z" fill="#455A64"/>
<path d="M55.8343 298.074C55.9343 298.074 55.9543 298.524 55.8843 299.044C55.8143 299.564 55.6943 299.994 55.6043 299.984C55.5143 299.974 55.4843 299.534 55.5543 299.014C55.6243 298.494 55.7443 298.074 55.8343 298.074Z" fill="#455A64"/>
<path d="M56.3045 294.262C56.4045 294.262 56.4245 294.712 56.3545 295.232C56.2845 295.752 56.1545 296.182 56.0645 296.172C55.9745 296.162 55.9545 295.722 56.0245 295.202C56.0945 294.682 56.2145 294.262 56.3045 294.262Z" fill="#455A64"/>
<path d="M56.795 290.453C56.885 290.453 56.905 290.893 56.835 291.423C56.765 291.953 56.635 292.363 56.545 292.353C56.455 292.343 56.435 291.903 56.505 291.383C56.575 290.863 56.705 290.443 56.795 290.453Z" fill="#455A64"/>
<path d="M57.295 286.645C57.385 286.645 57.405 287.095 57.335 287.615C57.265 288.135 57.135 288.555 57.045 288.545C56.955 288.535 56.935 288.095 57.005 287.575C57.075 287.055 57.205 286.635 57.295 286.645Z" fill="#455A64"/>
<path d="M57.7941 282.832C57.8841 282.832 57.9041 283.282 57.8341 283.802C57.7641 284.322 57.6241 284.742 57.5441 284.732C57.4641 284.722 57.4341 284.282 57.5041 283.762C57.5741 283.242 57.7141 282.822 57.7941 282.832Z" fill="#455A64"/>
<path d="M58.3136 279.024C58.4136 279.024 58.4236 279.474 58.3536 279.994C58.2836 280.514 58.1436 280.934 58.0636 280.924C57.9836 280.914 57.9536 280.474 58.0236 279.954C58.0936 279.434 58.2336 279.014 58.3136 279.024Z" fill="#455A64"/>
<path d="M58.8539 275.211C58.9439 275.211 58.9539 275.661 58.8539 276.181C58.7539 276.701 58.6439 277.121 58.5639 277.111C58.4839 277.101 58.4539 276.661 58.5639 276.141C58.6739 275.621 58.7639 275.201 58.8539 275.211Z" fill="#455A64"/>
<path d="M59.4045 271.403C59.4945 271.403 59.5045 271.852 59.4045 272.372C59.3045 272.892 59.1945 273.313 59.1045 273.303C59.0145 273.293 59.0045 272.853 59.1045 272.333C59.2045 271.813 59.3145 271.393 59.4045 271.403Z" fill="#455A64"/>
<path d="M59.9533 267.602C60.0533 267.602 60.0533 268.052 59.9533 268.572C59.8533 269.092 59.7433 269.512 59.6533 269.492C59.5633 269.472 59.5533 269.042 59.6533 268.522C59.7533 268.002 59.8633 267.582 59.9533 267.602Z" fill="#455A64"/>
<path d="M60.5237 263.801C60.6137 263.801 60.6237 264.251 60.5237 264.771C60.4237 265.291 60.3137 265.711 60.2137 265.691C60.1137 265.671 60.1137 265.241 60.2137 264.721C60.3137 264.201 60.4337 263.781 60.5237 263.801Z" fill="#455A64"/>
<path d="M61.104 259.993C61.204 259.993 61.204 260.443 61.104 260.963C61.004 261.483 60.884 261.903 60.794 261.883C60.704 261.863 60.694 261.433 60.794 260.913C60.894 260.393 61.014 259.973 61.104 259.993Z" fill="#455A64"/>
<path d="M61.6938 256.192C61.7838 256.192 61.7938 256.652 61.6938 257.172C61.5938 257.692 61.4738 258.112 61.3838 258.092C61.2938 258.072 61.2838 257.632 61.3838 257.122C61.4838 256.612 61.6038 256.182 61.6938 256.192Z" fill="#455A64"/>
<path d="M62.3032 252.391C62.3932 252.391 62.4032 252.851 62.3032 253.361C62.2032 253.871 62.0832 254.301 61.9832 254.281C61.8832 254.261 61.8832 253.831 61.9832 253.311C62.0832 252.791 62.2132 252.371 62.3032 252.391Z" fill="#455A64"/>
<path d="M62.8933 248.602C62.9833 248.602 62.9933 249.062 62.8933 249.572C62.7933 250.082 62.6733 250.512 62.5733 250.492C62.4733 250.472 62.4833 250.042 62.5733 249.522C62.6633 249.002 62.8233 248.582 62.8933 248.602Z" fill="#455A64"/>
<path d="M63.534 244.813C63.634 244.813 63.634 245.263 63.534 245.783C63.434 246.303 63.304 246.723 63.214 246.703C63.124 246.683 63.124 246.253 63.214 245.733C63.304 245.213 63.454 244.793 63.534 244.813Z" fill="#455A64"/>
<path d="M64.1747 241.004C64.2647 241.004 64.2647 241.464 64.1747 241.984C64.0847 242.504 63.9347 242.914 63.8447 242.904C63.7547 242.894 63.7447 242.454 63.8447 241.934C63.9447 241.414 64.0847 241.014 64.1747 241.014V241.004Z" fill="#455A64"/>
<path d="M64.8135 237.223C64.9035 237.223 64.9035 237.683 64.8135 238.193C64.7235 238.703 64.5735 239.133 64.4835 239.113C64.3935 239.093 64.3935 238.653 64.4835 238.143C64.5735 237.633 64.7435 237.203 64.8135 237.223Z" fill="#455A64"/>
<path d="M65.5936 233.454C65.6836 233.454 65.6636 233.914 65.5536 234.424C65.4436 234.934 65.2736 235.344 65.1836 235.324C65.0936 235.304 65.1136 234.874 65.2236 234.354C65.3336 233.834 65.5036 233.434 65.5936 233.454Z" fill="#455A64"/>
<path d="M66.7334 229.784C66.8134 229.814 66.7334 230.244 66.5834 230.744C66.4334 231.244 66.2034 231.624 66.1234 231.604C66.0434 231.584 66.1234 231.144 66.2734 230.634C66.4234 230.124 66.6234 229.744 66.7434 229.784H66.7334Z" fill="#455A64"/>
<path d="M67.9146 227.164C67.9946 227.214 67.9646 227.444 67.8346 227.674C67.7046 227.904 67.5446 228.054 67.4646 228.024C67.3846 227.994 67.4146 227.764 67.5346 227.524C67.6546 227.284 67.8246 227.124 67.9046 227.174L67.9146 227.164Z" fill="#455A64"/>
<path d="M69.304 282.412C69.384 282.462 69.3039 282.682 69.1739 282.902C69.0439 283.122 68.844 283.262 68.774 283.212C68.704 283.162 68.7739 282.942 68.8939 282.722C69.0139 282.502 69.224 282.362 69.304 282.412Z" fill="#455A64"/>
<path d="M71.3944 279.193C71.4744 279.243 71.3044 279.643 71.0144 280.093C70.7244 280.543 70.4344 280.863 70.3744 280.813C70.3144 280.763 70.4644 280.353 70.7544 279.913C71.0444 279.473 71.3144 279.143 71.3944 279.193Z" fill="#455A64"/>
<path d="M73.445 275.933C73.525 275.983 73.355 276.393 73.075 276.833C72.795 277.273 72.505 277.613 72.435 277.553C72.365 277.493 72.515 277.103 72.805 276.653C73.095 276.203 73.365 275.873 73.455 275.933H73.445Z" fill="#455A64"/>
<path d="M75.4442 272.642C75.5242 272.682 75.3642 273.092 75.0942 273.542C74.8242 273.992 74.5342 274.332 74.4542 274.282C74.3742 274.232 74.5342 273.822 74.8142 273.372C75.0942 272.922 75.3742 272.592 75.4442 272.642Z" fill="#455A64"/>
<path d="M77.3939 269.331C77.4739 269.371 77.3139 269.791 77.0539 270.241C76.7939 270.691 76.5039 271.041 76.4139 270.991C76.3239 270.941 76.4839 270.531 76.7539 270.071C77.0239 269.611 77.3139 269.271 77.3939 269.331Z" fill="#455A64"/>
<path d="M79.3047 266.015C79.3847 266.055 79.2347 266.475 78.9747 266.935C78.7147 267.395 78.4447 267.735 78.3347 267.685C78.2247 267.635 78.3947 267.225 78.6647 266.765C78.9347 266.305 79.2247 265.935 79.3147 266.005L79.3047 266.015Z" fill="#455A64"/>
<path d="M81.1535 262.622C81.2335 262.662 81.0935 263.082 80.8435 263.542C80.5935 264.002 80.3135 264.352 80.2335 264.302C80.1535 264.252 80.2935 263.842 80.5435 263.382C80.7935 262.922 81.0735 262.572 81.1535 262.622Z" fill="#455A64"/>
<path d="M82.9537 259.222C83.0337 259.262 82.9037 259.682 82.6537 260.152C82.4037 260.622 82.1437 260.962 82.0537 260.922C81.9637 260.882 82.1137 260.462 82.3537 259.992C82.5937 259.522 82.8637 259.182 82.9537 259.222Z" fill="#455A64"/>
<path d="M84.3947 255.663C84.4847 255.663 84.4647 256.123 84.2847 256.633C84.1047 257.143 83.8647 257.513 83.7847 257.483C83.7047 257.453 83.7847 257.023 83.9747 256.523C84.1647 256.023 84.3047 255.643 84.3947 255.653V255.663Z" fill="#455A64"/>
<path d="M84.0845 251.901C84.1645 251.861 84.4245 252.231 84.5545 252.771C84.6845 253.311 84.6245 253.761 84.5545 253.761C84.4845 253.761 84.3645 253.351 84.2445 252.851C84.1245 252.351 84.0045 251.901 84.0845 251.901Z" fill="#455A64"/>
<path d="M81.894 248.742C81.954 248.682 82.294 248.962 82.634 249.382C82.974 249.802 83.1839 250.182 83.1039 250.232C83.0239 250.282 82.704 250.002 82.364 249.592C82.024 249.182 81.814 248.802 81.894 248.742Z" fill="#455A64"/>
<path d="M79.3446 245.864C79.4146 245.804 79.7546 246.074 80.1046 246.474C80.4546 246.874 80.6846 247.244 80.6146 247.304C80.5446 247.364 80.2046 247.094 79.8546 246.664C79.5046 246.234 79.2746 245.924 79.3446 245.864Z" fill="#455A64"/>
<path d="M76.7938 242.981C76.8638 242.921 77.2038 243.191 77.5538 243.591C77.9038 243.991 78.1338 244.361 78.0638 244.421C77.9938 244.481 77.6538 244.211 77.3038 243.781C76.9538 243.351 76.7238 243.041 76.7938 242.981Z" fill="#455A64"/>
<path d="M74.245 240.104C74.315 240.044 74.655 240.314 75.005 240.744C75.355 241.174 75.585 241.514 75.515 241.574C75.445 241.634 75.105 241.364 74.755 240.964C74.405 240.564 74.175 240.164 74.245 240.094V240.104Z" fill="#455A64"/>
<path d="M71.6942 237.223C71.7542 237.163 72.1042 237.433 72.4542 237.833C72.8042 238.233 73.0342 238.603 72.9642 238.663C72.8942 238.723 72.5542 238.453 72.2042 238.053C71.8542 237.653 71.6242 237.283 71.6942 237.223Z" fill="#455A64"/>
<path d="M69.1434 234.344C69.2134 234.284 69.5534 234.554 69.9034 234.954C70.2534 235.354 70.4834 235.724 70.4134 235.784C70.3434 235.844 70.0034 235.574 69.6534 235.144C69.3034 234.714 69.0734 234.404 69.1434 234.344Z" fill="#455A64"/>
<path d="M67.2348 232.184C67.3048 232.124 67.5048 232.234 67.6748 232.434C67.8448 232.634 67.9348 232.844 67.8648 232.904C67.7948 232.964 67.5948 232.854 67.4248 232.654C67.2548 232.454 67.1648 232.244 67.2348 232.184Z" fill="#455A64"/>
<path d="M77.5139 217.145C77.6339 217.275 77.7439 217.415 77.8439 217.565L78.7239 218.805C79.4839 219.895 80.5539 221.475 81.8339 223.465C84.3939 227.425 87.7639 233.035 91.6039 239.145C93.5239 242.195 95.4539 245.045 97.2139 247.615C98.1339 248.815 98.7939 250.185 99.1339 251.655C99.2539 252.335 99.2639 253.025 99.1739 253.705C99.0739 254.325 98.9039 254.935 98.6639 255.515C98.2339 256.495 97.7239 257.425 97.1339 258.325L95.8539 260.365L95.0539 261.645C94.9739 261.805 94.8739 261.955 94.7639 262.095C94.8339 261.925 94.9039 261.765 94.9939 261.615C95.1539 261.305 95.4039 260.855 95.7339 260.285L96.9639 258.225C97.5139 257.325 98.0039 256.385 98.4039 255.405C98.6239 254.835 98.7739 254.245 98.8739 253.645C98.9539 252.995 98.9339 252.335 98.8239 251.685C98.4739 250.265 97.8339 248.925 96.9439 247.765C95.1439 245.205 93.2139 242.355 91.3039 239.305C87.4539 233.195 84.1539 227.565 81.6239 223.565C80.3439 221.565 79.3239 219.965 78.6039 218.855L77.7739 217.575C77.6739 217.445 77.5839 217.305 77.5039 217.165L77.5139 217.145Z" fill="#455A64"/>
<path d="M90.5441 368.801L90.4941 365.731L97.0041 356.031L104.444 365.711V368.801H90.5441Z" fill="#FF725E"/>
<g opacity="0.3">
<path d="M90.5441 368.801L90.4941 365.731L97.0041 356.031L104.444 365.711V368.801H90.5441Z" fill="black"/>
</g>
<path d="M64.8047 357.129C64.9547 357.049 97.6347 357.129 97.6347 357.129V359.859H67.0547L64.8147 357.129H64.8047Z" fill="#FF725E"/>
<g opacity="0.3">
<path d="M64.8047 357.129C64.9547 357.049 97.6347 357.129 97.6347 357.129V359.859H67.0547L64.8147 357.129H64.8047Z" fill="black"/>
</g>
<path d="M63.0638 356.031L55.1738 365.981V390.221H70.4338V365.441L63.0638 356.031Z" fill="#FF725E"/>
<path d="M107.174 390.221V365.351L100.354 356.031H96.9845L104.444 365.711V368.801H73.1345V364.891L65.4045 356.031H63.0645L70.4345 365.441V390.221H107.174Z" fill="#FF725E"/>
<path d="M107.014 370.811C107.014 370.901 98.7636 370.981 88.6036 370.981C78.4436 370.981 70.1836 370.901 70.1836 370.811C70.1836 370.721 78.4236 370.641 88.6036 370.641C98.7836 370.641 107.014 370.721 107.014 370.811Z" fill="#263238"/>
<path d="M106.904 388.842C106.904 388.942 98.6542 389.012 88.4842 389.012C78.3142 389.012 70.0742 388.942 70.0742 388.842C70.0742 388.742 78.3142 388.672 88.4842 388.672C98.6542 388.672 106.904 388.752 106.904 388.842Z" fill="#263238"/>
<g opacity="0.1">
<path d="M63.0638 356.031L55.1738 365.981V390.221H70.4338V365.441L63.0638 356.031Z" fill="white"/>
</g>
<path d="M147.725 391.581V390.301C147.725 387.351 150.115 384.961 153.065 384.961H198.075C201.025 384.961 203.415 387.351 203.415 390.301V391.581H147.725Z" fill="#FF725E"/>
<path d="M173.815 334.481L157.535 384.961H192.305L177.195 334.511C176.915 333.571 175.925 333.041 174.995 333.321C174.435 333.491 173.995 333.921 173.815 334.471V334.481Z" fill="#FF725E"/>
<g opacity="0.5">
<path d="M168.516 350.93H182.116L187.996 370.56H162.186L168.516 350.93Z" fill="white"/>
</g>
<g opacity="0.3">
<path d="M157.535 384.97H192.315L191.055 380.77L158.215 382.87L157.535 384.97Z" fill="black"/>
</g>
<g opacity="0.2">
<path d="M155.724 386.772C155.724 386.822 155.294 386.732 154.614 386.772C152.824 386.792 151.164 387.692 150.174 389.172C149.794 389.732 149.624 390.132 149.584 390.112C149.614 389.732 149.754 389.362 149.964 389.052C150.914 387.392 152.714 386.422 154.624 386.532C155.004 386.512 155.384 386.592 155.724 386.772Z" fill="white"/>
</g>
<g opacity="0.2">
<path d="M163.635 371.93C163.245 373.46 162.755 374.96 162.155 376.42C161.655 377.92 161.065 379.38 160.365 380.8C160.745 379.27 161.235 377.77 161.835 376.31C162.335 374.81 162.935 373.35 163.635 371.93Z" fill="white"/>
</g>
<g opacity="0.2">
<path d="M175.004 334.883C174.834 335.613 174.624 336.323 174.364 337.023C173.914 338.413 173.344 340.173 172.714 342.113C172.084 344.053 171.524 345.813 171.084 347.213C170.884 347.923 170.644 348.633 170.344 349.313C170.454 348.573 170.624 347.853 170.854 347.143C171.214 345.823 171.754 344.003 172.394 342.013C173.034 340.023 173.674 338.233 174.134 336.943C174.364 336.233 174.654 335.553 175.004 334.893V334.883Z" fill="white"/>
</g>
</svg>
