<svg width="248" height="232" viewBox="0 0 248 232" fill="none" xmlns="http://www.w3.org/2000/svg">
<rect width="248" height="232" fill="#B0ADAD"/>
<path d="M-6781 -824C-6781 -825.105 -6780.1 -826 -6779 -826H4980C4981.1 -826 4982 -825.105 4982 -824V5844C4982 5845.1 4981.1 5846 4980 5846H-6779C-6780.1 5846 -6781 5845.1 -6781 5844V-824Z" fill="#DDDADA"/>
<path d="M-6779 -825H4980V-827H-6779V-825ZM4981 -824V5844H4983V-824H4981ZM4980 5845H-6779V5847H4980V5845ZM-6780 5844V-824H-6782V5844H-6780ZM-6779 5845C-6779.55 5845 -6780 5844.55 -6780 5844H-6782C-6782 5845.66 -6780.66 5847 -6779 5847V5845ZM4981 5844C4981 5844.55 4980.55 5845 4980 5845V5847C4981.66 5847 4983 5845.66 4983 5844H4981ZM4980 -825C4980.55 -825 4981 -824.552 4981 -824H4983C4983 -825.657 4981.66 -827 4980 -827V-825ZM-6779 -827C-6780.66 -827 -6782 -825.657 -6782 -824H-6780C-6780 -824.552 -6779.55 -825 -6779 -825V-827Z" fill="black" fill-opacity="0.1"/>
<g clip-path="url(#clip0_0_1)">
<rect width="1440" height="1024" transform="translate(-170 -299)" fill="white"/>
<g filter="url(#filter0_d_0_1)">
<path d="M-70 -208C-70 -216.837 -62.8366 -224 -54 -224H1270V1091H-70V-208Z" fill="white"/>
</g>
<rect x="-12" y="-184" width="1224" height="440" rx="16" fill="#F1F5F9"/>
<path d="M10.7473 64.9538C11.9789 63.5099 13.3856 62.2582 14.9127 61.2151L14.3216 56.0489L22.4115 53.2051L25.1647 57.6081C27.0093 57.4654 28.8867 57.5587 30.7477 57.9156L33.9662 53.8474L41.6894 57.5752L40.529 62.637C41.9685 63.8723 43.2165 65.2832 44.2565 66.8149L49.4016 66.222L52.2369 74.3363L47.8471 77.0978C47.9895 78.948 47.8964 80.8311 47.5406 82.6922L51.5965 85.9259L47.88 93.6723L42.8334 92.5085C41.6018 93.9523 40.1951 95.2041 38.668 96.2417L39.2591 101.408L31.1692 104.252L28.416 99.8487C26.5714 99.9914 24.694 99.8926 22.8384 99.5412L19.62 103.609L11.8968 99.8816L13.0572 94.8198C11.6176 93.5845 10.3697 92.1736 9.32968 90.6418L4.17906 91.2348L1.34375 83.1204L5.73355 80.3589C5.59123 78.5088 5.68976 76.6257 6.04007 74.7646L1.98416 71.5364L5.70071 63.7899L10.7473 64.9538ZM16.3687 73.7105C13.5991 79.486 16.0238 86.4145 21.7766 89.1925C27.5347 91.9704 34.4424 89.5383 37.212 83.7683C39.9816 77.9927 37.5568 71.0643 31.8041 68.2863C26.0459 65.5083 19.1383 67.9404 16.3687 73.7105Z" fill="#ECECEC"/>
<path d="M206.598 145.149C207.813 143.727 209.198 142.492 210.703 141.465L210.123 136.376L218.098 133.57L220.813 137.913C222.63 137.77 224.48 137.869 226.314 138.22L229.488 134.213L237.102 137.886L235.958 142.876C237.376 144.095 238.607 145.484 239.631 146.994L244.705 146.412L247.502 154.411L243.172 157.134C243.315 158.956 243.216 160.812 242.866 162.651L246.862 165.835L243.2 173.472L238.224 172.325C237.009 173.747 235.624 174.982 234.119 176.009L234.699 181.098L226.724 183.903L224.009 179.561C222.192 179.703 220.342 179.605 218.508 179.253L215.334 183.261L207.72 179.588L208.864 174.598C207.446 173.379 206.215 171.99 205.191 170.48L200.117 171.062L197.32 163.063L201.65 160.34C201.508 158.517 201.606 156.662 201.956 154.822L197.961 151.638L201.623 144.001L206.598 145.149ZM212.137 153.779C209.406 159.472 211.798 166.302 217.468 169.036C223.139 171.77 229.954 169.377 232.68 163.689C235.405 158.001 233.019 151.166 227.348 148.432C221.678 145.698 214.863 148.092 212.137 153.779Z" fill="#E1E1E1"/>
<path d="M202.181 68.4074C203.116 67.3094 204.189 66.3541 205.355 65.5581L204.906 61.6217L211.075 59.4531L213.171 62.8076C214.578 62.6977 216.007 62.7691 217.424 63.0436L219.882 59.9417L225.772 62.7856L224.89 66.6451C225.985 67.5894 226.937 68.66 227.731 69.8293L231.656 69.3792L233.818 75.5665L230.473 77.6692C230.583 79.0801 230.506 80.513 230.238 81.9349L233.331 84.4L230.501 90.3073L226.653 89.4234C225.717 90.5214 224.644 91.4767 223.478 92.2727L223.927 96.2091L217.758 98.3777L215.662 95.0233C214.255 95.1331 212.827 95.0562 211.409 94.7872L208.951 97.8891L203.062 95.0452L203.943 91.1857C202.848 90.2469 201.896 89.1708 201.102 88.0015L197.178 88.4516L195.016 82.2643L198.36 80.1616C198.25 78.7507 198.327 77.3178 198.595 75.8959L195.503 73.4308L198.333 67.5235L202.181 68.4074ZM206.466 75.0833C204.354 79.4864 206.204 84.7678 210.588 86.887C214.978 89.0061 220.243 87.1505 222.356 82.753C224.469 78.3499 222.619 73.0685 218.234 70.9493C213.845 68.8302 208.579 70.6858 206.466 75.0833Z" fill="#ECECEC"/>
<path d="M186.618 39.8101C187.247 39.0689 187.969 38.4321 188.752 37.894L188.451 35.2478L192.595 33.793L194.007 36.0494C194.954 35.978 195.912 36.0274 196.864 36.2086L198.512 34.1224L202.469 36.0329L201.878 38.6242C202.617 39.2556 203.252 39.9803 203.788 40.7654L206.426 40.4634L207.877 44.6194L205.627 46.0358C205.698 46.9856 205.649 47.9464 205.468 48.9016L207.548 50.5596L205.644 54.5289L203.06 53.936C202.431 54.6772 201.708 55.314 200.925 55.852L201.226 58.4983L197.083 59.9531L195.671 57.6967C194.724 57.7681 193.766 57.7187 192.814 57.5375L191.166 59.6237L187.209 57.7132L187.8 55.1219C187.061 54.4905 186.426 53.7658 185.89 52.9807L183.251 53.2827L181.801 49.1267L184.05 47.7103C183.979 46.7605 184.029 45.7997 184.209 44.8445L182.129 43.192L184.034 39.2226L186.623 39.8156L186.618 39.8101ZM189.497 44.2955C188.079 47.2546 189.321 50.8012 192.266 52.2286C195.216 53.6505 198.752 52.4043 200.176 49.4506C201.593 46.4915 200.351 42.9449 197.406 41.5175C194.456 40.0956 190.92 41.3418 189.497 44.2955Z" fill="#F5F5F5"/>
<path d="M42.4847 183.875C43.1142 183.133 43.8367 182.497 44.6194 181.959L44.3183 179.312L48.4618 177.857L49.874 180.114C50.8209 180.042 51.7788 180.092 52.7312 180.273L54.3788 178.187L58.3361 180.097L57.745 182.689C58.4839 183.32 59.1189 184.045 59.6553 184.83L62.2935 184.528L63.744 188.684L61.4944 190.1C61.5655 191.05 61.5163 192.011 61.3357 192.966L63.4156 194.619L61.5108 198.588L58.9273 197.995C58.2978 198.736 57.5753 199.373 56.7926 199.911L57.0936 202.557L52.9502 204.012L51.538 201.756C50.591 201.827 49.6332 201.778 48.6808 201.596L47.0332 203.683L43.0758 201.772L43.667 199.181C42.9281 198.549 42.2931 197.825 41.7567 197.04L39.1185 197.342L37.668 193.186L39.9176 191.769C39.8464 190.819 39.8957 189.859 40.0763 188.903L37.9964 187.251L39.9012 183.282L42.4902 183.875H42.4847ZM45.3638 188.36C43.9461 191.319 45.1886 194.866 48.1334 196.293C51.0837 197.715 54.6196 196.469 56.0427 193.515C57.4604 190.556 56.2179 187.009 53.2731 185.582C50.3228 184.16 46.7869 185.406 45.3638 188.36Z" fill="#F5F5F5"/>
<path d="M73.8595 198.314C74.8064 197.2 75.8902 196.239 77.0725 195.432L76.6182 191.446L82.858 189.25L84.9818 192.648C86.4049 192.539 87.8499 192.61 89.284 192.89L91.769 189.75L97.7297 192.626L96.8375 196.53C97.9487 197.485 98.912 198.572 99.7111 199.752L103.679 199.297L105.869 205.556L102.481 207.686C102.59 209.113 102.519 210.562 102.24 212.001L105.371 214.493L102.503 220.472L98.611 219.577C97.6586 220.692 96.5748 221.652 95.398 222.459L95.8523 226.445L89.6124 228.641L87.4887 225.243C86.0655 225.353 84.6205 225.281 83.1865 225.001L80.7015 228.142L74.7408 225.265L75.6329 221.361C74.5218 220.406 73.5585 219.325 72.7593 218.139L68.791 218.594L66.6016 212.336L69.9897 210.206C69.8802 208.778 69.9514 207.329 70.2305 205.89L67.0997 203.398L69.9678 197.419L73.865 198.314H73.8595ZM78.1946 205.067C76.0599 209.519 77.9264 214.867 82.3654 217.008C86.8045 219.149 92.1357 217.277 94.2704 212.824C96.4051 208.372 94.5386 203.025 90.0996 200.883C85.6605 198.742 80.3293 200.614 78.1946 205.067Z" fill="#ECECEC"/>
<path d="M34.7055 112.427C34.7055 112.427 34.5741 112.476 34.3223 112.548C34.0651 112.614 33.6929 112.734 33.2002 112.833C32.2205 113.064 30.7755 113.316 28.9801 113.454C25.4004 113.745 20.2881 113.36 15.1703 111.236C10.0525 109.111 6.16084 105.757 3.83458 103.012C2.65776 101.639 1.81483 100.437 1.2839 99.5803C1.00474 99.1576 0.824117 98.8117 0.687278 98.5811C0.555913 98.3505 0.49023 98.2242 0.501177 98.2188C0.512124 98.2188 0.588754 98.3286 0.73654 98.5482C0.8898 98.7678 1.08137 99.1081 1.37147 99.5144C1.92978 100.349 2.7946 101.529 3.98236 102.874C6.33599 105.564 10.2058 108.864 15.2743 110.967C20.3428 113.069 25.4059 113.481 28.9637 113.245C30.7536 113.135 32.1931 112.916 33.1783 112.718C33.6764 112.636 34.0486 112.531 34.3114 112.487C34.5686 112.433 34.7109 112.411 34.7109 112.422L34.7055 112.427Z" fill="#E1E1E1"/>
<path d="M23.8964 116.424C23.8964 116.424 23.6884 116.452 23.3107 116.441C22.9331 116.441 22.3857 116.402 21.7125 116.331C20.366 116.188 18.5159 115.853 16.5454 115.211C14.5749 114.563 12.8836 113.74 11.7177 113.059C11.1321 112.719 10.6723 112.422 10.3603 112.203C10.0483 111.983 9.8841 111.857 9.89505 111.84C9.92241 111.802 10.623 112.252 11.8108 112.883C12.9986 113.515 14.6844 114.3 16.633 114.942C18.5816 115.579 20.4043 115.947 21.7344 116.133C23.0644 116.326 23.8964 116.38 23.8964 116.43V116.424Z" fill="#E1E1E1"/>
<path d="M88.0071 57.3997C93.3384 54.1715 99.009 51.7175 104.86 50.054L108.33 33.3203L136.519 32.8262L140.575 49.4281C146.481 50.8885 152.239 53.1339 157.68 56.1754L171.928 46.8094L192.207 66.4528L183.378 81.0564C186.602 86.4037 189.044 92.0969 190.702 97.9658L207.386 101.447L207.878 129.72L191.326 133.788C189.87 139.712 187.631 145.482 184.599 150.939L193.937 165.23L174.358 185.571L159.793 176.715C154.462 179.943 148.786 182.392 142.934 184.061L139.464 200.795L111.275 201.289L107.219 184.687C101.313 183.227 95.5552 180.976 90.1199 177.94L75.8722 187.306L55.5927 167.662L64.4215 153.053C61.2031 147.706 58.7564 142.018 57.0979 136.144L40.4145 132.663L39.9219 104.389L56.4739 100.321C57.9299 94.3973 60.1741 88.6217 63.2009 83.1701L53.863 68.8794L73.442 48.5387L88.0071 57.3942V57.3997ZM96.5404 90.5597C81.9534 105.718 82.3748 129.863 97.4873 144.494C112.6 159.125 136.673 158.702 151.26 143.544C165.847 128.386 165.425 104.241 150.313 89.6099C135.2 74.9789 111.127 75.4016 96.5404 90.5597Z" fill="#ECECEC"/>
<path d="M96.5373 90.5649C96.5373 90.5649 97.101 89.9445 98.2614 88.852C99.4218 87.7594 101.234 86.2387 103.79 84.6081C105.081 83.8176 106.543 82.9721 108.229 82.2255C109.909 81.4678 111.781 80.7376 113.861 80.1831C118.005 79.0467 122.958 78.4593 128.355 79.0796C131.048 79.3816 133.834 80.0075 136.626 81.0012C139.412 81.9894 142.214 83.329 144.869 85.1022C147.529 86.8646 150.074 89.0057 152.329 91.5531C153.479 92.8048 154.519 94.1938 155.515 95.6267C156.489 97.0816 157.381 98.6188 158.181 100.227C161.339 106.673 162.784 114.419 161.716 122.193C161.47 124.137 161.032 126.069 160.479 127.98C159.927 129.89 159.204 131.773 158.328 133.591C156.604 137.247 154.223 140.645 151.366 143.648C148.476 146.618 145.17 149.127 141.59 150.989C139.806 151.933 137.961 152.723 136.073 153.344C134.19 153.97 132.28 154.475 130.353 154.788C122.646 156.133 114.879 154.952 108.338 152.015C106.707 151.269 105.142 150.434 103.658 149.506C102.191 148.556 100.774 147.563 99.4875 146.454C96.8711 144.28 94.6434 141.804 92.7933 139.201C90.9323 136.605 89.4982 133.843 88.4145 131.082C87.3307 128.32 86.6082 125.548 86.2141 122.857C85.404 117.472 85.82 112.487 86.8053 108.292C87.2869 106.19 87.9492 104.285 88.6444 102.577C89.3286 100.859 90.1222 99.3654 90.8612 98.0423C92.3938 95.4236 93.8443 93.5569 94.8952 92.3546C95.9406 91.1523 96.5427 90.5649 96.5427 90.5649C96.5427 90.5649 96.4059 90.7241 96.1377 91.0315C95.8749 91.3444 95.4425 91.7727 94.9444 92.393C93.9154 93.6064 92.4813 95.4785 90.9652 98.0972C90.2317 99.4203 89.449 100.914 88.7757 102.627C88.0915 104.334 87.4402 106.234 86.964 108.331C86.0006 112.509 85.6011 117.477 86.4166 122.83C86.8162 125.504 87.5442 128.26 88.6225 131.005C89.7062 133.744 91.1294 136.489 92.9849 139.064C94.824 141.65 97.0408 144.109 99.6462 146.262C100.927 147.365 102.339 148.348 103.795 149.287C105.268 150.209 106.822 151.032 108.448 151.774C114.939 154.683 122.657 155.847 130.309 154.508C132.219 154.195 134.119 153.69 135.985 153.069C137.857 152.449 139.691 151.669 141.459 150.73C145.017 148.886 148.29 146.399 151.163 143.445C153.999 140.464 156.363 137.093 158.077 133.464C158.952 131.658 159.664 129.791 160.217 127.897C160.77 126.003 161.202 124.087 161.448 122.155C162.51 114.441 161.082 106.75 157.956 100.343C157.162 98.7451 156.281 97.2133 155.312 95.7694C154.322 94.342 153.293 92.964 152.154 91.7178C149.915 89.1814 147.387 87.0512 144.748 85.2944C142.116 83.5266 139.335 82.1925 136.565 81.2043C133.796 80.2161 131.021 79.5847 128.344 79.2773C122.98 78.6459 118.048 79.2169 113.916 80.3314C111.841 80.8804 109.975 81.5941 108.3 82.3462C106.614 83.0819 105.153 83.9164 103.861 84.7015C101.305 86.3101 99.4875 87.8143 98.3162 88.8904C97.7141 89.4119 97.3035 89.8621 97.0025 90.1366C96.7069 90.4221 96.5537 90.5594 96.5537 90.5594L96.5373 90.5649Z" fill="#1A2E35"/>
<path d="M88.008 57.3997C87.7343 57.235 82.9285 54.3307 73.4155 48.5826H73.4702C68.4893 53.7597 61.8991 60.6223 53.9077 68.9343L53.9186 68.8464C56.7485 73.1726 59.8958 77.9819 63.2675 83.1316L63.2949 83.1755L63.273 83.2194C60.4705 88.2703 58.1169 94.0294 56.5624 100.354L56.5514 100.409L56.4967 100.42C51.3406 101.688 45.7576 103.066 39.9501 104.499L40.0267 104.4C40.1855 113.299 40.3552 122.748 40.5303 132.674L40.4427 132.564C45.6043 133.64 51.2968 134.826 57.1262 136.039L57.1973 136.056L57.2192 136.127C58.7737 141.634 61.2094 147.492 64.5374 153.004L64.5757 153.07L64.5374 153.135C61.8006 157.665 58.7846 162.655 55.7085 167.744L55.6866 167.585C62.0578 173.751 68.9272 180.405 75.9716 187.223L75.8074 187.207C80.241 184.292 85.118 181.085 90.0496 177.841L90.1208 177.797L90.1919 177.835C95.2112 180.646 101.079 183.051 107.259 184.566L107.341 184.588L107.363 184.67C108.632 189.869 110.023 195.541 111.424 201.272L111.287 201.168C120.209 201.009 129.777 200.839 139.47 200.668L139.334 200.784C140.428 195.497 141.616 189.793 142.804 184.05L142.82 183.968L142.902 183.946C148.513 182.354 154.32 179.894 159.712 176.622L159.728 176.611L159.805 176.567L159.876 176.611C164.764 179.581 169.619 182.535 174.441 185.466L174.266 185.488C180.878 178.62 187.408 171.835 193.845 165.148L193.828 165.323C190.687 160.514 187.572 155.749 184.496 151.033L184.452 150.961L184.496 150.884C187.517 145.449 189.762 139.668 191.212 133.766L191.234 133.684L191.316 133.662C196.915 132.284 202.422 130.934 207.868 129.594L207.764 129.731C207.594 120.08 207.436 110.653 207.271 101.457L207.375 101.584C201.716 100.403 196.155 99.2394 190.692 98.0975L190.615 98.081L190.594 98.0042C188.88 91.9541 186.39 86.2719 183.286 81.1222L183.248 81.0563L183.286 80.9905C186.313 75.9835 189.252 71.1303 192.121 66.3869L192.137 66.5351C185.005 59.6231 178.273 53.0954 171.863 46.8862L172 46.8972C166.986 50.1912 162.284 53.2766 157.752 56.2577L157.703 56.2907L157.648 56.2577C151.923 53.057 146.181 50.9049 140.571 49.5104L140.516 49.4994L140.505 49.4445C139.033 43.411 137.708 37.9758 136.46 32.8426L136.542 32.9085C125.606 33.0951 116.301 33.2489 108.353 33.3861L108.413 33.3367C107.018 40.0401 105.874 45.5246 104.921 50.0649V50.0924L104.888 50.0979C98.9113 51.8108 94.7241 53.8037 92.0092 55.1872C90.6517 55.8844 89.661 56.4554 89.0042 56.8287C88.3474 57.213 88.0244 57.3997 88.0244 57.3997C88.0901 57.3612 88.3638 57.191 88.9932 56.8122C89.6501 56.4334 90.6353 55.8515 91.9873 55.1487C94.6967 53.7488 98.884 51.7394 104.867 50.01L104.834 50.043C105.77 45.4972 106.903 40.0071 108.288 33.3038L108.298 33.2543H108.348C116.295 33.1061 125.6 32.9359 136.537 32.7383H136.602L136.619 32.8042C137.878 37.9319 139.208 43.367 140.686 49.4006L140.614 49.3293C146.241 50.7237 151.999 52.8758 157.747 56.082H157.643C162.175 53.1009 166.877 50.01 171.885 46.716L171.956 46.6666L172.016 46.727C178.426 52.9307 185.164 59.4529 192.301 66.3594L192.367 66.4253L192.318 66.5077C189.455 71.2511 186.521 76.1043 183.494 81.1167V80.9905C186.609 86.1566 189.116 91.8608 190.834 97.9273L190.736 97.8395C196.198 98.9759 201.76 100.14 207.419 101.32L207.523 101.342V101.446C207.687 110.637 207.852 120.069 208.027 129.72V129.83L207.923 129.858C202.482 131.197 196.97 132.553 191.376 133.931L191.475 133.832C190.024 139.756 187.769 145.559 184.737 151.022V150.879C187.813 155.595 190.927 160.36 194.069 165.17L194.129 165.263L194.053 165.345C187.616 172.032 181.086 178.818 174.474 185.691L174.397 185.774L174.299 185.713C169.477 182.782 164.621 179.828 159.734 176.858H159.881L159.865 176.869C154.457 180.158 148.622 182.623 142.99 184.22L143.088 184.11C141.895 189.853 140.713 195.557 139.613 200.844L139.591 200.954H139.476C129.777 201.124 120.214 201.294 111.287 201.448H111.178L111.15 201.344C109.749 195.612 108.364 189.941 107.094 184.742L107.193 184.841C100.986 183.314 95.0963 180.899 90.0606 178.077H90.2029C85.2657 181.316 80.3943 184.522 75.9552 187.437L75.8676 187.498L75.791 187.426C68.752 180.608 61.8827 173.954 55.5115 167.783L55.4403 167.712L55.495 167.624C58.5712 162.54 61.5926 157.544 64.3294 153.02V153.146C60.9905 147.618 58.5493 141.733 56.9948 136.21L57.0824 136.292C51.253 135.073 45.566 133.882 40.3989 132.806L40.3114 132.789V132.701C40.1417 122.781 39.9775 113.332 39.8242 104.428V104.345L39.9008 104.323C45.7083 102.896 51.2968 101.529 56.4529 100.261L56.3817 100.332C57.9417 93.9909 60.3118 88.2209 63.1252 83.159V83.2469C59.7644 78.0917 56.6226 73.2769 53.7982 68.9508L53.7654 68.9013L53.8037 68.8574C61.806 60.5564 68.4126 53.7103 73.4045 48.5332L73.4319 48.5057L73.4647 48.5222C82.9449 54.3197 87.7343 57.2514 88.008 57.4216V57.3997Z" fill="#1A2E35"/>
<path d="M101.221 30.9167C104.511 26.887 109.667 24.7349 114.823 24.1255C116.991 23.8675 118.381 24.2463 120.488 24.8173C122.596 25.3883 124.5 26.5247 125.759 28.3145C127.254 30.4446 128.507 32.8273 128.792 35.4131C129.082 38.0703 129.372 40.744 129.175 43.4121C128.972 46.0803 128.255 48.7649 126.69 50.928L119.924 52.1084C116.191 52.2347 112.404 52.3609 108.764 51.5045C105.124 50.648 101.588 48.6881 99.6394 45.4874C96.93 41.0459 97.9317 34.9574 101.221 30.9222V30.9167Z" fill="#1A2E35"/>
<path d="M124.418 54.8649C124.418 54.8649 124.527 55.0296 124.823 55.2217C125.113 55.4084 125.589 55.6225 126.219 55.6939C126.837 55.7597 127.625 55.6774 128.37 55.2547C129.12 54.8429 129.727 54.0468 129.985 53.1026C130.236 52.1583 130.11 51.1591 129.673 50.4289C129.246 49.6877 128.605 49.2211 128.036 48.963C127.456 48.7105 126.941 48.6501 126.596 48.6666C126.246 48.6831 126.066 48.7489 126.071 48.7709C126.071 48.8532 126.859 48.683 127.916 49.2211C128.425 49.4901 128.988 49.9403 129.355 50.6101C129.727 51.2689 129.831 52.1473 129.607 52.9982C129.377 53.8437 128.841 54.5519 128.195 54.9362C127.543 55.326 126.832 55.4358 126.257 55.4084C125.075 55.3425 124.473 54.7935 124.44 54.8649H124.418Z" fill="#FF735D"/>
<path d="M94.7887 49.8081C94.9584 48.2763 95.7575 46.772 97.0767 45.9925C98.3958 45.2074 100.246 45.2897 101.346 46.3658L102.408 47.634C104.072 48.3477 105.123 50.2473 104.92 52.048C104.718 53.8542 103.333 55.4463 101.603 55.9734C99.8737 56.5059 97.8868 55.9899 96.5621 54.7491C95.2375 53.5084 94.5917 51.6088 94.7887 49.8081Z" fill="#1A2E35"/>
<path d="M96.1279 54.381C96.1771 54.359 95.7064 53.9253 95.7666 53.0304C95.8213 52.163 96.4508 51.0265 97.3156 49.9834C98.1969 48.9348 99.2314 48.2211 100.025 47.8039C100.819 47.3756 101.361 47.2219 101.344 47.167C101.339 47.1341 100.764 47.2109 99.921 47.5952C99.0781 47.9631 97.9779 48.6823 97.0638 49.7693C96.6041 50.3128 96.2373 50.8838 95.9691 51.4383C95.6955 51.9873 95.5312 52.5473 95.5312 53.0249C95.5312 53.508 95.6845 53.8814 95.8323 54.101C95.9855 54.3206 96.1169 54.3974 96.1279 54.381Z" fill="#375A64"/>
<path d="M99.4045 56.3846C99.5139 56.3791 99.0542 54.3258 99.7055 51.9047C100.319 49.4726 101.725 47.908 101.632 47.8531C101.605 47.8256 101.222 48.177 100.74 48.8577C100.258 49.5385 99.711 50.5816 99.3881 51.8224C99.0651 53.0631 99.0323 54.238 99.1198 55.067C99.2074 55.9015 99.3716 56.3956 99.41 56.3846H99.4045Z" fill="#375A64"/>
<path d="M119.923 63.1043C119.88 60.7216 119.825 58.7727 119.825 58.7836C119.825 58.7836 125.342 58.1742 126.864 51.0866C127.619 47.562 127.761 41.7205 127.723 36.9387C127.69 32.6345 124.034 26.7711 118.736 26.7491L116.382 26.4746L107.367 30.0706C106.064 30.1365 105.03 31.1906 104.986 32.4972L104.953 63.2361L113.957 85.7618L119.682 75.5009L119.934 63.1043H119.923Z" fill="#BE605D"/>
<path d="M116.261 49.4281C116.31 49.0548 116.518 48.7254 116.781 48.4948C117.312 48.0391 118.084 47.9952 118.648 48.3905C119.211 48.7803 119.534 49.5818 119.43 50.3285C119.113 50.7677 118.626 51.0586 118.089 51.108C118.007 51.1135 117.92 51.119 117.837 51.1135C117.432 51.1026 117.016 50.9653 116.704 50.6634C116.392 50.3614 116.201 49.8838 116.261 49.4226V49.4281Z" fill="#964747"/>
<path d="M125.641 42.5171C125.63 43.0002 125.214 43.3955 124.71 43.3955C124.207 43.3955 123.802 43.0002 123.813 42.5171C123.824 42.034 124.24 41.6387 124.743 41.6387C125.247 41.6387 125.652 42.034 125.641 42.5171Z" fill="#1A2E35"/>
<path d="M125.963 39.5919C125.843 39.7071 125.181 39.1527 124.196 39.1032C123.216 39.0374 122.466 39.504 122.362 39.3777C122.313 39.3228 122.439 39.1142 122.767 38.9001C123.09 38.686 123.632 38.4938 124.239 38.5323C124.852 38.5707 125.356 38.8232 125.641 39.0703C125.931 39.3174 126.024 39.5424 125.963 39.5919Z" fill="#1A2E35"/>
<path d="M119.786 47.0683C119.786 47.0134 120.404 46.9421 121.401 46.8652C121.652 46.8542 121.893 46.8158 121.948 46.6456C122.019 46.4644 121.926 46.1899 121.822 45.888C121.62 45.2676 121.406 44.6143 121.182 43.928C120.3 41.1391 119.676 38.8497 119.786 38.8168C119.901 38.7838 120.705 41.0128 121.587 43.8017C121.8 44.488 122.003 45.1468 122.194 45.7727C122.276 46.0637 122.419 46.3985 122.271 46.7719C122.194 46.9585 122.003 47.0848 121.838 47.1177C121.674 47.1562 121.532 47.1507 121.406 47.1562C120.404 47.1562 119.786 47.1232 119.786 47.0683Z" fill="#1A2E35"/>
<path d="M119.823 58.785C119.823 58.785 115.012 58.8289 110.414 55.7051C110.414 55.7051 112.686 60.7999 119.861 60.5254L119.823 58.785Z" fill="#964747"/>
<path d="M116.849 47.596C117.008 47.596 116.953 48.6666 117.824 49.4791C118.694 50.2917 119.838 50.2368 119.838 50.385C119.849 50.4509 119.575 50.5771 119.093 50.5662C118.623 50.5552 117.938 50.3685 117.408 49.8689C116.877 49.3693 116.669 48.738 116.658 48.2933C116.641 47.8431 116.773 47.5851 116.849 47.596Z" fill="#1A2E35"/>
<path d="M125.73 36.0446C125.544 36.2587 124.882 35.9897 124.066 35.9348C123.256 35.8525 122.55 36.0007 122.408 35.7591C122.342 35.6438 122.468 35.4242 122.78 35.2266C123.086 35.029 123.595 34.8862 124.154 34.9356C124.712 34.985 125.188 35.2156 125.456 35.4572C125.73 35.7042 125.812 35.9403 125.73 36.0446Z" fill="#1A2E35"/>
<path d="M114.826 42.0458C114.798 42.5289 115.187 42.9516 115.69 42.99C116.194 43.0285 116.621 42.6661 116.648 42.1775C116.676 41.6944 116.287 41.2717 115.783 41.2332C115.28 41.1948 114.847 41.5626 114.826 42.0458Z" fill="#1A2E35"/>
<path d="M112.483 39.2401C112.593 39.3608 113.299 38.8612 114.284 38.8777C115.269 38.8832 115.981 39.4048 116.09 39.284C116.145 39.2291 116.03 39.015 115.723 38.7789C115.417 38.5428 114.891 38.3122 114.278 38.3067C113.665 38.3013 113.145 38.5154 112.844 38.746C112.538 38.9765 112.428 39.1906 112.489 39.2455L112.483 39.2401Z" fill="#1A2E35"/>
<path d="M113.188 37.2735C113.357 37.4986 114.042 37.279 114.857 37.2845C115.673 37.257 116.362 37.4601 116.527 37.2296C116.598 37.1143 116.494 36.8892 116.193 36.6696C115.897 36.45 115.405 36.2688 114.841 36.2798C114.277 36.2853 113.79 36.4829 113.5 36.708C113.21 36.9331 113.111 37.1637 113.182 37.2735H113.188Z" fill="#1A2E35"/>
<path d="M104.97 42.6006L106.207 43.8852C111.538 38.7685 121.96 25.9492 121.38 26.7123C121.38 26.7123 117.729 25.208 113.761 25.8833C109.798 26.5586 102.277 28.5515 102.392 33.24C102.507 37.9285 104.975 42.6006 104.975 42.6006H104.97Z" fill="#1A2E35"/>
<path d="M101.399 46.6518C101.427 46.6518 101.421 46.2455 101.448 45.5208C101.47 44.7961 101.574 43.742 101.853 42.4793C102.39 39.9484 103.857 36.5775 106.451 33.5744C109.046 30.5714 112.04 28.5126 114.246 27.1565C115.351 26.4758 116.271 25.9652 116.911 25.6138C117.546 25.2625 117.902 25.0648 117.891 25.0429C117.891 25.0319 117.792 25.0703 117.617 25.1472C117.442 25.224 117.185 25.3393 116.857 25.4985C116.2 25.817 115.258 26.3001 114.131 26.9534C111.887 28.2655 108.838 30.3133 106.205 33.3548C103.578 36.3963 102.111 39.8496 101.629 42.4244C101.377 43.7146 101.306 44.7796 101.323 45.5153C101.317 45.8831 101.35 46.1686 101.361 46.3608C101.377 46.5529 101.388 46.6518 101.405 46.6518H101.399Z" fill="#375A64"/>
<path d="M114.827 24.7578C114.827 24.7578 114.723 24.7798 114.542 24.8511C114.361 24.9225 114.093 25.0323 113.759 25.186C113.086 25.488 112.117 25.9546 110.957 26.6025C109.802 27.2503 108.45 28.0793 107.027 29.1059C105.609 30.1381 104.06 31.3184 102.73 32.8831C102.068 33.6627 101.515 34.5082 101.105 35.3921C100.699 36.276 100.448 37.1818 100.311 38.0602C100.032 39.8171 100.152 41.4257 100.322 42.7433C100.502 44.0664 100.738 45.115 100.907 45.8342C100.995 46.1965 101.066 46.4765 101.121 46.6632C101.176 46.8498 101.209 46.9487 101.219 46.9487C101.241 46.9487 101.17 46.5369 101.033 45.8122C100.902 45.082 100.699 44.0279 100.552 42.7158C100.409 41.4092 100.322 39.8226 100.606 38.1151C100.754 37.2642 101.001 36.3858 101.395 35.5348C101.794 34.6839 102.331 33.8658 102.976 33.1082C104.274 31.582 105.801 30.4016 107.197 29.364C108.603 28.3318 109.928 27.4864 111.066 26.8166C112.205 26.1468 113.152 25.6527 113.809 25.3123C114.465 24.9719 114.832 24.7908 114.821 24.7688L114.827 24.7578Z" fill="#375A64"/>
<path d="M104.871 42.7203C104.871 42.7203 105.112 42.5171 105.506 42.1054C105.938 41.6442 106.486 41.0513 107.148 40.3431C108.522 38.8443 110.399 36.7636 112.463 34.4468C114.526 32.1299 116.377 30.0218 117.707 28.4845C118.331 27.7489 118.856 27.134 119.267 26.6509C119.628 26.2117 119.825 25.9646 119.803 25.9481C119.787 25.9317 119.562 26.1513 119.168 26.563C118.736 27.0242 118.188 27.6171 117.531 28.3253C116.158 29.8241 114.275 31.9049 112.217 34.2217C110.153 36.5385 108.303 38.6467 106.973 40.1839C106.349 40.9195 105.823 41.5344 105.413 42.0176C105.052 42.4568 104.86 42.7038 104.877 42.7203H104.871Z" fill="#375A64"/>
<path d="M106.022 44.6633C106.049 44.1307 105.507 42.8406 104.987 42.7308C103.597 42.4343 101.068 42.4069 100.849 45.9754C100.548 50.8506 105.491 50.1478 105.507 50.0051C105.518 49.8953 105.929 46.5024 106.022 44.6633Z" fill="#BE605D"/>
<path d="M104.455 47.9965C104.455 47.9965 104.368 48.0514 104.22 48.1063C104.078 48.1612 103.831 48.1886 103.585 48.0788C103.081 47.8592 102.704 47.0137 102.731 46.1353C102.748 45.6906 102.863 45.2734 103.043 44.933C103.213 44.5871 103.459 44.3511 103.722 44.3181C103.985 44.2742 104.154 44.4389 104.209 44.5816C104.264 44.7244 104.231 44.8177 104.253 44.8287C104.264 44.8397 104.362 44.7518 104.335 44.5487C104.319 44.4499 104.269 44.3291 104.16 44.2303C104.05 44.126 103.881 44.0711 103.7 44.0765C103.322 44.0765 102.967 44.406 102.77 44.7793C102.551 45.1526 102.408 45.6193 102.392 46.1189C102.364 47.1016 102.808 48.0514 103.497 48.2984C103.831 48.4082 104.127 48.3204 104.28 48.2161C104.439 48.1063 104.472 47.9965 104.455 47.9855V47.9965Z" fill="#964747"/>
<path d="M105.078 55.277C105.078 55.277 104.968 55.4417 104.673 55.6338C104.383 55.8205 103.907 56.0291 103.277 56.106C102.659 56.1719 101.87 56.0895 101.126 55.6668C100.376 55.255 99.7685 54.459 99.5112 53.5147C99.2595 52.5704 99.3854 51.5712 99.8232 50.841C100.25 50.0998 100.891 49.6332 101.46 49.3752C102.04 49.1226 102.555 49.0622 102.899 49.0787C103.25 49.0952 103.43 49.161 103.425 49.183C103.425 49.2654 102.637 49.0952 101.58 49.6332C101.071 49.9022 100.507 50.3524 100.141 51.0222C99.7685 51.681 99.6645 52.5594 99.8889 53.4104C100.119 54.2558 100.655 54.964 101.301 55.3483C101.952 55.7381 102.664 55.8479 103.239 55.8205C104.421 55.7491 105.023 55.2056 105.056 55.277H105.078Z" fill="#FF735D"/>
<path d="M132.428 199.276L130.731 184.529L117.102 188.356L120.539 202.498L132.428 199.276Z" fill="#BE605D"/>
<path d="M132.583 199.232L134.887 216.422L140.618 229.488C141.028 230.432 140.563 231.525 139.6 231.876C139.058 232.074 138.461 231.997 137.991 231.668C134.991 229.576 123.989 221.813 123.891 220.545C123.776 219.079 120.262 202.576 120.262 202.576L132.588 199.232H132.583Z" fill="#FF735D"/>
<g opacity="0.6">
<path d="M139.593 231.877L123.703 219.393L123.818 220.117C123.917 220.743 124.234 221.32 124.71 221.731C125.997 222.84 129.615 225.816 137.934 231.679C138.416 232.02 139.046 232.097 139.593 231.882V231.877Z" fill="white"/>
</g>
<g opacity="0.6">
<path d="M126.342 213.309C126.818 213.54 127.059 214.166 126.851 214.649C126.643 215.132 126.008 215.385 125.532 215.165C125.056 214.945 124.738 214.199 125.001 213.743C125.264 213.282 126.025 213.029 126.435 213.359" fill="white"/>
</g>
<path d="M134.515 225.009C134.619 225.042 134.865 224.081 135.801 223.439C136.721 222.769 137.701 222.857 137.706 222.753C137.712 222.709 137.476 222.61 137.071 222.615C136.666 222.615 136.097 222.769 135.582 223.132C135.068 223.494 134.739 223.982 134.597 224.367C134.455 224.751 134.466 225.009 134.51 225.015L134.515 225.009Z" fill="#1A2E35"/>
<path d="M136.09 227.111C136.183 227.172 136.642 226.53 137.485 226.134C138.323 225.722 139.111 225.766 139.116 225.657C139.149 225.563 138.274 225.327 137.321 225.794C136.363 226.25 135.991 227.084 136.09 227.111Z" fill="#1A2E35"/>
<path d="M131.791 222.427C131.884 222.493 132.584 221.505 133.843 220.775C135.091 220.028 136.295 219.896 136.284 219.781C136.295 219.687 134.993 219.649 133.652 220.445C132.305 221.23 131.697 222.389 131.791 222.427Z" fill="#1A2E35"/>
<path d="M130.65 217.263C130.71 217.356 131.591 216.812 132.812 216.576C134.027 216.318 135.05 216.478 135.072 216.368C135.105 216.274 134.043 215.934 132.735 216.203C131.421 216.461 130.579 217.191 130.644 217.263H130.65Z" fill="#1A2E35"/>
<path d="M129.845 212.234C129.917 212.321 130.77 211.602 132.079 211.459C133.381 211.284 134.388 211.778 134.432 211.674C134.454 211.635 134.235 211.448 133.803 211.284C133.376 211.119 132.73 210.998 132.029 211.086C131.329 211.174 130.732 211.443 130.354 211.707C129.977 211.97 129.807 212.206 129.84 212.239L129.845 212.234Z" fill="#1A2E35"/>
<path d="M131.897 210.503C131.897 210.503 131.919 210.262 131.82 209.85C131.716 209.444 131.503 208.851 131.037 208.236C130.802 207.945 130.545 207.566 130.036 207.418C129.779 207.341 129.434 207.44 129.27 207.698C129.105 207.951 129.083 208.241 129.122 208.516C129.313 209.603 130.408 210.503 131.651 210.47C132.898 210.41 133.895 209.537 134.234 208.521C134.3 208.263 134.327 207.951 134.152 207.682C133.977 207.412 133.61 207.347 133.375 207.429C132.882 207.583 132.603 207.929 132.34 208.192C131.826 208.758 131.541 209.318 131.382 209.707C131.224 210.103 131.191 210.333 131.213 210.339C131.278 210.372 131.514 209.427 132.532 208.373C132.794 208.126 133.09 207.819 133.446 207.731C133.621 207.687 133.785 207.731 133.873 207.868C133.96 207.994 133.96 208.214 133.895 208.423C133.605 209.257 132.69 210.053 131.64 210.086C130.594 210.13 129.631 209.334 129.467 208.461C129.434 208.252 129.456 208.027 129.549 207.885C129.642 207.742 129.8 207.681 129.97 207.725C130.326 207.808 130.605 208.132 130.835 208.401C131.755 209.543 131.831 210.531 131.902 210.503H131.897Z" fill="#1A2E35"/>
<path d="M174.816 116.238C162.785 114.042 137.995 120.12 137.995 120.12L132.697 114.031L104.76 114.042L99.9102 125.445L113.134 145.198L116.205 156.843C116.205 156.843 129.287 154.768 128.734 154.833C128.181 154.899 137.119 152.972 137.667 152.901C159.484 149.914 171.116 140.697 177.624 134.169C184.291 127.482 179.392 117.073 174.816 116.238Z" fill="#1A2E35"/>
<path d="M118.498 158.731C118.432 158.336 118.263 157.276 117.907 155.102C117.715 153.938 117.474 152.527 117.168 150.897C117.015 150.084 116.84 149.217 116.637 148.3C116.533 147.844 116.418 147.377 116.287 146.9C116.221 146.664 116.15 146.422 116.062 146.181C115.969 145.939 115.893 145.698 115.696 145.461L115.657 145.637C120.846 143.792 127.327 141.349 134.24 138.429C138.487 136.617 142.5 134.783 146.025 132.878C147.782 131.917 149.435 130.957 150.858 129.87C152.292 128.805 153.567 127.745 154.766 126.823C157.136 124.945 159.287 123.732 160.896 123.216C161.29 123.062 161.657 122.98 161.969 122.897C162.281 122.804 162.549 122.76 162.774 122.722C162.982 122.683 163.146 122.656 163.272 122.628C163.381 122.606 163.441 122.595 163.441 122.59C163.441 122.59 163.381 122.59 163.272 122.601C163.146 122.617 162.976 122.639 162.768 122.667C162.544 122.694 162.27 122.733 161.958 122.815C161.641 122.892 161.268 122.969 160.869 123.111C160.053 123.353 159.101 123.781 158.05 124.369C156.999 124.962 155.866 125.741 154.662 126.663C153.452 127.58 152.171 128.634 150.737 129.683C149.32 130.754 147.672 131.703 145.915 132.653C142.39 134.542 138.383 136.364 134.141 138.176C127.234 141.097 120.759 143.556 115.592 145.429L115.449 145.483L115.559 145.61C115.696 145.769 115.794 146.016 115.876 146.247C115.964 146.477 116.035 146.719 116.101 146.949C116.237 147.421 116.347 147.883 116.456 148.338C116.67 149.244 116.845 150.112 117.009 150.924C117.332 152.549 117.589 153.96 117.797 155.118C118.011 156.266 118.175 157.166 118.295 157.798C118.356 158.105 118.405 158.341 118.443 158.495C118.482 158.654 118.509 158.731 118.509 158.731H118.498Z" fill="#375A64"/>
<path d="M101.302 116.287L101.055 120.004C101.055 120.004 97.9244 125.95 97.6343 131.281C97.4701 134.377 97.3989 138.939 97.3716 142.217C97.3497 144.858 98.0777 147.449 99.4734 149.689L107.728 157.391L112.845 176.327L119.441 199.226L133.098 195.679L131.1 147.57C131.05 140.998 128.062 133.296 124.323 125.302L123.037 114.723L101.302 116.287Z" fill="#1A2E35"/>
<path d="M133.096 188.855C133.096 188.855 133.08 188.784 133.069 188.652C133.058 188.493 133.042 188.295 133.02 188.048C132.981 187.488 132.932 186.714 132.872 185.731C132.757 183.689 132.598 180.779 132.396 177.205C132.029 169.975 131.531 160.038 130.978 149.063C130.803 146.318 130.869 143.611 130.288 141.108C129.747 138.594 128.739 136.288 127.513 134.267C126.265 132.263 124.766 130.556 123.167 129.195C121.558 127.844 119.878 126.812 118.247 126.076C114.99 124.577 112.056 124.171 110.069 124.067C109.067 124.023 108.29 124.039 107.759 124.067C107.513 124.078 107.316 124.089 107.157 124.1C107.02 124.1 106.949 124.1 106.949 124.1C106.949 124.1 108.049 123.88 110.069 123.919C112.072 123.979 115.039 124.341 118.356 125.829C120.009 126.559 121.728 127.591 123.37 128.953C125.007 130.325 126.534 132.049 127.814 134.086C129.068 136.128 130.097 138.473 130.655 141.031C131.252 143.6 131.186 146.318 131.367 149.052C131.876 160.032 132.336 169.969 132.669 177.2C132.817 180.779 132.938 183.689 133.02 185.731C133.053 186.714 133.075 187.494 133.096 188.054C133.096 188.301 133.102 188.498 133.107 188.657C133.107 188.795 133.107 188.866 133.096 188.866V188.855Z" fill="#375A64"/>
<path d="M123.613 158.798C123.515 158.748 124.363 156.772 125.502 154.373C126.646 151.974 127.647 150.074 127.746 150.118C127.844 150.167 126.996 152.144 125.857 154.543C124.713 156.937 123.712 158.842 123.613 158.798Z" fill="#375A64"/>
<path d="M114.083 152.247C114.187 152.209 114.62 153.131 115.047 154.306C115.479 155.481 115.742 156.464 115.643 156.502C115.539 156.54 115.107 155.618 114.68 154.443C114.247 153.268 113.985 152.286 114.083 152.247Z" fill="#375A64"/>
<path d="M107.23 146.564C107.23 146.564 107.257 146.696 107.279 146.949C107.295 147.245 107.317 147.608 107.345 148.047C107.399 149.062 107.471 150.424 107.558 152.082C107.613 155.502 108.631 160.108 109.797 165.187C110.985 170.26 112.189 174.816 113.163 178.088C113.639 179.724 114.077 181.037 114.384 181.937C114.707 182.832 114.887 183.331 114.86 183.342C114.849 183.348 114.783 183.233 114.679 183.002C114.575 182.771 114.417 182.437 114.241 181.992C113.891 181.102 113.409 179.801 112.9 178.171C111.855 174.915 110.601 170.358 109.414 165.28C108.253 160.213 107.268 155.541 107.284 152.098C107.219 150.391 107.197 149.008 107.191 148.052C107.191 147.613 107.191 147.251 107.197 146.954C107.202 146.702 107.213 146.57 107.23 146.57V146.564Z" fill="#375A64"/>
<path d="M138.177 122.876C138.21 122.942 137.41 123.276 136.338 124.122C135.259 124.956 133.946 126.362 133.01 128.229C132.068 130.095 131.663 131.973 131.477 133.329C131.291 134.69 131.285 135.552 131.22 135.552C131.192 135.552 131.165 135.338 131.149 134.948C131.132 134.559 131.138 133.993 131.198 133.296C131.313 131.912 131.685 129.969 132.654 128.047C133.623 126.126 135.018 124.693 136.168 123.897C136.743 123.496 137.241 123.227 137.602 123.068C137.958 122.909 138.166 122.854 138.177 122.876Z" fill="#375A64"/>
<path d="M158.636 121.826C158.707 121.92 157.492 122.919 156.282 124.412C155.062 125.9 154.334 127.294 154.224 127.24C154.131 127.201 154.722 125.691 155.976 124.16C157.218 122.622 158.576 121.738 158.631 121.826H158.636Z" fill="#375A64"/>
<path d="M126.262 132.252C126.196 132.246 126.284 131.275 126.218 129.71C126.174 128.145 125.933 125.999 125.506 123.643C125.074 121.343 124.68 119.268 124.368 117.61C124.089 116.062 123.941 115.101 123.996 115.09C124.05 115.079 124.291 116.023 124.642 117.555C124.981 119.092 125.468 121.206 125.895 123.572C126.322 125.938 126.524 128.123 126.497 129.704C126.497 130.495 126.442 131.132 126.393 131.571C126.333 132.01 126.289 132.252 126.262 132.246V132.252Z" fill="#375A64"/>
<path d="M126.211 116.019C126.211 116.019 126.276 115.926 126.462 115.876C126.643 115.827 126.933 115.821 127.245 115.981C127.546 116.123 127.886 116.502 127.88 117.002C127.88 117.479 127.59 118.012 127.037 118.21C126.495 118.407 125.899 118.138 125.647 117.738C125.362 117.342 125.39 116.837 125.57 116.541C125.74 116.233 125.992 116.08 126.167 116.019C126.347 115.959 126.451 115.981 126.457 116.003C126.484 116.058 126.046 116.14 125.822 116.661C125.718 116.909 125.729 117.249 125.942 117.529C126.145 117.809 126.539 117.974 126.911 117.842C127.267 117.721 127.508 117.337 127.519 116.996C127.541 116.656 127.338 116.376 127.108 116.228C126.627 115.915 126.227 116.085 126.216 116.025L126.211 116.019Z" fill="#375A64"/>
<path d="M127.727 64.7852C127.727 64.7852 136.605 67.92 137.579 73.4924C138.553 79.0648 143.096 99.0871 143.096 99.0871L169.928 102.573L166.808 109.848C166.808 109.848 136.638 111.379 135.236 109.848C133.835 108.316 127.732 64.7852 127.732 64.7852H127.727Z" fill="#375A64"/>
<path d="M100.535 116.491C101.405 112.489 102.029 110.831 102.029 110.831L97.5356 76.7324L94.4102 65.3789L104.46 62.6504C108.149 68.3436 118.981 68.8048 120.546 62.6504L127.722 64.7915C127.722 64.7915 138.286 83.9683 137.794 90.6662C137.252 98.0119 139.583 109.887 139.583 109.887C139.583 109.887 139.841 113.801 137.131 115.635L100.53 116.502L100.535 116.491Z" fill="#375A64"/>
<path d="M94.4155 65.3457C94.4155 65.3457 88.7613 68.2939 87.4258 73.8608C86.4624 77.8685 85.313 102.804 87.4258 107.142C89.5385 111.473 91.197 114.224 95.751 114.998C100.305 115.772 128.341 114.619 128.341 114.619L129.846 103.76L99.9109 99.2853C99.9109 99.2853 99.1611 76.9462 98.8327 75.398" fill="#375A64"/>
<path d="M104.467 62.6494C104.467 62.6494 103.979 60.3436 104.467 60.124C104.954 59.9099 120.723 60.5577 120.827 61.0958C120.931 61.6338 120.827 63.4235 120.827 63.4235C120.827 63.4235 119.103 67.6948 115.14 68.0187C111.177 68.3426 104.675 64.1922 104.467 62.6494Z" fill="#375A64"/>
<path d="M133.218 105.143L141.012 104.566L144.75 107.108L147.969 111.456C147.969 111.456 147.525 112.165 146.628 111.824L147.827 113.279C147.827 113.279 147.372 114.212 146.327 113.718L147.066 114.866C147.066 114.866 145.659 115.371 144.832 114.081C144.006 112.791 142.331 110.979 142.331 110.979L139.479 110.035L142.26 112.807L143.798 115.267C143.798 115.267 143.519 116.041 142.955 115.684C142.391 115.327 140.837 113.394 140.837 113.394L137.564 111.297C137.564 111.297 135.243 112.351 134.526 112.362C133.803 112.373 131.466 110.874 131.466 110.874L129.238 112.351L129.835 104.572L133.212 105.148L133.218 105.143Z" fill="#BE605D"/>
<path d="M147.827 113.284C147.794 113.306 147.433 112.883 146.875 112.175C146.316 111.467 145.561 110.478 144.74 109.369C144.466 109.001 144.203 108.645 143.957 108.304L143.996 108.343C143.092 107.788 142.321 107.305 141.773 106.948C141.226 106.591 140.914 106.366 140.93 106.339C140.947 106.311 141.292 106.482 141.866 106.794C142.436 107.107 143.229 107.563 144.138 108.101L144.16 108.112L144.176 108.134C144.428 108.469 144.691 108.826 144.97 109.194C145.791 110.297 146.519 111.307 147.039 112.048C147.553 112.79 147.86 113.256 147.827 113.284Z" fill="#964747"/>
<path d="M146.89 114.596C146.858 114.618 146.54 114.223 146.059 113.564C145.577 112.905 144.92 111.983 144.214 110.951C143.973 110.594 143.738 110.248 143.513 109.924L143.568 109.974C141.866 109.145 140.64 108.502 140.673 108.442C140.7 108.382 141.97 108.925 143.688 109.721L143.721 109.738L143.743 109.771C143.968 110.095 144.203 110.435 144.449 110.792C145.155 111.824 145.779 112.763 146.223 113.454C146.666 114.146 146.918 114.585 146.885 114.607L146.89 114.596Z" fill="#964747"/>
<path d="M100.349 115.134C100.349 115.134 100.393 115.129 100.486 115.123C100.59 115.123 100.721 115.112 100.885 115.107C101.252 115.096 101.772 115.085 102.445 115.063C103.825 115.036 105.812 114.992 108.324 114.942C113.376 114.854 120.525 114.734 128.943 114.596L128.812 114.717C129.085 111.313 129.386 107.613 129.704 103.753L129.824 103.907C127.509 103.561 125.084 103.199 122.616 102.831C114.312 101.585 106.523 100.415 99.8893 99.4163L99.7798 99.3998V99.29C100.07 92.1255 99.8236 86.1413 99.4897 81.9633C99.3255 79.8771 99.1449 78.2356 99.019 77.1211C98.9533 76.5721 98.904 76.1494 98.8712 75.8474C98.8548 75.7102 98.8438 75.6059 98.8384 75.518C98.8329 75.4466 98.8274 75.4082 98.8384 75.4082C98.8384 75.4082 98.8493 75.4466 98.8603 75.518C98.8767 75.6004 98.8931 75.7102 98.915 75.8419C98.9588 76.1439 99.019 76.5666 99.1011 77.1101C99.2543 78.2246 99.4514 79.8607 99.6375 81.9524C100.015 86.1303 100.294 92.1255 100.032 99.301L99.9276 99.1747C106.562 100.157 114.356 101.316 122.659 102.551C125.128 102.919 127.553 103.281 129.863 103.627L129.994 103.649L129.983 103.781C129.665 107.64 129.353 111.341 129.074 114.739L129.063 114.86H128.943C120.525 114.959 113.382 115.046 108.324 115.107C105.812 115.129 103.825 115.145 102.445 115.156C101.772 115.156 101.252 115.156 100.885 115.156C100.716 115.156 100.584 115.156 100.486 115.156C100.398 115.156 100.349 115.156 100.349 115.145V115.134Z" fill="#1A2E35"/>
<path d="M120.827 61.0953C120.827 61.0953 120.882 61.3753 120.898 61.8804C120.904 62.133 120.909 62.4459 120.887 62.8082C120.854 63.1706 120.86 63.5823 120.641 64.038C120.324 64.4607 119.842 64.6474 119.327 64.8121C118.807 64.9603 118.249 65.0647 117.658 65.1635C116.476 65.3611 115.162 65.4764 113.777 65.4654C111.008 65.4544 108.533 64.9274 106.809 64.3839C105.944 64.1149 105.271 63.769 104.872 63.4506C104.669 63.2969 104.532 63.1486 104.445 63.0498C104.363 62.9455 104.319 62.8851 104.33 62.8796C104.346 62.8631 104.527 63.0772 104.943 63.3627C105.353 63.6482 106.01 63.9502 106.87 64.1917C108.594 64.6803 111.046 65.169 113.783 65.1799C115.151 65.1909 116.448 65.0866 117.62 64.9C118.205 64.8066 118.764 64.7133 119.262 64.5815C119.513 64.5102 119.743 64.4278 119.957 64.318C120.061 64.2631 120.159 64.2027 120.252 64.1368C120.351 64.071 120.428 64.0051 120.471 63.9282C120.657 63.5659 120.685 63.1322 120.729 62.7863C120.761 62.4294 120.778 62.122 120.789 61.8749C120.805 61.3698 120.811 61.0898 120.827 61.0898V61.0953Z" fill="#1A2E35"/>
<path d="M107.036 64.3343C106.987 64.3838 106.347 63.5602 106.226 62.325C106.095 61.0897 106.56 60.1509 106.62 60.1948C106.703 60.2223 106.385 61.1391 106.511 62.2975C106.62 63.4559 107.113 64.2959 107.036 64.3343Z" fill="#1A2E35"/>
<path d="M110.283 60.2054C110.365 60.2219 110.179 61.2924 110.218 62.621C110.245 63.9496 110.486 65.0092 110.404 65.0257C110.338 65.0476 109.96 63.9936 109.933 62.6265C109.895 61.2595 110.212 60.1834 110.283 60.2054Z" fill="#1A2E35"/>
<path d="M114.378 65.2467C114.302 65.2467 114.252 64.1761 114.269 62.853C114.285 61.5299 114.367 60.4648 114.444 60.4648C114.521 60.4648 114.57 61.5354 114.553 62.8585C114.537 64.1816 114.455 65.2467 114.378 65.2467Z" fill="#1A2E35"/>
<path d="M118.85 60.8595C118.916 60.8485 119.124 61.8038 118.954 62.9896C118.784 64.1755 118.325 65.0374 118.259 65.0045C118.177 64.9715 118.511 64.0876 118.669 62.9512C118.834 61.8147 118.757 60.8704 118.845 60.8595H118.85Z" fill="#1A2E35"/>
<path d="M132.626 95.1786C132.626 95.1786 132.626 94.9041 132.686 94.41C132.746 93.9159 132.85 93.2076 132.981 92.3347C133.244 90.5889 133.6 88.1568 133.283 85.4776C132.998 82.7985 132.33 80.4378 131.859 78.7358C131.63 77.9233 131.438 77.248 131.285 76.721C131.153 76.2433 131.088 75.9798 131.104 75.9688C131.12 75.9633 131.224 76.2159 131.389 76.6825C131.553 77.1492 131.788 77.83 132.051 78.6754C132.571 80.3664 133.277 82.7326 133.567 85.4447C133.89 88.1623 133.496 90.6328 133.184 92.3677C133.031 93.1967 132.899 93.8884 132.801 94.4319C132.708 94.9205 132.648 95.1841 132.631 95.1841L132.626 95.1786Z" fill="#1A2E35"/>
<path d="M175.07 93.054L164.211 117.144C163.762 118.144 162.393 118.951 161.304 118.967L111.199 118.901C111.325 117.847 112.206 117.046 113.263 117.024L132.272 116.606L142.004 93.1803C142.316 92.4337 143.039 91.9451 143.849 91.9396L174.189 91.709C174.884 91.709 175.349 92.4227 175.065 93.0595L175.07 93.054Z" fill="#E1E1E1"/>
<path d="M175.07 93.0539C175.07 93.0539 175.131 92.966 175.163 92.7739C175.191 92.5872 175.169 92.2523 174.895 91.9669C174.764 91.8241 174.556 91.7143 174.315 91.6814C174.074 91.6649 173.822 91.6814 173.538 91.6759C172.979 91.6759 172.334 91.6759 171.606 91.6759C168.683 91.6869 164.435 91.7033 159.115 91.7253C156.449 91.7418 153.515 91.7582 150.346 91.7747C148.759 91.7857 147.111 91.7912 145.415 91.8022C144.988 91.8022 144.561 91.8022 144.128 91.8076C143.707 91.7912 143.203 91.8516 142.809 92.0931C142.404 92.3237 142.076 92.697 141.895 93.1362C141.725 93.548 141.55 93.9652 141.375 94.3825C138.584 101.08 135.475 108.547 132.147 116.546L132.284 116.453C128.967 116.524 125.535 116.601 122.01 116.672C120.247 116.711 118.463 116.749 116.657 116.787C115.753 116.809 114.85 116.826 113.936 116.848L113.252 116.864C113.006 116.87 112.765 116.919 112.535 117.007C112.075 117.177 111.67 117.501 111.402 117.913C111.21 118.215 111.095 118.555 111.057 118.879L111.035 119.055H111.21C122.289 119.066 132.831 119.077 142.415 119.082C147.204 119.082 151.758 119.082 156.011 119.082C157.073 119.082 158.124 119.082 159.148 119.082C159.662 119.082 160.171 119.082 160.675 119.082C160.927 119.082 161.173 119.088 161.43 119.077C161.693 119.06 161.945 119.005 162.191 118.929C163.143 118.605 164.025 117.951 164.397 117.024C164.786 116.156 165.163 115.311 165.535 114.482C168.497 107.866 170.889 102.513 172.547 98.8075C173.363 96.9628 174.003 95.5244 174.435 94.5417C174.643 94.0586 174.808 93.6907 174.917 93.4272C175.027 93.1747 175.07 93.0429 175.07 93.0429C175.07 93.0429 175.005 93.1637 174.884 93.4107C174.764 93.6688 174.594 94.0311 174.37 94.5088C173.921 95.486 173.27 96.9134 172.427 98.7526C170.746 102.453 168.321 107.789 165.327 114.388C164.955 115.212 164.572 116.063 164.178 116.925C163.833 117.781 163.007 118.391 162.109 118.692C161.655 118.857 161.178 118.835 160.664 118.83C160.16 118.83 159.651 118.83 159.137 118.83C158.108 118.83 157.062 118.824 156 118.819C151.742 118.808 147.194 118.797 142.404 118.786C132.82 118.769 122.278 118.753 111.205 118.731L111.358 118.907C111.391 118.627 111.495 118.33 111.659 118.072C111.889 117.715 112.239 117.435 112.639 117.287C112.836 117.216 113.049 117.172 113.257 117.166L113.942 117.15C114.85 117.128 115.759 117.111 116.662 117.089C118.463 117.051 120.253 117.007 122.015 116.969C125.54 116.892 128.977 116.815 132.289 116.738H132.388L132.426 116.645C135.743 108.64 138.835 101.174 141.616 94.4703C141.791 94.0531 141.961 93.6358 142.13 93.2241C142.289 92.8343 142.579 92.5104 142.935 92.3018C143.302 92.0876 143.696 92.0327 144.134 92.0437C144.566 92.0437 144.993 92.0382 145.42 92.0327C147.122 92.0163 148.77 91.9998 150.352 91.9888C153.521 91.9559 156.455 91.9284 159.12 91.9065C164.441 91.8461 168.683 91.8022 171.611 91.7692C172.339 91.7582 172.985 91.7527 173.543 91.7418C173.822 91.7418 174.085 91.7253 174.31 91.7418C174.534 91.7692 174.731 91.868 174.857 91.9998C175.125 92.2688 175.158 92.5872 175.136 92.7684C175.114 92.9606 175.065 93.0484 175.07 93.0539Z" fill="#1A2E35"/>
<path d="M133.209 119.171C133.209 119.171 133.269 119.083 133.357 118.908C133.455 118.699 133.576 118.441 133.718 118.128C134.036 117.403 134.468 116.426 134.988 115.24C136.044 112.797 137.484 109.41 139.033 105.654C140.582 101.894 141.945 98.479 142.892 95.9865C143.363 94.7402 143.74 93.7301 143.981 93.0273C144.091 92.7034 144.184 92.4344 144.255 92.2148C144.315 92.0281 144.342 91.9293 144.331 91.9238C144.32 91.9238 144.277 92.0117 144.195 92.1928C144.107 92.407 143.997 92.6705 143.866 92.9834C143.571 93.7191 143.171 94.7073 142.684 95.9041C141.66 98.4076 140.275 101.795 138.743 105.534C137.205 109.272 135.815 112.649 134.785 115.152C134.298 116.355 133.904 117.343 133.603 118.079C133.483 118.397 133.379 118.66 133.297 118.88C133.231 119.067 133.198 119.166 133.209 119.166V119.171Z" fill="#375A64"/>
<path d="M152.852 104.731C152.852 105.593 153.547 106.29 154.406 106.29C155.265 106.29 155.961 105.593 155.961 104.731C155.961 103.869 155.265 103.172 154.406 103.172C153.547 103.172 152.852 103.869 152.852 104.731Z" fill="white"/>
<path d="M168.25 108.387C168.25 108.387 169.903 108.052 170.346 107.711C170.79 107.371 171.063 106.751 170.949 106.366L170.834 105.982C170.834 105.982 172.12 104.862 171.95 103.956C171.95 103.956 173.204 102.908 172.777 101.925C172.777 101.925 173.926 101.2 173.543 100.486C173.16 99.7728 172.147 99.361 171.54 99.3335C170.932 99.3061 169.011 98.8943 168.836 99.1908C168.836 99.1908 168.365 99.9759 168.759 100.294C169.153 100.613 169.345 100.761 169.345 100.761C169.345 100.761 167.621 100.344 167.369 100.69C167.117 101.035 166.821 101.777 167.5 102.128C167.5 102.128 166.816 102.238 166.805 102.655C166.8 103.072 166.854 103.616 167.298 103.775C167.741 103.934 168.173 104.132 168.173 104.132C168.173 104.132 167.462 104.033 167.456 104.406C167.445 104.78 167.276 105.082 167.719 105.504C168.162 105.927 168.973 106.827 168.973 106.827L168.25 108.392V108.387Z" fill="#BE605D"/>
<path d="M168.199 104.164C168.199 104.164 168.396 104.181 168.708 104.236C169.015 104.291 169.436 104.422 169.819 104.697C170.208 104.971 170.471 105.328 170.624 105.597C170.777 105.872 170.838 106.064 170.859 106.053C170.876 106.053 170.859 105.844 170.717 105.548C170.586 105.251 170.318 104.867 169.907 104.571C169.497 104.28 169.042 104.153 168.719 104.126C168.391 104.099 168.194 104.142 168.199 104.159V104.164Z" fill="#964747"/>
<path d="M171.977 103.863C171.977 103.863 171.796 103.654 171.44 103.391C171.084 103.133 170.553 102.814 169.924 102.573C169.295 102.331 168.692 102.21 168.255 102.161C167.817 102.117 167.543 102.134 167.543 102.15C167.538 102.199 168.632 102.227 169.875 102.715C171.117 103.188 171.949 103.907 171.982 103.863H171.977Z" fill="#964747"/>
<path d="M172.772 101.881C172.794 101.848 172.088 101.403 171.113 101.085C170.144 100.761 169.313 100.69 169.313 100.728C169.307 100.772 170.117 100.909 171.07 101.228C172.022 101.541 172.755 101.92 172.777 101.881H172.772Z" fill="#964747"/>
<path d="M190.679 2.01758H147.805V65.3345H151.948L155.714 72.7406L160.536 65.3345H190.679V2.01758Z" fill="#FAFAFA"/>
<path d="M190.679 2.01727C190.679 2.01727 190.679 2.1106 190.685 2.30824C190.685 2.51137 190.685 2.80235 190.69 3.18116C190.69 3.96075 190.701 5.10817 190.707 6.59598C190.712 9.59905 190.728 13.9801 190.739 19.5361C190.756 30.6809 190.778 46.5252 190.805 65.3287V65.4605H190.674C181.429 65.4605 171.237 65.466 160.531 65.4714L160.651 65.4056C159.124 67.7553 157.488 70.2698 155.835 72.8172L155.703 73.0258L155.594 72.8062C154.411 70.4894 153.152 68.0079 151.883 65.5099L151.822 65.3946L151.948 65.4714C150.553 65.4714 149.168 65.4714 147.81 65.4714H147.668V65.3287C147.679 41.3755 147.69 19.4153 147.695 2.01178V1.89648H147.81C160.925 1.92393 171.653 1.9404 179.108 1.95688C182.819 1.96786 185.715 1.97884 187.691 1.98433C188.665 1.98982 189.415 1.99531 189.924 1.99531C190.427 1.99531 190.679 2.00629 190.679 2.00629C190.679 2.00629 190.411 2.01178 189.902 2.01727C189.387 2.01727 188.632 2.02276 187.647 2.02825C185.665 2.03374 182.759 2.04472 179.037 2.0557C171.598 2.07217 160.892 2.08864 147.805 2.11609L147.92 2.0008C147.925 19.4043 147.936 41.3646 147.947 65.3177L147.805 65.175C149.162 65.175 150.547 65.175 151.943 65.175H152.03L152.069 65.2518L152.129 65.3671C153.399 67.8651 154.663 70.3411 155.84 72.6634L155.594 72.6525C157.252 70.1051 158.889 67.5906 160.416 65.2464L160.46 65.1805H160.536C171.243 65.1805 181.434 65.1915 190.679 65.1915L190.553 65.3177C190.581 46.5472 190.603 30.7358 190.619 19.6074C190.635 14.0405 190.646 9.64846 190.652 6.6399C190.657 5.14111 190.663 3.98271 190.668 3.19763C190.668 2.81333 190.674 2.51686 190.674 2.30824C190.674 2.1106 190.679 2.0008 190.679 2.0008V2.01727Z" fill="#1A2E35"/>
<path d="M159.8 13.0078H159.658C159.014 13.0078 158.492 13.5314 158.492 14.1772V53.7661C158.492 54.4119 159.014 54.9354 159.658 54.9354H159.8C160.444 54.9354 160.966 54.4119 160.966 53.7661V14.1772C160.966 13.5314 160.444 13.0078 159.8 13.0078Z" fill="#E1E1E1"/>
<path d="M159.796 54.9298C159.78 54.9024 160.141 54.9793 160.574 54.5895C161.083 54.1997 160.88 53.2664 160.908 52.1848C160.897 49.9723 160.88 46.7991 160.864 42.8846C160.853 38.9538 160.847 34.2817 160.831 29.0881C160.831 26.4913 160.831 23.7682 160.82 20.9409C160.82 19.5299 160.82 18.0915 160.82 16.6311C160.82 15.901 160.82 15.1653 160.82 14.4296C160.82 14.2375 160.831 14.0673 160.787 13.9136C160.749 13.7544 160.667 13.6061 160.557 13.4853C160.333 13.2328 160.021 13.1175 159.66 13.1395C159.331 13.1395 159.008 13.3042 158.822 13.5732C158.724 13.7049 158.669 13.8642 158.641 14.0234C158.62 14.1771 158.636 14.3802 158.631 14.5614C158.631 15.3026 158.631 16.0382 158.631 16.7684C158.631 18.2288 158.631 19.6672 158.631 21.0781C158.631 23.9055 158.625 26.6286 158.62 29.2254C158.609 34.4135 158.598 39.091 158.587 43.0219C158.57 46.9363 158.554 50.1096 158.543 52.3221C158.543 52.8711 158.532 53.3542 158.532 53.7824C158.532 54.1942 158.756 54.5126 158.981 54.6773C159.205 54.8475 159.43 54.8969 159.572 54.9134C159.72 54.9244 159.796 54.9244 159.796 54.9298C159.796 54.9298 159.72 54.9463 159.572 54.9408C159.424 54.9353 159.194 54.8969 158.948 54.7212C158.713 54.5565 158.461 54.2271 158.45 53.7824C158.45 53.3597 158.439 52.8711 158.433 52.3221C158.423 50.1096 158.406 46.9363 158.39 43.0219C158.379 39.091 158.373 34.4135 158.357 29.2254C158.357 26.6286 158.357 23.9055 158.346 21.0781C158.346 19.6672 158.346 18.2288 158.346 16.7684C158.346 16.0382 158.346 15.3026 158.346 14.5614C158.346 14.3692 158.335 14.2045 158.362 13.9849C158.39 13.7818 158.466 13.5787 158.592 13.4085C158.833 13.0626 159.244 12.8485 159.665 12.854C160.048 12.821 160.508 12.9748 160.776 13.2932C160.918 13.4469 161.017 13.6391 161.066 13.8367C161.121 14.0453 161.105 14.2485 161.11 14.4241C161.11 15.1653 161.11 15.901 161.11 16.6257C161.11 18.086 161.11 19.5244 161.11 20.9354C161.11 23.7573 161.105 26.4858 161.099 29.0826C161.088 34.2707 161.077 38.9483 161.066 42.8792C161.05 46.7936 161.033 49.9668 161.022 52.1793C161.022 52.7283 161.012 53.2115 161.012 53.6397C161.033 54.0734 160.842 54.4357 160.617 54.6279C160.152 55.0177 159.78 54.9134 159.802 54.9244L159.796 54.9298Z" fill="#1A2E35"/>
<path d="M169.316 13.0078H169.174C168.53 13.0078 168.008 13.5314 168.008 14.1772V53.7661C168.008 54.4119 168.53 54.9354 169.174 54.9354H169.316C169.96 54.9354 170.482 54.4119 170.482 53.7661V14.1772C170.482 13.5314 169.96 13.0078 169.316 13.0078Z" fill="#E1E1E1"/>
<path d="M169.312 54.9298C169.296 54.9024 169.657 54.9793 170.089 54.5895C170.598 54.1997 170.396 53.2664 170.423 52.1848C170.412 49.9723 170.396 46.7991 170.379 42.8846C170.368 38.9538 170.363 34.2817 170.347 29.0881C170.347 26.4913 170.347 23.7682 170.336 20.9409C170.336 19.5299 170.336 18.0915 170.336 16.6311C170.336 15.901 170.336 15.1653 170.336 14.4296C170.336 14.2375 170.347 14.0673 170.303 13.9136C170.264 13.7544 170.188 13.6061 170.073 13.4853C169.848 13.2328 169.536 13.1175 169.175 13.1395C168.847 13.1395 168.524 13.3042 168.338 13.5732C168.239 13.7049 168.184 13.8642 168.157 14.0234C168.135 14.1771 168.152 14.3802 168.146 14.5614C168.146 15.3026 168.146 16.0382 168.146 16.7684C168.146 18.2288 168.146 19.6672 168.146 21.0781C168.146 23.9055 168.141 26.6286 168.135 29.2254C168.124 34.4135 168.113 39.091 168.102 43.0219C168.086 46.9363 168.07 50.1096 168.059 52.3221C168.059 52.8711 168.048 53.3542 168.048 53.7824C168.048 54.1942 168.272 54.5126 168.496 54.6773C168.721 54.8475 168.945 54.8969 169.088 54.9134C169.235 54.9244 169.312 54.9244 169.312 54.9298C169.312 54.9298 169.235 54.9463 169.088 54.9408C168.94 54.9353 168.71 54.8969 168.464 54.7212C168.228 54.5565 167.976 54.2271 167.966 53.7824C167.966 53.3597 167.955 52.8711 167.949 52.3221C167.938 50.1096 167.922 46.9363 167.905 43.0219C167.894 39.091 167.889 34.4135 167.872 29.2254C167.872 26.6286 167.872 23.9055 167.862 21.0781C167.862 19.6672 167.862 18.2288 167.862 16.7684C167.862 16.0382 167.862 15.3026 167.862 14.5614C167.862 14.3692 167.851 14.2045 167.878 13.9849C167.905 13.7818 167.982 13.5787 168.108 13.4085C168.349 13.0626 168.759 12.8485 169.181 12.854C169.564 12.821 170.024 12.9748 170.292 13.2932C170.434 13.4469 170.533 13.6391 170.582 13.8367C170.637 14.0453 170.62 14.2485 170.626 14.4241C170.626 15.1653 170.626 15.901 170.626 16.6257C170.626 18.086 170.626 19.5244 170.626 20.9354C170.626 23.7573 170.62 26.4858 170.615 29.0826C170.604 34.2707 170.593 38.9483 170.582 42.8792C170.565 46.7936 170.549 49.9668 170.538 52.1793C170.538 52.7283 170.527 53.2115 170.527 53.6397C170.549 54.0734 170.357 54.4357 170.133 54.6279C169.668 55.0177 169.296 54.9134 169.318 54.9244L169.312 54.9298Z" fill="#1A2E35"/>
<path d="M178.824 13.0078H178.681C178.038 13.0078 177.516 13.5314 177.516 14.1772V53.7661C177.516 54.4119 178.038 54.9354 178.681 54.9354H178.824C179.468 54.9354 179.99 54.4119 179.99 53.7661V14.1772C179.99 13.5314 179.468 13.0078 178.824 13.0078Z" fill="#E1E1E1"/>
<path d="M178.82 54.9298C178.803 54.9024 179.165 54.9793 179.597 54.5895C180.106 54.1997 179.904 53.2664 179.931 52.1848C179.92 49.9723 179.904 46.7991 179.887 42.8846C179.876 38.9538 179.871 34.2817 179.854 29.0881C179.854 26.4913 179.854 23.7682 179.843 20.9409C179.843 19.5299 179.843 18.0915 179.843 16.6311C179.843 15.901 179.843 15.1653 179.843 14.4296C179.843 14.2375 179.854 14.0673 179.811 13.9136C179.772 13.7544 179.69 13.6061 179.581 13.4853C179.356 13.2328 179.044 13.1175 178.683 13.1395C178.355 13.1395 178.032 13.3042 177.846 13.5732C177.747 13.7049 177.692 13.8642 177.665 14.0234C177.643 14.1771 177.659 14.3802 177.654 14.5614C177.654 15.3026 177.654 16.0382 177.654 16.7684C177.654 18.2288 177.654 19.6672 177.654 21.0781C177.654 23.9055 177.649 26.6286 177.643 29.2254C177.632 34.4135 177.621 39.091 177.61 43.0219C177.594 46.9363 177.577 50.1096 177.566 52.3221C177.566 52.8711 177.555 53.3542 177.555 53.7824C177.555 54.1942 177.78 54.5126 178.004 54.6773C178.229 54.8475 178.453 54.8969 178.595 54.9134C178.743 54.9244 178.82 54.9244 178.82 54.9298C178.82 54.9298 178.743 54.9463 178.595 54.9408C178.448 54.9353 178.218 54.8969 177.971 54.7212C177.736 54.5565 177.484 54.2271 177.473 53.7824C177.473 53.3597 177.462 52.8711 177.457 52.3221C177.446 50.1096 177.43 46.9363 177.413 43.0219C177.402 39.091 177.397 34.4135 177.38 29.2254C177.38 26.6286 177.38 23.9055 177.369 21.0781C177.369 19.6672 177.369 18.2288 177.369 16.7684C177.369 16.0382 177.369 15.3026 177.369 14.5614C177.369 14.3692 177.358 14.2045 177.386 13.9849C177.413 13.7818 177.49 13.5787 177.616 13.4085C177.856 13.0626 178.267 12.8485 178.688 12.854C179.072 12.821 179.531 12.9748 179.8 13.2932C179.942 13.4469 180.04 13.6391 180.09 13.8367C180.144 14.0453 180.128 14.2485 180.133 14.4241C180.133 15.1653 180.133 15.901 180.133 16.6257C180.133 18.086 180.133 19.5244 180.133 20.9354C180.133 23.7573 180.128 26.4858 180.123 29.0826C180.112 34.2707 180.101 38.9483 180.09 42.8792C180.073 46.7936 180.057 49.9668 180.046 52.1793C180.046 52.7283 180.035 53.2115 180.035 53.6397C180.057 54.0734 179.865 54.4357 179.641 54.6279C179.176 55.0177 178.803 54.9134 178.825 54.9244L178.82 54.9298Z" fill="#1A2E35"/>
<path d="M159.703 27.832H158.986C157.732 27.832 156.715 28.8521 156.715 30.1104V30.3739C156.715 31.6322 157.732 32.6523 158.986 32.6523H159.703C160.958 32.6523 161.975 31.6322 161.975 30.3739V30.1104C161.975 28.8521 160.958 27.832 159.703 27.832Z" fill="#FF735D"/>
<path d="M169.836 36.9238H169.119C167.865 36.9238 166.848 37.9439 166.848 39.2022V39.4657C166.848 40.724 167.865 41.7441 169.119 41.7441H169.836C171.091 41.7441 172.108 40.724 172.108 39.4657V39.2022C172.108 37.9439 171.091 36.9238 169.836 36.9238Z" fill="#FF735D"/>
<path d="M179.004 19.7949H178.287C177.033 19.7949 176.016 20.815 176.016 22.0733V22.3368C176.016 23.5951 177.033 24.6152 178.287 24.6152H179.004C180.259 24.6152 181.276 23.5951 181.276 22.3368V22.0733C181.276 20.815 180.259 19.7949 179.004 19.7949Z" fill="#FF735D"/>
<path d="M93.6829 20.4568C93.2778 9.36136 83.9782 0.698038 72.9162 1.10979C61.8541 1.52155 53.2168 10.8437 53.6273 21.9391C54.0378 33.0345 63.332 41.6978 74.394 41.2861C78.4828 41.1324 82.2431 39.7599 85.3357 37.5309L92.6046 40.2265L90.0977 32.6886C92.5006 29.2299 93.8471 24.9916 93.6829 20.4568Z" fill="#FAFAFA"/>
<path d="M93.6838 20.4576C93.6838 20.4576 93.6948 20.5345 93.7003 20.6772C93.7003 20.831 93.7112 21.0506 93.7221 21.3306C93.7221 21.907 93.7057 22.7635 93.5689 23.867C93.2897 26.052 92.5125 29.3296 90.1698 32.7334L90.1808 32.6566C90.9252 34.88 91.7736 37.4164 92.7041 40.1889L92.7697 40.3921L92.5672 40.3152C90.3395 39.4972 87.8928 38.5913 85.2929 37.636L85.2327 37.6141L85.2162 37.5537L85.3969 37.6141C83.1746 39.2227 80.4816 40.4634 77.4985 41.0454C76.7541 41.1881 75.9933 41.2924 75.2215 41.3583C74.4497 41.4297 73.667 41.3967 72.8733 41.3858C72.6763 41.3858 72.4792 41.3858 72.2767 41.3748L71.6856 41.3089C71.2915 41.265 70.8919 41.2156 70.4869 41.1716C70.0873 41.1222 69.6932 41.0069 69.2991 40.9301C68.905 40.8313 68.4945 40.7819 68.1059 40.6446C67.3286 40.3756 66.524 40.1725 65.7687 39.8046C65.3855 39.6344 64.9969 39.4752 64.6192 39.294C64.2525 39.0909 63.8858 38.8823 63.5136 38.6737L62.9607 38.3607L62.4353 37.9984C62.085 37.7568 61.7346 37.5098 61.3789 37.2627C61.0505 36.9827 60.722 36.7082 60.3881 36.4282L59.8901 36.0055L59.4357 35.5388C59.1347 35.2259 58.8227 34.9185 58.5217 34.5946C58.248 34.2542 57.9688 33.9083 57.6952 33.5624C57.5583 33.3867 57.4105 33.222 57.2846 33.0409L56.9179 32.4864C56.6771 32.113 56.4143 31.7507 56.1954 31.3609C55.7904 30.5648 55.3196 29.7907 55.0186 28.9398C54.8599 28.5171 54.6519 28.1108 54.5314 27.6716C54.4001 27.2379 54.2742 26.7987 54.1428 26.3595C52.9769 21.8137 53.371 16.9769 55.2321 12.9527C56.1407 10.9379 57.3339 9.08771 58.7734 7.51755C60.2239 5.95837 61.877 4.66272 63.623 3.63608C65.38 2.60394 67.2629 1.94514 69.124 1.48397C69.5947 1.39613 70.0654 1.3028 70.5307 1.21496C70.9959 1.11065 71.4666 1.11614 71.9319 1.06124C72.8569 0.940454 73.7765 0.995355 74.6796 1.00634C78.2922 1.18751 81.5435 2.37336 84.1544 3.95999C86.7707 5.57407 88.7248 7.62735 90.1151 9.61476C90.438 10.1308 90.7883 10.6085 91.062 11.1026C91.3247 11.6022 91.5765 12.0853 91.8173 12.5519C92.0363 13.0241 92.206 13.4962 92.3866 13.9354C92.4687 14.155 92.5727 14.3692 92.6384 14.5833C92.7041 14.8029 92.7643 15.0115 92.8245 15.2201C92.9449 15.6319 93.0544 16.0217 93.1638 16.384C93.235 16.7573 93.3007 17.1087 93.3609 17.4326C93.4211 17.7565 93.4758 18.053 93.5251 18.3275C93.5634 18.602 93.5689 18.8545 93.5908 19.0796C93.6236 19.5243 93.6455 19.8592 93.6674 20.1008C93.6838 20.3314 93.6838 20.4467 93.6838 20.4467C93.6838 20.4467 93.6619 20.3314 93.64 20.1008C93.6181 19.8592 93.5798 19.5243 93.536 19.0851C93.5087 18.86 93.4977 18.613 93.4594 18.3385C93.4047 18.064 93.3445 17.7675 93.2843 17.4491C93.2186 17.1252 93.1529 16.7793 93.0763 16.4115C92.9668 16.0491 92.8518 15.6648 92.726 15.2585C92.6657 15.0554 92.6001 14.8468 92.5344 14.6272C92.4687 14.4131 92.3647 14.2045 92.2771 13.9848C92.091 13.5511 91.9213 13.0845 91.7024 12.6178C91.4616 12.1621 91.2043 11.6845 90.9416 11.1849C90.6624 10.6963 90.3176 10.2242 89.9946 9.71358C88.5989 7.74814 86.6558 5.7223 84.0613 4.13567C81.4668 2.57649 78.2484 1.41809 74.6796 1.2479C73.7874 1.2479 72.8788 1.18751 71.9647 1.31378C71.5104 1.36868 71.0397 1.36319 70.5854 1.4675C70.1256 1.55534 69.6658 1.64318 69.1951 1.73651C67.3615 2.19768 65.5005 2.851 63.7653 3.87215C62.0412 4.88781 60.41 6.17249 58.9814 7.7097C57.5638 9.26339 56.387 11.0861 55.4948 13.0735C53.6666 17.0483 53.278 21.8082 54.4274 26.2936C54.5533 26.7273 54.6847 27.1555 54.8106 27.5837C54.931 28.0175 55.1335 28.4182 55.2923 28.8355C55.5933 29.6755 56.0531 30.4386 56.4527 31.2237C56.6716 31.608 56.9289 31.9648 57.1642 32.3326L57.5255 32.8817C57.6459 33.0628 57.7937 33.222 57.9305 33.3977C58.2042 33.7381 58.4779 34.0785 58.7461 34.4134C59.0471 34.7263 59.3482 35.0338 59.6492 35.3412L60.098 35.8024L60.5852 36.2196C60.9136 36.4941 61.2365 36.7686 61.5595 37.0431C61.9098 37.2847 62.2546 37.5262 62.5995 37.7678L63.1195 38.1302L63.6668 38.4376C64.0335 38.6407 64.3948 38.8439 64.7561 39.047C65.1283 39.2282 65.5114 39.3819 65.8891 39.5521C66.628 39.9199 67.4272 40.1176 68.1934 40.3811C68.5766 40.5183 68.9762 40.5677 69.3703 40.6666C69.7644 40.7434 70.1475 40.8532 70.5416 40.9081C70.9357 40.952 71.3298 41.0015 71.7239 41.0454L72.3096 41.1113C72.5066 41.1222 72.7037 41.1222 72.8952 41.1222C73.678 41.1277 74.4497 41.1662 75.2106 41.0948C75.9714 41.0344 76.7267 40.9301 77.4602 40.7928C80.405 40.2274 83.0706 39.0086 85.271 37.4219L85.4133 37.3231L85.4516 37.4933L85.3804 37.4164C87.9749 38.3827 90.4216 39.294 92.6439 40.1176L92.5125 40.2493C91.5984 37.4713 90.761 34.9294 90.0275 32.706L90.0165 32.6675L90.0384 32.6346C92.3811 29.2692 93.1803 26.0246 93.4868 23.8505C93.64 22.7525 93.6619 21.9015 93.6838 21.3251C93.6838 21.0451 93.6838 20.831 93.6838 20.6717C93.6838 20.5235 93.6893 20.4521 93.6893 20.4521L93.6838 20.4576Z" fill="#1A2E35"/>
<path d="M65.7057 9.78516L67.9827 11.6682L68.3932 13.1396L75.2625 20.5731L74.5071 21.3033L67.8184 13.8807L66.357 13.2384L64.6055 10.8338L65.7057 9.78516Z" fill="#E1E1E1"/>
<path d="M65.7065 9.78516C65.7065 9.78516 65.608 9.90045 65.4328 10.0871C65.2303 10.2902 64.973 10.5538 64.6556 10.8777V10.7953C65.1208 11.4047 65.7229 12.2118 66.44 13.178L66.4016 13.1451C66.8505 13.3427 67.3486 13.5513 67.8686 13.7764L67.8905 13.7874L67.9069 13.8039C69.7077 15.7858 71.9901 18.3057 74.4751 21.0508L74.6175 21.21H74.4149C74.6722 20.9574 74.924 20.7104 75.1703 20.4688V20.6665C72.4882 17.7458 70.0963 15.1325 68.3283 13.2055L68.3119 13.189V13.167C68.1641 12.6235 68.0328 12.1349 67.9123 11.6902L67.9397 11.7341C67.261 11.1467 66.7136 10.6745 66.3031 10.3287C66.128 10.175 65.9857 10.0432 65.8652 9.93888C65.7667 9.84555 65.712 9.79614 65.712 9.79065C65.712 9.77418 65.92 9.93339 66.3195 10.2408C66.7465 10.5812 67.3267 11.0369 68.0437 11.6079L68.0656 11.6243V11.6518C68.2024 12.0965 68.3448 12.5796 68.498 13.1231L68.4761 13.0847C70.2605 14.9952 72.6798 17.592 75.3783 20.4853L75.4713 20.5896L75.3728 20.6884C75.1265 20.93 74.8692 21.1716 74.6175 21.4186L74.5135 21.5229L74.4149 21.4131L74.2726 21.2539C71.804 18.4979 69.5325 15.9615 67.7481 13.9686L67.7865 13.996C67.2665 13.76 66.7793 13.5404 66.3305 13.3372L66.3031 13.3262L66.2867 13.3043C65.5916 12.3216 65.0114 11.4981 64.568 10.8777L64.5352 10.8338L64.5735 10.8008C64.9238 10.4879 65.2029 10.2353 65.4219 10.0377C65.6134 9.86751 65.712 9.79065 65.712 9.80163L65.7065 9.78516Z" fill="#1A2E35"/>
<path d="M75.5748 18.5467L76.2864 19.2988C76.2864 19.2988 76.1058 19.7051 76.3795 19.9741C76.6531 20.2431 77.091 20.1608 77.091 20.1608L83.9932 27.7865C84.6828 28.5496 84.6226 29.7354 83.8509 30.4217L83.4404 30.784C82.685 31.4538 81.5356 31.3934 80.8568 30.6468L73.9273 23.0705C73.9273 23.0705 74.0641 22.6093 73.6919 22.3623C73.3197 22.1152 73.057 22.225 73.057 22.225L72.4056 21.4839C72.1593 21.2039 72.1812 20.7756 72.4549 20.5231L74.6115 18.5137C74.8852 18.2557 75.3176 18.2722 75.5803 18.5467H75.5748Z" fill="#FF735D"/>
<g opacity="0.3">
<path d="M83.2641 28.6923L76.8108 21.6431C76.6794 21.5003 76.6904 21.2807 76.8327 21.149C76.975 21.0172 77.1939 21.0282 77.3253 21.1709L83.7786 28.2202C83.91 28.3629 83.8991 28.5825 83.7568 28.7143C83.6144 28.846 83.3955 28.8351 83.2641 28.6923Z" fill="black"/>
</g>
<g opacity="0.3">
<path d="M82.3344 29.5497L75.8811 22.5005C75.7498 22.3578 75.7607 22.1382 75.903 22.0064C76.0453 21.8746 76.2643 21.8856 76.3956 22.0284L82.849 29.0776C82.9803 29.2203 82.9694 29.4399 82.8271 29.5717C82.6848 29.7035 82.4658 29.6925 82.3344 29.5497Z" fill="black"/>
</g>
<g opacity="0.3">
<path d="M81.3462 30.4658L74.8928 23.4165C74.7615 23.2738 74.7724 23.0542 74.9147 22.9224C75.057 22.7906 75.276 22.8016 75.4074 22.9444L81.8607 29.9936C81.992 30.1364 81.9811 30.356 81.8388 30.4877C81.6965 30.6195 81.4775 30.6085 81.3462 30.4658Z" fill="black"/>
</g>
<path d="M76.2874 19.299C76.2874 19.299 75.5813 19.9688 74.6836 20.7758C73.7914 21.5828 73.0579 22.2307 73.047 22.2197C73.0361 22.2087 73.7531 21.5499 74.6508 20.7429C75.5429 19.9358 76.2764 19.288 76.2874 19.299Z" fill="#1A2E35"/>
<path d="M77.0966 20.172C77.0966 20.172 76.4014 20.8418 75.5257 21.6434C74.6499 22.4449 73.9274 23.0872 73.9219 23.0763C73.9164 23.0653 74.6171 22.4065 75.4983 21.6049C76.3741 20.8034 77.0966 20.161 77.102 20.172H77.0966Z" fill="#1A2E35"/>
<path d="M74.2784 22.6588C74.2784 22.6588 74.2456 22.5984 74.1963 22.505C74.147 22.4117 74.0595 22.2964 73.939 22.1866C73.8186 22.0823 73.6873 22.0109 73.5887 21.9725C73.4902 21.9341 73.4245 21.9176 73.43 21.9121C73.43 21.9121 73.4957 21.9121 73.6052 21.9396C73.7092 21.9725 73.846 22.0384 73.9719 22.1482C74.0978 22.258 74.1854 22.3843 74.2291 22.4831C74.2729 22.5819 74.2839 22.6478 74.2839 22.6533L74.2784 22.6588Z" fill="#1A2E35"/>
<path d="M74.5578 22.3293C74.5578 22.3293 74.41 22.1481 74.2184 21.945C74.0214 21.7419 73.8462 21.5936 73.8517 21.5827C73.8572 21.5717 74.0542 21.7034 74.2513 21.9121C74.4483 22.1207 74.5687 22.3238 74.5578 22.3293Z" fill="#1A2E35"/>
<path d="M74.859 22.0989C74.859 22.0989 74.6839 21.9342 74.4868 21.7146C74.2898 21.495 74.142 21.3083 74.1529 21.2974C74.1639 21.2864 74.3281 21.4621 74.5251 21.6817C74.7222 21.9013 74.87 22.0879 74.859 22.0989Z" fill="#1A2E35"/>
<path d="M75.22 21.7425C75.22 21.7425 75.0339 21.5998 74.8368 21.3911C74.6398 21.1825 74.4975 20.9958 74.5084 20.9849C74.5194 20.9739 74.6781 21.1496 74.8697 21.3582C75.0667 21.5668 75.2254 21.737 75.2145 21.7425H75.22Z" fill="#1A2E35"/>
<path d="M75.5094 21.4182C75.5094 21.4182 75.3015 21.3303 75.1208 21.1217C74.9402 20.9131 74.869 20.699 74.88 20.6935C74.8909 20.688 74.9785 20.8856 75.1537 21.0888C75.3288 21.2919 75.5149 21.4072 75.504 21.4182H75.5094Z" fill="#1A2E35"/>
<path d="M75.9852 21.1113C75.9852 21.1113 75.7498 21.0235 75.5418 20.7929C75.3338 20.5678 75.2517 20.3263 75.2627 20.3263C75.2736 20.3208 75.3722 20.5459 75.5801 20.76C75.7827 20.9796 75.9961 21.0949 75.9907 21.1113H75.9852Z" fill="#1A2E35"/>
<path d="M76.1485 20.6666C76.1485 20.6666 75.9514 20.6007 75.7982 20.4086C75.6449 20.2164 75.6121 20.0078 75.623 20.0078C75.6394 20.0078 75.6832 20.1945 75.831 20.3756C75.9733 20.5623 76.1485 20.6556 76.143 20.6666H76.1485Z" fill="#1A2E35"/>
<path d="M76.7908 20.479C76.7908 20.479 76.7197 20.4899 76.6102 20.4735C76.5007 20.4515 76.3529 20.3966 76.2216 20.2868C76.0902 20.177 76.0081 20.0398 75.9698 19.9354C75.9315 19.8311 75.926 19.7598 75.9315 19.7598C75.937 19.7598 75.9534 19.8256 76.0026 19.919C76.0464 20.0178 76.1285 20.1441 76.2544 20.2484C76.3803 20.3527 76.5172 20.4131 76.6212 20.4405C76.7252 20.468 76.7908 20.4735 76.7908 20.479Z" fill="#1A2E35"/>
<path d="M85.7335 11.7896L85.531 11.5645L82.931 14.2711L80.561 11.8939L83.0624 9.29158L82.8599 9.06649C82.1647 8.93473 80.2271 8.9512 78.7 10.6806C77.1947 12.388 77.972 14.6389 77.972 14.6389L75.1914 17.4553L77.5998 19.7172L80.3913 16.9502C80.3913 16.9502 82.9967 17.7518 84.6661 15.9071C86.1878 14.2326 85.7335 11.7896 85.7335 11.7896Z" fill="#1A2E35"/>
<path d="M73.2821 23.7408L70.8792 21.4844L67.7647 24.5753C67.7647 24.5753 64.902 24.0043 63.4899 25.6184C62.2419 27.0403 62.1051 28.8136 62.1872 29.4889C62.209 29.6756 62.4225 29.7359 62.4225 29.7359L65.225 27.2544L67.595 29.6316L64.8637 32.0088L65.0936 32.2339C65.0936 32.2339 67.5403 33.019 69.456 30.8449C70.9613 29.1375 70.184 26.8866 70.184 26.8866L73.2821 23.7408Z" fill="#1A2E35"/>
<path d="M85.5304 11.5638L82.7279 14.0453L80.3578 11.6681L82.8593 9.0658C82.8593 9.0658 80.4126 8.28072 78.4968 10.4548C76.9916 12.1622 77.7689 14.4131 77.7689 14.4131L74.9883 17.2295L77.3967 19.4914L80.1882 16.7244C80.1882 16.7244 82.7936 17.526 84.463 15.6813C85.9847 14.0069 85.5304 11.5638 85.5304 11.5638Z" fill="#375A64"/>
<path d="M73.0504 23.5162L70.6475 21.2598L67.533 24.3507C67.533 24.3507 64.6704 23.7797 63.2582 25.3938C61.6709 27.2 62.1908 29.5113 62.1908 29.5113L64.9933 27.0298L67.3634 29.407L64.8619 32.0093C64.8619 32.0093 67.3086 32.7944 69.2244 30.6203C70.7296 28.9129 69.9524 26.662 69.9524 26.662L73.0504 23.5162Z" fill="#375A64"/>
</g>
<defs>
<filter id="filter0_d_0_1" x="-89" y="-245" width="1382" height="1357" filterUnits="userSpaceOnUse" color-interpolation-filters="sRGB">
<feFlood flood-opacity="0" result="BackgroundImageFix"/>
<feColorMatrix in="SourceAlpha" type="matrix" values="0 0 0 0 0 0 0 0 0 0 0 0 0 0 0 0 0 0 127 0" result="hardAlpha"/>
<feOffset dx="2"/>
<feGaussianBlur stdDeviation="10.5"/>
<feComposite in2="hardAlpha" operator="out"/>
<feColorMatrix type="matrix" values="0 0 0 0 0 0 0 0 0 0 0 0 0 0 0 0 0 0 0.25 0"/>
<feBlend mode="normal" in2="BackgroundImageFix" result="effect1_dropShadow_0_1"/>
<feBlend mode="normal" in="SourceGraphic" in2="effect1_dropShadow_0_1" result="shape"/>
</filter>
<clipPath id="clip0_0_1">
<rect width="1440" height="1024" fill="white" transform="translate(-170 -299)"/>
</clipPath>
</defs>
</svg>
