<svg width="40" height="40" viewBox="0 0 40 40" fill="none" xmlns="http://www.w3.org/2000/svg">
<path d="M18.9658 25.4953L29.1181 35.6477C30.9212 37.4508 33.8446 37.4508 35.6477 35.6477C37.4508 33.8446 37.4508 30.9212 35.6477 29.1181L25.4151 18.8856M18.9658 25.4953L23.3121 20.2177C23.8623 19.5495 24.5983 19.1292 25.4151 18.8856M18.9658 25.4953L10.8604 35.3376C10.0177 36.3608 8.76161 36.9536 7.43605 36.9536C4.98609 36.9536 3 34.9675 3 32.5175C3 31.192 3.59278 29.9359 4.61602 29.0932L16.5198 19.2901M25.4151 18.8856C26.3717 18.6003 27.4392 18.5574 28.4493 18.6427C28.6698 18.6614 28.8929 18.6709 29.1181 18.6709C33.4455 18.6709 36.9536 15.1628 36.9536 10.8354C36.9536 9.68578 36.706 8.59394 36.2612 7.61036L30.5567 13.3149C28.6141 12.8689 27.0849 11.3398 26.639 9.39715L32.3436 3.69254C31.3599 3.24766 30.2679 3 29.1181 3C24.7908 3 21.2827 6.50805 21.2827 10.8354C21.2827 11.0607 21.2922 11.2838 21.3108 11.5043C21.4691 13.3768 21.1866 15.4469 19.7359 16.6415L19.5582 16.7879M16.5198 19.2901L9.3711 12.1414H6.91772L3 5.61181L5.61181 3L12.1414 6.91772V9.3711L19.5582 16.7879M16.5198 19.2901L19.5582 16.7879M31.077 31.077L26.5063 26.5063M7.55715 32.383H7.57021V32.3961H7.55715V32.383Z" stroke="white" stroke-linecap="round" stroke-linejoin="round"/>
</svg>
