<svg width="26" height="26" viewBox="0 0 26 26" fill="none" xmlns="http://www.w3.org/2000/svg">
<path d="M16.3631 5.96308C17.3784 4.94772 19.0247 4.94772 20.04 5.96308C21.0554 6.97845 21.0554 8.62468 20.04 9.64004L16.14 13.54C15.1247 14.5554 13.4784 14.5554 12.4631 13.54C11.9554 13.0324 11.1323 13.0324 10.6246 13.54C10.1169 14.0477 10.1169 14.8708 10.6246 15.3785C12.6553 17.4092 15.9478 17.4092 17.9785 15.3785L21.8785 11.4785C23.9092 9.44779 23.9092 6.15533 21.8785 4.12461C19.8478 2.09388 16.5553 2.09388 14.5246 4.12461L12.5746 6.07461C12.0669 6.58229 12.0669 7.4054 12.5746 7.91308C13.0823 8.42077 13.9054 8.42077 14.4131 7.91308L16.3631 5.96308Z" fill="#ED7D31"/>
<path d="M9.86308 12.4631C10.8784 11.4477 12.5247 11.4477 13.54 12.4631C14.0477 12.9708 14.8708 12.9708 15.3785 12.4631C15.8862 11.9554 15.8862 11.1323 15.3785 10.6246C13.3478 8.59388 10.0553 8.59388 8.02461 10.6246L4.12461 14.5246C2.09388 16.5553 2.09388 19.8478 4.12461 21.8785C6.15533 23.9092 9.44779 23.9092 11.4785 21.8785L13.4285 19.9285C13.9362 19.4208 13.9362 18.5977 13.4285 18.09C12.9208 17.5824 12.0977 17.5824 11.59 18.09L9.64004 20.04C8.62468 21.0554 6.97845 21.0554 5.96308 20.04C4.94772 19.0247 4.94772 17.3784 5.96309 16.3631L9.86308 12.4631Z" fill="#ED7D31"/>
</svg>
