<svg width="204" height="358" viewBox="0 0 204 358" fill="none" xmlns="http://www.w3.org/2000/svg">
<path d="M84.2069 118.275C85.136 117.126 85.9612 115.783 86.6519 114.303C88.3499 118.275 89.1111 122.554 106.238 126.274C126.41 127.882 134.65 125.864 143.537 122.554C146.593 131.748 157.089 139.596 163.709 140.442C160.139 134.678 152.679 126.145 152.495 118.275C155.209 116.703 157.843 112.247 159.366 102.382C161.657 87.5386 161.664 64.7948 159.366 50.1583C157.196 36.2205 153.742 26.089 146.701 16.8952C139.659 7.70143 133.791 2.98502 122.245 1.02675C112.306 -0.812006 102.233 -0.177635 92.4282 2.90228C82.5932 6.15688 73.1984 14.1371 67.0798 26.613C60.1972 40.6519 57.9906 60.014 61.3524 76.9122C63.6996 88.5239 68.4734 98.6922 74.971 105.891C75.5822 113.926 72.905 121.07 69.048 127.882L73.614 126.274C77.5199 124.922 81.1446 122.173 84.2008 118.275H84.2069Z" fill="#E0E0E0"/>
<path d="M135.863 33.8438L136.251 33.9351L136.701 34.0264L135.863 33.8438Z" fill="#F5F5F5"/>
<path d="M78.9793 232.146C84.8939 231.964 82.1078 223.286 81.9632 213.878C81.8719 207.963 77.9441 202.155 73.6509 198.075C71.4738 196.149 68.9009 194.718 66.1225 193.873C58.7465 191.506 50.9061 191.003 43.2864 192.404C43.2864 192.404 41.528 233.334 78.9793 232.146Z" fill="#455A64"/>
<path d="M95.7265 130.355C95.559 130.629 93.7017 134.161 93.7017 134.161L95.2241 128.209C95.7037 126.328 94.539 126.526 94.2041 127.196C93.8692 127.866 91.7454 133.545 91.7454 133.545C93.7169 126.153 93.1004 125.506 92.5066 125.384C91.9129 125.263 90.223 132.03 90.223 132.03C89.7739 131.261 89.1649 130.591 88.4418 130.073C86.6529 128.848 83.6766 130.073 83.532 130.918C83.3874 131.763 84.4531 131.992 84.4531 131.992C85.6329 131.093 87.3228 131.329 88.221 132.509C88.6321 133.057 88.8224 133.742 88.7463 134.428C88.6625 135.349 87.8404 136.026 86.927 135.942C86.2419 135.881 85.671 135.409 85.4731 134.747C84.7119 131.413 83.5929 132.502 83.5929 132.502L84.7423 139.847L83.5244 143.547L76.9247 161.526L64.2126 148.289C64.2126 148.289 57.4151 163.308 57.2552 163.818C57.1486 164.153 63.6265 170.897 67.9121 175.274C72.5402 180.039 80.1599 180.146 84.9174 175.51C86.5616 173.911 87.7186 171.871 88.2439 169.633L93.2678 143.752L95.6199 135.265L96.6704 131.017C96.914 129.967 96.168 129.632 95.7265 130.355Z" fill="#FFBE9D"/>
<path d="M42.6101 317.177C42.6101 317.177 37.8145 312.891 29.1291 312.541V236.062H25.9092V312.586C17.5969 313.188 12.6719 317.154 12.6719 317.154H25.9092V317.207H29.1291V317.154L42.6101 317.177Z" fill="#263238"/>
<path d="M22.2483 156.234C18.7163 155.915 15.1235 155.633 11.6371 156.333C8.15082 157.034 4.74823 158.845 2.8985 161.875C1.04878 164.905 0.972656 168.726 0.972656 172.265V217.443H41.3165L22.2483 156.234Z" fill="#455A64"/>
<path d="M0.971252 215.359C0.788563 224.265 1.61828 231.504 8.19509 234.998C13.1125 237.624 19.0651 237.685 24.7208 237.677L49.2316 237.639C51.7132 237.639 54.3774 237.586 56.4022 236.238C58.5716 234.686 59.6525 232.014 59.1806 229.388C58.8 226.853 57.2852 224.569 55.4507 222.666C48.3715 215.298 37.1818 213.113 26.7761 211.324" fill="#455A64"/>
<path d="M31.6036 114.778C31.8548 115.577 31.4133 116.438 30.6064 116.689C30.241 116.803 29.8452 116.78 29.5027 116.613C28.5055 116.126 28.3685 114.763 28.5512 113.667C28.7339 112.571 29.084 111.383 28.6121 110.394C28.1477 109.686 27.5692 109.054 26.8917 108.544C25.8261 107.486 25.3084 105.986 25.5064 104.494C25.7499 103.002 26.8004 101.762 28.2391 101.29C29.693 100.863 31.4894 101.29 32.5627 100.224C33.3239 99.4627 33.3696 98.1991 33.9633 97.2857C34.892 95.8546 36.8788 95.611 38.5686 95.8166C40.2585 96.0221 41.9788 96.5778 43.623 96.121C44.9932 95.7557 46.1122 94.7813 47.4291 94.1724C51.1513 92.4216 55.5816 94.0125 57.3323 97.7348C58.3143 99.8129 58.2762 102.226 57.241 104.274C56.7386 105.256 55.7186 108.08 52.5824 108.08" fill="#263238"/>
<path d="M30.9414 102.961L30.9871 105.245L31.4438 139.156C31.4971 143.092 34.9225 146.182 39.1396 146.099C43.3947 146.007 46.8506 142.711 46.8658 138.73C46.8658 134.559 46.9648 130.167 46.9648 130.167C46.9648 130.167 52.3465 129.268 53.4579 122.25C54.0135 118.764 53.8384 113.04 53.5416 108.366C53.2904 104.286 49.7812 101.18 45.6936 101.424C45.587 101.424 45.4804 101.439 45.3739 101.454L30.9414 102.961Z" fill="#FFBE9D"/>
<path d="M52.1091 112.328C52.1091 112.815 51.7285 113.219 51.2413 113.234C50.7693 113.279 50.3583 112.929 50.3126 112.465C50.3126 112.45 50.3126 112.442 50.3126 112.427C50.305 111.94 50.6932 111.529 51.1804 111.513C51.6599 111.483 52.0786 111.848 52.1091 112.328Z" fill="#263238"/>
<path d="M52.3384 111.323C52.2318 111.437 51.5772 110.934 50.58 110.934C49.5828 110.934 48.8977 111.422 48.7988 111.307C48.6998 111.193 48.8597 111.041 49.1641 110.813C49.5828 110.523 50.0852 110.371 50.5952 110.371C51.0976 110.371 51.5924 110.531 51.9958 110.828C52.2622 111.056 52.3384 111.285 52.3384 111.323Z" fill="#263238"/>
<path d="M42.441 112.329C42.441 112.816 42.0604 113.22 41.5732 113.235C41.1013 113.273 40.6826 112.923 40.6445 112.451C40.6445 112.451 40.6445 112.436 40.6445 112.428C40.6445 111.941 41.0251 111.537 41.5123 111.514C41.9919 111.476 42.4029 111.842 42.441 112.321C42.441 112.321 42.441 112.321 42.441 112.329Z" fill="#263238"/>
<path d="M42.7824 111.495C42.6683 111.617 42.0212 111.114 41.0165 111.114C40.0117 111.114 39.3418 111.601 39.2352 111.48C39.1287 111.358 39.2961 111.221 39.6082 110.993C40.0269 110.703 40.5217 110.543 41.0317 110.551C41.5341 110.551 42.0289 110.711 42.4399 111.008C42.7368 111.236 42.8357 111.449 42.7824 111.495Z" fill="#263238"/>
<path d="M46.3001 118.681C46.8101 118.522 47.3429 118.43 47.8758 118.4C48.127 118.4 48.3553 118.324 48.401 118.156C48.4238 117.89 48.3629 117.623 48.2335 117.395C48.0052 116.801 47.7616 116.169 47.4723 115.515C46.7949 113.916 46.2468 112.272 45.8281 110.59C46.635 112.127 47.3201 113.726 47.8682 115.37C48.1117 116.032 48.3401 116.664 48.5685 117.266C48.7207 117.562 48.7664 117.905 48.6979 118.232C48.6218 118.407 48.4695 118.544 48.2868 118.598C48.1498 118.636 48.0128 118.651 47.8682 118.659C47.3505 118.735 46.8253 118.742 46.3001 118.681Z" fill="#263238"/>
<path d="M47.0105 130.149C43.7068 130.194 40.4565 129.327 37.6172 127.637C37.6172 127.637 39.9008 132.455 46.9191 131.801L47.0105 130.149Z" fill="#EB996E"/>
<path d="M43.4446 119.356C43.6045 119.356 43.6045 120.398 44.5027 121.144C45.4009 121.89 46.5199 121.776 46.5275 121.906C46.5351 122.035 46.2839 122.111 45.812 122.126C45.1954 122.126 44.594 121.921 44.1145 121.533C43.6501 121.152 43.3533 120.604 43.2924 120.01C43.2543 119.607 43.3761 119.348 43.4446 119.356Z" fill="#263238"/>
<path d="M43.0439 107.707C42.945 107.965 41.9782 107.844 40.8441 107.981C39.7099 108.118 38.7888 108.43 38.6366 108.194C38.5681 108.08 38.7279 107.828 39.1009 107.577C39.5957 107.257 40.1514 107.06 40.7375 107.006C41.316 106.938 41.9097 107.006 42.4578 107.204C42.8689 107.372 43.082 107.577 43.0439 107.707Z" fill="#263238"/>
<path d="M51.957 108.512C51.782 108.733 51.1197 108.512 50.3128 108.512C49.506 108.512 48.8361 108.657 48.6762 108.428C48.6077 108.314 48.7143 108.101 49.0112 107.888C49.407 107.636 49.8713 107.507 50.3433 107.53C50.8152 107.53 51.272 107.69 51.6526 107.971C51.9342 108.185 52.0255 108.405 51.957 108.512Z" fill="#263238"/>
<path d="M53.7753 105.232C53.7753 105.232 50.19 107.105 45.4021 104.89C42.243 103.436 38.5969 102.796 37.79 103.443C36.9831 104.09 36.9451 107.303 33.8926 108.338C33.8926 108.338 34.2961 114.428 31.8526 114.298C29.4091 114.169 29.7821 101.906 29.7821 101.906L36.5036 101.548L42.9662 100.109L49.1243 100.779L53.9047 101.929L53.7753 105.232Z" fill="#263238"/>
<path d="M29.6328 100.166C29.6328 100.075 30.1733 99.8614 30.8507 100.105C31.5282 100.349 31.8327 100.866 31.749 100.927C31.6652 100.988 31.2922 100.645 30.7289 100.448C30.1657 100.25 29.6556 100.272 29.6328 100.166Z" fill="#263238"/>
<path d="M31.646 98.0977C31.7602 98.0977 31.7222 98.8208 31.8516 99.6201C31.981 100.419 32.3311 101.051 32.2474 101.142C32.1637 101.234 31.6232 100.64 31.4862 99.7114C31.3492 99.171 31.4101 98.6001 31.646 98.0977Z" fill="#263238"/>
<path d="M32.0057 111.78C31.9067 111.735 27.9485 110.395 27.9104 114.49C27.8724 118.586 31.9829 117.779 31.9905 117.665C31.9981 117.55 32.0057 111.78 32.0057 111.78Z" fill="#FFBE9D"/>
<path d="M30.7652 116.097C30.7652 116.097 30.6967 116.151 30.5749 116.204C30.3998 116.265 30.2171 116.265 30.0421 116.204C29.5168 115.846 29.2276 115.237 29.2809 114.605C29.2732 114.255 29.3417 113.913 29.4864 113.593C29.5701 113.334 29.768 113.129 30.0268 113.045C30.1943 113.007 30.377 113.091 30.4455 113.25C30.4988 113.365 30.4455 113.448 30.4988 113.448C30.5521 113.448 30.5825 113.387 30.5521 113.212C30.5292 113.113 30.4759 113.022 30.3922 112.954C30.278 112.87 30.141 112.832 30.004 112.847C29.6538 112.908 29.3646 113.152 29.2428 113.479C29.0601 113.829 28.9764 114.217 28.984 114.613C28.9383 115.359 29.3417 116.059 30.004 116.394C30.2247 116.463 30.4683 116.425 30.6586 116.288C30.7576 116.196 30.7804 116.105 30.7652 116.097Z" fill="#EB996E"/>
<path d="M13.4486 155.9C13.4486 155.9 11.8273 204.838 11.9262 209.527L63.0031 208.933L58.8012 182.968V166.062L64.5331 173.331L76.7124 159.158L62.4093 144.017C59.7375 141.231 56.4567 139.108 52.8258 137.813C50.8999 137.128 48.8751 136.74 46.8275 136.664C42.108 138.156 37.0384 138.156 32.3189 136.664C31.7328 136.74 30.9183 136.816 29.8831 136.938H29.7004C20.7943 138.057 13.9815 145.403 13.5171 154.362L13.4486 155.9Z" fill="#FF725E"/>
<path d="M58.6847 166.274C58.4867 164.036 58.4182 161.783 58.4867 159.537C58.4182 157.292 58.4867 155.039 58.6847 152.801C58.8826 155.039 58.9435 157.292 58.8826 159.537C58.9435 161.783 58.8826 164.036 58.6847 166.274Z" fill="#263238"/>
<g opacity="0.2">
<path d="M58.7695 163.234C61.0988 166.051 63.6412 168.685 66.3816 171.098L64.5166 173.328L58.7848 166.089L58.7695 163.234Z" fill="black"/>
</g>
<path d="M29.8804 136.922C29.8804 136.922 12.6695 137.051 10.5381 155.236L9.46484 168.74L25.0695 168.436L29.8804 136.922Z" fill="#FF725E"/>
<path opacity="0.2" d="M26.2973 152.625L28.7712 174.319L23.1992 177.691L23.7473 168.466L25.2545 168.435L26.2973 152.625Z" fill="black"/>
<path d="M9.46094 168.742C9.55989 168.72 9.66646 168.704 9.76542 168.704L10.6332 168.659L13.8911 168.545L25.2483 168.248L25.0656 168.423C25.2331 165.827 25.4158 162.988 25.6061 160.05C25.8192 156.715 26.0628 153.534 26.2227 150.656C26.3064 149.301 26.2074 147.939 25.941 146.607C25.6974 145.457 25.2103 144.369 24.51 143.425C23.9314 142.648 23.155 142.039 22.2644 141.666C21.5869 141.385 20.8562 141.255 20.1254 141.293C19.5012 141.347 18.8847 141.514 18.3214 141.788L18.4203 141.712C18.5193 141.644 18.6258 141.583 18.74 141.529C19.1663 141.316 19.6306 141.179 20.1102 141.141C20.8714 141.073 21.6402 141.179 22.3481 141.461C23.292 141.826 24.1141 142.443 24.7307 143.25C25.4767 144.216 25.9943 145.335 26.2531 146.531C26.5424 147.885 26.6566 149.278 26.5804 150.664C26.4434 153.572 26.2074 156.754 25.9943 160.08C25.7964 163.041 25.6061 165.88 25.431 168.453V168.628H25.2559L13.8988 168.781H9.76542C9.65885 168.781 9.55989 168.773 9.46094 168.742Z" fill="#263238"/>
<path d="M110.188 267.872L106.991 261.242L94.4922 267.187L99.0975 276.969L99.8587 276.649C103.398 275.203 117.762 269.037 119.734 267.233C121.964 265.208 110.188 267.872 110.188 267.872Z" fill="#455A64"/>
<path d="M98.7734 276.747C98.8496 276.724 98.9257 276.693 99.0018 276.663L99.6412 276.412C100.265 276.138 101.042 275.81 101.925 275.43C103.881 274.585 106.561 273.382 109.491 271.997C112.422 270.611 115.048 269.287 116.936 268.305L119.166 267.133L119.767 266.805C119.904 266.729 119.973 266.683 119.965 266.676L119.752 266.775L119.136 267.079L116.852 268.206C114.949 269.15 112.285 270.489 109.392 271.844C106.5 273.199 103.79 274.448 101.849 275.315L99.5651 276.351L98.9409 276.632L98.7734 276.747Z" fill="#263238"/>
<path d="M115.782 269.082C115.705 268.656 115.683 268.23 115.698 267.796C115.774 267.369 115.888 266.958 116.056 266.562C115.736 266.89 115.546 267.324 115.53 267.78C115.447 268.23 115.538 268.694 115.782 269.082Z" fill="#263238"/>
<path d="M111.208 268.968C111.375 268.534 111.429 268.07 111.375 267.613C111.33 267.613 111.254 267.903 111.208 268.283C111.155 268.512 111.155 268.74 111.208 268.968Z" fill="#263238"/>
<path d="M109.936 268.914C109.936 268.914 110.111 268.701 110.233 268.411C110.355 268.122 110.423 267.856 110.378 267.841C110.332 267.825 110.203 268.046 110.081 268.343C109.959 268.64 109.89 268.891 109.936 268.914Z" fill="#263238"/>
<path d="M108.743 268.039C108.987 268.016 109.223 267.932 109.436 267.81C109.794 267.643 110.076 267.475 110.053 267.43C109.809 267.453 109.581 267.536 109.368 267.658C109.002 267.826 108.721 267.993 108.743 268.039Z" fill="#263238"/>
<path d="M108.125 267.328C108.407 267.374 108.696 267.328 108.955 267.191C109.396 267.024 109.716 266.772 109.655 266.734C109.396 266.818 109.137 266.917 108.894 267.039C108.627 267.107 108.369 267.206 108.125 267.328Z" fill="#263238"/>
<path d="M111.118 267.673C111.392 267.59 111.651 267.452 111.879 267.285C112.153 267.11 112.404 266.912 112.64 266.691C112.785 266.562 112.914 266.417 113.028 266.257C113.097 266.158 113.127 266.037 113.112 265.915C113.082 265.778 112.975 265.679 112.838 265.648C112.054 265.648 111.377 266.189 111.217 266.95C111.171 267.163 111.171 267.392 111.217 267.605C111.255 267.757 111.293 267.841 111.3 267.833C111.27 267.544 111.285 267.255 111.338 266.973C111.422 266.676 111.59 266.417 111.818 266.212C112.084 265.953 112.442 265.816 112.808 265.823C112.975 265.823 112.998 266.029 112.899 266.181C112.792 266.326 112.671 266.463 112.534 266.585C112.313 266.805 112.069 267.011 111.81 267.194C111.407 267.506 111.103 267.65 111.118 267.673Z" fill="#263238"/>
<path d="M111.339 267.613C111.355 267.399 111.294 267.186 111.164 267.011C111.035 266.813 110.867 266.646 110.662 266.532C110.411 266.349 110.083 266.318 109.802 266.44C109.649 266.554 109.619 266.775 109.733 266.927C109.809 267.049 109.916 267.148 110.038 267.224C110.228 267.354 110.433 267.453 110.647 267.529C110.845 267.613 111.05 267.643 111.263 267.635C111.263 267.635 111.035 267.567 110.692 267.415C110.494 267.331 110.304 267.224 110.129 267.095C109.939 266.981 109.718 266.707 109.901 266.577C110.129 266.494 110.388 266.524 110.593 266.669C110.776 266.775 110.936 266.912 111.065 267.08C111.172 267.247 111.263 267.43 111.339 267.613Z" fill="#263238"/>
<path d="M97.4023 273.202C97.4023 273.202 97.7449 272.997 98.3462 272.799C99.1227 272.54 99.9524 272.494 100.752 272.669C101.551 272.867 102.274 273.271 102.86 273.849C103.302 274.298 103.492 274.648 103.522 274.61C103.5 274.519 103.454 274.435 103.401 274.359C103.271 274.138 103.119 273.933 102.944 273.75C101.772 272.464 99.9219 272.03 98.3006 272.662C98.0646 272.753 97.8362 272.867 97.6231 273.004C97.547 273.065 97.4709 273.126 97.4023 273.202Z" fill="#263238"/>
<path d="M96.2383 267.383C96.558 268.273 96.9234 269.149 97.3496 270.001C97.7226 270.877 98.1413 271.729 98.6132 272.551C98.2935 271.653 97.9282 270.785 97.5019 269.933C97.1289 269.057 96.7102 268.205 96.2383 267.383Z" fill="#263238"/>
<path d="M104.571 272.727C105.233 272.582 105.872 272.346 106.481 272.042C107.113 271.783 107.699 271.441 108.24 271.022C108.24 270.984 107.425 271.418 106.413 271.89C105.4 272.362 104.555 272.658 104.571 272.727Z" fill="#263238"/>
<path d="M102.113 273.886C102.113 273.931 102.266 274.03 102.433 274.175C102.6 274.32 102.73 274.472 102.776 274.441C102.821 274.411 102.776 274.213 102.547 274.046C102.319 273.878 102.129 273.848 102.113 273.886Z" fill="#263238"/>
<path d="M100.652 273.176C100.652 273.222 100.782 273.313 100.972 273.382C101.162 273.45 101.33 273.473 101.345 273.427C101.36 273.382 101.223 273.29 101.025 273.222C100.827 273.153 100.668 273.13 100.652 273.176Z" fill="#263238"/>
<path d="M99.082 273.276C99.082 273.276 99.2723 273.238 99.493 273.215C99.7138 273.192 99.8812 273.215 99.9041 273.215C99.9269 273.215 99.7366 273.047 99.4702 273.078C99.2038 273.108 99.0515 273.245 99.082 273.276Z" fill="#263238"/>
<path d="M98.0117 273.479C98.0117 273.524 98.1183 273.555 98.2401 273.54C98.3619 273.525 98.4608 273.486 98.4532 273.441C98.4456 273.395 98.3466 273.365 98.2249 273.372C98.1031 273.38 98.0117 273.418 98.0117 273.479Z" fill="#263238"/>
<path d="M70.2931 313.392L70.1942 306.008L56.3555 306.114V316.923L57.2156 316.969C61.0217 317.152 76.6568 317.631 79.2068 316.84C82.0766 315.957 70.2931 313.392 70.2931 313.392Z" fill="#455A64"/>
<path d="M56.1953 316.604C56.2714 316.611 56.3552 316.611 56.4313 316.604L57.1164 316.642L59.6283 316.733C61.7521 316.794 64.6904 316.84 67.9331 316.824C71.1758 316.809 74.1217 316.718 76.2454 316.634L78.7574 316.512L79.4425 316.467H79.6785C79.6024 316.459 79.5186 316.459 79.4425 316.467H78.7574L76.2378 316.535C74.1141 316.596 71.1758 316.657 67.9331 316.68C64.6904 316.703 61.7597 316.68 59.636 316.642H56.1953V316.604Z" fill="#263238"/>
<path d="M74.8409 316.857C74.9551 316.438 75.1074 316.035 75.3053 315.654C75.5489 315.296 75.8381 314.977 76.1578 314.688C75.7239 314.847 75.3662 315.159 75.1606 315.571C74.9018 315.951 74.7876 316.4 74.8409 316.857Z" fill="#263238"/>
<path d="M70.7371 314.815C70.7371 314.815 70.9731 314.602 71.171 314.282C71.3689 313.962 71.4983 313.681 71.4603 313.658C71.4222 313.635 71.2243 313.871 71.0264 314.191C70.8285 314.51 70.699 314.792 70.7371 314.815Z" fill="#263238"/>
<path d="M69.6169 314.231C69.6169 314.231 69.8681 314.117 70.104 313.904C70.34 313.691 70.5075 313.485 70.477 313.447C70.4466 313.409 70.2258 313.561 69.9898 313.775C69.7539 313.988 69.5864 314.193 69.6169 314.231Z" fill="#263238"/>
<path d="M68.9023 312.926C69.1307 313.01 69.3819 313.04 69.6255 313.01C69.8843 313.048 70.1431 313.018 70.3867 312.934C70.1431 312.85 69.8843 312.812 69.6255 312.842C69.3819 312.82 69.1307 312.842 68.9023 312.926Z" fill="#263238"/>
<path d="M68.6445 312.005C68.8805 312.165 69.1621 312.241 69.4514 312.234C69.7331 312.287 70.0223 312.249 70.2811 312.12C70.0147 312.074 69.7407 312.059 69.4666 312.066C69.1926 312.021 68.9186 311.998 68.6445 312.005Z" fill="#263238"/>
<path d="M71.207 313.604C71.4963 313.65 71.8008 313.65 72.09 313.604C72.4173 313.566 72.7294 313.498 73.0415 313.391C73.2318 313.33 73.4069 313.254 73.582 313.163C73.6809 313.102 73.7571 313.003 73.7951 312.889C73.8256 312.752 73.7723 312.615 73.6581 312.531C72.836 312.151 71.8541 312.508 71.4735 313.33C71.4278 313.422 71.3973 313.521 71.3745 313.62C71.3593 313.696 71.3593 313.779 71.3745 313.856C71.4658 313.582 71.6029 313.323 71.7779 313.094C71.9758 312.858 72.2423 312.691 72.5391 312.6C72.8893 312.478 73.2699 312.501 73.6048 312.661C73.7418 312.767 73.6886 312.935 73.5363 313.026C73.3765 313.117 73.209 313.186 73.0339 313.247C72.737 313.346 72.4326 313.429 72.1205 313.49C71.542 313.574 71.207 313.574 71.207 313.604Z" fill="#263238"/>
<path d="M71.4382 313.642C71.5524 313.46 71.5829 313.239 71.5372 313.026C71.5067 312.79 71.423 312.569 71.286 312.379C71.1261 312.105 70.8369 311.937 70.5248 311.93C70.3421 311.968 70.2203 312.15 70.2508 312.341C70.2736 312.485 70.3269 312.615 70.403 312.737C70.5248 312.934 70.6694 313.117 70.8293 313.277C71.1109 313.543 71.3317 313.65 71.3393 313.627C71.3469 313.604 71.1642 313.475 70.913 313.193C70.7684 313.033 70.6466 312.851 70.54 312.66C70.4182 312.478 70.3269 312.135 70.54 312.097C70.7531 312.059 70.9891 312.295 71.1261 312.47C71.2555 312.645 71.3393 312.843 71.3773 313.049C71.4154 313.247 71.4382 313.444 71.4382 313.642Z" fill="#263238"/>
<path d="M56.4414 312.812C56.4414 312.812 56.8372 312.774 57.4614 312.812C58.2759 312.904 59.0523 313.216 59.6994 313.718C60.3388 314.228 60.8336 314.905 61.1076 315.682C61.3283 316.268 61.3512 316.671 61.3816 316.664C61.3968 316.573 61.3968 316.474 61.3816 316.382C61.3588 316.123 61.3055 315.865 61.2218 315.621C60.7042 313.954 59.2122 312.789 57.4766 312.675C57.2254 312.645 56.9666 312.645 56.7154 312.675C56.6165 312.713 56.5251 312.759 56.4414 312.812Z" fill="#263238"/>
<path d="M57.8425 307.051C57.7511 307.995 57.7207 308.946 57.7435 309.89C57.7131 310.842 57.7359 311.793 57.812 312.737C57.9034 311.793 57.9338 310.842 57.911 309.89C57.9414 308.946 57.9186 307.995 57.8425 307.051Z" fill="#263238"/>
<path d="M63.1406 315.418C63.8029 315.563 64.488 315.623 65.1654 315.601C65.8429 315.631 66.528 315.578 67.1902 315.426C67.1902 315.38 66.2768 315.426 65.1654 315.426C64.0541 315.426 63.1482 315.365 63.1406 315.426V315.418Z" fill="#263238"/>
<path d="M60.4297 315.432C60.4297 315.432 60.5058 315.623 60.5972 315.828C60.6885 316.034 60.7418 316.216 60.7875 316.216C60.8331 316.216 60.8636 315.996 60.7494 315.76C60.6352 315.524 60.4601 315.394 60.4297 315.432Z" fill="#263238"/>
<path d="M59.3867 314.158C59.3867 314.158 59.4476 314.341 59.5922 314.486C59.7369 314.63 59.8815 314.714 59.912 314.683C59.9424 314.653 59.8511 314.508 59.7064 314.364C59.5618 314.219 59.4248 314.128 59.3867 314.158Z" fill="#263238"/>
<path d="M57.9305 313.588C57.9305 313.641 58.1208 313.633 58.3263 313.702C58.5318 313.77 58.6764 313.885 58.7145 313.854C58.7526 313.824 58.6308 313.626 58.3796 313.542C58.1284 313.458 57.9152 313.55 57.9305 313.588Z" fill="#263238"/>
<path d="M56.9062 313.324C56.9062 313.37 56.9671 313.439 57.0813 313.484C57.1955 313.53 57.3021 313.53 57.3173 313.484C57.3325 313.439 57.2564 313.37 57.1422 313.324C57.028 313.279 56.9062 313.286 56.9062 313.324Z" fill="#263238"/>
<path d="M13.8822 210.025C13.8822 210.025 77.3058 191.536 83.03 194.253C88.7543 196.971 112.473 263.294 112.473 263.294L94.273 272.14L71.14 215.567C71.14 215.567 26.0843 233.075 18.8452 231.605C11.6062 230.136 13.8822 210.025 13.8822 210.025Z" fill="#263238"/>
<path d="M40.6462 208.156C41.552 208.453 76.3162 219.841 78.7064 224.339C81.0966 228.838 77.5722 309.83 77.5722 309.83L54.9949 309.792L56.5173 232.644L18.457 231.685L40.6462 208.156Z" fill="#263238"/>
<path d="M18.2969 231.676C18.4872 231.676 18.6775 231.653 18.8602 231.608L20.4511 231.326C21.8289 231.067 23.8156 230.679 26.2667 230.154C31.1688 229.111 37.9207 227.535 45.2968 225.419C48.9734 224.346 52.4445 223.234 55.5807 222.154C58.7169 221.073 61.5029 219.992 63.8093 219.002C64.974 218.53 66.0092 218.066 66.915 217.655C67.8209 217.244 68.6049 216.894 69.1987 216.566L70.6373 215.805C70.8124 215.729 70.9723 215.638 71.1245 215.523C70.9418 215.577 70.7667 215.645 70.5993 215.729L69.1225 216.376C68.4907 216.673 67.6991 217.015 66.7856 217.396C65.8722 217.777 64.8293 218.233 63.6647 218.682C61.3811 219.634 58.5418 220.646 55.4132 221.727C52.2847 222.808 48.8136 223.889 45.137 224.955C37.7989 227.063 31.0699 228.685 26.183 229.804L20.3978 231.121L18.8449 231.554C18.6546 231.577 18.472 231.615 18.2969 231.676Z" fill="#455A64"/>
<path d="M79.2692 242.21C79.3681 241.844 79.4214 241.471 79.4442 241.091C79.528 240.276 79.6345 239.249 79.7639 238.046C79.8934 236.843 80.0228 235.184 80.1826 233.479C80.4414 231.606 80.4414 229.711 80.1826 227.838C79.7944 225.943 78.7972 224.23 77.3357 222.959C76.1787 221.931 74.8618 221.094 73.4459 220.47C72.2509 219.929 71.2461 219.579 70.5534 219.343C70.2032 219.199 69.8378 219.092 69.4648 219.023C69.4648 219.107 70.9873 219.632 73.3089 220.759C74.6791 221.398 75.9351 222.243 77.0541 223.263C78.4318 224.481 79.3757 226.118 79.7411 227.922C79.9771 229.756 79.9771 231.614 79.7411 233.448C79.6193 235.146 79.5127 236.683 79.4214 238.016C79.3301 239.348 79.2844 240.299 79.2387 241.098C79.2083 241.471 79.2159 241.844 79.2692 242.21Z" fill="#455A64"/>
<path d="M52.1768 173.959L32.7128 191.649C28.039 195.889 19.5744 196.978 14.3297 193.453C11.1783 191.36 10.5237 187.516 9.91469 183.786C8.74244 176.935 10.2572 161.833 10.2116 162.236L24.0046 162.564L23.3576 177.384L46.8027 164.124L47.2213 163.614C47.4802 162.959 47.7694 162.175 48.0587 161.254C48.3175 160.447 48.4317 159.595 48.4012 158.75C48.3936 157.798 48.2794 156.847 48.0739 155.918C48.0739 155.857 48.0282 155.774 47.9978 155.72C47.9445 155.599 47.914 155.469 47.9064 155.332C47.8075 154.814 48.15 154.32 48.66 154.221C48.8732 154.183 49.0939 154.221 49.2842 154.312C49.9693 154.738 50.8904 156.862 50.9132 159.641V159.77C51.0045 162.571 53.6003 159.07 54.567 157.814C55.5337 156.558 58.7079 152.812 59.3245 152.812C60.2227 152.812 60.3978 153.802 59.4006 155.035C58.4035 156.268 55.6707 160.181 56.3558 160.676C57.0409 161.171 61.8593 154.693 61.8593 154.693C61.8593 154.693 62.6814 153.17 63.4731 153.68C64.9194 154.67 59.2712 161.155 58.7232 161.757C58.3349 162.175 59.0505 162.746 59.4387 162.274C59.8269 161.802 64.1201 155.697 65.5968 156.687C66.731 157.448 61.0296 162.069 60.8012 163.842C60.5729 165.616 64.79 159.884 65.848 160.653C66.2363 160.935 66.4875 161.209 63.6177 164.139C61.2656 166.332 58.7917 168.394 56.2112 170.32L52.1768 173.959Z" fill="#FFBE9D"/>
<path d="M38.3462 234.675C44.2531 234.287 41.4747 225.807 41.3301 216.368C41.2388 210.453 37.3109 204.645 33.0177 200.573C30.8407 198.647 28.2754 197.208 25.4894 196.363C18.1134 193.996 10.2653 193.494 2.65328 194.902C2.65328 194.902 -8.52121 237.765 38.3462 234.675Z" fill="#455A64"/>
<path d="M127.585 280.207C121.671 280.024 124.457 271.346 124.601 261.938C124.693 256.016 128.628 250.215 132.914 246.135C135.098 244.209 137.663 242.778 140.449 241.933C147.742 239.444 155.674 239.178 163.286 240.464C163.278 240.434 165.052 281.394 127.585 280.207Z" fill="#FF725E"/>
<path opacity="0.3" d="M127.585 280.207C121.671 280.024 124.457 271.346 124.601 261.938C124.693 256.016 128.628 250.215 132.914 246.135C135.098 244.209 137.663 242.778 140.449 241.933C147.742 239.444 155.674 239.178 163.286 240.464C163.278 240.434 165.052 281.394 127.585 280.207Z" fill="black"/>
<path d="M177.747 279.18H174.527V357.013H177.747V279.18Z" fill="#263238"/>
<path d="M190.985 356.958H161.047C161.047 356.958 166.436 352.238 176.142 352.39C185.428 352.543 190.985 356.958 190.985 356.958Z" fill="#263238"/>
<path d="M181.416 200.129C184.948 199.809 188.548 199.528 192.027 200.228C195.506 200.928 198.878 202.74 200.773 205.77C202.669 208.799 202.692 212.62 202.692 216.16V261.337H162.348L181.416 200.129Z" fill="#FF725E"/>
<path d="M202.698 259.25C202.865 268.156 202.089 275.388 195.923 278.889C191.31 281.508 185.731 281.569 180.425 281.561H157.444C155.115 281.561 152.618 281.508 150.715 280.16C148.622 278.684 147.747 275.875 148.112 273.309C148.592 270.775 149.802 268.438 151.606 266.588C158.244 259.22 168.748 257.035 178.499 255.246" fill="#FF725E"/>
<path d="M124.069 352.561L124.274 344.508L139.361 344.805L139.179 356.588L138.242 356.634C134.079 356.778 117.043 357.091 114.28 356.192C111.189 355.195 124.069 352.561 124.069 352.561Z" fill="#FF725E"/>
<g opacity="0.4">
<path d="M117.781 354.066C117.781 354.066 113.26 355.277 113.808 356.023C114.356 356.769 131.574 357.104 139.186 356.586V356.251L119.068 356.038C119.068 356.038 118.657 354.12 117.781 354.066Z" fill="white"/>
</g>
<path d="M139.407 356.244H138.387L135.639 356.313C133.356 356.351 130.12 356.366 126.588 356.313C123.056 356.26 119.852 356.115 117.538 355.993L114.797 355.826L114.036 355.772C113.952 355.772 113.861 355.757 113.777 355.734H114.797L117.538 355.841C119.821 355.932 123.056 356.039 126.588 356.107C130.12 356.176 133.325 356.183 135.639 356.176H139.392L139.407 356.244Z" fill="#263238"/>
<path d="M119.069 356.273C118.962 355.816 118.795 355.367 118.581 354.948C118.315 354.56 118.011 354.203 117.668 353.883C118.589 354.309 119.145 355.261 119.069 356.273Z" fill="#263238"/>
<path d="M123.563 354.098C123.563 354.098 123.312 353.862 123.098 353.512C122.885 353.162 122.748 352.857 122.794 352.827C122.84 352.796 123.045 353.063 123.258 353.413C123.471 353.763 123.631 354.075 123.563 354.098Z" fill="#263238"/>
<path d="M124.807 353.448C124.807 353.448 124.533 353.326 124.282 353.082C124.031 352.839 123.848 352.626 123.878 352.588C123.909 352.55 124.145 352.709 124.404 352.953C124.662 353.197 124.837 353.448 124.807 353.448Z" fill="#263238"/>
<path d="M125.604 352.063C125.361 352.147 125.102 352.178 124.843 352.147C124.584 352.17 124.326 352.139 124.082 352.056C124.326 351.972 124.584 351.942 124.843 351.964C125.102 351.949 125.361 351.98 125.604 352.063Z" fill="#263238"/>
<path d="M125.918 351.068C125.651 351.236 125.347 351.319 125.035 351.304C124.723 351.35 124.411 351.304 124.129 351.167C124.426 351.122 124.73 351.106 125.027 351.122C125.324 351.076 125.621 351.061 125.918 351.068Z" fill="#263238"/>
<path d="M123.085 352.772C122.765 352.833 122.431 352.833 122.111 352.772C121.761 352.719 121.418 352.635 121.083 352.521C120.878 352.46 120.68 352.376 120.497 352.27C120.383 352.201 120.299 352.095 120.261 351.965C120.231 351.813 120.299 351.661 120.421 351.577C121.19 351.212 122.111 351.448 122.606 352.14C122.75 352.338 122.857 352.559 122.91 352.795C122.933 352.879 122.933 352.97 122.91 353.054C122.811 352.757 122.667 352.475 122.484 352.216C122.271 351.958 121.981 351.767 121.662 351.668C121.281 351.531 120.87 351.554 120.505 351.722C120.352 351.836 120.406 352.019 120.581 352.117C120.748 352.216 120.931 352.3 121.121 352.361C121.441 352.483 121.776 352.574 122.111 352.643C122.712 352.734 123.085 352.742 123.085 352.772Z" fill="#263238"/>
<path d="M122.829 352.818C122.722 352.613 122.684 352.369 122.73 352.141C122.768 351.89 122.867 351.646 123.012 351.44C123.179 351.151 123.491 350.969 123.826 350.961C124.032 351.007 124.161 351.205 124.115 351.41C124.093 351.562 124.032 351.715 123.948 351.844C123.811 352.049 123.651 352.247 123.476 352.422C123.324 352.59 123.126 352.719 122.913 352.803C122.913 352.803 123.111 352.628 123.385 352.331C123.544 352.156 123.681 351.958 123.803 351.753C123.94 351.555 124.039 351.189 123.803 351.136C123.567 351.083 123.308 351.349 123.156 351.539C123.012 351.722 122.92 351.935 122.867 352.164C122.837 352.377 122.821 352.598 122.829 352.818Z" fill="#263238"/>
<path d="M139.177 352.11C139.177 352.11 138.743 352.065 138.066 352.11C136.254 352.263 134.693 353.45 134.054 355.155C133.81 355.802 133.78 356.236 133.742 356.229C133.727 356.13 133.727 356.023 133.742 355.924C133.772 355.65 133.833 355.376 133.925 355.117C134.206 354.234 134.754 353.458 135.493 352.894C136.231 352.339 137.122 352.012 138.043 351.958C138.317 351.92 138.598 351.92 138.872 351.958C138.979 351.989 139.086 352.042 139.177 352.11Z" fill="#263238"/>
<path d="M137.722 345.84C137.806 346.867 137.836 347.903 137.798 348.938C137.821 349.973 137.783 351.008 137.684 352.036C137.6 351.008 137.577 349.973 137.615 348.938C137.593 347.903 137.631 346.867 137.722 345.84Z" fill="#263238"/>
<path d="M131.849 354.858C131.126 355.011 130.38 355.064 129.641 355.033C128.903 355.049 128.165 354.98 127.441 354.813C127.441 354.759 128.431 354.813 129.649 354.813C130.867 354.813 131.849 354.805 131.849 354.858Z" fill="#263238"/>
<path d="M134.799 354.903C134.799 354.903 134.715 355.116 134.608 355.337C134.502 355.557 134.441 355.763 134.387 355.755C134.334 355.748 134.319 355.519 134.441 355.261C134.563 355.002 134.768 354.872 134.799 354.903Z" fill="#263238"/>
<path d="M135.942 353.54C135.942 353.54 135.874 353.73 135.714 353.89C135.554 354.05 135.402 354.141 135.364 354.103C135.326 354.065 135.425 353.913 135.584 353.753C135.744 353.593 135.904 353.502 135.942 353.54Z" fill="#263238"/>
<path d="M137.554 352.943C137.554 352.996 137.341 352.988 137.113 353.057C136.884 353.126 136.732 353.247 136.694 353.217C136.656 353.186 136.785 352.973 137.059 352.89C137.333 352.806 137.569 352.897 137.554 352.943Z" fill="#263238"/>
<path d="M138.697 352.688C138.697 352.741 138.621 352.817 138.499 352.863C138.377 352.909 138.255 352.909 138.24 352.863C138.225 352.817 138.309 352.741 138.43 352.696C138.552 352.65 138.674 352.612 138.697 352.688Z" fill="#263238"/>
<g opacity="0.3">
<path d="M139.154 351.708L124.09 351.167L124.158 349.355L139.291 349.751L139.154 351.708Z" fill="black"/>
</g>
<path d="M87.8558 317.018L90.9006 309.551L104.922 315.123L100.614 326.099L99.723 325.803C95.7647 324.478 79.7109 318.792 77.4349 316.98C74.862 314.955 87.8558 317.018 87.8558 317.018Z" fill="#FF725E"/>
<g opacity="0.4">
<path d="M81.4172 316.219C81.4172 316.219 76.7586 315.762 77.0098 316.653C77.261 317.543 93.2691 323.907 100.607 326.099L100.706 325.772L81.9652 318.517C81.9652 318.517 82.2164 316.576 81.4172 316.219Z" fill="white"/>
</g>
<path d="M100.904 325.857L100.653 325.781L99.9449 325.553L97.3492 324.647C95.1646 323.886 92.1654 322.759 88.877 321.457C85.5886 320.156 82.6351 318.907 80.5038 317.979L77.9994 316.86L77.3219 316.54L77.0859 316.426C77.1697 316.441 77.2534 316.471 77.3371 316.51L78.0222 316.791L80.557 317.857C82.6884 318.755 85.6495 319.981 88.9303 321.282C92.2111 322.584 95.2102 323.718 97.3797 324.525L99.9525 325.484L100.645 325.751C100.737 325.773 100.82 325.811 100.904 325.857Z" fill="#263238"/>
<path d="M81.8583 318.741C81.9039 318.269 81.9039 317.804 81.8583 317.332C81.7441 316.876 81.5842 316.426 81.3711 316.008C82.079 316.731 82.2693 317.819 81.8507 318.741H81.8583Z" fill="#263238"/>
<path d="M86.8212 318.281C86.7679 318.281 86.669 317.969 86.5929 317.566C86.5167 317.322 86.5015 317.056 86.5396 316.805C86.5929 316.805 86.6918 317.109 86.7679 317.513C86.8441 317.764 86.8593 318.023 86.8212 318.281Z" fill="#263238"/>
<path d="M88.1995 318.128C88.1538 318.128 87.994 317.915 87.8417 317.603C87.6895 317.291 87.5905 317.017 87.6362 316.994C87.6819 316.971 87.8494 317.207 88.0016 317.519C88.1538 317.831 88.2452 318.105 88.1995 318.128Z" fill="#263238"/>
<path d="M89.4462 317.094C89.1798 317.087 88.921 317.018 88.685 316.896C88.274 316.737 87.9619 316.577 87.9771 316.523C88.2435 316.531 88.5023 316.6 88.7383 316.721C89.1494 316.912 89.4614 317.041 89.4462 317.094Z" fill="#263238"/>
<path d="M90.0565 316.255C89.4399 316.316 88.8157 316.126 88.3438 315.723C88.633 315.784 88.9223 315.875 89.1963 315.997C89.4932 316.058 89.7748 316.141 90.0565 316.255Z" fill="#263238"/>
<path d="M86.8357 316.864C86.516 316.796 86.2115 316.674 85.9375 316.499C85.6254 316.331 85.3361 316.133 85.0621 315.913C84.8946 315.783 84.7424 315.631 84.6054 315.464C84.5216 315.365 84.476 315.228 84.4912 315.098C84.514 314.946 84.6282 314.824 84.7728 314.794C85.6178 314.733 86.3942 315.273 86.6226 316.088C86.6911 316.324 86.7063 316.567 86.6758 316.803C86.6758 316.895 86.653 316.978 86.6073 317.055C86.6226 316.742 86.5845 316.43 86.5008 316.126C86.3942 315.806 86.1963 315.524 85.9299 315.319C85.6254 315.06 85.2296 314.938 84.8261 314.969C84.6358 315.014 84.6282 315.205 84.75 315.365C84.8794 315.517 85.0164 315.654 85.1687 315.783C85.4351 316.004 85.7167 316.21 86.006 316.392C86.5008 316.697 86.8509 316.841 86.8357 316.864Z" fill="#263238"/>
<path d="M86.5784 316.819C86.5404 316.583 86.5937 316.347 86.7231 316.15C86.8449 315.921 87.0199 315.731 87.2331 315.594C87.4919 315.381 87.842 315.32 88.1617 315.426C88.3368 315.548 88.3825 315.777 88.2759 315.959C88.1998 316.096 88.0932 316.21 87.9638 316.294C87.7659 316.446 87.5528 316.576 87.3244 316.675C87.1189 316.781 86.8905 316.835 86.6622 316.835C86.6622 316.835 86.9058 316.743 87.2635 316.553C87.4767 316.439 87.667 316.302 87.8497 316.15C88.0476 316.013 88.2683 315.7 88.0628 315.571C87.804 315.495 87.5147 315.548 87.3016 315.716C87.1037 315.837 86.9362 316.005 86.8144 316.203C86.7155 316.401 86.6393 316.606 86.5784 316.819Z" fill="#263238"/>
<path d="M102.136 321.903C101.793 321.758 101.443 321.629 101.085 321.522C100.225 321.294 99.3115 321.309 98.459 321.56C97.5988 321.827 96.83 322.322 96.2287 322.999C95.7795 323.517 95.5969 323.913 95.5664 323.897C95.5892 323.798 95.6273 323.699 95.6806 323.616C95.8024 323.365 95.9546 323.129 96.1297 322.915C96.7234 322.192 97.5151 321.659 98.4133 321.393C99.2963 321.119 100.248 321.119 101.131 321.393C101.397 321.477 101.648 321.583 101.892 321.72C102.059 321.827 102.143 321.888 102.136 321.903Z" fill="#263238"/>
<path d="M102.996 315.488C102.715 316.485 102.372 317.46 101.976 318.419C101.634 319.393 101.23 320.352 100.781 321.281C101.063 320.284 101.405 319.31 101.801 318.35C102.144 317.376 102.54 316.417 102.996 315.488Z" fill="#263238"/>
<path d="M94.3136 321.899C93.5829 321.785 92.8673 321.579 92.1899 321.29C91.4896 321.054 90.8197 320.719 90.2031 320.308C90.2031 320.262 91.1242 320.681 92.2508 321.115C93.3774 321.549 94.3289 321.846 94.3136 321.899Z" fill="#263238"/>
<path d="M97.0685 323.002C97.0685 323.048 96.9162 323.162 96.7336 323.337C96.5509 323.512 96.4367 323.672 96.391 323.649C96.3453 323.626 96.391 323.405 96.6118 323.207C96.8325 323.01 97.0456 322.941 97.0685 323.002Z" fill="#263238"/>
<path d="M98.6117 322.104C98.6117 322.15 98.4823 322.264 98.2768 322.355C98.0713 322.447 97.8962 322.477 97.8734 322.431C97.8505 322.386 98.0028 322.271 98.2083 322.188C98.4138 322.104 98.5889 322.058 98.6117 322.104Z" fill="#263238"/>
<path d="M100.326 322.101C100.326 322.147 100.113 322.101 99.8767 322.063C99.6407 322.025 99.4504 322.101 99.4276 322.063C99.4047 322.025 99.6026 321.873 99.8919 321.888C100.181 321.903 100.364 322.063 100.326 322.101Z" fill="#263238"/>
<path d="M101.499 322.24C101.499 322.285 101.385 322.331 101.255 322.323C101.126 322.316 101.012 322.285 101.012 322.232C101.012 322.179 101.118 322.141 101.255 322.141C101.392 322.141 101.499 322.194 101.499 322.24Z" fill="#263238"/>
<g opacity="0.3">
<path d="M102.259 321.518L88.3438 315.725L89.0441 314.043L103.081 319.729L102.259 321.518Z" fill="black"/>
</g>
<path d="M185.291 246.777C185.291 246.777 189.409 273.13 178.623 276.236C167.152 279.547 142.573 285.743 142.573 285.743L140.723 350.301L122.72 349.646L121 276.928C121.122 274.371 122.462 272.026 124.608 270.633L150.611 246.762L185.291 246.777Z" fill="#263238"/>
<path d="M87.3633 314.034L104.209 320.52L127.045 273.112C127.045 273.112 165.714 277.679 176.828 276.157C180.794 275.616 185.483 273.546 187.842 270.539C192.151 265.043 192.341 257.53 191.534 250.596L191.214 249.073L162.715 247.551L119.067 254.097C115.178 254.775 111.889 257.34 110.283 260.948L87.3633 314.034Z" fill="#263238"/>
<path d="M124.807 271.445C123.931 271.902 123.185 272.557 122.622 273.364C122.036 274.247 121.64 275.244 121.473 276.294C121.275 277.588 121.206 278.905 121.275 280.214C121.343 283.031 121.381 285.589 121.389 287.438V289.623C121.397 289.897 121.381 290.163 121.328 290.43C121.26 290.179 121.229 289.927 121.229 289.669C121.229 289.151 121.153 288.405 121.115 287.476C121.039 285.634 120.955 283.084 120.887 280.26C120.818 278.92 120.902 277.581 121.123 276.264C121.313 275.168 121.754 274.125 122.401 273.219C122.835 272.61 123.399 272.108 124.053 271.75C124.282 271.59 124.533 271.491 124.807 271.445Z" fill="#455A64"/>
<path d="M178.592 276.235C178.409 276.258 178.227 276.258 178.044 276.235L176.468 276.182C175.106 276.128 173.127 276.029 170.691 275.892C165.811 275.618 159.075 275.169 151.661 274.53C144.246 273.89 137.51 273.152 132.63 272.551C130.21 272.246 128.246 271.987 126.891 271.789L125.369 271.553C125.186 271.531 125.003 271.492 124.828 271.447C125.011 271.424 125.194 271.424 125.376 271.447L126.944 271.607L132.691 272.246C137.548 272.787 144.262 273.472 151.722 274.111C159.181 274.75 165.88 275.245 170.752 275.588L176.522 276.006L178.097 276.136C178.265 276.159 178.432 276.189 178.592 276.235Z" fill="#455A64"/>
<path d="M178.023 173.525C178.739 174.766 180.52 174.971 181.829 174.408C183.085 173.73 184.204 172.825 185.133 171.736C186.153 170.739 187.417 169.795 188.802 169.719C189.875 169.666 191.032 170.115 191.999 169.635C192.966 169.156 193.308 167.869 193.788 166.841C194.306 165.791 195.044 164.855 195.942 164.101C197.83 162.503 198.363 159.808 197.236 157.608C197.191 157.54 197.153 157.463 197.107 157.387C196.33 155.918 195.044 154.784 193.484 154.213C192.189 153.802 190.659 153.878 189.677 152.965C188.52 151.907 188.619 150.019 187.683 148.763C186.876 147.842 185.757 147.248 184.539 147.103C183.329 146.959 182.142 146.708 180.977 146.342C179.797 145.962 178.922 144.972 178.693 143.762" fill="#263238"/>
<path d="M171.505 147.582C170.188 143.38 165.713 141.051 161.511 142.368C159.844 142.893 158.39 143.951 157.385 145.382C156.624 146.418 156.137 147.666 155.101 148.366C154.188 148.96 153.046 149.036 152.057 149.424C149.834 150.353 148.54 152.69 148.92 155.065C149.179 156.42 149.986 157.737 149.682 159.084C149.271 160.926 146.949 162.007 146.88 163.895C146.835 165.166 147.878 166.178 148.882 166.993C149.887 167.807 151.014 168.622 151.288 169.87C151.349 170.708 151.349 171.553 151.288 172.39C151.501 174.247 153.084 175.648 154.957 175.625C155.916 175.579 156.989 175.168 157.758 175.747C158.04 176.036 158.291 176.348 158.519 176.683C159.41 177.665 161.031 177.635 162.211 177.018C163.338 176.302 164.342 175.419 165.18 174.384C166.032 173.341 167.212 172.626 168.521 172.337" fill="#263238"/>
<path d="M179.154 151.299L179.109 153.529L178.66 186.946C178.606 190.828 175.234 193.873 171.048 193.797C166.853 193.713 163.436 190.463 163.436 186.542C163.436 182.622 163.337 178.101 163.337 178.101C163.337 178.101 158.008 177.218 156.935 170.306C156.387 166.865 156.562 161.225 156.851 156.604C157.102 152.577 160.566 149.525 164.593 149.776C164.699 149.776 164.798 149.791 164.905 149.799L179.154 151.299Z" fill="#FFB29D"/>
<path d="M158.297 160.531C158.297 161.01 158.677 161.406 159.157 161.422C159.621 161.46 160.025 161.125 160.07 160.66C160.07 160.181 159.697 159.785 159.218 159.77C158.754 159.724 158.343 160.067 158.297 160.531Z" fill="#263238"/>
<path d="M158.108 159.534C158.214 159.649 158.869 159.154 159.843 159.154C160.817 159.154 161.495 159.641 161.601 159.519C161.708 159.397 161.541 159.26 161.236 159.04C160.825 158.75 160.33 158.598 159.828 158.606C159.333 158.606 158.846 158.758 158.442 159.047C158.153 159.276 158.054 159.481 158.108 159.534Z" fill="#263238"/>
<path d="M167.852 160.53C167.852 161.009 168.225 161.405 168.704 161.42C169.161 161.466 169.572 161.124 169.618 160.667C169.625 160.18 169.245 159.784 168.765 159.769C168.301 159.731 167.897 160.065 167.852 160.53Z" fill="#263238"/>
<path d="M167.479 159.714C167.593 159.828 168.24 159.333 169.214 159.333C170.188 159.333 170.874 159.813 170.973 159.698C171.071 159.584 170.912 159.432 170.607 159.211C170.196 158.922 169.701 158.777 169.199 158.777C168.704 158.777 168.217 158.93 167.821 159.226C167.524 159.447 167.425 159.66 167.479 159.714Z" fill="#263238"/>
<path d="M164.025 166.787C163.53 166.635 163.02 166.543 162.502 166.513C162.259 166.513 162.023 166.437 161.985 166.269C161.962 166.018 162.015 165.767 162.145 165.546C162.373 164.96 162.617 164.343 162.868 163.689C163.538 162.121 164.078 160.499 164.489 158.84C163.697 160.355 163.02 161.93 162.48 163.552C162.236 164.199 162.008 164.823 161.787 165.417C161.635 165.714 161.589 166.048 161.665 166.376C161.734 166.551 161.878 166.68 162.061 166.734C162.198 166.764 162.335 166.787 162.48 166.787C162.99 166.855 163.515 166.855 164.025 166.787Z" fill="#263238"/>
<path d="M163.367 178.083C166.625 178.129 169.83 177.276 172.623 175.609C172.623 175.609 170.378 180.359 163.489 179.712L163.367 178.083Z" fill="#E8947E"/>
<path d="M164.427 169.087C164.792 168.63 165.37 168.394 165.949 168.455C166.375 168.485 166.763 168.698 167.03 169.033C167.289 169.361 167.319 169.81 167.106 170.167C166.794 170.518 166.299 170.647 165.858 170.487C165.401 170.32 164.99 170.061 164.64 169.726C164.533 169.65 164.434 169.559 164.366 169.444C164.29 169.338 164.29 169.201 164.366 169.094" fill="#E8947E"/>
<path d="M166.834 167.449C166.682 167.449 166.682 168.477 165.791 169.215C164.901 169.954 163.805 169.832 163.797 169.977C163.789 170.121 164.041 170.182 164.505 170.19C165.114 170.197 165.7 169.992 166.172 169.611C166.621 169.246 166.918 168.713 166.979 168.134C167.025 167.716 166.903 167.442 166.834 167.449Z" fill="#263238"/>
<path d="M167.244 155.969C167.336 156.228 168.287 156.106 169.406 156.243C170.525 156.38 171.431 156.685 171.583 156.449C171.652 156.342 171.492 156.099 171.126 155.848C170.145 155.216 168.919 155.079 167.823 155.482C167.412 155.642 167.199 155.848 167.244 155.969Z" fill="#263238"/>
<path d="M158.459 156.77C158.627 156.991 159.281 156.77 160.073 156.77C160.865 156.77 161.535 156.915 161.687 156.686C161.755 156.58 161.649 156.359 161.359 156.154C160.964 155.902 160.507 155.781 160.043 155.803C159.578 155.803 159.129 155.963 158.756 156.237C158.474 156.443 158.383 156.671 158.459 156.77Z" fill="#263238"/>
<path d="M171.284 145.885C171.231 145.885 171.155 145.885 171.071 145.786L170.652 145.375L171.292 145.619C171.406 145.664 171.52 145.702 171.634 145.733C171.901 145.809 172.152 145.733 172.205 145.87C172.258 146.007 171.977 146.228 171.543 146.121C171.368 146.075 171.208 145.976 171.101 145.824L171.322 145.657C171.345 145.771 171.322 145.862 171.284 145.885Z" fill="#263238"/>
<path d="M171.211 146.675C169.947 148.121 169.498 150.108 170.016 151.957C170.609 153.83 172.071 155.307 173.936 155.931C174.392 156.083 174.933 156.243 175.108 156.692C175.192 157.08 175.123 157.491 174.918 157.826C174.035 160.216 174.872 162.904 176.958 164.365C176.471 166.953 177.331 169.61 179.241 171.421C179.241 170.226 180.132 169.206 181.114 168.46C182.164 167.813 183.146 167.067 184.052 166.23C185.361 164.746 185.613 162.607 184.684 160.863C184.334 160.399 184.105 159.843 184.037 159.265C184.037 158.58 184.661 158.062 185.133 157.545C187.257 155.147 187.158 151.508 184.905 149.232C184.38 148.722 183.763 148.304 183.276 147.756C182.72 147.01 182.218 146.233 181.753 145.426C179.972 143.044 176.988 141.894 174.073 142.458C171.203 143.044 169.429 145.837 170.038 148.989" fill="#263238"/>
<path d="M170.431 147.59C170.416 148.884 170.142 150.171 169.624 151.358C169.084 152.561 167.988 153.413 166.694 153.642C165.438 153.786 164.235 153.139 163.017 152.797C161.418 152.348 159.424 152.561 158.503 153.939C157.856 154.898 157.742 157.12 156.219 157.745C155.138 158.186 154.469 156.938 153.411 157.425C151.645 158.232 151.941 161.284 150.16 162.061C150.731 160.584 150.457 158.94 150.442 157.364C150.427 155.788 150.86 153.984 152.253 153.231C153.068 152.934 153.905 152.69 154.758 152.507C156.037 152.036 156.927 150.886 157.856 149.874C158.785 148.861 159.949 147.879 161.319 147.917C162.69 147.955 163.801 148.907 165.125 148.846C166.184 148.793 167.082 148.085 168.033 147.621C168.985 147.156 170.317 147.012 170.964 147.849" fill="#263238"/>
<path d="M184.455 149.383C184.455 149.383 184.265 149.238 183.899 149.078C183.382 148.865 182.811 148.804 182.255 148.896C181.425 149.071 180.619 149.345 179.857 149.718C178.86 150.167 177.779 150.372 176.691 150.319C175.602 150.258 174.544 149.931 173.608 149.375C172.847 148.911 172.192 148.302 171.682 147.579C171.332 147.099 171.058 146.574 170.867 146.011C170.784 145.813 170.73 145.6 170.73 145.379C171.05 146.094 171.446 146.772 171.903 147.411C172.428 148.074 173.067 148.629 173.791 149.056C174.681 149.573 175.686 149.87 176.714 149.923C178.944 150.121 180.664 148.713 182.225 148.622C182.826 148.546 183.435 148.66 183.968 148.941C184.341 149.154 184.47 149.368 184.455 149.383Z" fill="#455A64"/>
<path d="M147.739 163.151C148.173 163.212 148.606 163.242 149.048 163.25C150.243 163.212 151.392 162.77 152.306 161.994C152.922 161.461 153.394 160.783 153.676 160.022C153.981 159.131 154.14 158.195 154.171 157.251C154.232 156.247 154.216 155.173 154.369 154.062C154.483 152.882 154.932 151.763 155.663 150.834C156.051 150.362 156.546 149.989 157.109 149.746C157.665 149.525 158.258 149.441 158.852 149.51C159.994 149.632 160.991 150.05 161.973 150.149C163.739 150.362 165.52 149.959 167.012 149C168.01 148.338 168.854 147.47 169.471 146.442C169.905 145.681 170.057 145.255 170.088 145.27C170.08 145.384 170.05 145.498 170.004 145.605C169.89 145.917 169.76 146.221 169.6 146.518C169.022 147.607 168.185 148.535 167.165 149.228C165.627 150.263 163.77 150.72 161.928 150.515C160.892 150.408 159.88 150.005 158.822 149.898C158.289 149.837 157.756 149.906 157.261 150.104C156.759 150.324 156.317 150.659 155.967 151.086C155.282 151.961 154.864 153.019 154.757 154.13C154.605 155.204 154.612 156.269 154.536 157.289C154.498 158.264 154.308 159.23 153.981 160.151C153.661 160.966 153.136 161.682 152.458 162.222C151.491 163.014 150.273 163.44 149.025 163.417C148.69 163.417 148.363 163.371 148.043 163.288C147.845 163.204 147.731 163.151 147.739 163.151Z" fill="#455A64"/>
<path d="M156.221 163.637C156.214 164.002 156.107 164.36 155.924 164.672C155.179 166.278 153.839 167.542 152.187 168.181C151.555 168.409 151.144 168.455 151.129 168.402C152.21 167.907 153.222 167.268 154.128 166.499C154.95 165.639 155.65 164.68 156.221 163.637Z" fill="#455A64"/>
<path d="M197.47 163.027C197.447 162.547 197.364 162.075 197.219 161.619C197.036 161.093 196.747 160.606 196.374 160.195C195.887 159.647 195.263 159.244 194.57 159.015C193.695 158.825 192.796 158.825 191.921 159.015C191.403 159.099 190.878 159.122 190.36 159.084C189.79 159.031 189.241 158.817 188.785 158.467C187.856 157.706 187.369 156.61 186.676 155.674C186.029 154.661 184.88 154.075 183.677 154.151C182.452 154.258 181.241 154.471 180.054 154.791C176.834 155.369 173.576 153.961 171.787 151.221C171.056 150.079 170.63 148.77 170.546 147.415C170.516 147.049 170.516 146.691 170.546 146.326C170.546 146.197 170.577 146.075 170.615 145.953C170.615 145.953 170.615 146.478 170.683 147.399C170.836 148.701 171.285 149.942 172.008 151.03C173.766 153.618 176.887 154.928 179.962 154.364C181.173 154.03 182.406 153.816 183.654 153.71C184.994 153.641 186.258 154.304 186.965 155.438C187.681 156.427 188.161 157.508 188.99 158.17C189.835 158.726 190.87 158.916 191.86 158.68C192.781 158.505 193.725 158.528 194.631 158.749C195.932 159.206 196.945 160.256 197.348 161.573C197.455 161.923 197.501 162.289 197.501 162.654C197.501 162.776 197.501 162.905 197.47 163.027Z" fill="#455A64"/>
<path d="M192.4 167.951C192.225 168.233 191.928 168.415 191.593 168.438C191.213 168.484 190.825 168.423 190.474 168.255C190.025 168.012 189.66 167.646 189.416 167.197C189.135 166.672 188.899 166.132 188.708 165.568C188.51 164.952 188.191 164.381 187.757 163.901C187.216 163.445 186.547 163.178 185.839 163.14C185.077 163.064 184.278 163.041 183.464 162.995C181.911 162.98 180.366 162.714 178.896 162.196C177.671 161.762 176.62 160.925 175.928 159.821C175.471 159.075 175.258 158.208 175.319 157.332C175.342 157.096 175.387 156.868 175.463 156.647C175.524 156.495 175.562 156.419 175.57 156.426C175.578 156.434 175.486 156.754 175.479 157.34C175.479 158.169 175.707 158.984 176.164 159.677C176.856 160.697 177.861 161.458 179.026 161.854C180.465 162.341 181.979 162.6 183.502 162.615C184.316 162.661 185.115 162.683 185.9 162.767C186.684 162.813 187.437 163.125 188.023 163.65C188.488 164.16 188.83 164.769 189.02 165.431C189.188 165.979 189.401 166.52 189.66 167.038C189.865 167.449 190.185 167.799 190.581 168.035C190.885 168.202 191.228 168.278 191.578 168.263C191.875 168.233 192.157 168.126 192.4 167.951Z" fill="#455A64"/>
<path d="M121.753 206.801L118.662 202.995C116.79 200.155 119.035 198.671 119.264 198.047C119.553 197.072 120.056 196.167 120.733 195.405L120.04 194.233C119.173 193.03 118.396 191.775 117.703 190.465C117.437 189.704 118.746 189.118 119.226 189.757C120.322 191.219 122.21 193.678 123.032 194.53C124.113 195.657 126.731 198.686 127.119 195.999C127.508 193.312 126.861 192.087 126.807 191.318C126.754 190.549 128.277 189.742 128.566 191.318C128.68 191.995 129.045 193.122 129.258 194.766C129.35 195.527 129.312 196.464 129.388 197.194C129.487 198.054 130.545 200.962 130.651 201.571L121.753 206.801Z" fill="#FFB29D"/>
<path d="M149.813 191.383L139.612 216.868L131.285 200.19L120.742 206.478L131.026 227.502C132.724 230.897 136.263 232.975 140.054 232.785C142.886 232.61 145.459 231.087 146.973 228.682C150.726 222.706 156.595 208.373 156.595 208.373C156.603 209.104 149.813 191.383 149.813 191.383Z" fill="#455A64"/>
<path d="M187.028 211.865L192.173 189.615C186.845 184.485 178.692 184.059 178.692 184.059L176.036 185.84C172.763 188.032 168.462 187.91 165.318 185.535L163.362 184.059C157.059 184.82 152.477 186.936 149.812 191.404L152.598 213.571L155.841 224.227L149.508 247.36L191.884 249.164L184.097 222.241C183.762 222.819 187.028 211.881 187.028 211.881" fill="#455A64"/>
<path d="M187.977 215.846C187.909 215.48 187.825 215.123 187.711 214.772C187.528 214.087 187.269 213.09 187.026 211.842C186.371 208.584 186.112 205.265 186.264 201.946C186.325 200.127 186.584 198.323 187.026 196.557C187.383 195.126 188.038 193.778 188.951 192.621C189.583 191.837 190.352 191.19 191.235 190.711C191.859 190.383 192.247 190.277 192.232 190.246C192.217 190.216 192.133 190.246 191.951 190.307C191.692 190.383 191.433 190.475 191.189 190.596C190.276 191.053 189.461 191.693 188.807 192.477C187.84 193.649 187.147 195.011 186.767 196.481C186.318 198.262 186.059 200.089 186.006 201.931C185.838 205.265 186.104 208.599 186.805 211.865C187.086 213.113 187.376 214.102 187.566 214.788C187.673 215.123 187.771 215.381 187.832 215.549C187.893 215.716 187.962 215.853 187.977 215.846Z" fill="#263238"/>
<path d="M170.737 245.359C168.438 246.935 166.056 248.381 163.597 249.69C160.468 251.175 160.324 250.901 160.202 250.512C159.875 249.462 165.599 247.688 164.13 247.361C162.661 247.034 157.401 250.337 157.104 249.226C156.723 247.78 162.752 246.029 163.247 245.846C163.742 245.663 163.483 244.94 163.041 245.131C162.409 245.405 155.68 248.13 155.292 246.706C155.071 245.945 156.541 245.701 156.541 245.701C156.541 245.701 163.034 243.608 162.82 242.946C162.607 242.284 158.756 243.372 157.492 243.829C156.228 244.286 155.49 243.882 155.741 243.159C155.909 242.672 159.768 241.165 161.032 240.738C162.295 240.312 165.804 239.216 163.597 238.356C161.389 237.496 160.004 236.072 159.897 235.41C159.791 234.748 160.659 234.405 161.191 234.923C161.808 235.425 162.486 235.851 163.216 236.171C163.795 236.453 164.411 236.636 165.051 236.712C165.599 236.78 166.094 236.818 166.528 236.849L171.217 237.206L173.584 243.41L170.737 245.359Z" fill="#FFB29D"/>
<path d="M191.266 188.743C193.931 190.874 195.864 193.775 196.816 197.048C197.858 200.458 200.842 211.983 203.042 220.569C204.473 226.171 201.33 231.919 195.841 233.738L171.018 247.15L166.969 236.661L188.739 222.35L183.479 202.856C182.612 199.895 182.239 196.88 183.327 193.988C184.416 191.095 186.692 188.195 191.266 188.743Z" fill="#455A64"/>
<path d="M197.293 233.126L197.179 233.21L196.814 233.415L195.406 234.176L190.077 237.092L171.131 247.277L170.956 247.376L170.88 247.185C169.624 243.935 168.246 240.403 166.815 236.704L166.754 236.559L166.891 236.475L176.65 230.051L188.661 222.165L188.585 222.37C187.154 217.004 186.089 211.949 185.076 207.428C184.825 206.294 184.589 205.19 184.315 204.132C184.064 203.104 183.873 202.061 183.744 201.011C183.569 199.131 183.729 197.228 184.216 195.401C184.619 193.901 185.434 192.546 186.576 191.488C187.443 190.719 188.517 190.217 189.666 190.034C190.374 189.92 191.105 189.966 191.798 190.164C192.034 190.232 192.27 190.323 192.483 190.445C192.483 190.445 192.247 190.346 191.782 190.224C191.097 190.065 190.382 190.042 189.681 190.164C188.57 190.361 187.542 190.864 186.705 191.625C185.601 192.668 184.81 194 184.421 195.469C183.957 197.266 183.813 199.131 184.003 200.98C184.14 202.016 184.338 203.051 184.597 204.063C184.833 205.129 185.076 206.225 185.358 207.352C186.385 211.866 187.482 216.928 188.913 222.271L188.951 222.408L188.836 222.484L176.832 230.378L167.058 236.795L167.135 236.567C168.558 240.266 169.921 243.806 171.177 247.056L170.925 246.965L189.955 236.902L195.352 234.077L196.791 233.316L197.164 233.134H197.293V233.126Z" fill="#263238"/>
<path d="M156.603 196.758C156.664 197.093 156.679 197.428 156.649 197.763C156.603 198.684 156.451 199.589 156.192 200.472C155.804 201.767 155.347 203.038 154.829 204.279C154.175 205.786 153.665 207.346 153.307 208.952C153.025 210.558 153.025 212.21 153.307 213.816C153.528 215.141 153.84 216.45 154.243 217.729C154.586 218.825 154.89 219.708 155.096 220.317C155.218 220.629 155.317 220.957 155.377 221.284C155.202 221.002 155.058 220.698 154.951 220.378C154.7 219.777 154.357 218.909 153.977 217.82C153.528 216.534 153.185 215.217 152.949 213.877C152.652 212.226 152.652 210.528 152.949 208.876C153.299 207.247 153.809 205.664 154.472 204.141C155.058 202.733 155.575 201.462 155.91 200.335C156.26 199.171 156.496 197.968 156.603 196.758Z" fill="#263238"/>
<path d="M189.172 222.114C189.172 222.068 189.423 221.962 189.88 221.969C191.09 222.007 192.186 222.708 192.734 223.788C192.932 224.199 192.947 224.481 192.902 224.496C192.491 223.857 191.981 223.286 191.379 222.822C190.694 222.456 189.941 222.213 189.172 222.114Z" fill="#263238"/>
<path d="M119.426 198.977C119.73 199.342 120.019 199.723 120.278 200.118C120.59 200.514 120.933 200.887 121.306 201.237C121.557 201.45 121.77 201.709 121.93 201.999C122.136 202.364 122.082 202.828 121.793 203.133C121.489 203.384 121.07 203.468 120.689 203.346C120.37 203.262 120.065 203.125 119.799 202.927C119.365 202.615 118.992 202.219 118.71 201.763C118.421 201.374 118.208 200.933 118.086 200.461C118.398 200.819 118.687 201.199 118.938 201.603C119.235 201.999 119.593 202.349 120.004 202.63C120.24 202.783 120.491 202.897 120.765 202.965C121.024 203.049 121.306 203.011 121.527 202.851C121.694 202.661 121.717 202.387 121.587 202.166C121.45 201.922 121.268 201.702 121.055 201.511C120.682 201.131 120.354 200.727 120.057 200.286C119.761 199.898 119.54 199.449 119.426 198.977Z" fill="#E8947E"/>
<path d="M120.788 196.77C121.276 197.188 121.717 197.653 122.105 198.163L123.437 199.731C123.681 200.035 123.947 200.317 124.199 200.697C124.336 200.903 124.419 201.139 124.442 201.39C124.45 201.672 124.358 201.938 124.176 202.151C123.848 202.547 123.323 202.722 122.821 202.616C122.387 202.532 121.991 202.319 121.671 202.007C121.192 201.504 120.758 200.964 120.355 200.4C119.936 199.921 119.578 199.396 119.281 198.832C119.753 199.251 120.187 199.723 120.575 200.225C120.994 200.758 121.443 201.261 121.915 201.748C122.189 201.999 122.524 202.166 122.882 202.243C123.247 202.326 123.628 202.197 123.871 201.908C124.107 201.626 124.107 201.215 123.871 200.933C123.658 200.614 123.377 200.294 123.148 199.989L121.885 198.368C121.466 197.873 121.093 197.34 120.788 196.77Z" fill="#E8947E"/>
<path d="M139.534 221.576C139.291 219.978 139.321 218.357 139.618 216.766C139.846 218.364 139.823 219.986 139.534 221.576Z" fill="#263238"/>
<path d="M165.819 280.207C159.905 280.024 162.691 271.346 162.836 261.938C162.927 256.016 166.862 250.215 171.148 246.135C173.325 244.209 175.898 242.778 178.676 241.933C185.976 239.444 193.9 239.178 201.512 240.464C201.512 240.434 203.286 281.394 165.819 280.207Z" fill="#FF725E"/>
<path d="M118.173 66.6101C118.219 67.6377 117.998 68.6577 117.518 69.5712C117.313 69.9899 117.206 70.4542 117.191 70.9185L117.191 72.1212L132.415 72.1212C133.679 72.1212 134.699 71.1012 134.699 69.8376L134.699 54.9332L135.704 54.9332C136.168 54.9332 136.625 55.0474 137.043 55.2605C138.2 55.8238 139.502 56.0065 140.773 55.7858C143.453 55.2605 145.485 53.0759 145.828 50.3736C146.794 43.8501 143.338 43.4771 139.738 43.4771C138.885 43.4771 138.04 43.6598 137.256 44.0023C136.868 44.1774 136.442 44.2764 136.016 44.2764L134.729 44.2764L134.729 29.7602C134.729 28.4966 133.709 27.4766 132.446 27.4766L92.3073 27.4766C91.2797 27.4766 90.4423 28.3215 90.45 29.3491L90.45 70.2639C90.45 71.2915 91.2797 72.1288 92.3073 72.1365L106.77 72.1365L106.77 70.477C106.77 70.0964 106.694 69.7158 106.557 69.3581C106.26 68.6349 106.108 67.8585 106.108 67.0744C106.07 63.6719 108.803 60.8782 112.205 60.8402C112.327 60.8402 112.456 60.8402 112.578 60.8402C115.646 61.0381 118.066 63.5272 118.173 66.6025L118.173 66.6101Z" fill="#FF725E"/>
<g opacity="0.3">
<path d="M118.173 66.614C118.219 67.6416 117.998 68.6617 117.518 69.5751C117.313 69.9938 117.206 70.4581 117.191 70.9224L117.191 72.1251L132.415 72.1251C133.679 72.1251 134.699 71.1051 134.699 69.8415L134.699 54.9371L135.704 54.9371C136.168 54.9371 136.625 55.0513 137.043 55.2645C138.2 55.8277 139.502 56.0104 140.773 55.7897C143.491 55.2492 145.546 53.0037 145.85 50.2481C146.657 42.9329 143.338 43.481 139.708 43.481C138.855 43.481 138.01 43.6637 137.226 44.0062C136.838 44.1813 136.412 44.2803 135.985 44.2803L134.699 44.2803L134.699 29.7641C134.699 28.5005 133.679 27.4805 132.415 27.4805L92.2769 27.4805C91.2492 27.4805 90.4119 28.3254 90.4195 29.353L90.4195 70.2678C90.4195 71.2954 91.2492 72.1328 92.2769 72.1404L106.74 72.1404L106.74 70.4809C106.74 70.1003 106.664 69.7197 106.527 69.362C106.23 68.6388 106.078 67.8624 106.078 67.0783C106.039 63.6758 108.765 60.8821 112.175 60.8441C112.312 60.8441 112.449 60.8441 112.578 60.8517C115.646 61.0496 118.066 63.5387 118.173 66.614Z" fill="black"/>
</g>
<path d="M118.173 64.0398C118.219 65.0674 117.998 66.0874 117.518 67.0009C117.313 67.4196 117.206 67.8839 117.191 68.3482L117.191 69.5433L132.415 69.5433C133.679 69.5433 134.699 68.5233 134.699 67.2597L134.699 52.3629L135.704 52.3629C136.168 52.3629 136.625 52.4771 137.043 52.6826C138.2 53.2535 139.502 53.4362 140.773 53.2078C144.138 52.576 146.36 49.3333 145.729 45.9688C145.181 43.061 142.661 40.9448 139.707 40.9068C138.855 40.9068 138.01 41.0819 137.226 41.432C136.838 41.6071 136.411 41.706 135.985 41.706L134.699 41.706L134.699 27.1899C134.699 25.9263 133.679 24.9062 132.415 24.9062L92.2768 24.9062C91.2492 24.9062 90.4118 25.7512 90.4195 26.7788L90.4195 67.7012C90.4195 68.7288 91.2492 69.5585 92.2768 69.5661L106.74 69.5661L106.74 67.9143C106.74 67.5337 106.664 67.1531 106.527 66.7954C105.233 63.6287 106.747 60.0206 109.906 58.7266C110.751 58.384 111.665 58.2242 112.578 58.2699C115.646 58.4678 118.066 60.9645 118.173 64.0398Z" fill="#FF725E"/>
<path d="M106.718 73.8672L92.1944 73.8672C90.9308 73.8672 89.9108 74.8872 89.9108 76.1508L89.9108 116.533C89.9108 117.56 90.7481 118.398 91.7758 118.405L132.683 118.405C133.718 118.405 134.555 117.568 134.555 116.533L134.555 101.956L132.896 101.956C132.515 101.956 132.135 102.032 131.785 102.176C131.062 102.473 130.285 102.626 129.501 102.626C126.076 102.626 123.305 99.8547 123.305 96.4293C123.305 93.0039 126.076 90.2331 129.501 90.2331C130.407 90.2331 131.298 90.431 132.12 90.8116C132.523 91.0095 132.972 91.1085 133.421 91.1161L134.586 91.1161L134.586 76.1584C134.586 74.8948 133.566 73.8748 132.302 73.8748L106.726 73.8748L106.718 73.8672Z" fill="#263238"/>
<path d="M129.036 85.8584C130.086 85.7823 131.129 85.9802 132.081 86.4293C132.484 86.6196 132.933 86.7262 133.382 86.7262L134.547 86.7262L134.547 71.7837C134.547 70.5201 133.527 69.5001 132.263 69.5001L117.374 69.5001L117.374 68.4649C117.374 67.9929 117.488 67.5286 117.694 67.1099C119.171 64.0271 117.869 60.32 114.786 58.8432C111.703 57.3665 107.996 58.6682 106.52 61.751C105.735 63.38 105.705 65.2754 106.436 66.9272C106.618 67.3155 106.71 67.7417 106.717 68.1756L106.717 69.4697L92.1936 69.4697C90.93 69.4697 89.91 70.4897 89.91 71.7533L89.91 112.135C89.91 113.163 90.7473 114 91.775 114L132.682 114C133.71 114 134.547 113.17 134.555 112.143C134.555 112.143 134.555 112.143 134.555 112.135L134.555 97.5734L132.895 97.5734C132.515 97.5734 132.134 97.6495 131.784 97.7865C128.625 99.0729 125.017 97.5505 123.73 94.3915C123.395 93.5694 123.243 92.6788 123.281 91.7882C123.426 88.6444 125.9 86.102 129.036 85.8584Z" fill="#455A64"/>
</svg>
